%TF.GenerationSoftware,KiCad,Pcbnew,10.0.5*%
%TF.CreationDate,2026-08-09T15:51:06-05:00*%
%TF.ProjectId,student_14_5,73747564-656e-4745-9f31-345f352e6b69,0.6.0-cont-ix*%
%TF.SameCoordinates,Original*%
%TF.FileFunction,Copper,L1,Top*%
%TF.FilePolarity,Positive*%
%FSLAX46Y46*%
G04 Gerber Fmt 4.6, Leading zero omitted, Abs format (unit mm)*
G04 Created by KiCad (PCBNEW 10.0.5) date 2026-08-09 15:51:06*
%MOMM*%
%LPD*%
G01*
G04 APERTURE LIST*
%TA.AperFunction,SMDPad,CuDef*%
%ADD10C,1.000000*%
%TD*%
%TA.AperFunction,SMDPad,CuDef*%
%ADD11R,1.600000X1.600000*%
%TD*%
%TA.AperFunction,SMDPad,CuDef*%
%ADD12C,1.500000*%
%TD*%
%TA.AperFunction,Conductor*%
%ADD13C,0.500000*%
%TD*%
%TA.AperFunction,Conductor*%
%ADD14C,0.250000*%
%TD*%
G04 APERTURE END LIST*
D10*
%TO.P,FID1,1*%
%TO.N,N/C*%
X150000000Y-12000000D03*
%TD*%
%TO.P,FID2,1*%
%TO.N,N/C*%
X27000000Y-100000000D03*
%TD*%
%TO.P,FID3,1*%
%TO.N,N/C*%
X273000000Y-100000000D03*
%TD*%
D11*
%TO.P,JUSB1,1*%
%TO.N,N/C*%
X42000000Y-44000000D03*
%TD*%
%TO.P,UPD1,1*%
%TO.N,N/C*%
X66000000Y-44000000D03*
%TD*%
%TO.P,UCHG1,1*%
%TO.N,N/C*%
X90000000Y-44000000D03*
%TD*%
%TO.P,U3V3,1*%
%TO.N,N/C*%
X114000000Y-44000000D03*
%TD*%
%TO.P,C1,1*%
%TO.N,N/C*%
X138000000Y-44000000D03*
%TD*%
%TO.P,C2,1*%
%TO.N,N/C*%
X162000000Y-44000000D03*
%TD*%
%TO.P,R1,1*%
%TO.N,N/C*%
X186000000Y-44000000D03*
%TD*%
%TO.P,R2,1*%
%TO.N,N/C*%
X210000000Y-44000000D03*
%TD*%
%TO.P,D1,1*%
%TO.N,N/C*%
X234000000Y-44000000D03*
%TD*%
%TO.P,DESD1,1*%
%TO.N,N/C*%
X42000000Y-68000000D03*
%TD*%
%TO.P,UCOM1,1*%
%TO.N,N/C*%
X66000000Y-68000000D03*
%TD*%
%TO.P,UTPM1,1*%
%TO.N,N/C*%
X90000000Y-68000000D03*
%TD*%
%TO.P,JDISP1,1*%
%TO.N,N/C*%
X114000000Y-68000000D03*
%TD*%
%TO.P,JNVME1,1*%
%TO.N,N/C*%
X138000000Y-68000000D03*
%TD*%
%TO.P,JWWAN1,1*%
%TO.N,N/C*%
X162000000Y-68000000D03*
%TD*%
%TO.P,JSIM1,1*%
%TO.N,N/C*%
X186000000Y-68000000D03*
%TD*%
%TO.P,JWIFI1,1*%
%TO.N,N/C*%
X210000000Y-68000000D03*
%TD*%
%TO.P,JETH1,1*%
%TO.N,N/C*%
X234000000Y-68000000D03*
%TD*%
%TO.P,JAUD1,1*%
%TO.N,N/C*%
X42000000Y-92000000D03*
%TD*%
%TO.P,JCAM1,1*%
%TO.N,N/C*%
X66000000Y-92000000D03*
%TD*%
%TO.P,JKEY1,1*%
%TO.N,N/C*%
X90000000Y-92000000D03*
%TD*%
%TO.P,JTRK1,1*%
%TO.N,N/C*%
X114000000Y-92000000D03*
%TD*%
%TO.P,JEC1,1*%
%TO.N,N/C*%
X138000000Y-92000000D03*
%TD*%
%TO.P,JBAT1,1*%
%TO.N,N/C*%
X162000000Y-92000000D03*
%TD*%
%TO.P,JSEC1,1*%
%TO.N,N/C*%
X186000000Y-92000000D03*
%TD*%
%TO.P,JDBG1,1*%
%TO.N,N/C*%
X210000000Y-92000000D03*
%TD*%
D12*
%TO.P,TP1,1*%
%TO.N,N/C*%
X42000000Y-176000000D03*
%TD*%
%TO.P,TP2,1*%
%TO.N,N/C*%
X60000000Y-176000000D03*
%TD*%
%TO.P,TP3,1*%
%TO.N,N/C*%
X78000000Y-176000000D03*
%TD*%
%TO.P,TP4,1*%
%TO.N,N/C*%
X96000000Y-176000000D03*
%TD*%
%TO.P,TP5,1*%
%TO.N,N/C*%
X114000000Y-176000000D03*
%TD*%
%TO.P,TP6,1*%
%TO.N,N/C*%
X132000000Y-176000000D03*
%TD*%
%TO.N,*%
D13*
X37000000Y-18000000D02*
X99000000Y-18000000D01*
X99000000Y-18000000D02*
X198000000Y-18000000D01*
X198000000Y-18000000D02*
X263000000Y-18000000D01*
D14*
X37000000Y-26000000D02*
X99000000Y-26000000D01*
X99000000Y-26000000D02*
X198000000Y-26000000D01*
X198000000Y-26000000D02*
X263000000Y-26000000D01*
X37000000Y-30000000D02*
X99000000Y-30000000D01*
X99000000Y-30000000D02*
X198000000Y-30000000D01*
X198000000Y-30000000D02*
X263000000Y-30000000D01*
X37000000Y-34000000D02*
X99000000Y-34000000D01*
X99000000Y-34000000D02*
X198000000Y-34000000D01*
X198000000Y-34000000D02*
X263000000Y-34000000D01*
%TD*%
M02*
