%TF.GenerationSoftware,KiCad,Pcbnew,10.0.5*%
%TF.CreationDate,2026-08-09T15:51:09-05:00*%
%TF.ProjectId,ds_xl_coder,64735f78-6c5f-4636-9f64-65722e6b6963,0.6.0-cont-ix*%
%TF.SameCoordinates,Original*%
%TF.FileFunction,Other,Comment*%
%FSLAX46Y46*%
G04 Gerber Fmt 4.6, Leading zero omitted, Abs format (unit mm)*
G04 Created by KiCad (PCBNEW 10.0.5) date 2026-08-09 15:51:09*
%MOMM*%
%LPD*%
G01*
G04 APERTURE LIST*
%ADD10C,0.100000*%
G04 APERTURE END LIST*
D10*
X-23642863Y-211505038D02*
X-23738101Y-211457419D01*
X-23738101Y-211457419D02*
X-23880958Y-211457419D01*
X-23880958Y-211457419D02*
X-24023815Y-211505038D01*
X-24023815Y-211505038D02*
X-24119053Y-211600276D01*
X-24119053Y-211600276D02*
X-24166672Y-211695514D01*
X-24166672Y-211695514D02*
X-24214291Y-211885990D01*
X-24214291Y-211885990D02*
X-24214291Y-212028847D01*
X-24214291Y-212028847D02*
X-24166672Y-212219323D01*
X-24166672Y-212219323D02*
X-24119053Y-212314561D01*
X-24119053Y-212314561D02*
X-24023815Y-212409800D01*
X-24023815Y-212409800D02*
X-23880958Y-212457419D01*
X-23880958Y-212457419D02*
X-23785720Y-212457419D01*
X-23785720Y-212457419D02*
X-23642863Y-212409800D01*
X-23642863Y-212409800D02*
X-23595244Y-212362180D01*
X-23595244Y-212362180D02*
X-23595244Y-212028847D01*
X-23595244Y-212028847D02*
X-23785720Y-212028847D01*
X-23166672Y-212457419D02*
X-23166672Y-211457419D01*
X-23166672Y-211457419D02*
X-22595244Y-212457419D01*
X-22595244Y-212457419D02*
X-22595244Y-211457419D01*
X-22119053Y-212457419D02*
X-22119053Y-211457419D01*
X-22119053Y-211457419D02*
X-21880958Y-211457419D01*
X-21880958Y-211457419D02*
X-21738101Y-211505038D01*
X-21738101Y-211505038D02*
X-21642863Y-211600276D01*
X-21642863Y-211600276D02*
X-21595244Y-211695514D01*
X-21595244Y-211695514D02*
X-21547625Y-211885990D01*
X-21547625Y-211885990D02*
X-21547625Y-212028847D01*
X-21547625Y-212028847D02*
X-21595244Y-212219323D01*
X-21595244Y-212219323D02*
X-21642863Y-212314561D01*
X-21642863Y-212314561D02*
X-21738101Y-212409800D01*
X-21738101Y-212409800D02*
X-21880958Y-212457419D01*
X-21880958Y-212457419D02*
X-22119053Y-212457419D01*
X-20357148Y-211790752D02*
X-20357148Y-212790752D01*
X-20357148Y-211838371D02*
X-20261910Y-211790752D01*
X-20261910Y-211790752D02*
X-20071434Y-211790752D01*
X-20071434Y-211790752D02*
X-19976196Y-211838371D01*
X-19976196Y-211838371D02*
X-19928577Y-211885990D01*
X-19928577Y-211885990D02*
X-19880958Y-211981228D01*
X-19880958Y-211981228D02*
X-19880958Y-212266942D01*
X-19880958Y-212266942D02*
X-19928577Y-212362180D01*
X-19928577Y-212362180D02*
X-19976196Y-212409800D01*
X-19976196Y-212409800D02*
X-20071434Y-212457419D01*
X-20071434Y-212457419D02*
X-20261910Y-212457419D01*
X-20261910Y-212457419D02*
X-20357148Y-212409800D01*
X-19309529Y-212457419D02*
X-19404767Y-212409800D01*
X-19404767Y-212409800D02*
X-19452386Y-212362180D01*
X-19452386Y-212362180D02*
X-19500005Y-212266942D01*
X-19500005Y-212266942D02*
X-19500005Y-211981228D01*
X-19500005Y-211981228D02*
X-19452386Y-211885990D01*
X-19452386Y-211885990D02*
X-19404767Y-211838371D01*
X-19404767Y-211838371D02*
X-19309529Y-211790752D01*
X-19309529Y-211790752D02*
X-19166672Y-211790752D01*
X-19166672Y-211790752D02*
X-19071434Y-211838371D01*
X-19071434Y-211838371D02*
X-19023815Y-211885990D01*
X-19023815Y-211885990D02*
X-18976196Y-211981228D01*
X-18976196Y-211981228D02*
X-18976196Y-212266942D01*
X-18976196Y-212266942D02*
X-19023815Y-212362180D01*
X-19023815Y-212362180D02*
X-19071434Y-212409800D01*
X-19071434Y-212409800D02*
X-19166672Y-212457419D01*
X-19166672Y-212457419D02*
X-19309529Y-212457419D01*
X-18119053Y-211790752D02*
X-18119053Y-212457419D01*
X-18547624Y-211790752D02*
X-18547624Y-212314561D01*
X-18547624Y-212314561D02*
X-18500005Y-212409800D01*
X-18500005Y-212409800D02*
X-18404767Y-212457419D01*
X-18404767Y-212457419D02*
X-18261910Y-212457419D01*
X-18261910Y-212457419D02*
X-18166672Y-212409800D01*
X-18166672Y-212409800D02*
X-18119053Y-212362180D01*
X-17642862Y-212457419D02*
X-17642862Y-211790752D01*
X-17642862Y-211981228D02*
X-17595243Y-211885990D01*
X-17595243Y-211885990D02*
X-17547624Y-211838371D01*
X-17547624Y-211838371D02*
X-17452386Y-211790752D01*
X-17452386Y-211790752D02*
X-17357148Y-211790752D01*
X-16261909Y-212457419D02*
X-16261909Y-211790752D01*
X-16261909Y-211457419D02*
X-16309528Y-211505038D01*
X-16309528Y-211505038D02*
X-16261909Y-211552657D01*
X-16261909Y-211552657D02*
X-16214290Y-211505038D01*
X-16214290Y-211505038D02*
X-16261909Y-211457419D01*
X-16261909Y-211457419D02*
X-16261909Y-211552657D01*
X-15785719Y-211790752D02*
X-15785719Y-212457419D01*
X-15785719Y-211885990D02*
X-15738100Y-211838371D01*
X-15738100Y-211838371D02*
X-15642862Y-211790752D01*
X-15642862Y-211790752D02*
X-15500005Y-211790752D01*
X-15500005Y-211790752D02*
X-15404767Y-211838371D01*
X-15404767Y-211838371D02*
X-15357148Y-211933609D01*
X-15357148Y-211933609D02*
X-15357148Y-212457419D01*
X-15023814Y-211790752D02*
X-14642862Y-211790752D01*
X-14880957Y-211457419D02*
X-14880957Y-212314561D01*
X-14880957Y-212314561D02*
X-14833338Y-212409800D01*
X-14833338Y-212409800D02*
X-14738100Y-212457419D01*
X-14738100Y-212457419D02*
X-14642862Y-212457419D01*
X-13928576Y-212409800D02*
X-14023814Y-212457419D01*
X-14023814Y-212457419D02*
X-14214290Y-212457419D01*
X-14214290Y-212457419D02*
X-14309528Y-212409800D01*
X-14309528Y-212409800D02*
X-14357147Y-212314561D01*
X-14357147Y-212314561D02*
X-14357147Y-211933609D01*
X-14357147Y-211933609D02*
X-14309528Y-211838371D01*
X-14309528Y-211838371D02*
X-14214290Y-211790752D01*
X-14214290Y-211790752D02*
X-14023814Y-211790752D01*
X-14023814Y-211790752D02*
X-13928576Y-211838371D01*
X-13928576Y-211838371D02*
X-13880957Y-211933609D01*
X-13880957Y-211933609D02*
X-13880957Y-212028847D01*
X-13880957Y-212028847D02*
X-14357147Y-212124085D01*
X-13452385Y-211790752D02*
X-13452385Y-212457419D01*
X-13452385Y-211885990D02*
X-13404766Y-211838371D01*
X-13404766Y-211838371D02*
X-13309528Y-211790752D01*
X-13309528Y-211790752D02*
X-13166671Y-211790752D01*
X-13166671Y-211790752D02*
X-13071433Y-211838371D01*
X-13071433Y-211838371D02*
X-13023814Y-211933609D01*
X-13023814Y-211933609D02*
X-13023814Y-212457419D01*
X-12690480Y-211790752D02*
X-12309528Y-211790752D01*
X-12547623Y-211457419D02*
X-12547623Y-212314561D01*
X-12547623Y-212314561D02*
X-12500004Y-212409800D01*
X-12500004Y-212409800D02*
X-12404766Y-212457419D01*
X-12404766Y-212457419D02*
X-12309528Y-212457419D01*
X-10880956Y-211933609D02*
X-11214289Y-211933609D01*
X-11214289Y-212457419D02*
X-11214289Y-211457419D01*
X-11214289Y-211457419D02*
X-10738099Y-211457419D01*
X-9642861Y-211409800D02*
X-10500003Y-212695514D01*
X-8976194Y-211933609D02*
X-8833337Y-211981228D01*
X-8833337Y-211981228D02*
X-8785718Y-212028847D01*
X-8785718Y-212028847D02*
X-8738099Y-212124085D01*
X-8738099Y-212124085D02*
X-8738099Y-212266942D01*
X-8738099Y-212266942D02*
X-8785718Y-212362180D01*
X-8785718Y-212362180D02*
X-8833337Y-212409800D01*
X-8833337Y-212409800D02*
X-8928575Y-212457419D01*
X-8928575Y-212457419D02*
X-9309527Y-212457419D01*
X-9309527Y-212457419D02*
X-9309527Y-211457419D01*
X-9309527Y-211457419D02*
X-8976194Y-211457419D01*
X-8976194Y-211457419D02*
X-8880956Y-211505038D01*
X-8880956Y-211505038D02*
X-8833337Y-211552657D01*
X-8833337Y-211552657D02*
X-8785718Y-211647895D01*
X-8785718Y-211647895D02*
X-8785718Y-211743133D01*
X-8785718Y-211743133D02*
X-8833337Y-211838371D01*
X-8833337Y-211838371D02*
X-8880956Y-211885990D01*
X-8880956Y-211885990D02*
X-8976194Y-211933609D01*
X-8976194Y-211933609D02*
X-9309527Y-211933609D01*
X-7642860Y-212124085D02*
X-6785718Y-212124085D01*
X-5071432Y-212362180D02*
X-5119051Y-212409800D01*
X-5119051Y-212409800D02*
X-5261908Y-212457419D01*
X-5261908Y-212457419D02*
X-5357146Y-212457419D01*
X-5357146Y-212457419D02*
X-5500003Y-212409800D01*
X-5500003Y-212409800D02*
X-5595241Y-212314561D01*
X-5595241Y-212314561D02*
X-5642860Y-212219323D01*
X-5642860Y-212219323D02*
X-5690479Y-212028847D01*
X-5690479Y-212028847D02*
X-5690479Y-211885990D01*
X-5690479Y-211885990D02*
X-5642860Y-211695514D01*
X-5642860Y-211695514D02*
X-5595241Y-211600276D01*
X-5595241Y-211600276D02*
X-5500003Y-211505038D01*
X-5500003Y-211505038D02*
X-5357146Y-211457419D01*
X-5357146Y-211457419D02*
X-5261908Y-211457419D01*
X-5261908Y-211457419D02*
X-5119051Y-211505038D01*
X-5119051Y-211505038D02*
X-5071432Y-211552657D01*
X-4500003Y-212457419D02*
X-4595241Y-212409800D01*
X-4595241Y-212409800D02*
X-4642860Y-212362180D01*
X-4642860Y-212362180D02*
X-4690479Y-212266942D01*
X-4690479Y-212266942D02*
X-4690479Y-211981228D01*
X-4690479Y-211981228D02*
X-4642860Y-211885990D01*
X-4642860Y-211885990D02*
X-4595241Y-211838371D01*
X-4595241Y-211838371D02*
X-4500003Y-211790752D01*
X-4500003Y-211790752D02*
X-4357146Y-211790752D01*
X-4357146Y-211790752D02*
X-4261908Y-211838371D01*
X-4261908Y-211838371D02*
X-4214289Y-211885990D01*
X-4214289Y-211885990D02*
X-4166670Y-211981228D01*
X-4166670Y-211981228D02*
X-4166670Y-212266942D01*
X-4166670Y-212266942D02*
X-4214289Y-212362180D01*
X-4214289Y-212362180D02*
X-4261908Y-212409800D01*
X-4261908Y-212409800D02*
X-4357146Y-212457419D01*
X-4357146Y-212457419D02*
X-4500003Y-212457419D01*
X-3738098Y-211790752D02*
X-3738098Y-212457419D01*
X-3738098Y-211885990D02*
X-3690479Y-211838371D01*
X-3690479Y-211838371D02*
X-3595241Y-211790752D01*
X-3595241Y-211790752D02*
X-3452384Y-211790752D01*
X-3452384Y-211790752D02*
X-3357146Y-211838371D01*
X-3357146Y-211838371D02*
X-3309527Y-211933609D01*
X-3309527Y-211933609D02*
X-3309527Y-212457419D01*
X-2976193Y-211790752D02*
X-2595241Y-211790752D01*
X-2833336Y-211457419D02*
X-2833336Y-212314561D01*
X-2833336Y-212314561D02*
X-2785717Y-212409800D01*
X-2785717Y-212409800D02*
X-2690479Y-212457419D01*
X-2690479Y-212457419D02*
X-2595241Y-212457419D01*
X-1500002Y-212457419D02*
X-1500002Y-211457419D01*
X-1119050Y-211457419D02*
X-452384Y-212457419D01*
X-452384Y-211457419D02*
X-1119050Y-212457419D01*
X833330Y-212457419D02*
X738092Y-212409800D01*
X738092Y-212409800D02*
X690473Y-212314561D01*
X690473Y-212314561D02*
X690473Y-211457419D01*
X1595235Y-212409800D02*
X1499997Y-212457419D01*
X1499997Y-212457419D02*
X1309521Y-212457419D01*
X1309521Y-212457419D02*
X1214283Y-212409800D01*
X1214283Y-212409800D02*
X1166664Y-212314561D01*
X1166664Y-212314561D02*
X1166664Y-211933609D01*
X1166664Y-211933609D02*
X1214283Y-211838371D01*
X1214283Y-211838371D02*
X1309521Y-211790752D01*
X1309521Y-211790752D02*
X1499997Y-211790752D01*
X1499997Y-211790752D02*
X1595235Y-211838371D01*
X1595235Y-211838371D02*
X1642854Y-211933609D01*
X1642854Y-211933609D02*
X1642854Y-212028847D01*
X1642854Y-212028847D02*
X1166664Y-212124085D01*
X2499997Y-212457419D02*
X2499997Y-211933609D01*
X2499997Y-211933609D02*
X2452378Y-211838371D01*
X2452378Y-211838371D02*
X2357140Y-211790752D01*
X2357140Y-211790752D02*
X2166664Y-211790752D01*
X2166664Y-211790752D02*
X2071426Y-211838371D01*
X2499997Y-212409800D02*
X2404759Y-212457419D01*
X2404759Y-212457419D02*
X2166664Y-212457419D01*
X2166664Y-212457419D02*
X2071426Y-212409800D01*
X2071426Y-212409800D02*
X2023807Y-212314561D01*
X2023807Y-212314561D02*
X2023807Y-212219323D01*
X2023807Y-212219323D02*
X2071426Y-212124085D01*
X2071426Y-212124085D02*
X2166664Y-212076466D01*
X2166664Y-212076466D02*
X2404759Y-212076466D01*
X2404759Y-212076466D02*
X2499997Y-212028847D01*
X2880950Y-211790752D02*
X3119045Y-212457419D01*
X3119045Y-212457419D02*
X3357140Y-211790752D01*
X4119045Y-212409800D02*
X4023807Y-212457419D01*
X4023807Y-212457419D02*
X3833331Y-212457419D01*
X3833331Y-212457419D02*
X3738093Y-212409800D01*
X3738093Y-212409800D02*
X3690474Y-212314561D01*
X3690474Y-212314561D02*
X3690474Y-211933609D01*
X3690474Y-211933609D02*
X3738093Y-211838371D01*
X3738093Y-211838371D02*
X3833331Y-211790752D01*
X3833331Y-211790752D02*
X4023807Y-211790752D01*
X4023807Y-211790752D02*
X4119045Y-211838371D01*
X4119045Y-211838371D02*
X4166664Y-211933609D01*
X4166664Y-211933609D02*
X4166664Y-212028847D01*
X4166664Y-212028847D02*
X3690474Y-212124085D01*
X4547617Y-212409800D02*
X4642855Y-212457419D01*
X4642855Y-212457419D02*
X4833331Y-212457419D01*
X4833331Y-212457419D02*
X4928569Y-212409800D01*
X4928569Y-212409800D02*
X4976188Y-212314561D01*
X4976188Y-212314561D02*
X4976188Y-212266942D01*
X4976188Y-212266942D02*
X4928569Y-212171704D01*
X4928569Y-212171704D02*
X4833331Y-212124085D01*
X4833331Y-212124085D02*
X4690474Y-212124085D01*
X4690474Y-212124085D02*
X4595236Y-212076466D01*
X4595236Y-212076466D02*
X4547617Y-211981228D01*
X4547617Y-211981228D02*
X4547617Y-211933609D01*
X4547617Y-211933609D02*
X4595236Y-211838371D01*
X4595236Y-211838371D02*
X4690474Y-211790752D01*
X4690474Y-211790752D02*
X4833331Y-211790752D01*
X4833331Y-211790752D02*
X4928569Y-211838371D01*
X6595236Y-211790752D02*
X6595236Y-212457419D01*
X6166665Y-211790752D02*
X6166665Y-212314561D01*
X6166665Y-212314561D02*
X6214284Y-212409800D01*
X6214284Y-212409800D02*
X6309522Y-212457419D01*
X6309522Y-212457419D02*
X6452379Y-212457419D01*
X6452379Y-212457419D02*
X6547617Y-212409800D01*
X6547617Y-212409800D02*
X6595236Y-212362180D01*
X7071427Y-211790752D02*
X7071427Y-212457419D01*
X7071427Y-211885990D02*
X7119046Y-211838371D01*
X7119046Y-211838371D02*
X7214284Y-211790752D01*
X7214284Y-211790752D02*
X7357141Y-211790752D01*
X7357141Y-211790752D02*
X7452379Y-211838371D01*
X7452379Y-211838371D02*
X7499998Y-211933609D01*
X7499998Y-211933609D02*
X7499998Y-212457419D01*
X7833332Y-211790752D02*
X8214284Y-211790752D01*
X7976189Y-212457419D02*
X7976189Y-211600276D01*
X7976189Y-211600276D02*
X8023808Y-211505038D01*
X8023808Y-211505038D02*
X8119046Y-211457419D01*
X8119046Y-211457419D02*
X8214284Y-211457419D01*
X8547618Y-212457419D02*
X8547618Y-211790752D01*
X8547618Y-211457419D02*
X8499999Y-211505038D01*
X8499999Y-211505038D02*
X8547618Y-211552657D01*
X8547618Y-211552657D02*
X8595237Y-211505038D01*
X8595237Y-211505038D02*
X8547618Y-211457419D01*
X8547618Y-211457419D02*
X8547618Y-211552657D01*
X9166665Y-212457419D02*
X9071427Y-212409800D01*
X9071427Y-212409800D02*
X9023808Y-212314561D01*
X9023808Y-212314561D02*
X9023808Y-211457419D01*
X9690475Y-212457419D02*
X9595237Y-212409800D01*
X9595237Y-212409800D02*
X9547618Y-212314561D01*
X9547618Y-212314561D02*
X9547618Y-211457419D01*
X10452380Y-212409800D02*
X10357142Y-212457419D01*
X10357142Y-212457419D02*
X10166666Y-212457419D01*
X10166666Y-212457419D02*
X10071428Y-212409800D01*
X10071428Y-212409800D02*
X10023809Y-212314561D01*
X10023809Y-212314561D02*
X10023809Y-211933609D01*
X10023809Y-211933609D02*
X10071428Y-211838371D01*
X10071428Y-211838371D02*
X10166666Y-211790752D01*
X10166666Y-211790752D02*
X10357142Y-211790752D01*
X10357142Y-211790752D02*
X10452380Y-211838371D01*
X10452380Y-211838371D02*
X10499999Y-211933609D01*
X10499999Y-211933609D02*
X10499999Y-212028847D01*
X10499999Y-212028847D02*
X10023809Y-212124085D01*
X11357142Y-212457419D02*
X11357142Y-211457419D01*
X11357142Y-212409800D02*
X11261904Y-212457419D01*
X11261904Y-212457419D02*
X11071428Y-212457419D01*
X11071428Y-212457419D02*
X10976190Y-212409800D01*
X10976190Y-212409800D02*
X10928571Y-212362180D01*
X10928571Y-212362180D02*
X10880952Y-212266942D01*
X10880952Y-212266942D02*
X10880952Y-211981228D01*
X10880952Y-211981228D02*
X10928571Y-211885990D01*
X10928571Y-211885990D02*
X10976190Y-211838371D01*
X10976190Y-211838371D02*
X11071428Y-211790752D01*
X11071428Y-211790752D02*
X11261904Y-211790752D01*
X11261904Y-211790752D02*
X11357142Y-211838371D01*
X12452381Y-211790752D02*
X12833333Y-211790752D01*
X12595238Y-212457419D02*
X12595238Y-211600276D01*
X12595238Y-211600276D02*
X12642857Y-211505038D01*
X12642857Y-211505038D02*
X12738095Y-211457419D01*
X12738095Y-211457419D02*
X12833333Y-211457419D01*
X13309524Y-212457419D02*
X13214286Y-212409800D01*
X13214286Y-212409800D02*
X13166667Y-212362180D01*
X13166667Y-212362180D02*
X13119048Y-212266942D01*
X13119048Y-212266942D02*
X13119048Y-211981228D01*
X13119048Y-211981228D02*
X13166667Y-211885990D01*
X13166667Y-211885990D02*
X13214286Y-211838371D01*
X13214286Y-211838371D02*
X13309524Y-211790752D01*
X13309524Y-211790752D02*
X13452381Y-211790752D01*
X13452381Y-211790752D02*
X13547619Y-211838371D01*
X13547619Y-211838371D02*
X13595238Y-211885990D01*
X13595238Y-211885990D02*
X13642857Y-211981228D01*
X13642857Y-211981228D02*
X13642857Y-212266942D01*
X13642857Y-212266942D02*
X13595238Y-212362180D01*
X13595238Y-212362180D02*
X13547619Y-212409800D01*
X13547619Y-212409800D02*
X13452381Y-212457419D01*
X13452381Y-212457419D02*
X13309524Y-212457419D01*
X14071429Y-212457419D02*
X14071429Y-211790752D01*
X14071429Y-211981228D02*
X14119048Y-211885990D01*
X14119048Y-211885990D02*
X14166667Y-211838371D01*
X14166667Y-211838371D02*
X14261905Y-211790752D01*
X14261905Y-211790752D02*
X14357143Y-211790752D01*
X15452382Y-212457419D02*
X15452382Y-211457419D01*
X15452382Y-211457419D02*
X15690477Y-211457419D01*
X15690477Y-211457419D02*
X15833334Y-211505038D01*
X15833334Y-211505038D02*
X15928572Y-211600276D01*
X15928572Y-211600276D02*
X15976191Y-211695514D01*
X15976191Y-211695514D02*
X16023810Y-211885990D01*
X16023810Y-211885990D02*
X16023810Y-212028847D01*
X16023810Y-212028847D02*
X15976191Y-212219323D01*
X15976191Y-212219323D02*
X15928572Y-212314561D01*
X15928572Y-212314561D02*
X15833334Y-212409800D01*
X15833334Y-212409800D02*
X15690477Y-212457419D01*
X15690477Y-212457419D02*
X15452382Y-212457419D01*
X17023810Y-212457419D02*
X16690477Y-211981228D01*
X16452382Y-212457419D02*
X16452382Y-211457419D01*
X16452382Y-211457419D02*
X16833334Y-211457419D01*
X16833334Y-211457419D02*
X16928572Y-211505038D01*
X16928572Y-211505038D02*
X16976191Y-211552657D01*
X16976191Y-211552657D02*
X17023810Y-211647895D01*
X17023810Y-211647895D02*
X17023810Y-211790752D01*
X17023810Y-211790752D02*
X16976191Y-211885990D01*
X16976191Y-211885990D02*
X16928572Y-211933609D01*
X16928572Y-211933609D02*
X16833334Y-211981228D01*
X16833334Y-211981228D02*
X16452382Y-211981228D01*
X18023810Y-212362180D02*
X17976191Y-212409800D01*
X17976191Y-212409800D02*
X17833334Y-212457419D01*
X17833334Y-212457419D02*
X17738096Y-212457419D01*
X17738096Y-212457419D02*
X17595239Y-212409800D01*
X17595239Y-212409800D02*
X17500001Y-212314561D01*
X17500001Y-212314561D02*
X17452382Y-212219323D01*
X17452382Y-212219323D02*
X17404763Y-212028847D01*
X17404763Y-212028847D02*
X17404763Y-211885990D01*
X17404763Y-211885990D02*
X17452382Y-211695514D01*
X17452382Y-211695514D02*
X17500001Y-211600276D01*
X17500001Y-211600276D02*
X17595239Y-211505038D01*
X17595239Y-211505038D02*
X17738096Y-211457419D01*
X17738096Y-211457419D02*
X17833334Y-211457419D01*
X17833334Y-211457419D02*
X17976191Y-211505038D01*
X17976191Y-211505038D02*
X18023810Y-211552657D01*
X18452382Y-212076466D02*
X19214287Y-212076466D01*
X20119048Y-212409800D02*
X20023810Y-212457419D01*
X20023810Y-212457419D02*
X19833334Y-212457419D01*
X19833334Y-212457419D02*
X19738096Y-212409800D01*
X19738096Y-212409800D02*
X19690477Y-212362180D01*
X19690477Y-212362180D02*
X19642858Y-212266942D01*
X19642858Y-212266942D02*
X19642858Y-211981228D01*
X19642858Y-211981228D02*
X19690477Y-211885990D01*
X19690477Y-211885990D02*
X19738096Y-211838371D01*
X19738096Y-211838371D02*
X19833334Y-211790752D01*
X19833334Y-211790752D02*
X20023810Y-211790752D01*
X20023810Y-211790752D02*
X20119048Y-211838371D01*
X20690477Y-212457419D02*
X20595239Y-212409800D01*
X20595239Y-212409800D02*
X20547620Y-212314561D01*
X20547620Y-212314561D02*
X20547620Y-211457419D01*
X21452382Y-212409800D02*
X21357144Y-212457419D01*
X21357144Y-212457419D02*
X21166668Y-212457419D01*
X21166668Y-212457419D02*
X21071430Y-212409800D01*
X21071430Y-212409800D02*
X21023811Y-212314561D01*
X21023811Y-212314561D02*
X21023811Y-211933609D01*
X21023811Y-211933609D02*
X21071430Y-211838371D01*
X21071430Y-211838371D02*
X21166668Y-211790752D01*
X21166668Y-211790752D02*
X21357144Y-211790752D01*
X21357144Y-211790752D02*
X21452382Y-211838371D01*
X21452382Y-211838371D02*
X21500001Y-211933609D01*
X21500001Y-211933609D02*
X21500001Y-212028847D01*
X21500001Y-212028847D02*
X21023811Y-212124085D01*
X22357144Y-212457419D02*
X22357144Y-211933609D01*
X22357144Y-211933609D02*
X22309525Y-211838371D01*
X22309525Y-211838371D02*
X22214287Y-211790752D01*
X22214287Y-211790752D02*
X22023811Y-211790752D01*
X22023811Y-211790752D02*
X21928573Y-211838371D01*
X22357144Y-212409800D02*
X22261906Y-212457419D01*
X22261906Y-212457419D02*
X22023811Y-212457419D01*
X22023811Y-212457419D02*
X21928573Y-212409800D01*
X21928573Y-212409800D02*
X21880954Y-212314561D01*
X21880954Y-212314561D02*
X21880954Y-212219323D01*
X21880954Y-212219323D02*
X21928573Y-212124085D01*
X21928573Y-212124085D02*
X22023811Y-212076466D01*
X22023811Y-212076466D02*
X22261906Y-212076466D01*
X22261906Y-212076466D02*
X22357144Y-212028847D01*
X22833335Y-211790752D02*
X22833335Y-212457419D01*
X22833335Y-211885990D02*
X22880954Y-211838371D01*
X22880954Y-211838371D02*
X22976192Y-211790752D01*
X22976192Y-211790752D02*
X23119049Y-211790752D01*
X23119049Y-211790752D02*
X23214287Y-211838371D01*
X23214287Y-211838371D02*
X23261906Y-211933609D01*
X23261906Y-211933609D02*
X23261906Y-212457419D01*
X24928573Y-212457419D02*
X24928573Y-211457419D01*
X24928573Y-212409800D02*
X24833335Y-212457419D01*
X24833335Y-212457419D02*
X24642859Y-212457419D01*
X24642859Y-212457419D02*
X24547621Y-212409800D01*
X24547621Y-212409800D02*
X24500002Y-212362180D01*
X24500002Y-212362180D02*
X24452383Y-212266942D01*
X24452383Y-212266942D02*
X24452383Y-211981228D01*
X24452383Y-211981228D02*
X24500002Y-211885990D01*
X24500002Y-211885990D02*
X24547621Y-211838371D01*
X24547621Y-211838371D02*
X24642859Y-211790752D01*
X24642859Y-211790752D02*
X24833335Y-211790752D01*
X24833335Y-211790752D02*
X24928573Y-211838371D01*
X25404764Y-212457419D02*
X25404764Y-211790752D01*
X25404764Y-211457419D02*
X25357145Y-211505038D01*
X25357145Y-211505038D02*
X25404764Y-211552657D01*
X25404764Y-211552657D02*
X25452383Y-211505038D01*
X25452383Y-211505038D02*
X25404764Y-211457419D01*
X25404764Y-211457419D02*
X25404764Y-211552657D01*
X26309525Y-211790752D02*
X26309525Y-212600276D01*
X26309525Y-212600276D02*
X26261906Y-212695514D01*
X26261906Y-212695514D02*
X26214287Y-212743133D01*
X26214287Y-212743133D02*
X26119049Y-212790752D01*
X26119049Y-212790752D02*
X25976192Y-212790752D01*
X25976192Y-212790752D02*
X25880954Y-212743133D01*
X26309525Y-212409800D02*
X26214287Y-212457419D01*
X26214287Y-212457419D02*
X26023811Y-212457419D01*
X26023811Y-212457419D02*
X25928573Y-212409800D01*
X25928573Y-212409800D02*
X25880954Y-212362180D01*
X25880954Y-212362180D02*
X25833335Y-212266942D01*
X25833335Y-212266942D02*
X25833335Y-211981228D01*
X25833335Y-211981228D02*
X25880954Y-211885990D01*
X25880954Y-211885990D02*
X25928573Y-211838371D01*
X25928573Y-211838371D02*
X26023811Y-211790752D01*
X26023811Y-211790752D02*
X26214287Y-211790752D01*
X26214287Y-211790752D02*
X26309525Y-211838371D01*
X26785716Y-212457419D02*
X26785716Y-211790752D01*
X26785716Y-211457419D02*
X26738097Y-211505038D01*
X26738097Y-211505038D02*
X26785716Y-211552657D01*
X26785716Y-211552657D02*
X26833335Y-211505038D01*
X26833335Y-211505038D02*
X26785716Y-211457419D01*
X26785716Y-211457419D02*
X26785716Y-211552657D01*
X27119049Y-211790752D02*
X27500001Y-211790752D01*
X27261906Y-211457419D02*
X27261906Y-212314561D01*
X27261906Y-212314561D02*
X27309525Y-212409800D01*
X27309525Y-212409800D02*
X27404763Y-212457419D01*
X27404763Y-212457419D02*
X27500001Y-212457419D01*
X28261906Y-212457419D02*
X28261906Y-211933609D01*
X28261906Y-211933609D02*
X28214287Y-211838371D01*
X28214287Y-211838371D02*
X28119049Y-211790752D01*
X28119049Y-211790752D02*
X27928573Y-211790752D01*
X27928573Y-211790752D02*
X27833335Y-211838371D01*
X28261906Y-212409800D02*
X28166668Y-212457419D01*
X28166668Y-212457419D02*
X27928573Y-212457419D01*
X27928573Y-212457419D02*
X27833335Y-212409800D01*
X27833335Y-212409800D02*
X27785716Y-212314561D01*
X27785716Y-212314561D02*
X27785716Y-212219323D01*
X27785716Y-212219323D02*
X27833335Y-212124085D01*
X27833335Y-212124085D02*
X27928573Y-212076466D01*
X27928573Y-212076466D02*
X28166668Y-212076466D01*
X28166668Y-212076466D02*
X28261906Y-212028847D01*
X28880954Y-212457419D02*
X28785716Y-212409800D01*
X28785716Y-212409800D02*
X28738097Y-212314561D01*
X28738097Y-212314561D02*
X28738097Y-211457419D01*
X30023812Y-211790752D02*
X30023812Y-212790752D01*
X30023812Y-211838371D02*
X30119050Y-211790752D01*
X30119050Y-211790752D02*
X30309526Y-211790752D01*
X30309526Y-211790752D02*
X30404764Y-211838371D01*
X30404764Y-211838371D02*
X30452383Y-211885990D01*
X30452383Y-211885990D02*
X30500002Y-211981228D01*
X30500002Y-211981228D02*
X30500002Y-212266942D01*
X30500002Y-212266942D02*
X30452383Y-212362180D01*
X30452383Y-212362180D02*
X30404764Y-212409800D01*
X30404764Y-212409800D02*
X30309526Y-212457419D01*
X30309526Y-212457419D02*
X30119050Y-212457419D01*
X30119050Y-212457419D02*
X30023812Y-212409800D01*
X31357145Y-212457419D02*
X31357145Y-211933609D01*
X31357145Y-211933609D02*
X31309526Y-211838371D01*
X31309526Y-211838371D02*
X31214288Y-211790752D01*
X31214288Y-211790752D02*
X31023812Y-211790752D01*
X31023812Y-211790752D02*
X30928574Y-211838371D01*
X31357145Y-212409800D02*
X31261907Y-212457419D01*
X31261907Y-212457419D02*
X31023812Y-212457419D01*
X31023812Y-212457419D02*
X30928574Y-212409800D01*
X30928574Y-212409800D02*
X30880955Y-212314561D01*
X30880955Y-212314561D02*
X30880955Y-212219323D01*
X30880955Y-212219323D02*
X30928574Y-212124085D01*
X30928574Y-212124085D02*
X31023812Y-212076466D01*
X31023812Y-212076466D02*
X31261907Y-212076466D01*
X31261907Y-212076466D02*
X31357145Y-212028847D01*
X32261907Y-212409800D02*
X32166669Y-212457419D01*
X32166669Y-212457419D02*
X31976193Y-212457419D01*
X31976193Y-212457419D02*
X31880955Y-212409800D01*
X31880955Y-212409800D02*
X31833336Y-212362180D01*
X31833336Y-212362180D02*
X31785717Y-212266942D01*
X31785717Y-212266942D02*
X31785717Y-211981228D01*
X31785717Y-211981228D02*
X31833336Y-211885990D01*
X31833336Y-211885990D02*
X31880955Y-211838371D01*
X31880955Y-211838371D02*
X31976193Y-211790752D01*
X31976193Y-211790752D02*
X32166669Y-211790752D01*
X32166669Y-211790752D02*
X32261907Y-211838371D01*
X32690479Y-212457419D02*
X32690479Y-211457419D01*
X32785717Y-212076466D02*
X33071431Y-212457419D01*
X33071431Y-211790752D02*
X32690479Y-212171704D01*
X33928574Y-212457419D02*
X33928574Y-211933609D01*
X33928574Y-211933609D02*
X33880955Y-211838371D01*
X33880955Y-211838371D02*
X33785717Y-211790752D01*
X33785717Y-211790752D02*
X33595241Y-211790752D01*
X33595241Y-211790752D02*
X33500003Y-211838371D01*
X33928574Y-212409800D02*
X33833336Y-212457419D01*
X33833336Y-212457419D02*
X33595241Y-212457419D01*
X33595241Y-212457419D02*
X33500003Y-212409800D01*
X33500003Y-212409800D02*
X33452384Y-212314561D01*
X33452384Y-212314561D02*
X33452384Y-212219323D01*
X33452384Y-212219323D02*
X33500003Y-212124085D01*
X33500003Y-212124085D02*
X33595241Y-212076466D01*
X33595241Y-212076466D02*
X33833336Y-212076466D01*
X33833336Y-212076466D02*
X33928574Y-212028847D01*
X34833336Y-211790752D02*
X34833336Y-212600276D01*
X34833336Y-212600276D02*
X34785717Y-212695514D01*
X34785717Y-212695514D02*
X34738098Y-212743133D01*
X34738098Y-212743133D02*
X34642860Y-212790752D01*
X34642860Y-212790752D02*
X34500003Y-212790752D01*
X34500003Y-212790752D02*
X34404765Y-212743133D01*
X34833336Y-212409800D02*
X34738098Y-212457419D01*
X34738098Y-212457419D02*
X34547622Y-212457419D01*
X34547622Y-212457419D02*
X34452384Y-212409800D01*
X34452384Y-212409800D02*
X34404765Y-212362180D01*
X34404765Y-212362180D02*
X34357146Y-212266942D01*
X34357146Y-212266942D02*
X34357146Y-211981228D01*
X34357146Y-211981228D02*
X34404765Y-211885990D01*
X34404765Y-211885990D02*
X34452384Y-211838371D01*
X34452384Y-211838371D02*
X34547622Y-211790752D01*
X34547622Y-211790752D02*
X34738098Y-211790752D01*
X34738098Y-211790752D02*
X34833336Y-211838371D01*
X35690479Y-212409800D02*
X35595241Y-212457419D01*
X35595241Y-212457419D02*
X35404765Y-212457419D01*
X35404765Y-212457419D02*
X35309527Y-212409800D01*
X35309527Y-212409800D02*
X35261908Y-212314561D01*
X35261908Y-212314561D02*
X35261908Y-211933609D01*
X35261908Y-211933609D02*
X35309527Y-211838371D01*
X35309527Y-211838371D02*
X35404765Y-211790752D01*
X35404765Y-211790752D02*
X35595241Y-211790752D01*
X35595241Y-211790752D02*
X35690479Y-211838371D01*
X35690479Y-211838371D02*
X35738098Y-211933609D01*
X35738098Y-211933609D02*
X35738098Y-212028847D01*
X35738098Y-212028847D02*
X35261908Y-212124085D01*
X36214289Y-212409800D02*
X36214289Y-212457419D01*
X36214289Y-212457419D02*
X36166670Y-212552657D01*
X36166670Y-212552657D02*
X36119051Y-212600276D01*
X36166670Y-211838371D02*
X36214289Y-211885990D01*
X36214289Y-211885990D02*
X36166670Y-211933609D01*
X36166670Y-211933609D02*
X36119051Y-211885990D01*
X36119051Y-211885990D02*
X36166670Y-211838371D01*
X36166670Y-211838371D02*
X36166670Y-211933609D01*
X37976193Y-212362180D02*
X37928574Y-212409800D01*
X37928574Y-212409800D02*
X37785717Y-212457419D01*
X37785717Y-212457419D02*
X37690479Y-212457419D01*
X37690479Y-212457419D02*
X37547622Y-212409800D01*
X37547622Y-212409800D02*
X37452384Y-212314561D01*
X37452384Y-212314561D02*
X37404765Y-212219323D01*
X37404765Y-212219323D02*
X37357146Y-212028847D01*
X37357146Y-212028847D02*
X37357146Y-211885990D01*
X37357146Y-211885990D02*
X37404765Y-211695514D01*
X37404765Y-211695514D02*
X37452384Y-211600276D01*
X37452384Y-211600276D02*
X37547622Y-211505038D01*
X37547622Y-211505038D02*
X37690479Y-211457419D01*
X37690479Y-211457419D02*
X37785717Y-211457419D01*
X37785717Y-211457419D02*
X37928574Y-211505038D01*
X37928574Y-211505038D02*
X37976193Y-211552657D01*
X38357146Y-212171704D02*
X38833336Y-212171704D01*
X38261908Y-212457419D02*
X38595241Y-211457419D01*
X38595241Y-211457419D02*
X38928574Y-212457419D01*
X39261908Y-212457419D02*
X39261908Y-211457419D01*
X39261908Y-211457419D02*
X39595241Y-212171704D01*
X39595241Y-212171704D02*
X39928574Y-211457419D01*
X39928574Y-211457419D02*
X39928574Y-212457419D01*
X41023813Y-211790752D02*
X41404765Y-211790752D01*
X41166670Y-212457419D02*
X41166670Y-211600276D01*
X41166670Y-211600276D02*
X41214289Y-211505038D01*
X41214289Y-211505038D02*
X41309527Y-211457419D01*
X41309527Y-211457419D02*
X41404765Y-211457419D01*
X41738099Y-212457419D02*
X41738099Y-211790752D01*
X41738099Y-211457419D02*
X41690480Y-211505038D01*
X41690480Y-211505038D02*
X41738099Y-211552657D01*
X41738099Y-211552657D02*
X41785718Y-211505038D01*
X41785718Y-211505038D02*
X41738099Y-211457419D01*
X41738099Y-211457419D02*
X41738099Y-211552657D01*
X42357146Y-212457419D02*
X42261908Y-212409800D01*
X42261908Y-212409800D02*
X42214289Y-212314561D01*
X42214289Y-212314561D02*
X42214289Y-211457419D01*
X42880956Y-212457419D02*
X42785718Y-212409800D01*
X42785718Y-212409800D02*
X42738099Y-212314561D01*
X42738099Y-212314561D02*
X42738099Y-211457419D01*
X44452385Y-212457419D02*
X44452385Y-211933609D01*
X44452385Y-211933609D02*
X44404766Y-211838371D01*
X44404766Y-211838371D02*
X44309528Y-211790752D01*
X44309528Y-211790752D02*
X44119052Y-211790752D01*
X44119052Y-211790752D02*
X44023814Y-211838371D01*
X44452385Y-212409800D02*
X44357147Y-212457419D01*
X44357147Y-212457419D02*
X44119052Y-212457419D01*
X44119052Y-212457419D02*
X44023814Y-212409800D01*
X44023814Y-212409800D02*
X43976195Y-212314561D01*
X43976195Y-212314561D02*
X43976195Y-212219323D01*
X43976195Y-212219323D02*
X44023814Y-212124085D01*
X44023814Y-212124085D02*
X44119052Y-212076466D01*
X44119052Y-212076466D02*
X44357147Y-212076466D01*
X44357147Y-212076466D02*
X44452385Y-212028847D01*
X44785719Y-211790752D02*
X45166671Y-211790752D01*
X44928576Y-211457419D02*
X44928576Y-212314561D01*
X44928576Y-212314561D02*
X44976195Y-212409800D01*
X44976195Y-212409800D02*
X45071433Y-212457419D01*
X45071433Y-212457419D02*
X45166671Y-212457419D01*
X46119053Y-211790752D02*
X46500005Y-211790752D01*
X46261910Y-212457419D02*
X46261910Y-211600276D01*
X46261910Y-211600276D02*
X46309529Y-211505038D01*
X46309529Y-211505038D02*
X46404767Y-211457419D01*
X46404767Y-211457419D02*
X46500005Y-211457419D01*
X47261910Y-212457419D02*
X47261910Y-211933609D01*
X47261910Y-211933609D02*
X47214291Y-211838371D01*
X47214291Y-211838371D02*
X47119053Y-211790752D01*
X47119053Y-211790752D02*
X46928577Y-211790752D01*
X46928577Y-211790752D02*
X46833339Y-211838371D01*
X47261910Y-212409800D02*
X47166672Y-212457419D01*
X47166672Y-212457419D02*
X46928577Y-212457419D01*
X46928577Y-212457419D02*
X46833339Y-212409800D01*
X46833339Y-212409800D02*
X46785720Y-212314561D01*
X46785720Y-212314561D02*
X46785720Y-212219323D01*
X46785720Y-212219323D02*
X46833339Y-212124085D01*
X46833339Y-212124085D02*
X46928577Y-212076466D01*
X46928577Y-212076466D02*
X47166672Y-212076466D01*
X47166672Y-212076466D02*
X47261910Y-212028847D01*
X47738101Y-212457419D02*
X47738101Y-211457419D01*
X47738101Y-211838371D02*
X47833339Y-211790752D01*
X47833339Y-211790752D02*
X48023815Y-211790752D01*
X48023815Y-211790752D02*
X48119053Y-211838371D01*
X48119053Y-211838371D02*
X48166672Y-211885990D01*
X48166672Y-211885990D02*
X48214291Y-211981228D01*
X48214291Y-211981228D02*
X48214291Y-212266942D01*
X48214291Y-212266942D02*
X48166672Y-212362180D01*
X48166672Y-212362180D02*
X48119053Y-212409800D01*
X48119053Y-212409800D02*
X48023815Y-212457419D01*
X48023815Y-212457419D02*
X47833339Y-212457419D01*
X47833339Y-212457419D02*
X47738101Y-212409800D01*
X-23642863Y-211505038D02*
X-23738101Y-211457419D01*
X-23738101Y-211457419D02*
X-23880958Y-211457419D01*
X-23880958Y-211457419D02*
X-24023815Y-211505038D01*
X-24023815Y-211505038D02*
X-24119053Y-211600276D01*
X-24119053Y-211600276D02*
X-24166672Y-211695514D01*
X-24166672Y-211695514D02*
X-24214291Y-211885990D01*
X-24214291Y-211885990D02*
X-24214291Y-212028847D01*
X-24214291Y-212028847D02*
X-24166672Y-212219323D01*
X-24166672Y-212219323D02*
X-24119053Y-212314561D01*
X-24119053Y-212314561D02*
X-24023815Y-212409800D01*
X-24023815Y-212409800D02*
X-23880958Y-212457419D01*
X-23880958Y-212457419D02*
X-23785720Y-212457419D01*
X-23785720Y-212457419D02*
X-23642863Y-212409800D01*
X-23642863Y-212409800D02*
X-23595244Y-212362180D01*
X-23595244Y-212362180D02*
X-23595244Y-212028847D01*
X-23595244Y-212028847D02*
X-23785720Y-212028847D01*
X-23166672Y-212457419D02*
X-23166672Y-211457419D01*
X-23166672Y-211457419D02*
X-22595244Y-212457419D01*
X-22595244Y-212457419D02*
X-22595244Y-211457419D01*
X-22119053Y-212457419D02*
X-22119053Y-211457419D01*
X-22119053Y-211457419D02*
X-21880958Y-211457419D01*
X-21880958Y-211457419D02*
X-21738101Y-211505038D01*
X-21738101Y-211505038D02*
X-21642863Y-211600276D01*
X-21642863Y-211600276D02*
X-21595244Y-211695514D01*
X-21595244Y-211695514D02*
X-21547625Y-211885990D01*
X-21547625Y-211885990D02*
X-21547625Y-212028847D01*
X-21547625Y-212028847D02*
X-21595244Y-212219323D01*
X-21595244Y-212219323D02*
X-21642863Y-212314561D01*
X-21642863Y-212314561D02*
X-21738101Y-212409800D01*
X-21738101Y-212409800D02*
X-21880958Y-212457419D01*
X-21880958Y-212457419D02*
X-22119053Y-212457419D01*
X-20357148Y-211790752D02*
X-20357148Y-212790752D01*
X-20357148Y-211838371D02*
X-20261910Y-211790752D01*
X-20261910Y-211790752D02*
X-20071434Y-211790752D01*
X-20071434Y-211790752D02*
X-19976196Y-211838371D01*
X-19976196Y-211838371D02*
X-19928577Y-211885990D01*
X-19928577Y-211885990D02*
X-19880958Y-211981228D01*
X-19880958Y-211981228D02*
X-19880958Y-212266942D01*
X-19880958Y-212266942D02*
X-19928577Y-212362180D01*
X-19928577Y-212362180D02*
X-19976196Y-212409800D01*
X-19976196Y-212409800D02*
X-20071434Y-212457419D01*
X-20071434Y-212457419D02*
X-20261910Y-212457419D01*
X-20261910Y-212457419D02*
X-20357148Y-212409800D01*
X-19309529Y-212457419D02*
X-19404767Y-212409800D01*
X-19404767Y-212409800D02*
X-19452386Y-212362180D01*
X-19452386Y-212362180D02*
X-19500005Y-212266942D01*
X-19500005Y-212266942D02*
X-19500005Y-211981228D01*
X-19500005Y-211981228D02*
X-19452386Y-211885990D01*
X-19452386Y-211885990D02*
X-19404767Y-211838371D01*
X-19404767Y-211838371D02*
X-19309529Y-211790752D01*
X-19309529Y-211790752D02*
X-19166672Y-211790752D01*
X-19166672Y-211790752D02*
X-19071434Y-211838371D01*
X-19071434Y-211838371D02*
X-19023815Y-211885990D01*
X-19023815Y-211885990D02*
X-18976196Y-211981228D01*
X-18976196Y-211981228D02*
X-18976196Y-212266942D01*
X-18976196Y-212266942D02*
X-19023815Y-212362180D01*
X-19023815Y-212362180D02*
X-19071434Y-212409800D01*
X-19071434Y-212409800D02*
X-19166672Y-212457419D01*
X-19166672Y-212457419D02*
X-19309529Y-212457419D01*
X-18119053Y-211790752D02*
X-18119053Y-212457419D01*
X-18547624Y-211790752D02*
X-18547624Y-212314561D01*
X-18547624Y-212314561D02*
X-18500005Y-212409800D01*
X-18500005Y-212409800D02*
X-18404767Y-212457419D01*
X-18404767Y-212457419D02*
X-18261910Y-212457419D01*
X-18261910Y-212457419D02*
X-18166672Y-212409800D01*
X-18166672Y-212409800D02*
X-18119053Y-212362180D01*
X-17642862Y-212457419D02*
X-17642862Y-211790752D01*
X-17642862Y-211981228D02*
X-17595243Y-211885990D01*
X-17595243Y-211885990D02*
X-17547624Y-211838371D01*
X-17547624Y-211838371D02*
X-17452386Y-211790752D01*
X-17452386Y-211790752D02*
X-17357148Y-211790752D01*
X-16261909Y-212457419D02*
X-16261909Y-211790752D01*
X-16261909Y-211457419D02*
X-16309528Y-211505038D01*
X-16309528Y-211505038D02*
X-16261909Y-211552657D01*
X-16261909Y-211552657D02*
X-16214290Y-211505038D01*
X-16214290Y-211505038D02*
X-16261909Y-211457419D01*
X-16261909Y-211457419D02*
X-16261909Y-211552657D01*
X-15785719Y-211790752D02*
X-15785719Y-212457419D01*
X-15785719Y-211885990D02*
X-15738100Y-211838371D01*
X-15738100Y-211838371D02*
X-15642862Y-211790752D01*
X-15642862Y-211790752D02*
X-15500005Y-211790752D01*
X-15500005Y-211790752D02*
X-15404767Y-211838371D01*
X-15404767Y-211838371D02*
X-15357148Y-211933609D01*
X-15357148Y-211933609D02*
X-15357148Y-212457419D01*
X-15023814Y-211790752D02*
X-14642862Y-211790752D01*
X-14880957Y-211457419D02*
X-14880957Y-212314561D01*
X-14880957Y-212314561D02*
X-14833338Y-212409800D01*
X-14833338Y-212409800D02*
X-14738100Y-212457419D01*
X-14738100Y-212457419D02*
X-14642862Y-212457419D01*
X-13928576Y-212409800D02*
X-14023814Y-212457419D01*
X-14023814Y-212457419D02*
X-14214290Y-212457419D01*
X-14214290Y-212457419D02*
X-14309528Y-212409800D01*
X-14309528Y-212409800D02*
X-14357147Y-212314561D01*
X-14357147Y-212314561D02*
X-14357147Y-211933609D01*
X-14357147Y-211933609D02*
X-14309528Y-211838371D01*
X-14309528Y-211838371D02*
X-14214290Y-211790752D01*
X-14214290Y-211790752D02*
X-14023814Y-211790752D01*
X-14023814Y-211790752D02*
X-13928576Y-211838371D01*
X-13928576Y-211838371D02*
X-13880957Y-211933609D01*
X-13880957Y-211933609D02*
X-13880957Y-212028847D01*
X-13880957Y-212028847D02*
X-14357147Y-212124085D01*
X-13452385Y-211790752D02*
X-13452385Y-212457419D01*
X-13452385Y-211885990D02*
X-13404766Y-211838371D01*
X-13404766Y-211838371D02*
X-13309528Y-211790752D01*
X-13309528Y-211790752D02*
X-13166671Y-211790752D01*
X-13166671Y-211790752D02*
X-13071433Y-211838371D01*
X-13071433Y-211838371D02*
X-13023814Y-211933609D01*
X-13023814Y-211933609D02*
X-13023814Y-212457419D01*
X-12690480Y-211790752D02*
X-12309528Y-211790752D01*
X-12547623Y-211457419D02*
X-12547623Y-212314561D01*
X-12547623Y-212314561D02*
X-12500004Y-212409800D01*
X-12500004Y-212409800D02*
X-12404766Y-212457419D01*
X-12404766Y-212457419D02*
X-12309528Y-212457419D01*
X-10880956Y-211933609D02*
X-11214289Y-211933609D01*
X-11214289Y-212457419D02*
X-11214289Y-211457419D01*
X-11214289Y-211457419D02*
X-10738099Y-211457419D01*
X-9642861Y-211409800D02*
X-10500003Y-212695514D01*
X-8976194Y-211933609D02*
X-8833337Y-211981228D01*
X-8833337Y-211981228D02*
X-8785718Y-212028847D01*
X-8785718Y-212028847D02*
X-8738099Y-212124085D01*
X-8738099Y-212124085D02*
X-8738099Y-212266942D01*
X-8738099Y-212266942D02*
X-8785718Y-212362180D01*
X-8785718Y-212362180D02*
X-8833337Y-212409800D01*
X-8833337Y-212409800D02*
X-8928575Y-212457419D01*
X-8928575Y-212457419D02*
X-9309527Y-212457419D01*
X-9309527Y-212457419D02*
X-9309527Y-211457419D01*
X-9309527Y-211457419D02*
X-8976194Y-211457419D01*
X-8976194Y-211457419D02*
X-8880956Y-211505038D01*
X-8880956Y-211505038D02*
X-8833337Y-211552657D01*
X-8833337Y-211552657D02*
X-8785718Y-211647895D01*
X-8785718Y-211647895D02*
X-8785718Y-211743133D01*
X-8785718Y-211743133D02*
X-8833337Y-211838371D01*
X-8833337Y-211838371D02*
X-8880956Y-211885990D01*
X-8880956Y-211885990D02*
X-8976194Y-211933609D01*
X-8976194Y-211933609D02*
X-9309527Y-211933609D01*
X-7642860Y-212124085D02*
X-6785718Y-212124085D01*
X-5071432Y-212362180D02*
X-5119051Y-212409800D01*
X-5119051Y-212409800D02*
X-5261908Y-212457419D01*
X-5261908Y-212457419D02*
X-5357146Y-212457419D01*
X-5357146Y-212457419D02*
X-5500003Y-212409800D01*
X-5500003Y-212409800D02*
X-5595241Y-212314561D01*
X-5595241Y-212314561D02*
X-5642860Y-212219323D01*
X-5642860Y-212219323D02*
X-5690479Y-212028847D01*
X-5690479Y-212028847D02*
X-5690479Y-211885990D01*
X-5690479Y-211885990D02*
X-5642860Y-211695514D01*
X-5642860Y-211695514D02*
X-5595241Y-211600276D01*
X-5595241Y-211600276D02*
X-5500003Y-211505038D01*
X-5500003Y-211505038D02*
X-5357146Y-211457419D01*
X-5357146Y-211457419D02*
X-5261908Y-211457419D01*
X-5261908Y-211457419D02*
X-5119051Y-211505038D01*
X-5119051Y-211505038D02*
X-5071432Y-211552657D01*
X-4500003Y-212457419D02*
X-4595241Y-212409800D01*
X-4595241Y-212409800D02*
X-4642860Y-212362180D01*
X-4642860Y-212362180D02*
X-4690479Y-212266942D01*
X-4690479Y-212266942D02*
X-4690479Y-211981228D01*
X-4690479Y-211981228D02*
X-4642860Y-211885990D01*
X-4642860Y-211885990D02*
X-4595241Y-211838371D01*
X-4595241Y-211838371D02*
X-4500003Y-211790752D01*
X-4500003Y-211790752D02*
X-4357146Y-211790752D01*
X-4357146Y-211790752D02*
X-4261908Y-211838371D01*
X-4261908Y-211838371D02*
X-4214289Y-211885990D01*
X-4214289Y-211885990D02*
X-4166670Y-211981228D01*
X-4166670Y-211981228D02*
X-4166670Y-212266942D01*
X-4166670Y-212266942D02*
X-4214289Y-212362180D01*
X-4214289Y-212362180D02*
X-4261908Y-212409800D01*
X-4261908Y-212409800D02*
X-4357146Y-212457419D01*
X-4357146Y-212457419D02*
X-4500003Y-212457419D01*
X-3738098Y-211790752D02*
X-3738098Y-212457419D01*
X-3738098Y-211885990D02*
X-3690479Y-211838371D01*
X-3690479Y-211838371D02*
X-3595241Y-211790752D01*
X-3595241Y-211790752D02*
X-3452384Y-211790752D01*
X-3452384Y-211790752D02*
X-3357146Y-211838371D01*
X-3357146Y-211838371D02*
X-3309527Y-211933609D01*
X-3309527Y-211933609D02*
X-3309527Y-212457419D01*
X-2976193Y-211790752D02*
X-2595241Y-211790752D01*
X-2833336Y-211457419D02*
X-2833336Y-212314561D01*
X-2833336Y-212314561D02*
X-2785717Y-212409800D01*
X-2785717Y-212409800D02*
X-2690479Y-212457419D01*
X-2690479Y-212457419D02*
X-2595241Y-212457419D01*
X-1500002Y-212457419D02*
X-1500002Y-211457419D01*
X-1119050Y-211457419D02*
X-452384Y-212457419D01*
X-452384Y-211457419D02*
X-1119050Y-212457419D01*
X833330Y-212457419D02*
X738092Y-212409800D01*
X738092Y-212409800D02*
X690473Y-212314561D01*
X690473Y-212314561D02*
X690473Y-211457419D01*
X1595235Y-212409800D02*
X1499997Y-212457419D01*
X1499997Y-212457419D02*
X1309521Y-212457419D01*
X1309521Y-212457419D02*
X1214283Y-212409800D01*
X1214283Y-212409800D02*
X1166664Y-212314561D01*
X1166664Y-212314561D02*
X1166664Y-211933609D01*
X1166664Y-211933609D02*
X1214283Y-211838371D01*
X1214283Y-211838371D02*
X1309521Y-211790752D01*
X1309521Y-211790752D02*
X1499997Y-211790752D01*
X1499997Y-211790752D02*
X1595235Y-211838371D01*
X1595235Y-211838371D02*
X1642854Y-211933609D01*
X1642854Y-211933609D02*
X1642854Y-212028847D01*
X1642854Y-212028847D02*
X1166664Y-212124085D01*
X2499997Y-212457419D02*
X2499997Y-211933609D01*
X2499997Y-211933609D02*
X2452378Y-211838371D01*
X2452378Y-211838371D02*
X2357140Y-211790752D01*
X2357140Y-211790752D02*
X2166664Y-211790752D01*
X2166664Y-211790752D02*
X2071426Y-211838371D01*
X2499997Y-212409800D02*
X2404759Y-212457419D01*
X2404759Y-212457419D02*
X2166664Y-212457419D01*
X2166664Y-212457419D02*
X2071426Y-212409800D01*
X2071426Y-212409800D02*
X2023807Y-212314561D01*
X2023807Y-212314561D02*
X2023807Y-212219323D01*
X2023807Y-212219323D02*
X2071426Y-212124085D01*
X2071426Y-212124085D02*
X2166664Y-212076466D01*
X2166664Y-212076466D02*
X2404759Y-212076466D01*
X2404759Y-212076466D02*
X2499997Y-212028847D01*
X2880950Y-211790752D02*
X3119045Y-212457419D01*
X3119045Y-212457419D02*
X3357140Y-211790752D01*
X4119045Y-212409800D02*
X4023807Y-212457419D01*
X4023807Y-212457419D02*
X3833331Y-212457419D01*
X3833331Y-212457419D02*
X3738093Y-212409800D01*
X3738093Y-212409800D02*
X3690474Y-212314561D01*
X3690474Y-212314561D02*
X3690474Y-211933609D01*
X3690474Y-211933609D02*
X3738093Y-211838371D01*
X3738093Y-211838371D02*
X3833331Y-211790752D01*
X3833331Y-211790752D02*
X4023807Y-211790752D01*
X4023807Y-211790752D02*
X4119045Y-211838371D01*
X4119045Y-211838371D02*
X4166664Y-211933609D01*
X4166664Y-211933609D02*
X4166664Y-212028847D01*
X4166664Y-212028847D02*
X3690474Y-212124085D01*
X4547617Y-212409800D02*
X4642855Y-212457419D01*
X4642855Y-212457419D02*
X4833331Y-212457419D01*
X4833331Y-212457419D02*
X4928569Y-212409800D01*
X4928569Y-212409800D02*
X4976188Y-212314561D01*
X4976188Y-212314561D02*
X4976188Y-212266942D01*
X4976188Y-212266942D02*
X4928569Y-212171704D01*
X4928569Y-212171704D02*
X4833331Y-212124085D01*
X4833331Y-212124085D02*
X4690474Y-212124085D01*
X4690474Y-212124085D02*
X4595236Y-212076466D01*
X4595236Y-212076466D02*
X4547617Y-211981228D01*
X4547617Y-211981228D02*
X4547617Y-211933609D01*
X4547617Y-211933609D02*
X4595236Y-211838371D01*
X4595236Y-211838371D02*
X4690474Y-211790752D01*
X4690474Y-211790752D02*
X4833331Y-211790752D01*
X4833331Y-211790752D02*
X4928569Y-211838371D01*
X6595236Y-211790752D02*
X6595236Y-212457419D01*
X6166665Y-211790752D02*
X6166665Y-212314561D01*
X6166665Y-212314561D02*
X6214284Y-212409800D01*
X6214284Y-212409800D02*
X6309522Y-212457419D01*
X6309522Y-212457419D02*
X6452379Y-212457419D01*
X6452379Y-212457419D02*
X6547617Y-212409800D01*
X6547617Y-212409800D02*
X6595236Y-212362180D01*
X7071427Y-211790752D02*
X7071427Y-212457419D01*
X7071427Y-211885990D02*
X7119046Y-211838371D01*
X7119046Y-211838371D02*
X7214284Y-211790752D01*
X7214284Y-211790752D02*
X7357141Y-211790752D01*
X7357141Y-211790752D02*
X7452379Y-211838371D01*
X7452379Y-211838371D02*
X7499998Y-211933609D01*
X7499998Y-211933609D02*
X7499998Y-212457419D01*
X7833332Y-211790752D02*
X8214284Y-211790752D01*
X7976189Y-212457419D02*
X7976189Y-211600276D01*
X7976189Y-211600276D02*
X8023808Y-211505038D01*
X8023808Y-211505038D02*
X8119046Y-211457419D01*
X8119046Y-211457419D02*
X8214284Y-211457419D01*
X8547618Y-212457419D02*
X8547618Y-211790752D01*
X8547618Y-211457419D02*
X8499999Y-211505038D01*
X8499999Y-211505038D02*
X8547618Y-211552657D01*
X8547618Y-211552657D02*
X8595237Y-211505038D01*
X8595237Y-211505038D02*
X8547618Y-211457419D01*
X8547618Y-211457419D02*
X8547618Y-211552657D01*
X9166665Y-212457419D02*
X9071427Y-212409800D01*
X9071427Y-212409800D02*
X9023808Y-212314561D01*
X9023808Y-212314561D02*
X9023808Y-211457419D01*
X9690475Y-212457419D02*
X9595237Y-212409800D01*
X9595237Y-212409800D02*
X9547618Y-212314561D01*
X9547618Y-212314561D02*
X9547618Y-211457419D01*
X10452380Y-212409800D02*
X10357142Y-212457419D01*
X10357142Y-212457419D02*
X10166666Y-212457419D01*
X10166666Y-212457419D02*
X10071428Y-212409800D01*
X10071428Y-212409800D02*
X10023809Y-212314561D01*
X10023809Y-212314561D02*
X10023809Y-211933609D01*
X10023809Y-211933609D02*
X10071428Y-211838371D01*
X10071428Y-211838371D02*
X10166666Y-211790752D01*
X10166666Y-211790752D02*
X10357142Y-211790752D01*
X10357142Y-211790752D02*
X10452380Y-211838371D01*
X10452380Y-211838371D02*
X10499999Y-211933609D01*
X10499999Y-211933609D02*
X10499999Y-212028847D01*
X10499999Y-212028847D02*
X10023809Y-212124085D01*
X11357142Y-212457419D02*
X11357142Y-211457419D01*
X11357142Y-212409800D02*
X11261904Y-212457419D01*
X11261904Y-212457419D02*
X11071428Y-212457419D01*
X11071428Y-212457419D02*
X10976190Y-212409800D01*
X10976190Y-212409800D02*
X10928571Y-212362180D01*
X10928571Y-212362180D02*
X10880952Y-212266942D01*
X10880952Y-212266942D02*
X10880952Y-211981228D01*
X10880952Y-211981228D02*
X10928571Y-211885990D01*
X10928571Y-211885990D02*
X10976190Y-211838371D01*
X10976190Y-211838371D02*
X11071428Y-211790752D01*
X11071428Y-211790752D02*
X11261904Y-211790752D01*
X11261904Y-211790752D02*
X11357142Y-211838371D01*
X12452381Y-211790752D02*
X12833333Y-211790752D01*
X12595238Y-212457419D02*
X12595238Y-211600276D01*
X12595238Y-211600276D02*
X12642857Y-211505038D01*
X12642857Y-211505038D02*
X12738095Y-211457419D01*
X12738095Y-211457419D02*
X12833333Y-211457419D01*
X13309524Y-212457419D02*
X13214286Y-212409800D01*
X13214286Y-212409800D02*
X13166667Y-212362180D01*
X13166667Y-212362180D02*
X13119048Y-212266942D01*
X13119048Y-212266942D02*
X13119048Y-211981228D01*
X13119048Y-211981228D02*
X13166667Y-211885990D01*
X13166667Y-211885990D02*
X13214286Y-211838371D01*
X13214286Y-211838371D02*
X13309524Y-211790752D01*
X13309524Y-211790752D02*
X13452381Y-211790752D01*
X13452381Y-211790752D02*
X13547619Y-211838371D01*
X13547619Y-211838371D02*
X13595238Y-211885990D01*
X13595238Y-211885990D02*
X13642857Y-211981228D01*
X13642857Y-211981228D02*
X13642857Y-212266942D01*
X13642857Y-212266942D02*
X13595238Y-212362180D01*
X13595238Y-212362180D02*
X13547619Y-212409800D01*
X13547619Y-212409800D02*
X13452381Y-212457419D01*
X13452381Y-212457419D02*
X13309524Y-212457419D01*
X14071429Y-212457419D02*
X14071429Y-211790752D01*
X14071429Y-211981228D02*
X14119048Y-211885990D01*
X14119048Y-211885990D02*
X14166667Y-211838371D01*
X14166667Y-211838371D02*
X14261905Y-211790752D01*
X14261905Y-211790752D02*
X14357143Y-211790752D01*
X15452382Y-212457419D02*
X15452382Y-211457419D01*
X15452382Y-211457419D02*
X15690477Y-211457419D01*
X15690477Y-211457419D02*
X15833334Y-211505038D01*
X15833334Y-211505038D02*
X15928572Y-211600276D01*
X15928572Y-211600276D02*
X15976191Y-211695514D01*
X15976191Y-211695514D02*
X16023810Y-211885990D01*
X16023810Y-211885990D02*
X16023810Y-212028847D01*
X16023810Y-212028847D02*
X15976191Y-212219323D01*
X15976191Y-212219323D02*
X15928572Y-212314561D01*
X15928572Y-212314561D02*
X15833334Y-212409800D01*
X15833334Y-212409800D02*
X15690477Y-212457419D01*
X15690477Y-212457419D02*
X15452382Y-212457419D01*
X17023810Y-212457419D02*
X16690477Y-211981228D01*
X16452382Y-212457419D02*
X16452382Y-211457419D01*
X16452382Y-211457419D02*
X16833334Y-211457419D01*
X16833334Y-211457419D02*
X16928572Y-211505038D01*
X16928572Y-211505038D02*
X16976191Y-211552657D01*
X16976191Y-211552657D02*
X17023810Y-211647895D01*
X17023810Y-211647895D02*
X17023810Y-211790752D01*
X17023810Y-211790752D02*
X16976191Y-211885990D01*
X16976191Y-211885990D02*
X16928572Y-211933609D01*
X16928572Y-211933609D02*
X16833334Y-211981228D01*
X16833334Y-211981228D02*
X16452382Y-211981228D01*
X18023810Y-212362180D02*
X17976191Y-212409800D01*
X17976191Y-212409800D02*
X17833334Y-212457419D01*
X17833334Y-212457419D02*
X17738096Y-212457419D01*
X17738096Y-212457419D02*
X17595239Y-212409800D01*
X17595239Y-212409800D02*
X17500001Y-212314561D01*
X17500001Y-212314561D02*
X17452382Y-212219323D01*
X17452382Y-212219323D02*
X17404763Y-212028847D01*
X17404763Y-212028847D02*
X17404763Y-211885990D01*
X17404763Y-211885990D02*
X17452382Y-211695514D01*
X17452382Y-211695514D02*
X17500001Y-211600276D01*
X17500001Y-211600276D02*
X17595239Y-211505038D01*
X17595239Y-211505038D02*
X17738096Y-211457419D01*
X17738096Y-211457419D02*
X17833334Y-211457419D01*
X17833334Y-211457419D02*
X17976191Y-211505038D01*
X17976191Y-211505038D02*
X18023810Y-211552657D01*
X18452382Y-212076466D02*
X19214287Y-212076466D01*
X20119048Y-212409800D02*
X20023810Y-212457419D01*
X20023810Y-212457419D02*
X19833334Y-212457419D01*
X19833334Y-212457419D02*
X19738096Y-212409800D01*
X19738096Y-212409800D02*
X19690477Y-212362180D01*
X19690477Y-212362180D02*
X19642858Y-212266942D01*
X19642858Y-212266942D02*
X19642858Y-211981228D01*
X19642858Y-211981228D02*
X19690477Y-211885990D01*
X19690477Y-211885990D02*
X19738096Y-211838371D01*
X19738096Y-211838371D02*
X19833334Y-211790752D01*
X19833334Y-211790752D02*
X20023810Y-211790752D01*
X20023810Y-211790752D02*
X20119048Y-211838371D01*
X20690477Y-212457419D02*
X20595239Y-212409800D01*
X20595239Y-212409800D02*
X20547620Y-212314561D01*
X20547620Y-212314561D02*
X20547620Y-211457419D01*
X21452382Y-212409800D02*
X21357144Y-212457419D01*
X21357144Y-212457419D02*
X21166668Y-212457419D01*
X21166668Y-212457419D02*
X21071430Y-212409800D01*
X21071430Y-212409800D02*
X21023811Y-212314561D01*
X21023811Y-212314561D02*
X21023811Y-211933609D01*
X21023811Y-211933609D02*
X21071430Y-211838371D01*
X21071430Y-211838371D02*
X21166668Y-211790752D01*
X21166668Y-211790752D02*
X21357144Y-211790752D01*
X21357144Y-211790752D02*
X21452382Y-211838371D01*
X21452382Y-211838371D02*
X21500001Y-211933609D01*
X21500001Y-211933609D02*
X21500001Y-212028847D01*
X21500001Y-212028847D02*
X21023811Y-212124085D01*
X22357144Y-212457419D02*
X22357144Y-211933609D01*
X22357144Y-211933609D02*
X22309525Y-211838371D01*
X22309525Y-211838371D02*
X22214287Y-211790752D01*
X22214287Y-211790752D02*
X22023811Y-211790752D01*
X22023811Y-211790752D02*
X21928573Y-211838371D01*
X22357144Y-212409800D02*
X22261906Y-212457419D01*
X22261906Y-212457419D02*
X22023811Y-212457419D01*
X22023811Y-212457419D02*
X21928573Y-212409800D01*
X21928573Y-212409800D02*
X21880954Y-212314561D01*
X21880954Y-212314561D02*
X21880954Y-212219323D01*
X21880954Y-212219323D02*
X21928573Y-212124085D01*
X21928573Y-212124085D02*
X22023811Y-212076466D01*
X22023811Y-212076466D02*
X22261906Y-212076466D01*
X22261906Y-212076466D02*
X22357144Y-212028847D01*
X22833335Y-211790752D02*
X22833335Y-212457419D01*
X22833335Y-211885990D02*
X22880954Y-211838371D01*
X22880954Y-211838371D02*
X22976192Y-211790752D01*
X22976192Y-211790752D02*
X23119049Y-211790752D01*
X23119049Y-211790752D02*
X23214287Y-211838371D01*
X23214287Y-211838371D02*
X23261906Y-211933609D01*
X23261906Y-211933609D02*
X23261906Y-212457419D01*
X24928573Y-212457419D02*
X24928573Y-211457419D01*
X24928573Y-212409800D02*
X24833335Y-212457419D01*
X24833335Y-212457419D02*
X24642859Y-212457419D01*
X24642859Y-212457419D02*
X24547621Y-212409800D01*
X24547621Y-212409800D02*
X24500002Y-212362180D01*
X24500002Y-212362180D02*
X24452383Y-212266942D01*
X24452383Y-212266942D02*
X24452383Y-211981228D01*
X24452383Y-211981228D02*
X24500002Y-211885990D01*
X24500002Y-211885990D02*
X24547621Y-211838371D01*
X24547621Y-211838371D02*
X24642859Y-211790752D01*
X24642859Y-211790752D02*
X24833335Y-211790752D01*
X24833335Y-211790752D02*
X24928573Y-211838371D01*
X25404764Y-212457419D02*
X25404764Y-211790752D01*
X25404764Y-211457419D02*
X25357145Y-211505038D01*
X25357145Y-211505038D02*
X25404764Y-211552657D01*
X25404764Y-211552657D02*
X25452383Y-211505038D01*
X25452383Y-211505038D02*
X25404764Y-211457419D01*
X25404764Y-211457419D02*
X25404764Y-211552657D01*
X26309525Y-211790752D02*
X26309525Y-212600276D01*
X26309525Y-212600276D02*
X26261906Y-212695514D01*
X26261906Y-212695514D02*
X26214287Y-212743133D01*
X26214287Y-212743133D02*
X26119049Y-212790752D01*
X26119049Y-212790752D02*
X25976192Y-212790752D01*
X25976192Y-212790752D02*
X25880954Y-212743133D01*
X26309525Y-212409800D02*
X26214287Y-212457419D01*
X26214287Y-212457419D02*
X26023811Y-212457419D01*
X26023811Y-212457419D02*
X25928573Y-212409800D01*
X25928573Y-212409800D02*
X25880954Y-212362180D01*
X25880954Y-212362180D02*
X25833335Y-212266942D01*
X25833335Y-212266942D02*
X25833335Y-211981228D01*
X25833335Y-211981228D02*
X25880954Y-211885990D01*
X25880954Y-211885990D02*
X25928573Y-211838371D01*
X25928573Y-211838371D02*
X26023811Y-211790752D01*
X26023811Y-211790752D02*
X26214287Y-211790752D01*
X26214287Y-211790752D02*
X26309525Y-211838371D01*
X26785716Y-212457419D02*
X26785716Y-211790752D01*
X26785716Y-211457419D02*
X26738097Y-211505038D01*
X26738097Y-211505038D02*
X26785716Y-211552657D01*
X26785716Y-211552657D02*
X26833335Y-211505038D01*
X26833335Y-211505038D02*
X26785716Y-211457419D01*
X26785716Y-211457419D02*
X26785716Y-211552657D01*
X27119049Y-211790752D02*
X27500001Y-211790752D01*
X27261906Y-211457419D02*
X27261906Y-212314561D01*
X27261906Y-212314561D02*
X27309525Y-212409800D01*
X27309525Y-212409800D02*
X27404763Y-212457419D01*
X27404763Y-212457419D02*
X27500001Y-212457419D01*
X28261906Y-212457419D02*
X28261906Y-211933609D01*
X28261906Y-211933609D02*
X28214287Y-211838371D01*
X28214287Y-211838371D02*
X28119049Y-211790752D01*
X28119049Y-211790752D02*
X27928573Y-211790752D01*
X27928573Y-211790752D02*
X27833335Y-211838371D01*
X28261906Y-212409800D02*
X28166668Y-212457419D01*
X28166668Y-212457419D02*
X27928573Y-212457419D01*
X27928573Y-212457419D02*
X27833335Y-212409800D01*
X27833335Y-212409800D02*
X27785716Y-212314561D01*
X27785716Y-212314561D02*
X27785716Y-212219323D01*
X27785716Y-212219323D02*
X27833335Y-212124085D01*
X27833335Y-212124085D02*
X27928573Y-212076466D01*
X27928573Y-212076466D02*
X28166668Y-212076466D01*
X28166668Y-212076466D02*
X28261906Y-212028847D01*
X28880954Y-212457419D02*
X28785716Y-212409800D01*
X28785716Y-212409800D02*
X28738097Y-212314561D01*
X28738097Y-212314561D02*
X28738097Y-211457419D01*
X30023812Y-211790752D02*
X30023812Y-212790752D01*
X30023812Y-211838371D02*
X30119050Y-211790752D01*
X30119050Y-211790752D02*
X30309526Y-211790752D01*
X30309526Y-211790752D02*
X30404764Y-211838371D01*
X30404764Y-211838371D02*
X30452383Y-211885990D01*
X30452383Y-211885990D02*
X30500002Y-211981228D01*
X30500002Y-211981228D02*
X30500002Y-212266942D01*
X30500002Y-212266942D02*
X30452383Y-212362180D01*
X30452383Y-212362180D02*
X30404764Y-212409800D01*
X30404764Y-212409800D02*
X30309526Y-212457419D01*
X30309526Y-212457419D02*
X30119050Y-212457419D01*
X30119050Y-212457419D02*
X30023812Y-212409800D01*
X31357145Y-212457419D02*
X31357145Y-211933609D01*
X31357145Y-211933609D02*
X31309526Y-211838371D01*
X31309526Y-211838371D02*
X31214288Y-211790752D01*
X31214288Y-211790752D02*
X31023812Y-211790752D01*
X31023812Y-211790752D02*
X30928574Y-211838371D01*
X31357145Y-212409800D02*
X31261907Y-212457419D01*
X31261907Y-212457419D02*
X31023812Y-212457419D01*
X31023812Y-212457419D02*
X30928574Y-212409800D01*
X30928574Y-212409800D02*
X30880955Y-212314561D01*
X30880955Y-212314561D02*
X30880955Y-212219323D01*
X30880955Y-212219323D02*
X30928574Y-212124085D01*
X30928574Y-212124085D02*
X31023812Y-212076466D01*
X31023812Y-212076466D02*
X31261907Y-212076466D01*
X31261907Y-212076466D02*
X31357145Y-212028847D01*
X32261907Y-212409800D02*
X32166669Y-212457419D01*
X32166669Y-212457419D02*
X31976193Y-212457419D01*
X31976193Y-212457419D02*
X31880955Y-212409800D01*
X31880955Y-212409800D02*
X31833336Y-212362180D01*
X31833336Y-212362180D02*
X31785717Y-212266942D01*
X31785717Y-212266942D02*
X31785717Y-211981228D01*
X31785717Y-211981228D02*
X31833336Y-211885990D01*
X31833336Y-211885990D02*
X31880955Y-211838371D01*
X31880955Y-211838371D02*
X31976193Y-211790752D01*
X31976193Y-211790752D02*
X32166669Y-211790752D01*
X32166669Y-211790752D02*
X32261907Y-211838371D01*
X32690479Y-212457419D02*
X32690479Y-211457419D01*
X32785717Y-212076466D02*
X33071431Y-212457419D01*
X33071431Y-211790752D02*
X32690479Y-212171704D01*
X33928574Y-212457419D02*
X33928574Y-211933609D01*
X33928574Y-211933609D02*
X33880955Y-211838371D01*
X33880955Y-211838371D02*
X33785717Y-211790752D01*
X33785717Y-211790752D02*
X33595241Y-211790752D01*
X33595241Y-211790752D02*
X33500003Y-211838371D01*
X33928574Y-212409800D02*
X33833336Y-212457419D01*
X33833336Y-212457419D02*
X33595241Y-212457419D01*
X33595241Y-212457419D02*
X33500003Y-212409800D01*
X33500003Y-212409800D02*
X33452384Y-212314561D01*
X33452384Y-212314561D02*
X33452384Y-212219323D01*
X33452384Y-212219323D02*
X33500003Y-212124085D01*
X33500003Y-212124085D02*
X33595241Y-212076466D01*
X33595241Y-212076466D02*
X33833336Y-212076466D01*
X33833336Y-212076466D02*
X33928574Y-212028847D01*
X34833336Y-211790752D02*
X34833336Y-212600276D01*
X34833336Y-212600276D02*
X34785717Y-212695514D01*
X34785717Y-212695514D02*
X34738098Y-212743133D01*
X34738098Y-212743133D02*
X34642860Y-212790752D01*
X34642860Y-212790752D02*
X34500003Y-212790752D01*
X34500003Y-212790752D02*
X34404765Y-212743133D01*
X34833336Y-212409800D02*
X34738098Y-212457419D01*
X34738098Y-212457419D02*
X34547622Y-212457419D01*
X34547622Y-212457419D02*
X34452384Y-212409800D01*
X34452384Y-212409800D02*
X34404765Y-212362180D01*
X34404765Y-212362180D02*
X34357146Y-212266942D01*
X34357146Y-212266942D02*
X34357146Y-211981228D01*
X34357146Y-211981228D02*
X34404765Y-211885990D01*
X34404765Y-211885990D02*
X34452384Y-211838371D01*
X34452384Y-211838371D02*
X34547622Y-211790752D01*
X34547622Y-211790752D02*
X34738098Y-211790752D01*
X34738098Y-211790752D02*
X34833336Y-211838371D01*
X35690479Y-212409800D02*
X35595241Y-212457419D01*
X35595241Y-212457419D02*
X35404765Y-212457419D01*
X35404765Y-212457419D02*
X35309527Y-212409800D01*
X35309527Y-212409800D02*
X35261908Y-212314561D01*
X35261908Y-212314561D02*
X35261908Y-211933609D01*
X35261908Y-211933609D02*
X35309527Y-211838371D01*
X35309527Y-211838371D02*
X35404765Y-211790752D01*
X35404765Y-211790752D02*
X35595241Y-211790752D01*
X35595241Y-211790752D02*
X35690479Y-211838371D01*
X35690479Y-211838371D02*
X35738098Y-211933609D01*
X35738098Y-211933609D02*
X35738098Y-212028847D01*
X35738098Y-212028847D02*
X35261908Y-212124085D01*
X36214289Y-212409800D02*
X36214289Y-212457419D01*
X36214289Y-212457419D02*
X36166670Y-212552657D01*
X36166670Y-212552657D02*
X36119051Y-212600276D01*
X36166670Y-211838371D02*
X36214289Y-211885990D01*
X36214289Y-211885990D02*
X36166670Y-211933609D01*
X36166670Y-211933609D02*
X36119051Y-211885990D01*
X36119051Y-211885990D02*
X36166670Y-211838371D01*
X36166670Y-211838371D02*
X36166670Y-211933609D01*
X37976193Y-212362180D02*
X37928574Y-212409800D01*
X37928574Y-212409800D02*
X37785717Y-212457419D01*
X37785717Y-212457419D02*
X37690479Y-212457419D01*
X37690479Y-212457419D02*
X37547622Y-212409800D01*
X37547622Y-212409800D02*
X37452384Y-212314561D01*
X37452384Y-212314561D02*
X37404765Y-212219323D01*
X37404765Y-212219323D02*
X37357146Y-212028847D01*
X37357146Y-212028847D02*
X37357146Y-211885990D01*
X37357146Y-211885990D02*
X37404765Y-211695514D01*
X37404765Y-211695514D02*
X37452384Y-211600276D01*
X37452384Y-211600276D02*
X37547622Y-211505038D01*
X37547622Y-211505038D02*
X37690479Y-211457419D01*
X37690479Y-211457419D02*
X37785717Y-211457419D01*
X37785717Y-211457419D02*
X37928574Y-211505038D01*
X37928574Y-211505038D02*
X37976193Y-211552657D01*
X38357146Y-212171704D02*
X38833336Y-212171704D01*
X38261908Y-212457419D02*
X38595241Y-211457419D01*
X38595241Y-211457419D02*
X38928574Y-212457419D01*
X39261908Y-212457419D02*
X39261908Y-211457419D01*
X39261908Y-211457419D02*
X39595241Y-212171704D01*
X39595241Y-212171704D02*
X39928574Y-211457419D01*
X39928574Y-211457419D02*
X39928574Y-212457419D01*
X41023813Y-211790752D02*
X41404765Y-211790752D01*
X41166670Y-212457419D02*
X41166670Y-211600276D01*
X41166670Y-211600276D02*
X41214289Y-211505038D01*
X41214289Y-211505038D02*
X41309527Y-211457419D01*
X41309527Y-211457419D02*
X41404765Y-211457419D01*
X41738099Y-212457419D02*
X41738099Y-211790752D01*
X41738099Y-211457419D02*
X41690480Y-211505038D01*
X41690480Y-211505038D02*
X41738099Y-211552657D01*
X41738099Y-211552657D02*
X41785718Y-211505038D01*
X41785718Y-211505038D02*
X41738099Y-211457419D01*
X41738099Y-211457419D02*
X41738099Y-211552657D01*
X42357146Y-212457419D02*
X42261908Y-212409800D01*
X42261908Y-212409800D02*
X42214289Y-212314561D01*
X42214289Y-212314561D02*
X42214289Y-211457419D01*
X42880956Y-212457419D02*
X42785718Y-212409800D01*
X42785718Y-212409800D02*
X42738099Y-212314561D01*
X42738099Y-212314561D02*
X42738099Y-211457419D01*
X44452385Y-212457419D02*
X44452385Y-211933609D01*
X44452385Y-211933609D02*
X44404766Y-211838371D01*
X44404766Y-211838371D02*
X44309528Y-211790752D01*
X44309528Y-211790752D02*
X44119052Y-211790752D01*
X44119052Y-211790752D02*
X44023814Y-211838371D01*
X44452385Y-212409800D02*
X44357147Y-212457419D01*
X44357147Y-212457419D02*
X44119052Y-212457419D01*
X44119052Y-212457419D02*
X44023814Y-212409800D01*
X44023814Y-212409800D02*
X43976195Y-212314561D01*
X43976195Y-212314561D02*
X43976195Y-212219323D01*
X43976195Y-212219323D02*
X44023814Y-212124085D01*
X44023814Y-212124085D02*
X44119052Y-212076466D01*
X44119052Y-212076466D02*
X44357147Y-212076466D01*
X44357147Y-212076466D02*
X44452385Y-212028847D01*
X44785719Y-211790752D02*
X45166671Y-211790752D01*
X44928576Y-211457419D02*
X44928576Y-212314561D01*
X44928576Y-212314561D02*
X44976195Y-212409800D01*
X44976195Y-212409800D02*
X45071433Y-212457419D01*
X45071433Y-212457419D02*
X45166671Y-212457419D01*
X46119053Y-211790752D02*
X46500005Y-211790752D01*
X46261910Y-212457419D02*
X46261910Y-211600276D01*
X46261910Y-211600276D02*
X46309529Y-211505038D01*
X46309529Y-211505038D02*
X46404767Y-211457419D01*
X46404767Y-211457419D02*
X46500005Y-211457419D01*
X47261910Y-212457419D02*
X47261910Y-211933609D01*
X47261910Y-211933609D02*
X47214291Y-211838371D01*
X47214291Y-211838371D02*
X47119053Y-211790752D01*
X47119053Y-211790752D02*
X46928577Y-211790752D01*
X46928577Y-211790752D02*
X46833339Y-211838371D01*
X47261910Y-212409800D02*
X47166672Y-212457419D01*
X47166672Y-212457419D02*
X46928577Y-212457419D01*
X46928577Y-212457419D02*
X46833339Y-212409800D01*
X46833339Y-212409800D02*
X46785720Y-212314561D01*
X46785720Y-212314561D02*
X46785720Y-212219323D01*
X46785720Y-212219323D02*
X46833339Y-212124085D01*
X46833339Y-212124085D02*
X46928577Y-212076466D01*
X46928577Y-212076466D02*
X47166672Y-212076466D01*
X47166672Y-212076466D02*
X47261910Y-212028847D01*
X47738101Y-212457419D02*
X47738101Y-211457419D01*
X47738101Y-211838371D02*
X47833339Y-211790752D01*
X47833339Y-211790752D02*
X48023815Y-211790752D01*
X48023815Y-211790752D02*
X48119053Y-211838371D01*
X48119053Y-211838371D02*
X48166672Y-211885990D01*
X48166672Y-211885990D02*
X48214291Y-211981228D01*
X48214291Y-211981228D02*
X48214291Y-212266942D01*
X48214291Y-212266942D02*
X48166672Y-212362180D01*
X48166672Y-212362180D02*
X48119053Y-212409800D01*
X48119053Y-212409800D02*
X48023815Y-212457419D01*
X48023815Y-212457419D02*
X47833339Y-212457419D01*
X47833339Y-212457419D02*
X47738101Y-212409800D01*
X-23642863Y-211505038D02*
X-23738101Y-211457419D01*
X-23738101Y-211457419D02*
X-23880958Y-211457419D01*
X-23880958Y-211457419D02*
X-24023815Y-211505038D01*
X-24023815Y-211505038D02*
X-24119053Y-211600276D01*
X-24119053Y-211600276D02*
X-24166672Y-211695514D01*
X-24166672Y-211695514D02*
X-24214291Y-211885990D01*
X-24214291Y-211885990D02*
X-24214291Y-212028847D01*
X-24214291Y-212028847D02*
X-24166672Y-212219323D01*
X-24166672Y-212219323D02*
X-24119053Y-212314561D01*
X-24119053Y-212314561D02*
X-24023815Y-212409800D01*
X-24023815Y-212409800D02*
X-23880958Y-212457419D01*
X-23880958Y-212457419D02*
X-23785720Y-212457419D01*
X-23785720Y-212457419D02*
X-23642863Y-212409800D01*
X-23642863Y-212409800D02*
X-23595244Y-212362180D01*
X-23595244Y-212362180D02*
X-23595244Y-212028847D01*
X-23595244Y-212028847D02*
X-23785720Y-212028847D01*
X-23166672Y-212457419D02*
X-23166672Y-211457419D01*
X-23166672Y-211457419D02*
X-22595244Y-212457419D01*
X-22595244Y-212457419D02*
X-22595244Y-211457419D01*
X-22119053Y-212457419D02*
X-22119053Y-211457419D01*
X-22119053Y-211457419D02*
X-21880958Y-211457419D01*
X-21880958Y-211457419D02*
X-21738101Y-211505038D01*
X-21738101Y-211505038D02*
X-21642863Y-211600276D01*
X-21642863Y-211600276D02*
X-21595244Y-211695514D01*
X-21595244Y-211695514D02*
X-21547625Y-211885990D01*
X-21547625Y-211885990D02*
X-21547625Y-212028847D01*
X-21547625Y-212028847D02*
X-21595244Y-212219323D01*
X-21595244Y-212219323D02*
X-21642863Y-212314561D01*
X-21642863Y-212314561D02*
X-21738101Y-212409800D01*
X-21738101Y-212409800D02*
X-21880958Y-212457419D01*
X-21880958Y-212457419D02*
X-22119053Y-212457419D01*
X-20357148Y-211790752D02*
X-20357148Y-212790752D01*
X-20357148Y-211838371D02*
X-20261910Y-211790752D01*
X-20261910Y-211790752D02*
X-20071434Y-211790752D01*
X-20071434Y-211790752D02*
X-19976196Y-211838371D01*
X-19976196Y-211838371D02*
X-19928577Y-211885990D01*
X-19928577Y-211885990D02*
X-19880958Y-211981228D01*
X-19880958Y-211981228D02*
X-19880958Y-212266942D01*
X-19880958Y-212266942D02*
X-19928577Y-212362180D01*
X-19928577Y-212362180D02*
X-19976196Y-212409800D01*
X-19976196Y-212409800D02*
X-20071434Y-212457419D01*
X-20071434Y-212457419D02*
X-20261910Y-212457419D01*
X-20261910Y-212457419D02*
X-20357148Y-212409800D01*
X-19309529Y-212457419D02*
X-19404767Y-212409800D01*
X-19404767Y-212409800D02*
X-19452386Y-212362180D01*
X-19452386Y-212362180D02*
X-19500005Y-212266942D01*
X-19500005Y-212266942D02*
X-19500005Y-211981228D01*
X-19500005Y-211981228D02*
X-19452386Y-211885990D01*
X-19452386Y-211885990D02*
X-19404767Y-211838371D01*
X-19404767Y-211838371D02*
X-19309529Y-211790752D01*
X-19309529Y-211790752D02*
X-19166672Y-211790752D01*
X-19166672Y-211790752D02*
X-19071434Y-211838371D01*
X-19071434Y-211838371D02*
X-19023815Y-211885990D01*
X-19023815Y-211885990D02*
X-18976196Y-211981228D01*
X-18976196Y-211981228D02*
X-18976196Y-212266942D01*
X-18976196Y-212266942D02*
X-19023815Y-212362180D01*
X-19023815Y-212362180D02*
X-19071434Y-212409800D01*
X-19071434Y-212409800D02*
X-19166672Y-212457419D01*
X-19166672Y-212457419D02*
X-19309529Y-212457419D01*
X-18119053Y-211790752D02*
X-18119053Y-212457419D01*
X-18547624Y-211790752D02*
X-18547624Y-212314561D01*
X-18547624Y-212314561D02*
X-18500005Y-212409800D01*
X-18500005Y-212409800D02*
X-18404767Y-212457419D01*
X-18404767Y-212457419D02*
X-18261910Y-212457419D01*
X-18261910Y-212457419D02*
X-18166672Y-212409800D01*
X-18166672Y-212409800D02*
X-18119053Y-212362180D01*
X-17642862Y-212457419D02*
X-17642862Y-211790752D01*
X-17642862Y-211981228D02*
X-17595243Y-211885990D01*
X-17595243Y-211885990D02*
X-17547624Y-211838371D01*
X-17547624Y-211838371D02*
X-17452386Y-211790752D01*
X-17452386Y-211790752D02*
X-17357148Y-211790752D01*
X-16261909Y-212457419D02*
X-16261909Y-211790752D01*
X-16261909Y-211457419D02*
X-16309528Y-211505038D01*
X-16309528Y-211505038D02*
X-16261909Y-211552657D01*
X-16261909Y-211552657D02*
X-16214290Y-211505038D01*
X-16214290Y-211505038D02*
X-16261909Y-211457419D01*
X-16261909Y-211457419D02*
X-16261909Y-211552657D01*
X-15785719Y-211790752D02*
X-15785719Y-212457419D01*
X-15785719Y-211885990D02*
X-15738100Y-211838371D01*
X-15738100Y-211838371D02*
X-15642862Y-211790752D01*
X-15642862Y-211790752D02*
X-15500005Y-211790752D01*
X-15500005Y-211790752D02*
X-15404767Y-211838371D01*
X-15404767Y-211838371D02*
X-15357148Y-211933609D01*
X-15357148Y-211933609D02*
X-15357148Y-212457419D01*
X-15023814Y-211790752D02*
X-14642862Y-211790752D01*
X-14880957Y-211457419D02*
X-14880957Y-212314561D01*
X-14880957Y-212314561D02*
X-14833338Y-212409800D01*
X-14833338Y-212409800D02*
X-14738100Y-212457419D01*
X-14738100Y-212457419D02*
X-14642862Y-212457419D01*
X-13928576Y-212409800D02*
X-14023814Y-212457419D01*
X-14023814Y-212457419D02*
X-14214290Y-212457419D01*
X-14214290Y-212457419D02*
X-14309528Y-212409800D01*
X-14309528Y-212409800D02*
X-14357147Y-212314561D01*
X-14357147Y-212314561D02*
X-14357147Y-211933609D01*
X-14357147Y-211933609D02*
X-14309528Y-211838371D01*
X-14309528Y-211838371D02*
X-14214290Y-211790752D01*
X-14214290Y-211790752D02*
X-14023814Y-211790752D01*
X-14023814Y-211790752D02*
X-13928576Y-211838371D01*
X-13928576Y-211838371D02*
X-13880957Y-211933609D01*
X-13880957Y-211933609D02*
X-13880957Y-212028847D01*
X-13880957Y-212028847D02*
X-14357147Y-212124085D01*
X-13452385Y-211790752D02*
X-13452385Y-212457419D01*
X-13452385Y-211885990D02*
X-13404766Y-211838371D01*
X-13404766Y-211838371D02*
X-13309528Y-211790752D01*
X-13309528Y-211790752D02*
X-13166671Y-211790752D01*
X-13166671Y-211790752D02*
X-13071433Y-211838371D01*
X-13071433Y-211838371D02*
X-13023814Y-211933609D01*
X-13023814Y-211933609D02*
X-13023814Y-212457419D01*
X-12690480Y-211790752D02*
X-12309528Y-211790752D01*
X-12547623Y-211457419D02*
X-12547623Y-212314561D01*
X-12547623Y-212314561D02*
X-12500004Y-212409800D01*
X-12500004Y-212409800D02*
X-12404766Y-212457419D01*
X-12404766Y-212457419D02*
X-12309528Y-212457419D01*
X-10880956Y-211933609D02*
X-11214289Y-211933609D01*
X-11214289Y-212457419D02*
X-11214289Y-211457419D01*
X-11214289Y-211457419D02*
X-10738099Y-211457419D01*
X-9642861Y-211409800D02*
X-10500003Y-212695514D01*
X-8976194Y-211933609D02*
X-8833337Y-211981228D01*
X-8833337Y-211981228D02*
X-8785718Y-212028847D01*
X-8785718Y-212028847D02*
X-8738099Y-212124085D01*
X-8738099Y-212124085D02*
X-8738099Y-212266942D01*
X-8738099Y-212266942D02*
X-8785718Y-212362180D01*
X-8785718Y-212362180D02*
X-8833337Y-212409800D01*
X-8833337Y-212409800D02*
X-8928575Y-212457419D01*
X-8928575Y-212457419D02*
X-9309527Y-212457419D01*
X-9309527Y-212457419D02*
X-9309527Y-211457419D01*
X-9309527Y-211457419D02*
X-8976194Y-211457419D01*
X-8976194Y-211457419D02*
X-8880956Y-211505038D01*
X-8880956Y-211505038D02*
X-8833337Y-211552657D01*
X-8833337Y-211552657D02*
X-8785718Y-211647895D01*
X-8785718Y-211647895D02*
X-8785718Y-211743133D01*
X-8785718Y-211743133D02*
X-8833337Y-211838371D01*
X-8833337Y-211838371D02*
X-8880956Y-211885990D01*
X-8880956Y-211885990D02*
X-8976194Y-211933609D01*
X-8976194Y-211933609D02*
X-9309527Y-211933609D01*
X-7642860Y-212124085D02*
X-6785718Y-212124085D01*
X-5071432Y-212362180D02*
X-5119051Y-212409800D01*
X-5119051Y-212409800D02*
X-5261908Y-212457419D01*
X-5261908Y-212457419D02*
X-5357146Y-212457419D01*
X-5357146Y-212457419D02*
X-5500003Y-212409800D01*
X-5500003Y-212409800D02*
X-5595241Y-212314561D01*
X-5595241Y-212314561D02*
X-5642860Y-212219323D01*
X-5642860Y-212219323D02*
X-5690479Y-212028847D01*
X-5690479Y-212028847D02*
X-5690479Y-211885990D01*
X-5690479Y-211885990D02*
X-5642860Y-211695514D01*
X-5642860Y-211695514D02*
X-5595241Y-211600276D01*
X-5595241Y-211600276D02*
X-5500003Y-211505038D01*
X-5500003Y-211505038D02*
X-5357146Y-211457419D01*
X-5357146Y-211457419D02*
X-5261908Y-211457419D01*
X-5261908Y-211457419D02*
X-5119051Y-211505038D01*
X-5119051Y-211505038D02*
X-5071432Y-211552657D01*
X-4500003Y-212457419D02*
X-4595241Y-212409800D01*
X-4595241Y-212409800D02*
X-4642860Y-212362180D01*
X-4642860Y-212362180D02*
X-4690479Y-212266942D01*
X-4690479Y-212266942D02*
X-4690479Y-211981228D01*
X-4690479Y-211981228D02*
X-4642860Y-211885990D01*
X-4642860Y-211885990D02*
X-4595241Y-211838371D01*
X-4595241Y-211838371D02*
X-4500003Y-211790752D01*
X-4500003Y-211790752D02*
X-4357146Y-211790752D01*
X-4357146Y-211790752D02*
X-4261908Y-211838371D01*
X-4261908Y-211838371D02*
X-4214289Y-211885990D01*
X-4214289Y-211885990D02*
X-4166670Y-211981228D01*
X-4166670Y-211981228D02*
X-4166670Y-212266942D01*
X-4166670Y-212266942D02*
X-4214289Y-212362180D01*
X-4214289Y-212362180D02*
X-4261908Y-212409800D01*
X-4261908Y-212409800D02*
X-4357146Y-212457419D01*
X-4357146Y-212457419D02*
X-4500003Y-212457419D01*
X-3738098Y-211790752D02*
X-3738098Y-212457419D01*
X-3738098Y-211885990D02*
X-3690479Y-211838371D01*
X-3690479Y-211838371D02*
X-3595241Y-211790752D01*
X-3595241Y-211790752D02*
X-3452384Y-211790752D01*
X-3452384Y-211790752D02*
X-3357146Y-211838371D01*
X-3357146Y-211838371D02*
X-3309527Y-211933609D01*
X-3309527Y-211933609D02*
X-3309527Y-212457419D01*
X-2976193Y-211790752D02*
X-2595241Y-211790752D01*
X-2833336Y-211457419D02*
X-2833336Y-212314561D01*
X-2833336Y-212314561D02*
X-2785717Y-212409800D01*
X-2785717Y-212409800D02*
X-2690479Y-212457419D01*
X-2690479Y-212457419D02*
X-2595241Y-212457419D01*
X-1500002Y-212457419D02*
X-1500002Y-211457419D01*
X-1119050Y-211457419D02*
X-452384Y-212457419D01*
X-452384Y-211457419D02*
X-1119050Y-212457419D01*
X833330Y-212457419D02*
X738092Y-212409800D01*
X738092Y-212409800D02*
X690473Y-212314561D01*
X690473Y-212314561D02*
X690473Y-211457419D01*
X1595235Y-212409800D02*
X1499997Y-212457419D01*
X1499997Y-212457419D02*
X1309521Y-212457419D01*
X1309521Y-212457419D02*
X1214283Y-212409800D01*
X1214283Y-212409800D02*
X1166664Y-212314561D01*
X1166664Y-212314561D02*
X1166664Y-211933609D01*
X1166664Y-211933609D02*
X1214283Y-211838371D01*
X1214283Y-211838371D02*
X1309521Y-211790752D01*
X1309521Y-211790752D02*
X1499997Y-211790752D01*
X1499997Y-211790752D02*
X1595235Y-211838371D01*
X1595235Y-211838371D02*
X1642854Y-211933609D01*
X1642854Y-211933609D02*
X1642854Y-212028847D01*
X1642854Y-212028847D02*
X1166664Y-212124085D01*
X2499997Y-212457419D02*
X2499997Y-211933609D01*
X2499997Y-211933609D02*
X2452378Y-211838371D01*
X2452378Y-211838371D02*
X2357140Y-211790752D01*
X2357140Y-211790752D02*
X2166664Y-211790752D01*
X2166664Y-211790752D02*
X2071426Y-211838371D01*
X2499997Y-212409800D02*
X2404759Y-212457419D01*
X2404759Y-212457419D02*
X2166664Y-212457419D01*
X2166664Y-212457419D02*
X2071426Y-212409800D01*
X2071426Y-212409800D02*
X2023807Y-212314561D01*
X2023807Y-212314561D02*
X2023807Y-212219323D01*
X2023807Y-212219323D02*
X2071426Y-212124085D01*
X2071426Y-212124085D02*
X2166664Y-212076466D01*
X2166664Y-212076466D02*
X2404759Y-212076466D01*
X2404759Y-212076466D02*
X2499997Y-212028847D01*
X2880950Y-211790752D02*
X3119045Y-212457419D01*
X3119045Y-212457419D02*
X3357140Y-211790752D01*
X4119045Y-212409800D02*
X4023807Y-212457419D01*
X4023807Y-212457419D02*
X3833331Y-212457419D01*
X3833331Y-212457419D02*
X3738093Y-212409800D01*
X3738093Y-212409800D02*
X3690474Y-212314561D01*
X3690474Y-212314561D02*
X3690474Y-211933609D01*
X3690474Y-211933609D02*
X3738093Y-211838371D01*
X3738093Y-211838371D02*
X3833331Y-211790752D01*
X3833331Y-211790752D02*
X4023807Y-211790752D01*
X4023807Y-211790752D02*
X4119045Y-211838371D01*
X4119045Y-211838371D02*
X4166664Y-211933609D01*
X4166664Y-211933609D02*
X4166664Y-212028847D01*
X4166664Y-212028847D02*
X3690474Y-212124085D01*
X4547617Y-212409800D02*
X4642855Y-212457419D01*
X4642855Y-212457419D02*
X4833331Y-212457419D01*
X4833331Y-212457419D02*
X4928569Y-212409800D01*
X4928569Y-212409800D02*
X4976188Y-212314561D01*
X4976188Y-212314561D02*
X4976188Y-212266942D01*
X4976188Y-212266942D02*
X4928569Y-212171704D01*
X4928569Y-212171704D02*
X4833331Y-212124085D01*
X4833331Y-212124085D02*
X4690474Y-212124085D01*
X4690474Y-212124085D02*
X4595236Y-212076466D01*
X4595236Y-212076466D02*
X4547617Y-211981228D01*
X4547617Y-211981228D02*
X4547617Y-211933609D01*
X4547617Y-211933609D02*
X4595236Y-211838371D01*
X4595236Y-211838371D02*
X4690474Y-211790752D01*
X4690474Y-211790752D02*
X4833331Y-211790752D01*
X4833331Y-211790752D02*
X4928569Y-211838371D01*
X6595236Y-211790752D02*
X6595236Y-212457419D01*
X6166665Y-211790752D02*
X6166665Y-212314561D01*
X6166665Y-212314561D02*
X6214284Y-212409800D01*
X6214284Y-212409800D02*
X6309522Y-212457419D01*
X6309522Y-212457419D02*
X6452379Y-212457419D01*
X6452379Y-212457419D02*
X6547617Y-212409800D01*
X6547617Y-212409800D02*
X6595236Y-212362180D01*
X7071427Y-211790752D02*
X7071427Y-212457419D01*
X7071427Y-211885990D02*
X7119046Y-211838371D01*
X7119046Y-211838371D02*
X7214284Y-211790752D01*
X7214284Y-211790752D02*
X7357141Y-211790752D01*
X7357141Y-211790752D02*
X7452379Y-211838371D01*
X7452379Y-211838371D02*
X7499998Y-211933609D01*
X7499998Y-211933609D02*
X7499998Y-212457419D01*
X7833332Y-211790752D02*
X8214284Y-211790752D01*
X7976189Y-212457419D02*
X7976189Y-211600276D01*
X7976189Y-211600276D02*
X8023808Y-211505038D01*
X8023808Y-211505038D02*
X8119046Y-211457419D01*
X8119046Y-211457419D02*
X8214284Y-211457419D01*
X8547618Y-212457419D02*
X8547618Y-211790752D01*
X8547618Y-211457419D02*
X8499999Y-211505038D01*
X8499999Y-211505038D02*
X8547618Y-211552657D01*
X8547618Y-211552657D02*
X8595237Y-211505038D01*
X8595237Y-211505038D02*
X8547618Y-211457419D01*
X8547618Y-211457419D02*
X8547618Y-211552657D01*
X9166665Y-212457419D02*
X9071427Y-212409800D01*
X9071427Y-212409800D02*
X9023808Y-212314561D01*
X9023808Y-212314561D02*
X9023808Y-211457419D01*
X9690475Y-212457419D02*
X9595237Y-212409800D01*
X9595237Y-212409800D02*
X9547618Y-212314561D01*
X9547618Y-212314561D02*
X9547618Y-211457419D01*
X10452380Y-212409800D02*
X10357142Y-212457419D01*
X10357142Y-212457419D02*
X10166666Y-212457419D01*
X10166666Y-212457419D02*
X10071428Y-212409800D01*
X10071428Y-212409800D02*
X10023809Y-212314561D01*
X10023809Y-212314561D02*
X10023809Y-211933609D01*
X10023809Y-211933609D02*
X10071428Y-211838371D01*
X10071428Y-211838371D02*
X10166666Y-211790752D01*
X10166666Y-211790752D02*
X10357142Y-211790752D01*
X10357142Y-211790752D02*
X10452380Y-211838371D01*
X10452380Y-211838371D02*
X10499999Y-211933609D01*
X10499999Y-211933609D02*
X10499999Y-212028847D01*
X10499999Y-212028847D02*
X10023809Y-212124085D01*
X11357142Y-212457419D02*
X11357142Y-211457419D01*
X11357142Y-212409800D02*
X11261904Y-212457419D01*
X11261904Y-212457419D02*
X11071428Y-212457419D01*
X11071428Y-212457419D02*
X10976190Y-212409800D01*
X10976190Y-212409800D02*
X10928571Y-212362180D01*
X10928571Y-212362180D02*
X10880952Y-212266942D01*
X10880952Y-212266942D02*
X10880952Y-211981228D01*
X10880952Y-211981228D02*
X10928571Y-211885990D01*
X10928571Y-211885990D02*
X10976190Y-211838371D01*
X10976190Y-211838371D02*
X11071428Y-211790752D01*
X11071428Y-211790752D02*
X11261904Y-211790752D01*
X11261904Y-211790752D02*
X11357142Y-211838371D01*
X12452381Y-211790752D02*
X12833333Y-211790752D01*
X12595238Y-212457419D02*
X12595238Y-211600276D01*
X12595238Y-211600276D02*
X12642857Y-211505038D01*
X12642857Y-211505038D02*
X12738095Y-211457419D01*
X12738095Y-211457419D02*
X12833333Y-211457419D01*
X13309524Y-212457419D02*
X13214286Y-212409800D01*
X13214286Y-212409800D02*
X13166667Y-212362180D01*
X13166667Y-212362180D02*
X13119048Y-212266942D01*
X13119048Y-212266942D02*
X13119048Y-211981228D01*
X13119048Y-211981228D02*
X13166667Y-211885990D01*
X13166667Y-211885990D02*
X13214286Y-211838371D01*
X13214286Y-211838371D02*
X13309524Y-211790752D01*
X13309524Y-211790752D02*
X13452381Y-211790752D01*
X13452381Y-211790752D02*
X13547619Y-211838371D01*
X13547619Y-211838371D02*
X13595238Y-211885990D01*
X13595238Y-211885990D02*
X13642857Y-211981228D01*
X13642857Y-211981228D02*
X13642857Y-212266942D01*
X13642857Y-212266942D02*
X13595238Y-212362180D01*
X13595238Y-212362180D02*
X13547619Y-212409800D01*
X13547619Y-212409800D02*
X13452381Y-212457419D01*
X13452381Y-212457419D02*
X13309524Y-212457419D01*
X14071429Y-212457419D02*
X14071429Y-211790752D01*
X14071429Y-211981228D02*
X14119048Y-211885990D01*
X14119048Y-211885990D02*
X14166667Y-211838371D01*
X14166667Y-211838371D02*
X14261905Y-211790752D01*
X14261905Y-211790752D02*
X14357143Y-211790752D01*
X15452382Y-212457419D02*
X15452382Y-211457419D01*
X15452382Y-211457419D02*
X15690477Y-211457419D01*
X15690477Y-211457419D02*
X15833334Y-211505038D01*
X15833334Y-211505038D02*
X15928572Y-211600276D01*
X15928572Y-211600276D02*
X15976191Y-211695514D01*
X15976191Y-211695514D02*
X16023810Y-211885990D01*
X16023810Y-211885990D02*
X16023810Y-212028847D01*
X16023810Y-212028847D02*
X15976191Y-212219323D01*
X15976191Y-212219323D02*
X15928572Y-212314561D01*
X15928572Y-212314561D02*
X15833334Y-212409800D01*
X15833334Y-212409800D02*
X15690477Y-212457419D01*
X15690477Y-212457419D02*
X15452382Y-212457419D01*
X17023810Y-212457419D02*
X16690477Y-211981228D01*
X16452382Y-212457419D02*
X16452382Y-211457419D01*
X16452382Y-211457419D02*
X16833334Y-211457419D01*
X16833334Y-211457419D02*
X16928572Y-211505038D01*
X16928572Y-211505038D02*
X16976191Y-211552657D01*
X16976191Y-211552657D02*
X17023810Y-211647895D01*
X17023810Y-211647895D02*
X17023810Y-211790752D01*
X17023810Y-211790752D02*
X16976191Y-211885990D01*
X16976191Y-211885990D02*
X16928572Y-211933609D01*
X16928572Y-211933609D02*
X16833334Y-211981228D01*
X16833334Y-211981228D02*
X16452382Y-211981228D01*
X18023810Y-212362180D02*
X17976191Y-212409800D01*
X17976191Y-212409800D02*
X17833334Y-212457419D01*
X17833334Y-212457419D02*
X17738096Y-212457419D01*
X17738096Y-212457419D02*
X17595239Y-212409800D01*
X17595239Y-212409800D02*
X17500001Y-212314561D01*
X17500001Y-212314561D02*
X17452382Y-212219323D01*
X17452382Y-212219323D02*
X17404763Y-212028847D01*
X17404763Y-212028847D02*
X17404763Y-211885990D01*
X17404763Y-211885990D02*
X17452382Y-211695514D01*
X17452382Y-211695514D02*
X17500001Y-211600276D01*
X17500001Y-211600276D02*
X17595239Y-211505038D01*
X17595239Y-211505038D02*
X17738096Y-211457419D01*
X17738096Y-211457419D02*
X17833334Y-211457419D01*
X17833334Y-211457419D02*
X17976191Y-211505038D01*
X17976191Y-211505038D02*
X18023810Y-211552657D01*
X18452382Y-212076466D02*
X19214287Y-212076466D01*
X20119048Y-212409800D02*
X20023810Y-212457419D01*
X20023810Y-212457419D02*
X19833334Y-212457419D01*
X19833334Y-212457419D02*
X19738096Y-212409800D01*
X19738096Y-212409800D02*
X19690477Y-212362180D01*
X19690477Y-212362180D02*
X19642858Y-212266942D01*
X19642858Y-212266942D02*
X19642858Y-211981228D01*
X19642858Y-211981228D02*
X19690477Y-211885990D01*
X19690477Y-211885990D02*
X19738096Y-211838371D01*
X19738096Y-211838371D02*
X19833334Y-211790752D01*
X19833334Y-211790752D02*
X20023810Y-211790752D01*
X20023810Y-211790752D02*
X20119048Y-211838371D01*
X20690477Y-212457419D02*
X20595239Y-212409800D01*
X20595239Y-212409800D02*
X20547620Y-212314561D01*
X20547620Y-212314561D02*
X20547620Y-211457419D01*
X21452382Y-212409800D02*
X21357144Y-212457419D01*
X21357144Y-212457419D02*
X21166668Y-212457419D01*
X21166668Y-212457419D02*
X21071430Y-212409800D01*
X21071430Y-212409800D02*
X21023811Y-212314561D01*
X21023811Y-212314561D02*
X21023811Y-211933609D01*
X21023811Y-211933609D02*
X21071430Y-211838371D01*
X21071430Y-211838371D02*
X21166668Y-211790752D01*
X21166668Y-211790752D02*
X21357144Y-211790752D01*
X21357144Y-211790752D02*
X21452382Y-211838371D01*
X21452382Y-211838371D02*
X21500001Y-211933609D01*
X21500001Y-211933609D02*
X21500001Y-212028847D01*
X21500001Y-212028847D02*
X21023811Y-212124085D01*
X22357144Y-212457419D02*
X22357144Y-211933609D01*
X22357144Y-211933609D02*
X22309525Y-211838371D01*
X22309525Y-211838371D02*
X22214287Y-211790752D01*
X22214287Y-211790752D02*
X22023811Y-211790752D01*
X22023811Y-211790752D02*
X21928573Y-211838371D01*
X22357144Y-212409800D02*
X22261906Y-212457419D01*
X22261906Y-212457419D02*
X22023811Y-212457419D01*
X22023811Y-212457419D02*
X21928573Y-212409800D01*
X21928573Y-212409800D02*
X21880954Y-212314561D01*
X21880954Y-212314561D02*
X21880954Y-212219323D01*
X21880954Y-212219323D02*
X21928573Y-212124085D01*
X21928573Y-212124085D02*
X22023811Y-212076466D01*
X22023811Y-212076466D02*
X22261906Y-212076466D01*
X22261906Y-212076466D02*
X22357144Y-212028847D01*
X22833335Y-211790752D02*
X22833335Y-212457419D01*
X22833335Y-211885990D02*
X22880954Y-211838371D01*
X22880954Y-211838371D02*
X22976192Y-211790752D01*
X22976192Y-211790752D02*
X23119049Y-211790752D01*
X23119049Y-211790752D02*
X23214287Y-211838371D01*
X23214287Y-211838371D02*
X23261906Y-211933609D01*
X23261906Y-211933609D02*
X23261906Y-212457419D01*
X24928573Y-212457419D02*
X24928573Y-211457419D01*
X24928573Y-212409800D02*
X24833335Y-212457419D01*
X24833335Y-212457419D02*
X24642859Y-212457419D01*
X24642859Y-212457419D02*
X24547621Y-212409800D01*
X24547621Y-212409800D02*
X24500002Y-212362180D01*
X24500002Y-212362180D02*
X24452383Y-212266942D01*
X24452383Y-212266942D02*
X24452383Y-211981228D01*
X24452383Y-211981228D02*
X24500002Y-211885990D01*
X24500002Y-211885990D02*
X24547621Y-211838371D01*
X24547621Y-211838371D02*
X24642859Y-211790752D01*
X24642859Y-211790752D02*
X24833335Y-211790752D01*
X24833335Y-211790752D02*
X24928573Y-211838371D01*
X25404764Y-212457419D02*
X25404764Y-211790752D01*
X25404764Y-211457419D02*
X25357145Y-211505038D01*
X25357145Y-211505038D02*
X25404764Y-211552657D01*
X25404764Y-211552657D02*
X25452383Y-211505038D01*
X25452383Y-211505038D02*
X25404764Y-211457419D01*
X25404764Y-211457419D02*
X25404764Y-211552657D01*
X26309525Y-211790752D02*
X26309525Y-212600276D01*
X26309525Y-212600276D02*
X26261906Y-212695514D01*
X26261906Y-212695514D02*
X26214287Y-212743133D01*
X26214287Y-212743133D02*
X26119049Y-212790752D01*
X26119049Y-212790752D02*
X25976192Y-212790752D01*
X25976192Y-212790752D02*
X25880954Y-212743133D01*
X26309525Y-212409800D02*
X26214287Y-212457419D01*
X26214287Y-212457419D02*
X26023811Y-212457419D01*
X26023811Y-212457419D02*
X25928573Y-212409800D01*
X25928573Y-212409800D02*
X25880954Y-212362180D01*
X25880954Y-212362180D02*
X25833335Y-212266942D01*
X25833335Y-212266942D02*
X25833335Y-211981228D01*
X25833335Y-211981228D02*
X25880954Y-211885990D01*
X25880954Y-211885990D02*
X25928573Y-211838371D01*
X25928573Y-211838371D02*
X26023811Y-211790752D01*
X26023811Y-211790752D02*
X26214287Y-211790752D01*
X26214287Y-211790752D02*
X26309525Y-211838371D01*
X26785716Y-212457419D02*
X26785716Y-211790752D01*
X26785716Y-211457419D02*
X26738097Y-211505038D01*
X26738097Y-211505038D02*
X26785716Y-211552657D01*
X26785716Y-211552657D02*
X26833335Y-211505038D01*
X26833335Y-211505038D02*
X26785716Y-211457419D01*
X26785716Y-211457419D02*
X26785716Y-211552657D01*
X27119049Y-211790752D02*
X27500001Y-211790752D01*
X27261906Y-211457419D02*
X27261906Y-212314561D01*
X27261906Y-212314561D02*
X27309525Y-212409800D01*
X27309525Y-212409800D02*
X27404763Y-212457419D01*
X27404763Y-212457419D02*
X27500001Y-212457419D01*
X28261906Y-212457419D02*
X28261906Y-211933609D01*
X28261906Y-211933609D02*
X28214287Y-211838371D01*
X28214287Y-211838371D02*
X28119049Y-211790752D01*
X28119049Y-211790752D02*
X27928573Y-211790752D01*
X27928573Y-211790752D02*
X27833335Y-211838371D01*
X28261906Y-212409800D02*
X28166668Y-212457419D01*
X28166668Y-212457419D02*
X27928573Y-212457419D01*
X27928573Y-212457419D02*
X27833335Y-212409800D01*
X27833335Y-212409800D02*
X27785716Y-212314561D01*
X27785716Y-212314561D02*
X27785716Y-212219323D01*
X27785716Y-212219323D02*
X27833335Y-212124085D01*
X27833335Y-212124085D02*
X27928573Y-212076466D01*
X27928573Y-212076466D02*
X28166668Y-212076466D01*
X28166668Y-212076466D02*
X28261906Y-212028847D01*
X28880954Y-212457419D02*
X28785716Y-212409800D01*
X28785716Y-212409800D02*
X28738097Y-212314561D01*
X28738097Y-212314561D02*
X28738097Y-211457419D01*
X30023812Y-211790752D02*
X30023812Y-212790752D01*
X30023812Y-211838371D02*
X30119050Y-211790752D01*
X30119050Y-211790752D02*
X30309526Y-211790752D01*
X30309526Y-211790752D02*
X30404764Y-211838371D01*
X30404764Y-211838371D02*
X30452383Y-211885990D01*
X30452383Y-211885990D02*
X30500002Y-211981228D01*
X30500002Y-211981228D02*
X30500002Y-212266942D01*
X30500002Y-212266942D02*
X30452383Y-212362180D01*
X30452383Y-212362180D02*
X30404764Y-212409800D01*
X30404764Y-212409800D02*
X30309526Y-212457419D01*
X30309526Y-212457419D02*
X30119050Y-212457419D01*
X30119050Y-212457419D02*
X30023812Y-212409800D01*
X31357145Y-212457419D02*
X31357145Y-211933609D01*
X31357145Y-211933609D02*
X31309526Y-211838371D01*
X31309526Y-211838371D02*
X31214288Y-211790752D01*
X31214288Y-211790752D02*
X31023812Y-211790752D01*
X31023812Y-211790752D02*
X30928574Y-211838371D01*
X31357145Y-212409800D02*
X31261907Y-212457419D01*
X31261907Y-212457419D02*
X31023812Y-212457419D01*
X31023812Y-212457419D02*
X30928574Y-212409800D01*
X30928574Y-212409800D02*
X30880955Y-212314561D01*
X30880955Y-212314561D02*
X30880955Y-212219323D01*
X30880955Y-212219323D02*
X30928574Y-212124085D01*
X30928574Y-212124085D02*
X31023812Y-212076466D01*
X31023812Y-212076466D02*
X31261907Y-212076466D01*
X31261907Y-212076466D02*
X31357145Y-212028847D01*
X32261907Y-212409800D02*
X32166669Y-212457419D01*
X32166669Y-212457419D02*
X31976193Y-212457419D01*
X31976193Y-212457419D02*
X31880955Y-212409800D01*
X31880955Y-212409800D02*
X31833336Y-212362180D01*
X31833336Y-212362180D02*
X31785717Y-212266942D01*
X31785717Y-212266942D02*
X31785717Y-211981228D01*
X31785717Y-211981228D02*
X31833336Y-211885990D01*
X31833336Y-211885990D02*
X31880955Y-211838371D01*
X31880955Y-211838371D02*
X31976193Y-211790752D01*
X31976193Y-211790752D02*
X32166669Y-211790752D01*
X32166669Y-211790752D02*
X32261907Y-211838371D01*
X32690479Y-212457419D02*
X32690479Y-211457419D01*
X32785717Y-212076466D02*
X33071431Y-212457419D01*
X33071431Y-211790752D02*
X32690479Y-212171704D01*
X33928574Y-212457419D02*
X33928574Y-211933609D01*
X33928574Y-211933609D02*
X33880955Y-211838371D01*
X33880955Y-211838371D02*
X33785717Y-211790752D01*
X33785717Y-211790752D02*
X33595241Y-211790752D01*
X33595241Y-211790752D02*
X33500003Y-211838371D01*
X33928574Y-212409800D02*
X33833336Y-212457419D01*
X33833336Y-212457419D02*
X33595241Y-212457419D01*
X33595241Y-212457419D02*
X33500003Y-212409800D01*
X33500003Y-212409800D02*
X33452384Y-212314561D01*
X33452384Y-212314561D02*
X33452384Y-212219323D01*
X33452384Y-212219323D02*
X33500003Y-212124085D01*
X33500003Y-212124085D02*
X33595241Y-212076466D01*
X33595241Y-212076466D02*
X33833336Y-212076466D01*
X33833336Y-212076466D02*
X33928574Y-212028847D01*
X34833336Y-211790752D02*
X34833336Y-212600276D01*
X34833336Y-212600276D02*
X34785717Y-212695514D01*
X34785717Y-212695514D02*
X34738098Y-212743133D01*
X34738098Y-212743133D02*
X34642860Y-212790752D01*
X34642860Y-212790752D02*
X34500003Y-212790752D01*
X34500003Y-212790752D02*
X34404765Y-212743133D01*
X34833336Y-212409800D02*
X34738098Y-212457419D01*
X34738098Y-212457419D02*
X34547622Y-212457419D01*
X34547622Y-212457419D02*
X34452384Y-212409800D01*
X34452384Y-212409800D02*
X34404765Y-212362180D01*
X34404765Y-212362180D02*
X34357146Y-212266942D01*
X34357146Y-212266942D02*
X34357146Y-211981228D01*
X34357146Y-211981228D02*
X34404765Y-211885990D01*
X34404765Y-211885990D02*
X34452384Y-211838371D01*
X34452384Y-211838371D02*
X34547622Y-211790752D01*
X34547622Y-211790752D02*
X34738098Y-211790752D01*
X34738098Y-211790752D02*
X34833336Y-211838371D01*
X35690479Y-212409800D02*
X35595241Y-212457419D01*
X35595241Y-212457419D02*
X35404765Y-212457419D01*
X35404765Y-212457419D02*
X35309527Y-212409800D01*
X35309527Y-212409800D02*
X35261908Y-212314561D01*
X35261908Y-212314561D02*
X35261908Y-211933609D01*
X35261908Y-211933609D02*
X35309527Y-211838371D01*
X35309527Y-211838371D02*
X35404765Y-211790752D01*
X35404765Y-211790752D02*
X35595241Y-211790752D01*
X35595241Y-211790752D02*
X35690479Y-211838371D01*
X35690479Y-211838371D02*
X35738098Y-211933609D01*
X35738098Y-211933609D02*
X35738098Y-212028847D01*
X35738098Y-212028847D02*
X35261908Y-212124085D01*
X36214289Y-212409800D02*
X36214289Y-212457419D01*
X36214289Y-212457419D02*
X36166670Y-212552657D01*
X36166670Y-212552657D02*
X36119051Y-212600276D01*
X36166670Y-211838371D02*
X36214289Y-211885990D01*
X36214289Y-211885990D02*
X36166670Y-211933609D01*
X36166670Y-211933609D02*
X36119051Y-211885990D01*
X36119051Y-211885990D02*
X36166670Y-211838371D01*
X36166670Y-211838371D02*
X36166670Y-211933609D01*
X37976193Y-212362180D02*
X37928574Y-212409800D01*
X37928574Y-212409800D02*
X37785717Y-212457419D01*
X37785717Y-212457419D02*
X37690479Y-212457419D01*
X37690479Y-212457419D02*
X37547622Y-212409800D01*
X37547622Y-212409800D02*
X37452384Y-212314561D01*
X37452384Y-212314561D02*
X37404765Y-212219323D01*
X37404765Y-212219323D02*
X37357146Y-212028847D01*
X37357146Y-212028847D02*
X37357146Y-211885990D01*
X37357146Y-211885990D02*
X37404765Y-211695514D01*
X37404765Y-211695514D02*
X37452384Y-211600276D01*
X37452384Y-211600276D02*
X37547622Y-211505038D01*
X37547622Y-211505038D02*
X37690479Y-211457419D01*
X37690479Y-211457419D02*
X37785717Y-211457419D01*
X37785717Y-211457419D02*
X37928574Y-211505038D01*
X37928574Y-211505038D02*
X37976193Y-211552657D01*
X38357146Y-212171704D02*
X38833336Y-212171704D01*
X38261908Y-212457419D02*
X38595241Y-211457419D01*
X38595241Y-211457419D02*
X38928574Y-212457419D01*
X39261908Y-212457419D02*
X39261908Y-211457419D01*
X39261908Y-211457419D02*
X39595241Y-212171704D01*
X39595241Y-212171704D02*
X39928574Y-211457419D01*
X39928574Y-211457419D02*
X39928574Y-212457419D01*
X41023813Y-211790752D02*
X41404765Y-211790752D01*
X41166670Y-212457419D02*
X41166670Y-211600276D01*
X41166670Y-211600276D02*
X41214289Y-211505038D01*
X41214289Y-211505038D02*
X41309527Y-211457419D01*
X41309527Y-211457419D02*
X41404765Y-211457419D01*
X41738099Y-212457419D02*
X41738099Y-211790752D01*
X41738099Y-211457419D02*
X41690480Y-211505038D01*
X41690480Y-211505038D02*
X41738099Y-211552657D01*
X41738099Y-211552657D02*
X41785718Y-211505038D01*
X41785718Y-211505038D02*
X41738099Y-211457419D01*
X41738099Y-211457419D02*
X41738099Y-211552657D01*
X42357146Y-212457419D02*
X42261908Y-212409800D01*
X42261908Y-212409800D02*
X42214289Y-212314561D01*
X42214289Y-212314561D02*
X42214289Y-211457419D01*
X42880956Y-212457419D02*
X42785718Y-212409800D01*
X42785718Y-212409800D02*
X42738099Y-212314561D01*
X42738099Y-212314561D02*
X42738099Y-211457419D01*
X44452385Y-212457419D02*
X44452385Y-211933609D01*
X44452385Y-211933609D02*
X44404766Y-211838371D01*
X44404766Y-211838371D02*
X44309528Y-211790752D01*
X44309528Y-211790752D02*
X44119052Y-211790752D01*
X44119052Y-211790752D02*
X44023814Y-211838371D01*
X44452385Y-212409800D02*
X44357147Y-212457419D01*
X44357147Y-212457419D02*
X44119052Y-212457419D01*
X44119052Y-212457419D02*
X44023814Y-212409800D01*
X44023814Y-212409800D02*
X43976195Y-212314561D01*
X43976195Y-212314561D02*
X43976195Y-212219323D01*
X43976195Y-212219323D02*
X44023814Y-212124085D01*
X44023814Y-212124085D02*
X44119052Y-212076466D01*
X44119052Y-212076466D02*
X44357147Y-212076466D01*
X44357147Y-212076466D02*
X44452385Y-212028847D01*
X44785719Y-211790752D02*
X45166671Y-211790752D01*
X44928576Y-211457419D02*
X44928576Y-212314561D01*
X44928576Y-212314561D02*
X44976195Y-212409800D01*
X44976195Y-212409800D02*
X45071433Y-212457419D01*
X45071433Y-212457419D02*
X45166671Y-212457419D01*
X46119053Y-211790752D02*
X46500005Y-211790752D01*
X46261910Y-212457419D02*
X46261910Y-211600276D01*
X46261910Y-211600276D02*
X46309529Y-211505038D01*
X46309529Y-211505038D02*
X46404767Y-211457419D01*
X46404767Y-211457419D02*
X46500005Y-211457419D01*
X47261910Y-212457419D02*
X47261910Y-211933609D01*
X47261910Y-211933609D02*
X47214291Y-211838371D01*
X47214291Y-211838371D02*
X47119053Y-211790752D01*
X47119053Y-211790752D02*
X46928577Y-211790752D01*
X46928577Y-211790752D02*
X46833339Y-211838371D01*
X47261910Y-212409800D02*
X47166672Y-212457419D01*
X47166672Y-212457419D02*
X46928577Y-212457419D01*
X46928577Y-212457419D02*
X46833339Y-212409800D01*
X46833339Y-212409800D02*
X46785720Y-212314561D01*
X46785720Y-212314561D02*
X46785720Y-212219323D01*
X46785720Y-212219323D02*
X46833339Y-212124085D01*
X46833339Y-212124085D02*
X46928577Y-212076466D01*
X46928577Y-212076466D02*
X47166672Y-212076466D01*
X47166672Y-212076466D02*
X47261910Y-212028847D01*
X47738101Y-212457419D02*
X47738101Y-211457419D01*
X47738101Y-211838371D02*
X47833339Y-211790752D01*
X47833339Y-211790752D02*
X48023815Y-211790752D01*
X48023815Y-211790752D02*
X48119053Y-211838371D01*
X48119053Y-211838371D02*
X48166672Y-211885990D01*
X48166672Y-211885990D02*
X48214291Y-211981228D01*
X48214291Y-211981228D02*
X48214291Y-212266942D01*
X48214291Y-212266942D02*
X48166672Y-212362180D01*
X48166672Y-212362180D02*
X48119053Y-212409800D01*
X48119053Y-212409800D02*
X48023815Y-212457419D01*
X48023815Y-212457419D02*
X47833339Y-212457419D01*
X47833339Y-212457419D02*
X47738101Y-212409800D01*
M02*
