%TF.GenerationSoftware,KiCad,Pcbnew,10.0.5*%
%TF.CreationDate,2026-08-09T15:51:09-05:00*%
%TF.ProjectId,ds_xl_coder,64735f78-6c5f-4636-9f64-65722e6b6963,0.6.0-cont-ix*%
%TF.SameCoordinates,Original*%
%TF.FileFunction,OtherDrawing,Comment*%
%FSLAX46Y46*%
G04 Gerber Fmt 4.6, Leading zero omitted, Abs format (unit mm)*
G04 Created by KiCad (PCBNEW 10.0.5) date 2026-08-09 15:51:09*
%MOMM*%
%LPD*%
G01*
G04 APERTURE LIST*
%ADD10C,0.100000*%
G04 APERTURE END LIST*
D10*
X-28714287Y-18409800D02*
X-28571430Y-18457419D01*
X-28571430Y-18457419D02*
X-28333335Y-18457419D01*
X-28333335Y-18457419D02*
X-28238097Y-18409800D01*
X-28238097Y-18409800D02*
X-28190478Y-18362180D01*
X-28190478Y-18362180D02*
X-28142859Y-18266942D01*
X-28142859Y-18266942D02*
X-28142859Y-18171704D01*
X-28142859Y-18171704D02*
X-28190478Y-18076466D01*
X-28190478Y-18076466D02*
X-28238097Y-18028847D01*
X-28238097Y-18028847D02*
X-28333335Y-17981228D01*
X-28333335Y-17981228D02*
X-28523811Y-17933609D01*
X-28523811Y-17933609D02*
X-28619049Y-17885990D01*
X-28619049Y-17885990D02*
X-28666668Y-17838371D01*
X-28666668Y-17838371D02*
X-28714287Y-17743133D01*
X-28714287Y-17743133D02*
X-28714287Y-17647895D01*
X-28714287Y-17647895D02*
X-28666668Y-17552657D01*
X-28666668Y-17552657D02*
X-28619049Y-17505038D01*
X-28619049Y-17505038D02*
X-28523811Y-17457419D01*
X-28523811Y-17457419D02*
X-28285716Y-17457419D01*
X-28285716Y-17457419D02*
X-28142859Y-17505038D01*
X-27714287Y-18457419D02*
X-27714287Y-17457419D01*
X-27238097Y-18362180D02*
X-27190478Y-18409800D01*
X-27190478Y-18409800D02*
X-27238097Y-18457419D01*
X-27238097Y-18457419D02*
X-27285716Y-18409800D01*
X-27285716Y-18409800D02*
X-27238097Y-18362180D01*
X-27238097Y-18362180D02*
X-27238097Y-18457419D01*
X-27238097Y-17838371D02*
X-27190478Y-17885990D01*
X-27190478Y-17885990D02*
X-27238097Y-17933609D01*
X-27238097Y-17933609D02*
X-27285716Y-17885990D01*
X-27285716Y-17885990D02*
X-27238097Y-17838371D01*
X-27238097Y-17838371D02*
X-27238097Y-17933609D01*
X-26000002Y-17457419D02*
X-26000002Y-18266942D01*
X-26000002Y-18266942D02*
X-25952383Y-18362180D01*
X-25952383Y-18362180D02*
X-25904764Y-18409800D01*
X-25904764Y-18409800D02*
X-25809526Y-18457419D01*
X-25809526Y-18457419D02*
X-25619050Y-18457419D01*
X-25619050Y-18457419D02*
X-25523812Y-18409800D01*
X-25523812Y-18409800D02*
X-25476193Y-18362180D01*
X-25476193Y-18362180D02*
X-25428574Y-18266942D01*
X-25428574Y-18266942D02*
X-25428574Y-17457419D01*
X-25000002Y-18409800D02*
X-24857145Y-18457419D01*
X-24857145Y-18457419D02*
X-24619050Y-18457419D01*
X-24619050Y-18457419D02*
X-24523812Y-18409800D01*
X-24523812Y-18409800D02*
X-24476193Y-18362180D01*
X-24476193Y-18362180D02*
X-24428574Y-18266942D01*
X-24428574Y-18266942D02*
X-24428574Y-18171704D01*
X-24428574Y-18171704D02*
X-24476193Y-18076466D01*
X-24476193Y-18076466D02*
X-24523812Y-18028847D01*
X-24523812Y-18028847D02*
X-24619050Y-17981228D01*
X-24619050Y-17981228D02*
X-24809526Y-17933609D01*
X-24809526Y-17933609D02*
X-24904764Y-17885990D01*
X-24904764Y-17885990D02*
X-24952383Y-17838371D01*
X-24952383Y-17838371D02*
X-25000002Y-17743133D01*
X-25000002Y-17743133D02*
X-25000002Y-17647895D01*
X-25000002Y-17647895D02*
X-24952383Y-17552657D01*
X-24952383Y-17552657D02*
X-24904764Y-17505038D01*
X-24904764Y-17505038D02*
X-24809526Y-17457419D01*
X-24809526Y-17457419D02*
X-24571431Y-17457419D01*
X-24571431Y-17457419D02*
X-24428574Y-17505038D01*
X-23666669Y-17933609D02*
X-23523812Y-17981228D01*
X-23523812Y-17981228D02*
X-23476193Y-18028847D01*
X-23476193Y-18028847D02*
X-23428574Y-18124085D01*
X-23428574Y-18124085D02*
X-23428574Y-18266942D01*
X-23428574Y-18266942D02*
X-23476193Y-18362180D01*
X-23476193Y-18362180D02*
X-23523812Y-18409800D01*
X-23523812Y-18409800D02*
X-23619050Y-18457419D01*
X-23619050Y-18457419D02*
X-24000002Y-18457419D01*
X-24000002Y-18457419D02*
X-24000002Y-17457419D01*
X-24000002Y-17457419D02*
X-23666669Y-17457419D01*
X-23666669Y-17457419D02*
X-23571431Y-17505038D01*
X-23571431Y-17505038D02*
X-23523812Y-17552657D01*
X-23523812Y-17552657D02*
X-23476193Y-17647895D01*
X-23476193Y-17647895D02*
X-23476193Y-17743133D01*
X-23476193Y-17743133D02*
X-23523812Y-17838371D01*
X-23523812Y-17838371D02*
X-23571431Y-17885990D01*
X-23571431Y-17885990D02*
X-23666669Y-17933609D01*
X-23666669Y-17933609D02*
X-24000002Y-17933609D01*
X-23047621Y-17552657D02*
X-23000002Y-17505038D01*
X-23000002Y-17505038D02*
X-22904764Y-17457419D01*
X-22904764Y-17457419D02*
X-22666669Y-17457419D01*
X-22666669Y-17457419D02*
X-22571431Y-17505038D01*
X-22571431Y-17505038D02*
X-22523812Y-17552657D01*
X-22523812Y-17552657D02*
X-22476193Y-17647895D01*
X-22476193Y-17647895D02*
X-22476193Y-17743133D01*
X-22476193Y-17743133D02*
X-22523812Y-17885990D01*
X-22523812Y-17885990D02*
X-23095240Y-18457419D01*
X-23095240Y-18457419D02*
X-22476193Y-18457419D01*
X-21238097Y-18457419D02*
X-21047621Y-18457419D01*
X-21047621Y-18457419D02*
X-20952383Y-18409800D01*
X-20952383Y-18409800D02*
X-20904764Y-18362180D01*
X-20904764Y-18362180D02*
X-20809526Y-18219323D01*
X-20809526Y-18219323D02*
X-20761907Y-18028847D01*
X-20761907Y-18028847D02*
X-20761907Y-17647895D01*
X-20761907Y-17647895D02*
X-20809526Y-17552657D01*
X-20809526Y-17552657D02*
X-20857145Y-17505038D01*
X-20857145Y-17505038D02*
X-20952383Y-17457419D01*
X-20952383Y-17457419D02*
X-21142859Y-17457419D01*
X-21142859Y-17457419D02*
X-21238097Y-17505038D01*
X-21238097Y-17505038D02*
X-21285716Y-17552657D01*
X-21285716Y-17552657D02*
X-21333335Y-17647895D01*
X-21333335Y-17647895D02*
X-21333335Y-17885990D01*
X-21333335Y-17885990D02*
X-21285716Y-17981228D01*
X-21285716Y-17981228D02*
X-21238097Y-18028847D01*
X-21238097Y-18028847D02*
X-21142859Y-18076466D01*
X-21142859Y-18076466D02*
X-20952383Y-18076466D01*
X-20952383Y-18076466D02*
X-20857145Y-18028847D01*
X-20857145Y-18028847D02*
X-20809526Y-17981228D01*
X-20809526Y-17981228D02*
X-20761907Y-17885990D01*
X-20142859Y-17457419D02*
X-20047621Y-17457419D01*
X-20047621Y-17457419D02*
X-19952383Y-17505038D01*
X-19952383Y-17505038D02*
X-19904764Y-17552657D01*
X-19904764Y-17552657D02*
X-19857145Y-17647895D01*
X-19857145Y-17647895D02*
X-19809526Y-17838371D01*
X-19809526Y-17838371D02*
X-19809526Y-18076466D01*
X-19809526Y-18076466D02*
X-19857145Y-18266942D01*
X-19857145Y-18266942D02*
X-19904764Y-18362180D01*
X-19904764Y-18362180D02*
X-19952383Y-18409800D01*
X-19952383Y-18409800D02*
X-20047621Y-18457419D01*
X-20047621Y-18457419D02*
X-20142859Y-18457419D01*
X-20142859Y-18457419D02*
X-20238097Y-18409800D01*
X-20238097Y-18409800D02*
X-20285716Y-18362180D01*
X-20285716Y-18362180D02*
X-20333335Y-18266942D01*
X-20333335Y-18266942D02*
X-20380954Y-18076466D01*
X-20380954Y-18076466D02*
X-20380954Y-17838371D01*
X-20380954Y-17838371D02*
X-20333335Y-17647895D01*
X-20333335Y-17647895D02*
X-20285716Y-17552657D01*
X-20285716Y-17552657D02*
X-20238097Y-17505038D01*
X-20238097Y-17505038D02*
X-20142859Y-17457419D01*
X-18809526Y-18457419D02*
X-19142859Y-17981228D01*
X-19380954Y-18457419D02*
X-19380954Y-17457419D01*
X-19380954Y-17457419D02*
X-19000002Y-17457419D01*
X-19000002Y-17457419D02*
X-18904764Y-17505038D01*
X-18904764Y-17505038D02*
X-18857145Y-17552657D01*
X-18857145Y-17552657D02*
X-18809526Y-17647895D01*
X-18809526Y-17647895D02*
X-18809526Y-17790752D01*
X-18809526Y-17790752D02*
X-18857145Y-17885990D01*
X-18857145Y-17885990D02*
X-18904764Y-17933609D01*
X-18904764Y-17933609D02*
X-19000002Y-17981228D01*
X-19000002Y-17981228D02*
X-19380954Y-17981228D01*
X-17619049Y-17457419D02*
X-17619049Y-18266942D01*
X-17619049Y-18266942D02*
X-17571430Y-18362180D01*
X-17571430Y-18362180D02*
X-17523811Y-18409800D01*
X-17523811Y-18409800D02*
X-17428573Y-18457419D01*
X-17428573Y-18457419D02*
X-17238097Y-18457419D01*
X-17238097Y-18457419D02*
X-17142859Y-18409800D01*
X-17142859Y-18409800D02*
X-17095240Y-18362180D01*
X-17095240Y-18362180D02*
X-17047621Y-18266942D01*
X-17047621Y-18266942D02*
X-17047621Y-17457419D01*
X-16619049Y-18409800D02*
X-16476192Y-18457419D01*
X-16476192Y-18457419D02*
X-16238097Y-18457419D01*
X-16238097Y-18457419D02*
X-16142859Y-18409800D01*
X-16142859Y-18409800D02*
X-16095240Y-18362180D01*
X-16095240Y-18362180D02*
X-16047621Y-18266942D01*
X-16047621Y-18266942D02*
X-16047621Y-18171704D01*
X-16047621Y-18171704D02*
X-16095240Y-18076466D01*
X-16095240Y-18076466D02*
X-16142859Y-18028847D01*
X-16142859Y-18028847D02*
X-16238097Y-17981228D01*
X-16238097Y-17981228D02*
X-16428573Y-17933609D01*
X-16428573Y-17933609D02*
X-16523811Y-17885990D01*
X-16523811Y-17885990D02*
X-16571430Y-17838371D01*
X-16571430Y-17838371D02*
X-16619049Y-17743133D01*
X-16619049Y-17743133D02*
X-16619049Y-17647895D01*
X-16619049Y-17647895D02*
X-16571430Y-17552657D01*
X-16571430Y-17552657D02*
X-16523811Y-17505038D01*
X-16523811Y-17505038D02*
X-16428573Y-17457419D01*
X-16428573Y-17457419D02*
X-16190478Y-17457419D01*
X-16190478Y-17457419D02*
X-16047621Y-17505038D01*
X-15285716Y-17933609D02*
X-15142859Y-17981228D01*
X-15142859Y-17981228D02*
X-15095240Y-18028847D01*
X-15095240Y-18028847D02*
X-15047621Y-18124085D01*
X-15047621Y-18124085D02*
X-15047621Y-18266942D01*
X-15047621Y-18266942D02*
X-15095240Y-18362180D01*
X-15095240Y-18362180D02*
X-15142859Y-18409800D01*
X-15142859Y-18409800D02*
X-15238097Y-18457419D01*
X-15238097Y-18457419D02*
X-15619049Y-18457419D01*
X-15619049Y-18457419D02*
X-15619049Y-17457419D01*
X-15619049Y-17457419D02*
X-15285716Y-17457419D01*
X-15285716Y-17457419D02*
X-15190478Y-17505038D01*
X-15190478Y-17505038D02*
X-15142859Y-17552657D01*
X-15142859Y-17552657D02*
X-15095240Y-17647895D01*
X-15095240Y-17647895D02*
X-15095240Y-17743133D01*
X-15095240Y-17743133D02*
X-15142859Y-17838371D01*
X-15142859Y-17838371D02*
X-15190478Y-17885990D01*
X-15190478Y-17885990D02*
X-15285716Y-17933609D01*
X-15285716Y-17933609D02*
X-15619049Y-17933609D01*
X-14714287Y-17457419D02*
X-14095240Y-17457419D01*
X-14095240Y-17457419D02*
X-14428573Y-17838371D01*
X-14428573Y-17838371D02*
X-14285716Y-17838371D01*
X-14285716Y-17838371D02*
X-14190478Y-17885990D01*
X-14190478Y-17885990D02*
X-14142859Y-17933609D01*
X-14142859Y-17933609D02*
X-14095240Y-18028847D01*
X-14095240Y-18028847D02*
X-14095240Y-18266942D01*
X-14095240Y-18266942D02*
X-14142859Y-18362180D01*
X-14142859Y-18362180D02*
X-14190478Y-18409800D01*
X-14190478Y-18409800D02*
X-14285716Y-18457419D01*
X-14285716Y-18457419D02*
X-14571430Y-18457419D01*
X-14571430Y-18457419D02*
X-14666668Y-18409800D01*
X-14666668Y-18409800D02*
X-14714287Y-18362180D01*
X-12952383Y-17409800D02*
X-13809525Y-18695514D01*
X-12190478Y-17790752D02*
X-12190478Y-18457419D01*
X-12428573Y-17409800D02*
X-12666668Y-18124085D01*
X-12666668Y-18124085D02*
X-12047621Y-18124085D01*
X-10761906Y-17885990D02*
X-10857144Y-17838371D01*
X-10857144Y-17838371D02*
X-10904763Y-17790752D01*
X-10904763Y-17790752D02*
X-10952382Y-17695514D01*
X-10952382Y-17695514D02*
X-10952382Y-17647895D01*
X-10952382Y-17647895D02*
X-10904763Y-17552657D01*
X-10904763Y-17552657D02*
X-10857144Y-17505038D01*
X-10857144Y-17505038D02*
X-10761906Y-17457419D01*
X-10761906Y-17457419D02*
X-10571430Y-17457419D01*
X-10571430Y-17457419D02*
X-10476192Y-17505038D01*
X-10476192Y-17505038D02*
X-10428573Y-17552657D01*
X-10428573Y-17552657D02*
X-10380954Y-17647895D01*
X-10380954Y-17647895D02*
X-10380954Y-17695514D01*
X-10380954Y-17695514D02*
X-10428573Y-17790752D01*
X-10428573Y-17790752D02*
X-10476192Y-17838371D01*
X-10476192Y-17838371D02*
X-10571430Y-17885990D01*
X-10571430Y-17885990D02*
X-10761906Y-17885990D01*
X-10761906Y-17885990D02*
X-10857144Y-17933609D01*
X-10857144Y-17933609D02*
X-10904763Y-17981228D01*
X-10904763Y-17981228D02*
X-10952382Y-18076466D01*
X-10952382Y-18076466D02*
X-10952382Y-18266942D01*
X-10952382Y-18266942D02*
X-10904763Y-18362180D01*
X-10904763Y-18362180D02*
X-10857144Y-18409800D01*
X-10857144Y-18409800D02*
X-10761906Y-18457419D01*
X-10761906Y-18457419D02*
X-10571430Y-18457419D01*
X-10571430Y-18457419D02*
X-10476192Y-18409800D01*
X-10476192Y-18409800D02*
X-10428573Y-18362180D01*
X-10428573Y-18362180D02*
X-10380954Y-18266942D01*
X-10380954Y-18266942D02*
X-10380954Y-18076466D01*
X-10380954Y-18076466D02*
X-10428573Y-17981228D01*
X-10428573Y-17981228D02*
X-10476192Y-17933609D01*
X-10476192Y-17933609D02*
X-10571430Y-17885990D01*
X-9476192Y-17457419D02*
X-9952382Y-17457419D01*
X-9952382Y-17457419D02*
X-10000001Y-17933609D01*
X-10000001Y-17933609D02*
X-9952382Y-17885990D01*
X-9952382Y-17885990D02*
X-9857144Y-17838371D01*
X-9857144Y-17838371D02*
X-9619049Y-17838371D01*
X-9619049Y-17838371D02*
X-9523811Y-17885990D01*
X-9523811Y-17885990D02*
X-9476192Y-17933609D01*
X-9476192Y-17933609D02*
X-9428573Y-18028847D01*
X-9428573Y-18028847D02*
X-9428573Y-18266942D01*
X-9428573Y-18266942D02*
X-9476192Y-18362180D01*
X-9476192Y-18362180D02*
X-9523811Y-18409800D01*
X-9523811Y-18409800D02*
X-9619049Y-18457419D01*
X-9619049Y-18457419D02*
X-9857144Y-18457419D01*
X-9857144Y-18457419D02*
X-9952382Y-18409800D01*
X-9952382Y-18409800D02*
X-10000001Y-18362180D01*
X-9000001Y-18076466D02*
X-8238097Y-18076466D01*
X-7714287Y-18457419D02*
X-7523811Y-18457419D01*
X-7523811Y-18457419D02*
X-7428573Y-18409800D01*
X-7428573Y-18409800D02*
X-7380954Y-18362180D01*
X-7380954Y-18362180D02*
X-7285716Y-18219323D01*
X-7285716Y-18219323D02*
X-7238097Y-18028847D01*
X-7238097Y-18028847D02*
X-7238097Y-17647895D01*
X-7238097Y-17647895D02*
X-7285716Y-17552657D01*
X-7285716Y-17552657D02*
X-7333335Y-17505038D01*
X-7333335Y-17505038D02*
X-7428573Y-17457419D01*
X-7428573Y-17457419D02*
X-7619049Y-17457419D01*
X-7619049Y-17457419D02*
X-7714287Y-17505038D01*
X-7714287Y-17505038D02*
X-7761906Y-17552657D01*
X-7761906Y-17552657D02*
X-7809525Y-17647895D01*
X-7809525Y-17647895D02*
X-7809525Y-17885990D01*
X-7809525Y-17885990D02*
X-7761906Y-17981228D01*
X-7761906Y-17981228D02*
X-7714287Y-18028847D01*
X-7714287Y-18028847D02*
X-7619049Y-18076466D01*
X-7619049Y-18076466D02*
X-7428573Y-18076466D01*
X-7428573Y-18076466D02*
X-7333335Y-18028847D01*
X-7333335Y-18028847D02*
X-7285716Y-17981228D01*
X-7285716Y-17981228D02*
X-7238097Y-17885990D01*
X-6619049Y-17457419D02*
X-6523811Y-17457419D01*
X-6523811Y-17457419D02*
X-6428573Y-17505038D01*
X-6428573Y-17505038D02*
X-6380954Y-17552657D01*
X-6380954Y-17552657D02*
X-6333335Y-17647895D01*
X-6333335Y-17647895D02*
X-6285716Y-17838371D01*
X-6285716Y-17838371D02*
X-6285716Y-18076466D01*
X-6285716Y-18076466D02*
X-6333335Y-18266942D01*
X-6333335Y-18266942D02*
X-6380954Y-18362180D01*
X-6380954Y-18362180D02*
X-6428573Y-18409800D01*
X-6428573Y-18409800D02*
X-6523811Y-18457419D01*
X-6523811Y-18457419D02*
X-6619049Y-18457419D01*
X-6619049Y-18457419D02*
X-6714287Y-18409800D01*
X-6714287Y-18409800D02*
X-6761906Y-18362180D01*
X-6761906Y-18362180D02*
X-6809525Y-18266942D01*
X-6809525Y-18266942D02*
X-6857144Y-18076466D01*
X-6857144Y-18076466D02*
X-6857144Y-17838371D01*
X-6857144Y-17838371D02*
X-6809525Y-17647895D01*
X-6809525Y-17647895D02*
X-6761906Y-17552657D01*
X-6761906Y-17552657D02*
X-6714287Y-17505038D01*
X-6714287Y-17505038D02*
X-6619049Y-17457419D01*
X-5285716Y-18457419D02*
X-5619049Y-17981228D01*
X-5857144Y-18457419D02*
X-5857144Y-17457419D01*
X-5857144Y-17457419D02*
X-5476192Y-17457419D01*
X-5476192Y-17457419D02*
X-5380954Y-17505038D01*
X-5380954Y-17505038D02*
X-5333335Y-17552657D01*
X-5333335Y-17552657D02*
X-5285716Y-17647895D01*
X-5285716Y-17647895D02*
X-5285716Y-17790752D01*
X-5285716Y-17790752D02*
X-5333335Y-17885990D01*
X-5333335Y-17885990D02*
X-5380954Y-17933609D01*
X-5380954Y-17933609D02*
X-5476192Y-17981228D01*
X-5476192Y-17981228D02*
X-5857144Y-17981228D01*
X-3714287Y-18409800D02*
X-3809525Y-18457419D01*
X-3809525Y-18457419D02*
X-4000001Y-18457419D01*
X-4000001Y-18457419D02*
X-4095239Y-18409800D01*
X-4095239Y-18409800D02*
X-4142858Y-18314561D01*
X-4142858Y-18314561D02*
X-4142858Y-17933609D01*
X-4142858Y-17933609D02*
X-4095239Y-17838371D01*
X-4095239Y-17838371D02*
X-4000001Y-17790752D01*
X-4000001Y-17790752D02*
X-3809525Y-17790752D01*
X-3809525Y-17790752D02*
X-3714287Y-17838371D01*
X-3714287Y-17838371D02*
X-3666668Y-17933609D01*
X-3666668Y-17933609D02*
X-3666668Y-18028847D01*
X-3666668Y-18028847D02*
X-4142858Y-18124085D01*
X-3238096Y-18457419D02*
X-3238096Y-17457419D01*
X-3238096Y-17457419D02*
X-3000001Y-17457419D01*
X-3000001Y-17457419D02*
X-2857144Y-17505038D01*
X-2857144Y-17505038D02*
X-2761906Y-17600276D01*
X-2761906Y-17600276D02*
X-2714287Y-17695514D01*
X-2714287Y-17695514D02*
X-2666668Y-17885990D01*
X-2666668Y-17885990D02*
X-2666668Y-18028847D01*
X-2666668Y-18028847D02*
X-2714287Y-18219323D01*
X-2714287Y-18219323D02*
X-2761906Y-18314561D01*
X-2761906Y-18314561D02*
X-2857144Y-18409800D01*
X-2857144Y-18409800D02*
X-3000001Y-18457419D01*
X-3000001Y-18457419D02*
X-3238096Y-18457419D01*
X-2238096Y-18457419D02*
X-2238096Y-17457419D01*
X-2238096Y-17457419D02*
X-1857144Y-17457419D01*
X-1857144Y-17457419D02*
X-1761906Y-17505038D01*
X-1761906Y-17505038D02*
X-1714287Y-17552657D01*
X-1714287Y-17552657D02*
X-1666668Y-17647895D01*
X-1666668Y-17647895D02*
X-1666668Y-17790752D01*
X-1666668Y-17790752D02*
X-1714287Y-17885990D01*
X-1714287Y-17885990D02*
X-1761906Y-17933609D01*
X-1761906Y-17933609D02*
X-1857144Y-17981228D01*
X-1857144Y-17981228D02*
X-2238096Y-17981228D01*
X47617Y-18457419D02*
X-523810Y-18457419D01*
X-238096Y-18457419D02*
X-238096Y-17457419D01*
X-238096Y-17457419D02*
X-333334Y-17600276D01*
X-333334Y-17600276D02*
X-428572Y-17695514D01*
X-428572Y-17695514D02*
X-523810Y-17743133D01*
X666665Y-17457419D02*
X761903Y-17457419D01*
X761903Y-17457419D02*
X857141Y-17505038D01*
X857141Y-17505038D02*
X904760Y-17552657D01*
X904760Y-17552657D02*
X952379Y-17647895D01*
X952379Y-17647895D02*
X999998Y-17838371D01*
X999998Y-17838371D02*
X999998Y-18076466D01*
X999998Y-18076466D02*
X952379Y-18266942D01*
X952379Y-18266942D02*
X904760Y-18362180D01*
X904760Y-18362180D02*
X857141Y-18409800D01*
X857141Y-18409800D02*
X761903Y-18457419D01*
X761903Y-18457419D02*
X666665Y-18457419D01*
X666665Y-18457419D02*
X571427Y-18409800D01*
X571427Y-18409800D02*
X523808Y-18362180D01*
X523808Y-18362180D02*
X476189Y-18266942D01*
X476189Y-18266942D02*
X428570Y-18076466D01*
X428570Y-18076466D02*
X428570Y-17838371D01*
X428570Y-17838371D02*
X476189Y-17647895D01*
X476189Y-17647895D02*
X523808Y-17552657D01*
X523808Y-17552657D02*
X571427Y-17505038D01*
X571427Y-17505038D02*
X666665Y-17457419D01*
X1619046Y-17457419D02*
X1714284Y-17457419D01*
X1714284Y-17457419D02*
X1809522Y-17505038D01*
X1809522Y-17505038D02*
X1857141Y-17552657D01*
X1857141Y-17552657D02*
X1904760Y-17647895D01*
X1904760Y-17647895D02*
X1952379Y-17838371D01*
X1952379Y-17838371D02*
X1952379Y-18076466D01*
X1952379Y-18076466D02*
X1904760Y-18266942D01*
X1904760Y-18266942D02*
X1857141Y-18362180D01*
X1857141Y-18362180D02*
X1809522Y-18409800D01*
X1809522Y-18409800D02*
X1714284Y-18457419D01*
X1714284Y-18457419D02*
X1619046Y-18457419D01*
X1619046Y-18457419D02*
X1523808Y-18409800D01*
X1523808Y-18409800D02*
X1476189Y-18362180D01*
X1476189Y-18362180D02*
X1428570Y-18266942D01*
X1428570Y-18266942D02*
X1380951Y-18076466D01*
X1380951Y-18076466D02*
X1380951Y-17838371D01*
X1380951Y-17838371D02*
X1428570Y-17647895D01*
X1428570Y-17647895D02*
X1476189Y-17552657D01*
X1476189Y-17552657D02*
X1523808Y-17505038D01*
X1523808Y-17505038D02*
X1619046Y-17457419D01*
X2952379Y-18457419D02*
X2619046Y-17981228D01*
X2380951Y-18457419D02*
X2380951Y-17457419D01*
X2380951Y-17457419D02*
X2761903Y-17457419D01*
X2761903Y-17457419D02*
X2857141Y-17505038D01*
X2857141Y-17505038D02*
X2904760Y-17552657D01*
X2904760Y-17552657D02*
X2952379Y-17647895D01*
X2952379Y-17647895D02*
X2952379Y-17790752D01*
X2952379Y-17790752D02*
X2904760Y-17885990D01*
X2904760Y-17885990D02*
X2857141Y-17933609D01*
X2857141Y-17933609D02*
X2761903Y-17981228D01*
X2761903Y-17981228D02*
X2380951Y-17981228D01*
X4142856Y-17933609D02*
X4476189Y-17933609D01*
X4619046Y-18457419D02*
X4142856Y-18457419D01*
X4142856Y-18457419D02*
X4142856Y-17457419D01*
X4142856Y-17457419D02*
X4619046Y-17457419D01*
X4904761Y-17457419D02*
X5476189Y-17457419D01*
X5190475Y-18457419D02*
X5190475Y-17457419D01*
X5809523Y-18457419D02*
X5809523Y-17457419D01*
X5809523Y-17933609D02*
X6380951Y-17933609D01*
X6380951Y-18457419D02*
X6380951Y-17457419D01*
X8142856Y-18457419D02*
X7571428Y-18457419D01*
X7857142Y-18457419D02*
X7857142Y-17457419D01*
X7857142Y-17457419D02*
X7761904Y-17600276D01*
X7761904Y-17600276D02*
X7666666Y-17695514D01*
X7666666Y-17695514D02*
X7571428Y-17743133D01*
X8761904Y-17457419D02*
X8857142Y-17457419D01*
X8857142Y-17457419D02*
X8952380Y-17505038D01*
X8952380Y-17505038D02*
X8999999Y-17552657D01*
X8999999Y-17552657D02*
X9047618Y-17647895D01*
X9047618Y-17647895D02*
X9095237Y-17838371D01*
X9095237Y-17838371D02*
X9095237Y-18076466D01*
X9095237Y-18076466D02*
X9047618Y-18266942D01*
X9047618Y-18266942D02*
X8999999Y-18362180D01*
X8999999Y-18362180D02*
X8952380Y-18409800D01*
X8952380Y-18409800D02*
X8857142Y-18457419D01*
X8857142Y-18457419D02*
X8761904Y-18457419D01*
X8761904Y-18457419D02*
X8666666Y-18409800D01*
X8666666Y-18409800D02*
X8619047Y-18362180D01*
X8619047Y-18362180D02*
X8571428Y-18266942D01*
X8571428Y-18266942D02*
X8523809Y-18076466D01*
X8523809Y-18076466D02*
X8523809Y-17838371D01*
X8523809Y-17838371D02*
X8571428Y-17647895D01*
X8571428Y-17647895D02*
X8619047Y-17552657D01*
X8619047Y-17552657D02*
X8666666Y-17505038D01*
X8666666Y-17505038D02*
X8761904Y-17457419D01*
X9714285Y-17457419D02*
X9809523Y-17457419D01*
X9809523Y-17457419D02*
X9904761Y-17505038D01*
X9904761Y-17505038D02*
X9952380Y-17552657D01*
X9952380Y-17552657D02*
X9999999Y-17647895D01*
X9999999Y-17647895D02*
X10047618Y-17838371D01*
X10047618Y-17838371D02*
X10047618Y-18076466D01*
X10047618Y-18076466D02*
X9999999Y-18266942D01*
X9999999Y-18266942D02*
X9952380Y-18362180D01*
X9952380Y-18362180D02*
X9904761Y-18409800D01*
X9904761Y-18409800D02*
X9809523Y-18457419D01*
X9809523Y-18457419D02*
X9714285Y-18457419D01*
X9714285Y-18457419D02*
X9619047Y-18409800D01*
X9619047Y-18409800D02*
X9571428Y-18362180D01*
X9571428Y-18362180D02*
X9523809Y-18266942D01*
X9523809Y-18266942D02*
X9476190Y-18076466D01*
X9476190Y-18076466D02*
X9476190Y-17838371D01*
X9476190Y-17838371D02*
X9523809Y-17647895D01*
X9523809Y-17647895D02*
X9571428Y-17552657D01*
X9571428Y-17552657D02*
X9619047Y-17505038D01*
X9619047Y-17505038D02*
X9714285Y-17457419D01*
X11047618Y-18457419D02*
X10714285Y-17981228D01*
X10476190Y-18457419D02*
X10476190Y-17457419D01*
X10476190Y-17457419D02*
X10857142Y-17457419D01*
X10857142Y-17457419D02*
X10952380Y-17505038D01*
X10952380Y-17505038D02*
X10999999Y-17552657D01*
X10999999Y-17552657D02*
X11047618Y-17647895D01*
X11047618Y-17647895D02*
X11047618Y-17790752D01*
X11047618Y-17790752D02*
X10999999Y-17885990D01*
X10999999Y-17885990D02*
X10952380Y-17933609D01*
X10952380Y-17933609D02*
X10857142Y-17981228D01*
X10857142Y-17981228D02*
X10476190Y-17981228D01*
X12238095Y-18457419D02*
X12238095Y-17457419D01*
X12238095Y-17457419D02*
X12571428Y-18171704D01*
X12571428Y-18171704D02*
X12904761Y-17457419D01*
X12904761Y-17457419D02*
X12904761Y-18457419D01*
X13380952Y-18457419D02*
X13380952Y-17457419D01*
X13857142Y-18457419D02*
X13857142Y-17457419D01*
X13857142Y-17457419D02*
X14238094Y-17457419D01*
X14238094Y-17457419D02*
X14333332Y-17505038D01*
X14333332Y-17505038D02*
X14380951Y-17552657D01*
X14380951Y-17552657D02*
X14428570Y-17647895D01*
X14428570Y-17647895D02*
X14428570Y-17790752D01*
X14428570Y-17790752D02*
X14380951Y-17885990D01*
X14380951Y-17885990D02*
X14333332Y-17933609D01*
X14333332Y-17933609D02*
X14238094Y-17981228D01*
X14238094Y-17981228D02*
X13857142Y-17981228D01*
X14857142Y-18457419D02*
X14857142Y-17457419D01*
X16619046Y-18457419D02*
X16047618Y-18457419D01*
X16333332Y-18457419D02*
X16333332Y-17457419D01*
X16333332Y-17457419D02*
X16238094Y-17600276D01*
X16238094Y-17600276D02*
X16142856Y-17695514D01*
X16142856Y-17695514D02*
X16047618Y-17743133D01*
X17238094Y-17457419D02*
X17333332Y-17457419D01*
X17333332Y-17457419D02*
X17428570Y-17505038D01*
X17428570Y-17505038D02*
X17476189Y-17552657D01*
X17476189Y-17552657D02*
X17523808Y-17647895D01*
X17523808Y-17647895D02*
X17571427Y-17838371D01*
X17571427Y-17838371D02*
X17571427Y-18076466D01*
X17571427Y-18076466D02*
X17523808Y-18266942D01*
X17523808Y-18266942D02*
X17476189Y-18362180D01*
X17476189Y-18362180D02*
X17428570Y-18409800D01*
X17428570Y-18409800D02*
X17333332Y-18457419D01*
X17333332Y-18457419D02*
X17238094Y-18457419D01*
X17238094Y-18457419D02*
X17142856Y-18409800D01*
X17142856Y-18409800D02*
X17095237Y-18362180D01*
X17095237Y-18362180D02*
X17047618Y-18266942D01*
X17047618Y-18266942D02*
X16999999Y-18076466D01*
X16999999Y-18076466D02*
X16999999Y-17838371D01*
X16999999Y-17838371D02*
X17047618Y-17647895D01*
X17047618Y-17647895D02*
X17095237Y-17552657D01*
X17095237Y-17552657D02*
X17142856Y-17505038D01*
X17142856Y-17505038D02*
X17238094Y-17457419D01*
X18190475Y-17457419D02*
X18285713Y-17457419D01*
X18285713Y-17457419D02*
X18380951Y-17505038D01*
X18380951Y-17505038D02*
X18428570Y-17552657D01*
X18428570Y-17552657D02*
X18476189Y-17647895D01*
X18476189Y-17647895D02*
X18523808Y-17838371D01*
X18523808Y-17838371D02*
X18523808Y-18076466D01*
X18523808Y-18076466D02*
X18476189Y-18266942D01*
X18476189Y-18266942D02*
X18428570Y-18362180D01*
X18428570Y-18362180D02*
X18380951Y-18409800D01*
X18380951Y-18409800D02*
X18285713Y-18457419D01*
X18285713Y-18457419D02*
X18190475Y-18457419D01*
X18190475Y-18457419D02*
X18095237Y-18409800D01*
X18095237Y-18409800D02*
X18047618Y-18362180D01*
X18047618Y-18362180D02*
X17999999Y-18266942D01*
X17999999Y-18266942D02*
X17952380Y-18076466D01*
X17952380Y-18076466D02*
X17952380Y-17838371D01*
X17952380Y-17838371D02*
X17999999Y-17647895D01*
X17999999Y-17647895D02*
X18047618Y-17552657D01*
X18047618Y-17552657D02*
X18095237Y-17505038D01*
X18095237Y-17505038D02*
X18190475Y-17457419D01*
X19523808Y-18457419D02*
X19190475Y-17981228D01*
X18952380Y-18457419D02*
X18952380Y-17457419D01*
X18952380Y-17457419D02*
X19333332Y-17457419D01*
X19333332Y-17457419D02*
X19428570Y-17505038D01*
X19428570Y-17505038D02*
X19476189Y-17552657D01*
X19476189Y-17552657D02*
X19523808Y-17647895D01*
X19523808Y-17647895D02*
X19523808Y-17790752D01*
X19523808Y-17790752D02*
X19476189Y-17885990D01*
X19476189Y-17885990D02*
X19428570Y-17933609D01*
X19428570Y-17933609D02*
X19333332Y-17981228D01*
X19333332Y-17981228D02*
X18952380Y-17981228D01*
X20714285Y-18457419D02*
X20714285Y-17457419D01*
X20714285Y-17457419D02*
X21095237Y-17457419D01*
X21095237Y-17457419D02*
X21190475Y-17505038D01*
X21190475Y-17505038D02*
X21238094Y-17552657D01*
X21238094Y-17552657D02*
X21285713Y-17647895D01*
X21285713Y-17647895D02*
X21285713Y-17790752D01*
X21285713Y-17790752D02*
X21238094Y-17885990D01*
X21238094Y-17885990D02*
X21190475Y-17933609D01*
X21190475Y-17933609D02*
X21095237Y-17981228D01*
X21095237Y-17981228D02*
X20714285Y-17981228D01*
X22285713Y-18362180D02*
X22238094Y-18409800D01*
X22238094Y-18409800D02*
X22095237Y-18457419D01*
X22095237Y-18457419D02*
X21999999Y-18457419D01*
X21999999Y-18457419D02*
X21857142Y-18409800D01*
X21857142Y-18409800D02*
X21761904Y-18314561D01*
X21761904Y-18314561D02*
X21714285Y-18219323D01*
X21714285Y-18219323D02*
X21666666Y-18028847D01*
X21666666Y-18028847D02*
X21666666Y-17885990D01*
X21666666Y-17885990D02*
X21714285Y-17695514D01*
X21714285Y-17695514D02*
X21761904Y-17600276D01*
X21761904Y-17600276D02*
X21857142Y-17505038D01*
X21857142Y-17505038D02*
X21999999Y-17457419D01*
X21999999Y-17457419D02*
X22095237Y-17457419D01*
X22095237Y-17457419D02*
X22238094Y-17505038D01*
X22238094Y-17505038D02*
X22285713Y-17552657D01*
X22714285Y-18457419D02*
X22714285Y-17457419D01*
X23571427Y-18409800D02*
X23476189Y-18457419D01*
X23476189Y-18457419D02*
X23285713Y-18457419D01*
X23285713Y-18457419D02*
X23190475Y-18409800D01*
X23190475Y-18409800D02*
X23142856Y-18314561D01*
X23142856Y-18314561D02*
X23142856Y-17933609D01*
X23142856Y-17933609D02*
X23190475Y-17838371D01*
X23190475Y-17838371D02*
X23285713Y-17790752D01*
X23285713Y-17790752D02*
X23476189Y-17790752D01*
X23476189Y-17790752D02*
X23571427Y-17838371D01*
X23571427Y-17838371D02*
X23619046Y-17933609D01*
X23619046Y-17933609D02*
X23619046Y-18028847D01*
X23619046Y-18028847D02*
X23142856Y-18124085D01*
X24952380Y-17885990D02*
X24857142Y-17838371D01*
X24857142Y-17838371D02*
X24809523Y-17790752D01*
X24809523Y-17790752D02*
X24761904Y-17695514D01*
X24761904Y-17695514D02*
X24761904Y-17647895D01*
X24761904Y-17647895D02*
X24809523Y-17552657D01*
X24809523Y-17552657D02*
X24857142Y-17505038D01*
X24857142Y-17505038D02*
X24952380Y-17457419D01*
X24952380Y-17457419D02*
X25142856Y-17457419D01*
X25142856Y-17457419D02*
X25238094Y-17505038D01*
X25238094Y-17505038D02*
X25285713Y-17552657D01*
X25285713Y-17552657D02*
X25333332Y-17647895D01*
X25333332Y-17647895D02*
X25333332Y-17695514D01*
X25333332Y-17695514D02*
X25285713Y-17790752D01*
X25285713Y-17790752D02*
X25238094Y-17838371D01*
X25238094Y-17838371D02*
X25142856Y-17885990D01*
X25142856Y-17885990D02*
X24952380Y-17885990D01*
X24952380Y-17885990D02*
X24857142Y-17933609D01*
X24857142Y-17933609D02*
X24809523Y-17981228D01*
X24809523Y-17981228D02*
X24761904Y-18076466D01*
X24761904Y-18076466D02*
X24761904Y-18266942D01*
X24761904Y-18266942D02*
X24809523Y-18362180D01*
X24809523Y-18362180D02*
X24857142Y-18409800D01*
X24857142Y-18409800D02*
X24952380Y-18457419D01*
X24952380Y-18457419D02*
X25142856Y-18457419D01*
X25142856Y-18457419D02*
X25238094Y-18409800D01*
X25238094Y-18409800D02*
X25285713Y-18362180D01*
X25285713Y-18362180D02*
X25333332Y-18266942D01*
X25333332Y-18266942D02*
X25333332Y-18076466D01*
X25333332Y-18076466D02*
X25285713Y-17981228D01*
X25285713Y-17981228D02*
X25238094Y-17933609D01*
X25238094Y-17933609D02*
X25142856Y-17885990D01*
X26238094Y-17457419D02*
X25761904Y-17457419D01*
X25761904Y-17457419D02*
X25714285Y-17933609D01*
X25714285Y-17933609D02*
X25761904Y-17885990D01*
X25761904Y-17885990D02*
X25857142Y-17838371D01*
X25857142Y-17838371D02*
X26095237Y-17838371D01*
X26095237Y-17838371D02*
X26190475Y-17885990D01*
X26190475Y-17885990D02*
X26238094Y-17933609D01*
X26238094Y-17933609D02*
X26285713Y-18028847D01*
X26285713Y-18028847D02*
X26285713Y-18266942D01*
X26285713Y-18266942D02*
X26238094Y-18362180D01*
X26238094Y-18362180D02*
X26190475Y-18409800D01*
X26190475Y-18409800D02*
X26095237Y-18457419D01*
X26095237Y-18457419D02*
X25857142Y-18457419D01*
X25857142Y-18457419D02*
X25761904Y-18409800D01*
X25761904Y-18409800D02*
X25714285Y-18362180D01*
X27285713Y-18457419D02*
X26952380Y-17981228D01*
X26714285Y-18457419D02*
X26714285Y-17457419D01*
X26714285Y-17457419D02*
X27095237Y-17457419D01*
X27095237Y-17457419D02*
X27190475Y-17505038D01*
X27190475Y-17505038D02*
X27238094Y-17552657D01*
X27238094Y-17552657D02*
X27285713Y-17647895D01*
X27285713Y-17647895D02*
X27285713Y-17790752D01*
X27285713Y-17790752D02*
X27238094Y-17885990D01*
X27238094Y-17885990D02*
X27190475Y-17933609D01*
X27190475Y-17933609D02*
X27095237Y-17981228D01*
X27095237Y-17981228D02*
X26714285Y-17981228D01*
X28428571Y-18409800D02*
X28523809Y-18457419D01*
X28523809Y-18457419D02*
X28714285Y-18457419D01*
X28714285Y-18457419D02*
X28809523Y-18409800D01*
X28809523Y-18409800D02*
X28857142Y-18314561D01*
X28857142Y-18314561D02*
X28857142Y-18266942D01*
X28857142Y-18266942D02*
X28809523Y-18171704D01*
X28809523Y-18171704D02*
X28714285Y-18124085D01*
X28714285Y-18124085D02*
X28571428Y-18124085D01*
X28571428Y-18124085D02*
X28476190Y-18076466D01*
X28476190Y-18076466D02*
X28428571Y-17981228D01*
X28428571Y-17981228D02*
X28428571Y-17933609D01*
X28428571Y-17933609D02*
X28476190Y-17838371D01*
X28476190Y-17838371D02*
X28571428Y-17790752D01*
X28571428Y-17790752D02*
X28714285Y-17790752D01*
X28714285Y-17790752D02*
X28809523Y-17838371D01*
X29285714Y-18457419D02*
X29285714Y-17457419D01*
X29380952Y-18076466D02*
X29666666Y-18457419D01*
X29666666Y-17790752D02*
X29285714Y-18171704D01*
X30476190Y-18409800D02*
X30380952Y-18457419D01*
X30380952Y-18457419D02*
X30190476Y-18457419D01*
X30190476Y-18457419D02*
X30095238Y-18409800D01*
X30095238Y-18409800D02*
X30047619Y-18314561D01*
X30047619Y-18314561D02*
X30047619Y-17933609D01*
X30047619Y-17933609D02*
X30095238Y-17838371D01*
X30095238Y-17838371D02*
X30190476Y-17790752D01*
X30190476Y-17790752D02*
X30380952Y-17790752D01*
X30380952Y-17790752D02*
X30476190Y-17838371D01*
X30476190Y-17838371D02*
X30523809Y-17933609D01*
X30523809Y-17933609D02*
X30523809Y-18028847D01*
X30523809Y-18028847D02*
X30047619Y-18124085D01*
X30857143Y-17790752D02*
X31047619Y-18457419D01*
X31047619Y-18457419D02*
X31238095Y-17981228D01*
X31238095Y-17981228D02*
X31428571Y-18457419D01*
X31428571Y-18457419D02*
X31619047Y-17790752D01*
X32761905Y-17790752D02*
X32000000Y-18076466D01*
X32000000Y-18076466D02*
X32761905Y-18362180D01*
X33238095Y-17933609D02*
X34000000Y-17933609D01*
X34000000Y-18219323D02*
X33238095Y-18219323D01*
X34952380Y-17457419D02*
X34476190Y-17457419D01*
X34476190Y-17457419D02*
X34428571Y-17933609D01*
X34428571Y-17933609D02*
X34476190Y-17885990D01*
X34476190Y-17885990D02*
X34571428Y-17838371D01*
X34571428Y-17838371D02*
X34809523Y-17838371D01*
X34809523Y-17838371D02*
X34904761Y-17885990D01*
X34904761Y-17885990D02*
X34952380Y-17933609D01*
X34952380Y-17933609D02*
X34999999Y-18028847D01*
X34999999Y-18028847D02*
X34999999Y-18266942D01*
X34999999Y-18266942D02*
X34952380Y-18362180D01*
X34952380Y-18362180D02*
X34904761Y-18409800D01*
X34904761Y-18409800D02*
X34809523Y-18457419D01*
X34809523Y-18457419D02*
X34571428Y-18457419D01*
X34571428Y-18457419D02*
X34476190Y-18409800D01*
X34476190Y-18409800D02*
X34428571Y-18362180D01*
X35428571Y-18457419D02*
X35428571Y-17790752D01*
X35428571Y-17885990D02*
X35476190Y-17838371D01*
X35476190Y-17838371D02*
X35571428Y-17790752D01*
X35571428Y-17790752D02*
X35714285Y-17790752D01*
X35714285Y-17790752D02*
X35809523Y-17838371D01*
X35809523Y-17838371D02*
X35857142Y-17933609D01*
X35857142Y-17933609D02*
X35857142Y-18457419D01*
X35857142Y-17933609D02*
X35904761Y-17838371D01*
X35904761Y-17838371D02*
X35999999Y-17790752D01*
X35999999Y-17790752D02*
X36142856Y-17790752D01*
X36142856Y-17790752D02*
X36238095Y-17838371D01*
X36238095Y-17838371D02*
X36285714Y-17933609D01*
X36285714Y-17933609D02*
X36285714Y-18457419D01*
X36761904Y-18457419D02*
X36761904Y-17790752D01*
X36761904Y-17457419D02*
X36714285Y-17505038D01*
X36714285Y-17505038D02*
X36761904Y-17552657D01*
X36761904Y-17552657D02*
X36809523Y-17505038D01*
X36809523Y-17505038D02*
X36761904Y-17457419D01*
X36761904Y-17457419D02*
X36761904Y-17552657D01*
X37380951Y-18457419D02*
X37285713Y-18409800D01*
X37285713Y-18409800D02*
X37238094Y-18314561D01*
X37238094Y-18314561D02*
X37238094Y-17457419D01*
X38428571Y-18124085D02*
X39285714Y-18124085D01*
X40857142Y-18457419D02*
X40857142Y-17457419D01*
X40857142Y-18409800D02*
X40761904Y-18457419D01*
X40761904Y-18457419D02*
X40571428Y-18457419D01*
X40571428Y-18457419D02*
X40476190Y-18409800D01*
X40476190Y-18409800D02*
X40428571Y-18362180D01*
X40428571Y-18362180D02*
X40380952Y-18266942D01*
X40380952Y-18266942D02*
X40380952Y-17981228D01*
X40380952Y-17981228D02*
X40428571Y-17885990D01*
X40428571Y-17885990D02*
X40476190Y-17838371D01*
X40476190Y-17838371D02*
X40571428Y-17790752D01*
X40571428Y-17790752D02*
X40761904Y-17790752D01*
X40761904Y-17790752D02*
X40857142Y-17838371D01*
X41714285Y-18409800D02*
X41619047Y-18457419D01*
X41619047Y-18457419D02*
X41428571Y-18457419D01*
X41428571Y-18457419D02*
X41333333Y-18409800D01*
X41333333Y-18409800D02*
X41285714Y-18314561D01*
X41285714Y-18314561D02*
X41285714Y-17933609D01*
X41285714Y-17933609D02*
X41333333Y-17838371D01*
X41333333Y-17838371D02*
X41428571Y-17790752D01*
X41428571Y-17790752D02*
X41619047Y-17790752D01*
X41619047Y-17790752D02*
X41714285Y-17838371D01*
X41714285Y-17838371D02*
X41761904Y-17933609D01*
X41761904Y-17933609D02*
X41761904Y-18028847D01*
X41761904Y-18028847D02*
X41285714Y-18124085D01*
X42142857Y-18409800D02*
X42238095Y-18457419D01*
X42238095Y-18457419D02*
X42428571Y-18457419D01*
X42428571Y-18457419D02*
X42523809Y-18409800D01*
X42523809Y-18409800D02*
X42571428Y-18314561D01*
X42571428Y-18314561D02*
X42571428Y-18266942D01*
X42571428Y-18266942D02*
X42523809Y-18171704D01*
X42523809Y-18171704D02*
X42428571Y-18124085D01*
X42428571Y-18124085D02*
X42285714Y-18124085D01*
X42285714Y-18124085D02*
X42190476Y-18076466D01*
X42190476Y-18076466D02*
X42142857Y-17981228D01*
X42142857Y-17981228D02*
X42142857Y-17933609D01*
X42142857Y-17933609D02*
X42190476Y-17838371D01*
X42190476Y-17838371D02*
X42285714Y-17790752D01*
X42285714Y-17790752D02*
X42428571Y-17790752D01*
X42428571Y-17790752D02*
X42523809Y-17838371D01*
X43000000Y-18457419D02*
X43000000Y-17790752D01*
X43000000Y-17457419D02*
X42952381Y-17505038D01*
X42952381Y-17505038D02*
X43000000Y-17552657D01*
X43000000Y-17552657D02*
X43047619Y-17505038D01*
X43047619Y-17505038D02*
X43000000Y-17457419D01*
X43000000Y-17457419D02*
X43000000Y-17552657D01*
X43904761Y-17790752D02*
X43904761Y-18600276D01*
X43904761Y-18600276D02*
X43857142Y-18695514D01*
X43857142Y-18695514D02*
X43809523Y-18743133D01*
X43809523Y-18743133D02*
X43714285Y-18790752D01*
X43714285Y-18790752D02*
X43571428Y-18790752D01*
X43571428Y-18790752D02*
X43476190Y-18743133D01*
X43904761Y-18409800D02*
X43809523Y-18457419D01*
X43809523Y-18457419D02*
X43619047Y-18457419D01*
X43619047Y-18457419D02*
X43523809Y-18409800D01*
X43523809Y-18409800D02*
X43476190Y-18362180D01*
X43476190Y-18362180D02*
X43428571Y-18266942D01*
X43428571Y-18266942D02*
X43428571Y-17981228D01*
X43428571Y-17981228D02*
X43476190Y-17885990D01*
X43476190Y-17885990D02*
X43523809Y-17838371D01*
X43523809Y-17838371D02*
X43619047Y-17790752D01*
X43619047Y-17790752D02*
X43809523Y-17790752D01*
X43809523Y-17790752D02*
X43904761Y-17838371D01*
X44380952Y-17790752D02*
X44380952Y-18457419D01*
X44380952Y-17885990D02*
X44428571Y-17838371D01*
X44428571Y-17838371D02*
X44523809Y-17790752D01*
X44523809Y-17790752D02*
X44666666Y-17790752D01*
X44666666Y-17790752D02*
X44761904Y-17838371D01*
X44761904Y-17838371D02*
X44809523Y-17933609D01*
X44809523Y-17933609D02*
X44809523Y-18457419D01*
X46047619Y-17790752D02*
X46047619Y-18457419D01*
X46047619Y-17885990D02*
X46095238Y-17838371D01*
X46095238Y-17838371D02*
X46190476Y-17790752D01*
X46190476Y-17790752D02*
X46333333Y-17790752D01*
X46333333Y-17790752D02*
X46428571Y-17838371D01*
X46428571Y-17838371D02*
X46476190Y-17933609D01*
X46476190Y-17933609D02*
X46476190Y-18457419D01*
X47095238Y-18457419D02*
X47000000Y-18409800D01*
X47000000Y-18409800D02*
X46952381Y-18362180D01*
X46952381Y-18362180D02*
X46904762Y-18266942D01*
X46904762Y-18266942D02*
X46904762Y-17981228D01*
X46904762Y-17981228D02*
X46952381Y-17885990D01*
X46952381Y-17885990D02*
X47000000Y-17838371D01*
X47000000Y-17838371D02*
X47095238Y-17790752D01*
X47095238Y-17790752D02*
X47238095Y-17790752D01*
X47238095Y-17790752D02*
X47333333Y-17838371D01*
X47333333Y-17838371D02*
X47380952Y-17885990D01*
X47380952Y-17885990D02*
X47428571Y-17981228D01*
X47428571Y-17981228D02*
X47428571Y-18266942D01*
X47428571Y-18266942D02*
X47380952Y-18362180D01*
X47380952Y-18362180D02*
X47333333Y-18409800D01*
X47333333Y-18409800D02*
X47238095Y-18457419D01*
X47238095Y-18457419D02*
X47095238Y-18457419D01*
X47714286Y-17790752D02*
X48095238Y-17790752D01*
X47857143Y-17457419D02*
X47857143Y-18314561D01*
X47857143Y-18314561D02*
X47904762Y-18409800D01*
X47904762Y-18409800D02*
X48000000Y-18457419D01*
X48000000Y-18457419D02*
X48095238Y-18457419D01*
X48809524Y-18409800D02*
X48714286Y-18457419D01*
X48714286Y-18457419D02*
X48523810Y-18457419D01*
X48523810Y-18457419D02*
X48428572Y-18409800D01*
X48428572Y-18409800D02*
X48380953Y-18314561D01*
X48380953Y-18314561D02*
X48380953Y-17933609D01*
X48380953Y-17933609D02*
X48428572Y-17838371D01*
X48428572Y-17838371D02*
X48523810Y-17790752D01*
X48523810Y-17790752D02*
X48714286Y-17790752D01*
X48714286Y-17790752D02*
X48809524Y-17838371D01*
X48809524Y-17838371D02*
X48857143Y-17933609D01*
X48857143Y-17933609D02*
X48857143Y-18028847D01*
X48857143Y-18028847D02*
X48380953Y-18124085D01*
X50190477Y-18457419D02*
X50095239Y-18409800D01*
X50095239Y-18409800D02*
X50047620Y-18362180D01*
X50047620Y-18362180D02*
X50000001Y-18266942D01*
X50000001Y-18266942D02*
X50000001Y-17981228D01*
X50000001Y-17981228D02*
X50047620Y-17885990D01*
X50047620Y-17885990D02*
X50095239Y-17838371D01*
X50095239Y-17838371D02*
X50190477Y-17790752D01*
X50190477Y-17790752D02*
X50333334Y-17790752D01*
X50333334Y-17790752D02*
X50428572Y-17838371D01*
X50428572Y-17838371D02*
X50476191Y-17885990D01*
X50476191Y-17885990D02*
X50523810Y-17981228D01*
X50523810Y-17981228D02*
X50523810Y-18266942D01*
X50523810Y-18266942D02*
X50476191Y-18362180D01*
X50476191Y-18362180D02*
X50428572Y-18409800D01*
X50428572Y-18409800D02*
X50333334Y-18457419D01*
X50333334Y-18457419D02*
X50190477Y-18457419D01*
X50952382Y-17790752D02*
X50952382Y-18457419D01*
X50952382Y-17885990D02*
X51000001Y-17838371D01*
X51000001Y-17838371D02*
X51095239Y-17790752D01*
X51095239Y-17790752D02*
X51238096Y-17790752D01*
X51238096Y-17790752D02*
X51333334Y-17838371D01*
X51333334Y-17838371D02*
X51380953Y-17933609D01*
X51380953Y-17933609D02*
X51380953Y-18457419D01*
X52000001Y-18457419D02*
X51904763Y-18409800D01*
X51904763Y-18409800D02*
X51857144Y-18314561D01*
X51857144Y-18314561D02*
X51857144Y-17457419D01*
X52285716Y-17790752D02*
X52523811Y-18457419D01*
X52761906Y-17790752D02*
X52523811Y-18457419D01*
X52523811Y-18457419D02*
X52428573Y-18695514D01*
X52428573Y-18695514D02*
X52380954Y-18743133D01*
X52380954Y-18743133D02*
X52285716Y-18790752D01*
M02*
