%TF.GenerationSoftware,KiCad,Pcbnew,10.0.5*%
%TF.CreationDate,2026-08-09T14:46:59-05:00*%
%TF.ProjectId,ds_xl_coder,64735f78-6c5f-4636-9f64-65722e6b6963,0.5.0-cont-viii*%
%TF.SameCoordinates,Original*%
%TF.FileFunction,Other,Comment*%
%FSLAX46Y46*%
G04 Gerber Fmt 4.6, Leading zero omitted, Abs format (unit mm)*
G04 Created by KiCad (PCBNEW 10.0.5) date 2026-08-09 14:46:59*
%MOMM*%
%LPD*%
G01*
G04 APERTURE LIST*
%ADD10C,0.100000*%
G04 APERTURE END LIST*
D10*
X-21785719Y-191505038D02*
X-21880957Y-191457419D01*
X-21880957Y-191457419D02*
X-22023814Y-191457419D01*
X-22023814Y-191457419D02*
X-22166671Y-191505038D01*
X-22166671Y-191505038D02*
X-22261909Y-191600276D01*
X-22261909Y-191600276D02*
X-22309528Y-191695514D01*
X-22309528Y-191695514D02*
X-22357147Y-191885990D01*
X-22357147Y-191885990D02*
X-22357147Y-192028847D01*
X-22357147Y-192028847D02*
X-22309528Y-192219323D01*
X-22309528Y-192219323D02*
X-22261909Y-192314561D01*
X-22261909Y-192314561D02*
X-22166671Y-192409800D01*
X-22166671Y-192409800D02*
X-22023814Y-192457419D01*
X-22023814Y-192457419D02*
X-21928576Y-192457419D01*
X-21928576Y-192457419D02*
X-21785719Y-192409800D01*
X-21785719Y-192409800D02*
X-21738100Y-192362180D01*
X-21738100Y-192362180D02*
X-21738100Y-192028847D01*
X-21738100Y-192028847D02*
X-21928576Y-192028847D01*
X-21309528Y-192457419D02*
X-21309528Y-191457419D01*
X-21309528Y-191457419D02*
X-20738100Y-192457419D01*
X-20738100Y-192457419D02*
X-20738100Y-191457419D01*
X-20261909Y-192457419D02*
X-20261909Y-191457419D01*
X-20261909Y-191457419D02*
X-20023814Y-191457419D01*
X-20023814Y-191457419D02*
X-19880957Y-191505038D01*
X-19880957Y-191505038D02*
X-19785719Y-191600276D01*
X-19785719Y-191600276D02*
X-19738100Y-191695514D01*
X-19738100Y-191695514D02*
X-19690481Y-191885990D01*
X-19690481Y-191885990D02*
X-19690481Y-192028847D01*
X-19690481Y-192028847D02*
X-19738100Y-192219323D01*
X-19738100Y-192219323D02*
X-19785719Y-192314561D01*
X-19785719Y-192314561D02*
X-19880957Y-192409800D01*
X-19880957Y-192409800D02*
X-20023814Y-192457419D01*
X-20023814Y-192457419D02*
X-20261909Y-192457419D01*
X-18500004Y-191790752D02*
X-18500004Y-192790752D01*
X-18500004Y-191838371D02*
X-18404766Y-191790752D01*
X-18404766Y-191790752D02*
X-18214290Y-191790752D01*
X-18214290Y-191790752D02*
X-18119052Y-191838371D01*
X-18119052Y-191838371D02*
X-18071433Y-191885990D01*
X-18071433Y-191885990D02*
X-18023814Y-191981228D01*
X-18023814Y-191981228D02*
X-18023814Y-192266942D01*
X-18023814Y-192266942D02*
X-18071433Y-192362180D01*
X-18071433Y-192362180D02*
X-18119052Y-192409800D01*
X-18119052Y-192409800D02*
X-18214290Y-192457419D01*
X-18214290Y-192457419D02*
X-18404766Y-192457419D01*
X-18404766Y-192457419D02*
X-18500004Y-192409800D01*
X-17452385Y-192457419D02*
X-17547623Y-192409800D01*
X-17547623Y-192409800D02*
X-17595242Y-192362180D01*
X-17595242Y-192362180D02*
X-17642861Y-192266942D01*
X-17642861Y-192266942D02*
X-17642861Y-191981228D01*
X-17642861Y-191981228D02*
X-17595242Y-191885990D01*
X-17595242Y-191885990D02*
X-17547623Y-191838371D01*
X-17547623Y-191838371D02*
X-17452385Y-191790752D01*
X-17452385Y-191790752D02*
X-17309528Y-191790752D01*
X-17309528Y-191790752D02*
X-17214290Y-191838371D01*
X-17214290Y-191838371D02*
X-17166671Y-191885990D01*
X-17166671Y-191885990D02*
X-17119052Y-191981228D01*
X-17119052Y-191981228D02*
X-17119052Y-192266942D01*
X-17119052Y-192266942D02*
X-17166671Y-192362180D01*
X-17166671Y-192362180D02*
X-17214290Y-192409800D01*
X-17214290Y-192409800D02*
X-17309528Y-192457419D01*
X-17309528Y-192457419D02*
X-17452385Y-192457419D01*
X-16261909Y-191790752D02*
X-16261909Y-192457419D01*
X-16690480Y-191790752D02*
X-16690480Y-192314561D01*
X-16690480Y-192314561D02*
X-16642861Y-192409800D01*
X-16642861Y-192409800D02*
X-16547623Y-192457419D01*
X-16547623Y-192457419D02*
X-16404766Y-192457419D01*
X-16404766Y-192457419D02*
X-16309528Y-192409800D01*
X-16309528Y-192409800D02*
X-16261909Y-192362180D01*
X-15785718Y-192457419D02*
X-15785718Y-191790752D01*
X-15785718Y-191981228D02*
X-15738099Y-191885990D01*
X-15738099Y-191885990D02*
X-15690480Y-191838371D01*
X-15690480Y-191838371D02*
X-15595242Y-191790752D01*
X-15595242Y-191790752D02*
X-15500004Y-191790752D01*
X-14404765Y-192457419D02*
X-14404765Y-191790752D01*
X-14404765Y-191457419D02*
X-14452384Y-191505038D01*
X-14452384Y-191505038D02*
X-14404765Y-191552657D01*
X-14404765Y-191552657D02*
X-14357146Y-191505038D01*
X-14357146Y-191505038D02*
X-14404765Y-191457419D01*
X-14404765Y-191457419D02*
X-14404765Y-191552657D01*
X-13928575Y-191790752D02*
X-13928575Y-192457419D01*
X-13928575Y-191885990D02*
X-13880956Y-191838371D01*
X-13880956Y-191838371D02*
X-13785718Y-191790752D01*
X-13785718Y-191790752D02*
X-13642861Y-191790752D01*
X-13642861Y-191790752D02*
X-13547623Y-191838371D01*
X-13547623Y-191838371D02*
X-13500004Y-191933609D01*
X-13500004Y-191933609D02*
X-13500004Y-192457419D01*
X-13166670Y-191790752D02*
X-12785718Y-191790752D01*
X-13023813Y-191457419D02*
X-13023813Y-192314561D01*
X-13023813Y-192314561D02*
X-12976194Y-192409800D01*
X-12976194Y-192409800D02*
X-12880956Y-192457419D01*
X-12880956Y-192457419D02*
X-12785718Y-192457419D01*
X-12071432Y-192409800D02*
X-12166670Y-192457419D01*
X-12166670Y-192457419D02*
X-12357146Y-192457419D01*
X-12357146Y-192457419D02*
X-12452384Y-192409800D01*
X-12452384Y-192409800D02*
X-12500003Y-192314561D01*
X-12500003Y-192314561D02*
X-12500003Y-191933609D01*
X-12500003Y-191933609D02*
X-12452384Y-191838371D01*
X-12452384Y-191838371D02*
X-12357146Y-191790752D01*
X-12357146Y-191790752D02*
X-12166670Y-191790752D01*
X-12166670Y-191790752D02*
X-12071432Y-191838371D01*
X-12071432Y-191838371D02*
X-12023813Y-191933609D01*
X-12023813Y-191933609D02*
X-12023813Y-192028847D01*
X-12023813Y-192028847D02*
X-12500003Y-192124085D01*
X-11595241Y-191790752D02*
X-11595241Y-192457419D01*
X-11595241Y-191885990D02*
X-11547622Y-191838371D01*
X-11547622Y-191838371D02*
X-11452384Y-191790752D01*
X-11452384Y-191790752D02*
X-11309527Y-191790752D01*
X-11309527Y-191790752D02*
X-11214289Y-191838371D01*
X-11214289Y-191838371D02*
X-11166670Y-191933609D01*
X-11166670Y-191933609D02*
X-11166670Y-192457419D01*
X-10833336Y-191790752D02*
X-10452384Y-191790752D01*
X-10690479Y-191457419D02*
X-10690479Y-192314561D01*
X-10690479Y-192314561D02*
X-10642860Y-192409800D01*
X-10642860Y-192409800D02*
X-10547622Y-192457419D01*
X-10547622Y-192457419D02*
X-10452384Y-192457419D01*
X-9023812Y-191933609D02*
X-9357145Y-191933609D01*
X-9357145Y-192457419D02*
X-9357145Y-191457419D01*
X-9357145Y-191457419D02*
X-8880955Y-191457419D01*
X-8500002Y-192362180D02*
X-8452383Y-192409800D01*
X-8452383Y-192409800D02*
X-8500002Y-192457419D01*
X-8500002Y-192457419D02*
X-8547621Y-192409800D01*
X-8547621Y-192409800D02*
X-8500002Y-192362180D01*
X-8500002Y-192362180D02*
X-8500002Y-192457419D01*
X-7452384Y-192362180D02*
X-7500003Y-192409800D01*
X-7500003Y-192409800D02*
X-7642860Y-192457419D01*
X-7642860Y-192457419D02*
X-7738098Y-192457419D01*
X-7738098Y-192457419D02*
X-7880955Y-192409800D01*
X-7880955Y-192409800D02*
X-7976193Y-192314561D01*
X-7976193Y-192314561D02*
X-8023812Y-192219323D01*
X-8023812Y-192219323D02*
X-8071431Y-192028847D01*
X-8071431Y-192028847D02*
X-8071431Y-191885990D01*
X-8071431Y-191885990D02*
X-8023812Y-191695514D01*
X-8023812Y-191695514D02*
X-7976193Y-191600276D01*
X-7976193Y-191600276D02*
X-7880955Y-191505038D01*
X-7880955Y-191505038D02*
X-7738098Y-191457419D01*
X-7738098Y-191457419D02*
X-7642860Y-191457419D01*
X-7642860Y-191457419D02*
X-7500003Y-191505038D01*
X-7500003Y-191505038D02*
X-7452384Y-191552657D01*
X-6595241Y-191790752D02*
X-6595241Y-192457419D01*
X-7023812Y-191790752D02*
X-7023812Y-192314561D01*
X-7023812Y-192314561D02*
X-6976193Y-192409800D01*
X-6976193Y-192409800D02*
X-6880955Y-192457419D01*
X-6880955Y-192457419D02*
X-6738098Y-192457419D01*
X-6738098Y-192457419D02*
X-6642860Y-192409800D01*
X-6642860Y-192409800D02*
X-6595241Y-192362180D01*
X-5404765Y-191409800D02*
X-6261907Y-192695514D01*
X-4738098Y-191933609D02*
X-4595241Y-191981228D01*
X-4595241Y-191981228D02*
X-4547622Y-192028847D01*
X-4547622Y-192028847D02*
X-4500003Y-192124085D01*
X-4500003Y-192124085D02*
X-4500003Y-192266942D01*
X-4500003Y-192266942D02*
X-4547622Y-192362180D01*
X-4547622Y-192362180D02*
X-4595241Y-192409800D01*
X-4595241Y-192409800D02*
X-4690479Y-192457419D01*
X-4690479Y-192457419D02*
X-5071431Y-192457419D01*
X-5071431Y-192457419D02*
X-5071431Y-191457419D01*
X-5071431Y-191457419D02*
X-4738098Y-191457419D01*
X-4738098Y-191457419D02*
X-4642860Y-191505038D01*
X-4642860Y-191505038D02*
X-4595241Y-191552657D01*
X-4595241Y-191552657D02*
X-4547622Y-191647895D01*
X-4547622Y-191647895D02*
X-4547622Y-191743133D01*
X-4547622Y-191743133D02*
X-4595241Y-191838371D01*
X-4595241Y-191838371D02*
X-4642860Y-191885990D01*
X-4642860Y-191885990D02*
X-4738098Y-191933609D01*
X-4738098Y-191933609D02*
X-5071431Y-191933609D01*
X-4071431Y-192362180D02*
X-4023812Y-192409800D01*
X-4023812Y-192409800D02*
X-4071431Y-192457419D01*
X-4071431Y-192457419D02*
X-4119050Y-192409800D01*
X-4119050Y-192409800D02*
X-4071431Y-192362180D01*
X-4071431Y-192362180D02*
X-4071431Y-192457419D01*
X-3023813Y-192362180D02*
X-3071432Y-192409800D01*
X-3071432Y-192409800D02*
X-3214289Y-192457419D01*
X-3214289Y-192457419D02*
X-3309527Y-192457419D01*
X-3309527Y-192457419D02*
X-3452384Y-192409800D01*
X-3452384Y-192409800D02*
X-3547622Y-192314561D01*
X-3547622Y-192314561D02*
X-3595241Y-192219323D01*
X-3595241Y-192219323D02*
X-3642860Y-192028847D01*
X-3642860Y-192028847D02*
X-3642860Y-191885990D01*
X-3642860Y-191885990D02*
X-3595241Y-191695514D01*
X-3595241Y-191695514D02*
X-3547622Y-191600276D01*
X-3547622Y-191600276D02*
X-3452384Y-191505038D01*
X-3452384Y-191505038D02*
X-3309527Y-191457419D01*
X-3309527Y-191457419D02*
X-3214289Y-191457419D01*
X-3214289Y-191457419D02*
X-3071432Y-191505038D01*
X-3071432Y-191505038D02*
X-3023813Y-191552657D01*
X-2166670Y-191790752D02*
X-2166670Y-192457419D01*
X-2595241Y-191790752D02*
X-2595241Y-192314561D01*
X-2595241Y-192314561D02*
X-2547622Y-192409800D01*
X-2547622Y-192409800D02*
X-2452384Y-192457419D01*
X-2452384Y-192457419D02*
X-2309527Y-192457419D01*
X-2309527Y-192457419D02*
X-2214289Y-192409800D01*
X-2214289Y-192409800D02*
X-2166670Y-192362180D01*
X-1023812Y-192124085D02*
X-166670Y-192124085D01*
X833330Y-191790752D02*
X1214282Y-191790752D01*
X976187Y-192457419D02*
X976187Y-191600276D01*
X976187Y-191600276D02*
X1023806Y-191505038D01*
X1023806Y-191505038D02*
X1119044Y-191457419D01*
X1119044Y-191457419D02*
X1214282Y-191457419D01*
X1547616Y-192457419D02*
X1547616Y-191790752D01*
X1547616Y-191457419D02*
X1499997Y-191505038D01*
X1499997Y-191505038D02*
X1547616Y-191552657D01*
X1547616Y-191552657D02*
X1595235Y-191505038D01*
X1595235Y-191505038D02*
X1547616Y-191457419D01*
X1547616Y-191457419D02*
X1547616Y-191552657D01*
X2166663Y-192457419D02*
X2071425Y-192409800D01*
X2071425Y-192409800D02*
X2023806Y-192314561D01*
X2023806Y-192314561D02*
X2023806Y-191457419D01*
X2690473Y-192457419D02*
X2595235Y-192409800D01*
X2595235Y-192409800D02*
X2547616Y-192314561D01*
X2547616Y-192314561D02*
X2547616Y-191457419D01*
X4261902Y-192457419D02*
X4261902Y-191933609D01*
X4261902Y-191933609D02*
X4214283Y-191838371D01*
X4214283Y-191838371D02*
X4119045Y-191790752D01*
X4119045Y-191790752D02*
X3928569Y-191790752D01*
X3928569Y-191790752D02*
X3833331Y-191838371D01*
X4261902Y-192409800D02*
X4166664Y-192457419D01*
X4166664Y-192457419D02*
X3928569Y-192457419D01*
X3928569Y-192457419D02*
X3833331Y-192409800D01*
X3833331Y-192409800D02*
X3785712Y-192314561D01*
X3785712Y-192314561D02*
X3785712Y-192219323D01*
X3785712Y-192219323D02*
X3833331Y-192124085D01*
X3833331Y-192124085D02*
X3928569Y-192076466D01*
X3928569Y-192076466D02*
X4166664Y-192076466D01*
X4166664Y-192076466D02*
X4261902Y-192028847D01*
X4595236Y-191790752D02*
X4976188Y-191790752D01*
X4738093Y-191457419D02*
X4738093Y-192314561D01*
X4738093Y-192314561D02*
X4785712Y-192409800D01*
X4785712Y-192409800D02*
X4880950Y-192457419D01*
X4880950Y-192457419D02*
X4976188Y-192457419D01*
X5928570Y-191790752D02*
X6309522Y-191790752D01*
X6071427Y-192457419D02*
X6071427Y-191600276D01*
X6071427Y-191600276D02*
X6119046Y-191505038D01*
X6119046Y-191505038D02*
X6214284Y-191457419D01*
X6214284Y-191457419D02*
X6309522Y-191457419D01*
X7071427Y-192457419D02*
X7071427Y-191933609D01*
X7071427Y-191933609D02*
X7023808Y-191838371D01*
X7023808Y-191838371D02*
X6928570Y-191790752D01*
X6928570Y-191790752D02*
X6738094Y-191790752D01*
X6738094Y-191790752D02*
X6642856Y-191838371D01*
X7071427Y-192409800D02*
X6976189Y-192457419D01*
X6976189Y-192457419D02*
X6738094Y-192457419D01*
X6738094Y-192457419D02*
X6642856Y-192409800D01*
X6642856Y-192409800D02*
X6595237Y-192314561D01*
X6595237Y-192314561D02*
X6595237Y-192219323D01*
X6595237Y-192219323D02*
X6642856Y-192124085D01*
X6642856Y-192124085D02*
X6738094Y-192076466D01*
X6738094Y-192076466D02*
X6976189Y-192076466D01*
X6976189Y-192076466D02*
X7071427Y-192028847D01*
X7547618Y-192457419D02*
X7547618Y-191457419D01*
X7547618Y-191838371D02*
X7642856Y-191790752D01*
X7642856Y-191790752D02*
X7833332Y-191790752D01*
X7833332Y-191790752D02*
X7928570Y-191838371D01*
X7928570Y-191838371D02*
X7976189Y-191885990D01*
X7976189Y-191885990D02*
X8023808Y-191981228D01*
X8023808Y-191981228D02*
X8023808Y-192266942D01*
X8023808Y-192266942D02*
X7976189Y-192362180D01*
X7976189Y-192362180D02*
X7928570Y-192409800D01*
X7928570Y-192409800D02*
X7833332Y-192457419D01*
X7833332Y-192457419D02*
X7642856Y-192457419D01*
X7642856Y-192457419D02*
X7547618Y-192409800D01*
X9785713Y-192362180D02*
X9738094Y-192409800D01*
X9738094Y-192409800D02*
X9595237Y-192457419D01*
X9595237Y-192457419D02*
X9499999Y-192457419D01*
X9499999Y-192457419D02*
X9357142Y-192409800D01*
X9357142Y-192409800D02*
X9261904Y-192314561D01*
X9261904Y-192314561D02*
X9214285Y-192219323D01*
X9214285Y-192219323D02*
X9166666Y-192028847D01*
X9166666Y-192028847D02*
X9166666Y-191885990D01*
X9166666Y-191885990D02*
X9214285Y-191695514D01*
X9214285Y-191695514D02*
X9261904Y-191600276D01*
X9261904Y-191600276D02*
X9357142Y-191505038D01*
X9357142Y-191505038D02*
X9499999Y-191457419D01*
X9499999Y-191457419D02*
X9595237Y-191457419D01*
X9595237Y-191457419D02*
X9738094Y-191505038D01*
X9738094Y-191505038D02*
X9785713Y-191552657D01*
X10166666Y-192171704D02*
X10642856Y-192171704D01*
X10071428Y-192457419D02*
X10404761Y-191457419D01*
X10404761Y-191457419D02*
X10738094Y-192457419D01*
X11071428Y-192457419D02*
X11071428Y-191457419D01*
X11071428Y-191457419D02*
X11404761Y-192171704D01*
X11404761Y-192171704D02*
X11738094Y-191457419D01*
X11738094Y-191457419D02*
X11738094Y-192457419D01*
X12261904Y-192409800D02*
X12261904Y-192457419D01*
X12261904Y-192457419D02*
X12214285Y-192552657D01*
X12214285Y-192552657D02*
X12166666Y-192600276D01*
X12214285Y-191838371D02*
X12261904Y-191885990D01*
X12261904Y-191885990D02*
X12214285Y-191933609D01*
X12214285Y-191933609D02*
X12166666Y-191885990D01*
X12166666Y-191885990D02*
X12214285Y-191838371D01*
X12214285Y-191838371D02*
X12214285Y-191933609D01*
X14023808Y-192362180D02*
X13976189Y-192409800D01*
X13976189Y-192409800D02*
X13833332Y-192457419D01*
X13833332Y-192457419D02*
X13738094Y-192457419D01*
X13738094Y-192457419D02*
X13595237Y-192409800D01*
X13595237Y-192409800D02*
X13499999Y-192314561D01*
X13499999Y-192314561D02*
X13452380Y-192219323D01*
X13452380Y-192219323D02*
X13404761Y-192028847D01*
X13404761Y-192028847D02*
X13404761Y-191885990D01*
X13404761Y-191885990D02*
X13452380Y-191695514D01*
X13452380Y-191695514D02*
X13499999Y-191600276D01*
X13499999Y-191600276D02*
X13595237Y-191505038D01*
X13595237Y-191505038D02*
X13738094Y-191457419D01*
X13738094Y-191457419D02*
X13833332Y-191457419D01*
X13833332Y-191457419D02*
X13976189Y-191505038D01*
X13976189Y-191505038D02*
X14023808Y-191552657D01*
X14595237Y-192457419D02*
X14499999Y-192409800D01*
X14499999Y-192409800D02*
X14452380Y-192362180D01*
X14452380Y-192362180D02*
X14404761Y-192266942D01*
X14404761Y-192266942D02*
X14404761Y-191981228D01*
X14404761Y-191981228D02*
X14452380Y-191885990D01*
X14452380Y-191885990D02*
X14499999Y-191838371D01*
X14499999Y-191838371D02*
X14595237Y-191790752D01*
X14595237Y-191790752D02*
X14738094Y-191790752D01*
X14738094Y-191790752D02*
X14833332Y-191838371D01*
X14833332Y-191838371D02*
X14880951Y-191885990D01*
X14880951Y-191885990D02*
X14928570Y-191981228D01*
X14928570Y-191981228D02*
X14928570Y-192266942D01*
X14928570Y-192266942D02*
X14880951Y-192362180D01*
X14880951Y-192362180D02*
X14833332Y-192409800D01*
X14833332Y-192409800D02*
X14738094Y-192457419D01*
X14738094Y-192457419D02*
X14595237Y-192457419D01*
X15357142Y-191790752D02*
X15357142Y-192457419D01*
X15357142Y-191885990D02*
X15404761Y-191838371D01*
X15404761Y-191838371D02*
X15499999Y-191790752D01*
X15499999Y-191790752D02*
X15642856Y-191790752D01*
X15642856Y-191790752D02*
X15738094Y-191838371D01*
X15738094Y-191838371D02*
X15785713Y-191933609D01*
X15785713Y-191933609D02*
X15785713Y-192457419D01*
X16119047Y-191790752D02*
X16499999Y-191790752D01*
X16261904Y-191457419D02*
X16261904Y-192314561D01*
X16261904Y-192314561D02*
X16309523Y-192409800D01*
X16309523Y-192409800D02*
X16404761Y-192457419D01*
X16404761Y-192457419D02*
X16499999Y-192457419D01*
X17452381Y-191457419D02*
X17785714Y-192457419D01*
X17785714Y-192457419D02*
X18119047Y-191457419D01*
X18452381Y-192457419D02*
X18452381Y-191457419D01*
X18928571Y-192457419D02*
X18928571Y-191457419D01*
X19404761Y-192457419D02*
X19404761Y-191457419D01*
X20785713Y-192457419D02*
X20690475Y-192409800D01*
X20690475Y-192409800D02*
X20642856Y-192314561D01*
X20642856Y-192314561D02*
X20642856Y-191457419D01*
X21547618Y-192409800D02*
X21452380Y-192457419D01*
X21452380Y-192457419D02*
X21261904Y-192457419D01*
X21261904Y-192457419D02*
X21166666Y-192409800D01*
X21166666Y-192409800D02*
X21119047Y-192314561D01*
X21119047Y-192314561D02*
X21119047Y-191933609D01*
X21119047Y-191933609D02*
X21166666Y-191838371D01*
X21166666Y-191838371D02*
X21261904Y-191790752D01*
X21261904Y-191790752D02*
X21452380Y-191790752D01*
X21452380Y-191790752D02*
X21547618Y-191838371D01*
X21547618Y-191838371D02*
X21595237Y-191933609D01*
X21595237Y-191933609D02*
X21595237Y-192028847D01*
X21595237Y-192028847D02*
X21119047Y-192124085D01*
X22452380Y-192457419D02*
X22452380Y-191933609D01*
X22452380Y-191933609D02*
X22404761Y-191838371D01*
X22404761Y-191838371D02*
X22309523Y-191790752D01*
X22309523Y-191790752D02*
X22119047Y-191790752D01*
X22119047Y-191790752D02*
X22023809Y-191838371D01*
X22452380Y-192409800D02*
X22357142Y-192457419D01*
X22357142Y-192457419D02*
X22119047Y-192457419D01*
X22119047Y-192457419D02*
X22023809Y-192409800D01*
X22023809Y-192409800D02*
X21976190Y-192314561D01*
X21976190Y-192314561D02*
X21976190Y-192219323D01*
X21976190Y-192219323D02*
X22023809Y-192124085D01*
X22023809Y-192124085D02*
X22119047Y-192076466D01*
X22119047Y-192076466D02*
X22357142Y-192076466D01*
X22357142Y-192076466D02*
X22452380Y-192028847D01*
X22833333Y-191790752D02*
X23071428Y-192457419D01*
X23071428Y-192457419D02*
X23309523Y-191790752D01*
X24071428Y-192409800D02*
X23976190Y-192457419D01*
X23976190Y-192457419D02*
X23785714Y-192457419D01*
X23785714Y-192457419D02*
X23690476Y-192409800D01*
X23690476Y-192409800D02*
X23642857Y-192314561D01*
X23642857Y-192314561D02*
X23642857Y-191933609D01*
X23642857Y-191933609D02*
X23690476Y-191838371D01*
X23690476Y-191838371D02*
X23785714Y-191790752D01*
X23785714Y-191790752D02*
X23976190Y-191790752D01*
X23976190Y-191790752D02*
X24071428Y-191838371D01*
X24071428Y-191838371D02*
X24119047Y-191933609D01*
X24119047Y-191933609D02*
X24119047Y-192028847D01*
X24119047Y-192028847D02*
X23642857Y-192124085D01*
X24500000Y-192409800D02*
X24595238Y-192457419D01*
X24595238Y-192457419D02*
X24785714Y-192457419D01*
X24785714Y-192457419D02*
X24880952Y-192409800D01*
X24880952Y-192409800D02*
X24928571Y-192314561D01*
X24928571Y-192314561D02*
X24928571Y-192266942D01*
X24928571Y-192266942D02*
X24880952Y-192171704D01*
X24880952Y-192171704D02*
X24785714Y-192124085D01*
X24785714Y-192124085D02*
X24642857Y-192124085D01*
X24642857Y-192124085D02*
X24547619Y-192076466D01*
X24547619Y-192076466D02*
X24500000Y-191981228D01*
X24500000Y-191981228D02*
X24500000Y-191933609D01*
X24500000Y-191933609D02*
X24547619Y-191838371D01*
X24547619Y-191838371D02*
X24642857Y-191790752D01*
X24642857Y-191790752D02*
X24785714Y-191790752D01*
X24785714Y-191790752D02*
X24880952Y-191838371D01*
X26547619Y-191790752D02*
X26547619Y-192457419D01*
X26119048Y-191790752D02*
X26119048Y-192314561D01*
X26119048Y-192314561D02*
X26166667Y-192409800D01*
X26166667Y-192409800D02*
X26261905Y-192457419D01*
X26261905Y-192457419D02*
X26404762Y-192457419D01*
X26404762Y-192457419D02*
X26500000Y-192409800D01*
X26500000Y-192409800D02*
X26547619Y-192362180D01*
X27023810Y-191790752D02*
X27023810Y-192457419D01*
X27023810Y-191885990D02*
X27071429Y-191838371D01*
X27071429Y-191838371D02*
X27166667Y-191790752D01*
X27166667Y-191790752D02*
X27309524Y-191790752D01*
X27309524Y-191790752D02*
X27404762Y-191838371D01*
X27404762Y-191838371D02*
X27452381Y-191933609D01*
X27452381Y-191933609D02*
X27452381Y-192457419D01*
X27785715Y-191790752D02*
X28166667Y-191790752D01*
X27928572Y-192457419D02*
X27928572Y-191600276D01*
X27928572Y-191600276D02*
X27976191Y-191505038D01*
X27976191Y-191505038D02*
X28071429Y-191457419D01*
X28071429Y-191457419D02*
X28166667Y-191457419D01*
X28500001Y-192457419D02*
X28500001Y-191790752D01*
X28500001Y-191457419D02*
X28452382Y-191505038D01*
X28452382Y-191505038D02*
X28500001Y-191552657D01*
X28500001Y-191552657D02*
X28547620Y-191505038D01*
X28547620Y-191505038D02*
X28500001Y-191457419D01*
X28500001Y-191457419D02*
X28500001Y-191552657D01*
X29119048Y-192457419D02*
X29023810Y-192409800D01*
X29023810Y-192409800D02*
X28976191Y-192314561D01*
X28976191Y-192314561D02*
X28976191Y-191457419D01*
X29642858Y-192457419D02*
X29547620Y-192409800D01*
X29547620Y-192409800D02*
X29500001Y-192314561D01*
X29500001Y-192314561D02*
X29500001Y-191457419D01*
X30404763Y-192409800D02*
X30309525Y-192457419D01*
X30309525Y-192457419D02*
X30119049Y-192457419D01*
X30119049Y-192457419D02*
X30023811Y-192409800D01*
X30023811Y-192409800D02*
X29976192Y-192314561D01*
X29976192Y-192314561D02*
X29976192Y-191933609D01*
X29976192Y-191933609D02*
X30023811Y-191838371D01*
X30023811Y-191838371D02*
X30119049Y-191790752D01*
X30119049Y-191790752D02*
X30309525Y-191790752D01*
X30309525Y-191790752D02*
X30404763Y-191838371D01*
X30404763Y-191838371D02*
X30452382Y-191933609D01*
X30452382Y-191933609D02*
X30452382Y-192028847D01*
X30452382Y-192028847D02*
X29976192Y-192124085D01*
X31309525Y-192457419D02*
X31309525Y-191457419D01*
X31309525Y-192409800D02*
X31214287Y-192457419D01*
X31214287Y-192457419D02*
X31023811Y-192457419D01*
X31023811Y-192457419D02*
X30928573Y-192409800D01*
X30928573Y-192409800D02*
X30880954Y-192362180D01*
X30880954Y-192362180D02*
X30833335Y-192266942D01*
X30833335Y-192266942D02*
X30833335Y-191981228D01*
X30833335Y-191981228D02*
X30880954Y-191885990D01*
X30880954Y-191885990D02*
X30928573Y-191838371D01*
X30928573Y-191838371D02*
X31023811Y-191790752D01*
X31023811Y-191790752D02*
X31214287Y-191790752D01*
X31214287Y-191790752D02*
X31309525Y-191838371D01*
X32404764Y-191790752D02*
X32785716Y-191790752D01*
X32547621Y-191457419D02*
X32547621Y-192314561D01*
X32547621Y-192314561D02*
X32595240Y-192409800D01*
X32595240Y-192409800D02*
X32690478Y-192457419D01*
X32690478Y-192457419D02*
X32785716Y-192457419D01*
X33261907Y-192457419D02*
X33166669Y-192409800D01*
X33166669Y-192409800D02*
X33119050Y-192362180D01*
X33119050Y-192362180D02*
X33071431Y-192266942D01*
X33071431Y-192266942D02*
X33071431Y-191981228D01*
X33071431Y-191981228D02*
X33119050Y-191885990D01*
X33119050Y-191885990D02*
X33166669Y-191838371D01*
X33166669Y-191838371D02*
X33261907Y-191790752D01*
X33261907Y-191790752D02*
X33404764Y-191790752D01*
X33404764Y-191790752D02*
X33500002Y-191838371D01*
X33500002Y-191838371D02*
X33547621Y-191885990D01*
X33547621Y-191885990D02*
X33595240Y-191981228D01*
X33595240Y-191981228D02*
X33595240Y-192266942D01*
X33595240Y-192266942D02*
X33547621Y-192362180D01*
X33547621Y-192362180D02*
X33500002Y-192409800D01*
X33500002Y-192409800D02*
X33404764Y-192457419D01*
X33404764Y-192457419D02*
X33261907Y-192457419D01*
X34785717Y-192457419D02*
X34785717Y-191457419D01*
X34880955Y-192076466D02*
X35166669Y-192457419D01*
X35166669Y-191790752D02*
X34785717Y-192171704D01*
X35976193Y-192409800D02*
X35880955Y-192457419D01*
X35880955Y-192457419D02*
X35690479Y-192457419D01*
X35690479Y-192457419D02*
X35595241Y-192409800D01*
X35595241Y-192409800D02*
X35547622Y-192314561D01*
X35547622Y-192314561D02*
X35547622Y-191933609D01*
X35547622Y-191933609D02*
X35595241Y-191838371D01*
X35595241Y-191838371D02*
X35690479Y-191790752D01*
X35690479Y-191790752D02*
X35880955Y-191790752D01*
X35880955Y-191790752D02*
X35976193Y-191838371D01*
X35976193Y-191838371D02*
X36023812Y-191933609D01*
X36023812Y-191933609D02*
X36023812Y-192028847D01*
X36023812Y-192028847D02*
X35547622Y-192124085D01*
X36833336Y-192409800D02*
X36738098Y-192457419D01*
X36738098Y-192457419D02*
X36547622Y-192457419D01*
X36547622Y-192457419D02*
X36452384Y-192409800D01*
X36452384Y-192409800D02*
X36404765Y-192314561D01*
X36404765Y-192314561D02*
X36404765Y-191933609D01*
X36404765Y-191933609D02*
X36452384Y-191838371D01*
X36452384Y-191838371D02*
X36547622Y-191790752D01*
X36547622Y-191790752D02*
X36738098Y-191790752D01*
X36738098Y-191790752D02*
X36833336Y-191838371D01*
X36833336Y-191838371D02*
X36880955Y-191933609D01*
X36880955Y-191933609D02*
X36880955Y-192028847D01*
X36880955Y-192028847D02*
X36404765Y-192124085D01*
X37309527Y-191790752D02*
X37309527Y-192790752D01*
X37309527Y-191838371D02*
X37404765Y-191790752D01*
X37404765Y-191790752D02*
X37595241Y-191790752D01*
X37595241Y-191790752D02*
X37690479Y-191838371D01*
X37690479Y-191838371D02*
X37738098Y-191885990D01*
X37738098Y-191885990D02*
X37785717Y-191981228D01*
X37785717Y-191981228D02*
X37785717Y-192266942D01*
X37785717Y-192266942D02*
X37738098Y-192362180D01*
X37738098Y-192362180D02*
X37690479Y-192409800D01*
X37690479Y-192409800D02*
X37595241Y-192457419D01*
X37595241Y-192457419D02*
X37404765Y-192457419D01*
X37404765Y-192457419D02*
X37309527Y-192409800D01*
X38976194Y-192457419D02*
X38976194Y-191457419D01*
X38976194Y-191457419D02*
X39214289Y-191457419D01*
X39214289Y-191457419D02*
X39357146Y-191505038D01*
X39357146Y-191505038D02*
X39452384Y-191600276D01*
X39452384Y-191600276D02*
X39500003Y-191695514D01*
X39500003Y-191695514D02*
X39547622Y-191885990D01*
X39547622Y-191885990D02*
X39547622Y-192028847D01*
X39547622Y-192028847D02*
X39500003Y-192219323D01*
X39500003Y-192219323D02*
X39452384Y-192314561D01*
X39452384Y-192314561D02*
X39357146Y-192409800D01*
X39357146Y-192409800D02*
X39214289Y-192457419D01*
X39214289Y-192457419D02*
X38976194Y-192457419D01*
X40547622Y-192457419D02*
X40214289Y-191981228D01*
X39976194Y-192457419D02*
X39976194Y-191457419D01*
X39976194Y-191457419D02*
X40357146Y-191457419D01*
X40357146Y-191457419D02*
X40452384Y-191505038D01*
X40452384Y-191505038D02*
X40500003Y-191552657D01*
X40500003Y-191552657D02*
X40547622Y-191647895D01*
X40547622Y-191647895D02*
X40547622Y-191790752D01*
X40547622Y-191790752D02*
X40500003Y-191885990D01*
X40500003Y-191885990D02*
X40452384Y-191933609D01*
X40452384Y-191933609D02*
X40357146Y-191981228D01*
X40357146Y-191981228D02*
X39976194Y-191981228D01*
X41547622Y-192362180D02*
X41500003Y-192409800D01*
X41500003Y-192409800D02*
X41357146Y-192457419D01*
X41357146Y-192457419D02*
X41261908Y-192457419D01*
X41261908Y-192457419D02*
X41119051Y-192409800D01*
X41119051Y-192409800D02*
X41023813Y-192314561D01*
X41023813Y-192314561D02*
X40976194Y-192219323D01*
X40976194Y-192219323D02*
X40928575Y-192028847D01*
X40928575Y-192028847D02*
X40928575Y-191885990D01*
X40928575Y-191885990D02*
X40976194Y-191695514D01*
X40976194Y-191695514D02*
X41023813Y-191600276D01*
X41023813Y-191600276D02*
X41119051Y-191505038D01*
X41119051Y-191505038D02*
X41261908Y-191457419D01*
X41261908Y-191457419D02*
X41357146Y-191457419D01*
X41357146Y-191457419D02*
X41500003Y-191505038D01*
X41500003Y-191505038D02*
X41547622Y-191552657D01*
X43166670Y-192409800D02*
X43071432Y-192457419D01*
X43071432Y-192457419D02*
X42880956Y-192457419D01*
X42880956Y-192457419D02*
X42785718Y-192409800D01*
X42785718Y-192409800D02*
X42738099Y-192362180D01*
X42738099Y-192362180D02*
X42690480Y-192266942D01*
X42690480Y-192266942D02*
X42690480Y-191981228D01*
X42690480Y-191981228D02*
X42738099Y-191885990D01*
X42738099Y-191885990D02*
X42785718Y-191838371D01*
X42785718Y-191838371D02*
X42880956Y-191790752D01*
X42880956Y-191790752D02*
X43071432Y-191790752D01*
X43071432Y-191790752D02*
X43166670Y-191838371D01*
X43738099Y-192457419D02*
X43642861Y-192409800D01*
X43642861Y-192409800D02*
X43595242Y-192314561D01*
X43595242Y-192314561D02*
X43595242Y-191457419D01*
X44500004Y-192409800D02*
X44404766Y-192457419D01*
X44404766Y-192457419D02*
X44214290Y-192457419D01*
X44214290Y-192457419D02*
X44119052Y-192409800D01*
X44119052Y-192409800D02*
X44071433Y-192314561D01*
X44071433Y-192314561D02*
X44071433Y-191933609D01*
X44071433Y-191933609D02*
X44119052Y-191838371D01*
X44119052Y-191838371D02*
X44214290Y-191790752D01*
X44214290Y-191790752D02*
X44404766Y-191790752D01*
X44404766Y-191790752D02*
X44500004Y-191838371D01*
X44500004Y-191838371D02*
X44547623Y-191933609D01*
X44547623Y-191933609D02*
X44547623Y-192028847D01*
X44547623Y-192028847D02*
X44071433Y-192124085D01*
X45404766Y-192457419D02*
X45404766Y-191933609D01*
X45404766Y-191933609D02*
X45357147Y-191838371D01*
X45357147Y-191838371D02*
X45261909Y-191790752D01*
X45261909Y-191790752D02*
X45071433Y-191790752D01*
X45071433Y-191790752D02*
X44976195Y-191838371D01*
X45404766Y-192409800D02*
X45309528Y-192457419D01*
X45309528Y-192457419D02*
X45071433Y-192457419D01*
X45071433Y-192457419D02*
X44976195Y-192409800D01*
X44976195Y-192409800D02*
X44928576Y-192314561D01*
X44928576Y-192314561D02*
X44928576Y-192219323D01*
X44928576Y-192219323D02*
X44976195Y-192124085D01*
X44976195Y-192124085D02*
X45071433Y-192076466D01*
X45071433Y-192076466D02*
X45309528Y-192076466D01*
X45309528Y-192076466D02*
X45404766Y-192028847D01*
X45880957Y-191790752D02*
X45880957Y-192457419D01*
X45880957Y-191885990D02*
X45928576Y-191838371D01*
X45928576Y-191838371D02*
X46023814Y-191790752D01*
X46023814Y-191790752D02*
X46166671Y-191790752D01*
X46166671Y-191790752D02*
X46261909Y-191838371D01*
X46261909Y-191838371D02*
X46309528Y-191933609D01*
X46309528Y-191933609D02*
X46309528Y-192457419D01*
M02*
