%TF.GenerationSoftware,KiCad,Pcbnew,10.0.5*%
%TF.CreationDate,2026-08-09T14:46:59-05:00*%
%TF.ProjectId,ds_xl_coder,64735f78-6c5f-4636-9f64-65722e6b6963,0.5.0-cont-viii*%
%TF.SameCoordinates,Original*%
%TF.FileFunction,Other,User*%
%FSLAX46Y46*%
G04 Gerber Fmt 4.6, Leading zero omitted, Abs format (unit mm)*
G04 Created by KiCad (PCBNEW 10.0.5) date 2026-08-09 14:46:59*
%MOMM*%
%LPD*%
G01*
G04 APERTURE LIST*
%ADD10C,0.050000*%
G04 APERTURE END LIST*
%TO.C,JUSB1*%
D10*
X35000000Y-35000000D02*
X41000000Y-35000000D01*
X41000000Y-41000000D01*
X35000000Y-41000000D01*
X35000000Y-35000000D01*
%TO.C,UPD1*%
X59000000Y-35000000D02*
X65000000Y-35000000D01*
X65000000Y-41000000D01*
X59000000Y-41000000D01*
X59000000Y-35000000D01*
%TO.C,UCHG1*%
X83000000Y-35000000D02*
X89000000Y-35000000D01*
X89000000Y-41000000D01*
X83000000Y-41000000D01*
X83000000Y-35000000D01*
%TO.C,U3V3*%
X107000000Y-35000000D02*
X113000000Y-35000000D01*
X113000000Y-41000000D01*
X107000000Y-41000000D01*
X107000000Y-35000000D01*
%TO.C,C1*%
X131000000Y-35000000D02*
X137000000Y-35000000D01*
X137000000Y-41000000D01*
X131000000Y-41000000D01*
X131000000Y-35000000D01*
%TO.C,C2*%
X155000000Y-35000000D02*
X161000000Y-35000000D01*
X161000000Y-41000000D01*
X155000000Y-41000000D01*
X155000000Y-35000000D01*
%TO.C,R1*%
X179000000Y-35000000D02*
X185000000Y-35000000D01*
X185000000Y-41000000D01*
X179000000Y-41000000D01*
X179000000Y-35000000D01*
%TO.C,D1*%
X203000000Y-35000000D02*
X209000000Y-35000000D01*
X209000000Y-41000000D01*
X203000000Y-41000000D01*
X203000000Y-35000000D01*
%TO.C,R2*%
X227000000Y-35000000D02*
X233000000Y-35000000D01*
X233000000Y-41000000D01*
X227000000Y-41000000D01*
X227000000Y-35000000D01*
%TO.C,DESD1*%
X251000000Y-35000000D02*
X257000000Y-35000000D01*
X257000000Y-41000000D01*
X251000000Y-41000000D01*
X251000000Y-35000000D01*
%TO.C,UCOM1*%
X35000000Y-59000000D02*
X41000000Y-59000000D01*
X41000000Y-65000000D01*
X35000000Y-65000000D01*
X35000000Y-59000000D01*
%TO.C,UTPM1*%
X59000000Y-59000000D02*
X65000000Y-59000000D01*
X65000000Y-65000000D01*
X59000000Y-65000000D01*
X59000000Y-59000000D01*
%TO.C,JDISP1*%
X83000000Y-59000000D02*
X89000000Y-59000000D01*
X89000000Y-65000000D01*
X83000000Y-65000000D01*
X83000000Y-59000000D01*
%TO.C,JDISP2*%
X107000000Y-59000000D02*
X113000000Y-59000000D01*
X113000000Y-65000000D01*
X107000000Y-65000000D01*
X107000000Y-59000000D01*
%TD*%
M02*
