%TF.GenerationSoftware,KiCad,Pcbnew,10.0.5*%
%TF.CreationDate,2026-09-18T13:37:58-05:00*%
%TF.ProjectId,imx95_open_custom,696d7839-355f-46f7-9065-6e5f63757374,0.1.0-stream-e*%
%TF.SameCoordinates,Original*%
%TF.FileFunction,OtherDrawing,Comment*%
%FSLAX46Y46*%
G04 Gerber Fmt 4.6, Leading zero omitted, Abs format (unit mm)*
G04 Created by KiCad (PCBNEW 10.0.5) date 2026-09-18 13:37:58*
%MOMM*%
%LPD*%
G01*
G04 APERTURE LIST*
%ADD10C,0.100000*%
G04 APERTURE END LIST*
D10*
X-20416662Y-12503680D02*
X-20416662Y-11403680D01*
X-20416662Y-11403680D02*
X-19997614Y-11403680D01*
X-19997614Y-11403680D02*
X-19892852Y-11456061D01*
X-19892852Y-11456061D02*
X-19840471Y-11508442D01*
X-19840471Y-11508442D02*
X-19788090Y-11613204D01*
X-19788090Y-11613204D02*
X-19788090Y-11770347D01*
X-19788090Y-11770347D02*
X-19840471Y-11875109D01*
X-19840471Y-11875109D02*
X-19892852Y-11927490D01*
X-19892852Y-11927490D02*
X-19997614Y-11979871D01*
X-19997614Y-11979871D02*
X-20416662Y-11979871D01*
X-18845233Y-12503680D02*
X-18845233Y-11927490D01*
X-18845233Y-11927490D02*
X-18897614Y-11822728D01*
X-18897614Y-11822728D02*
X-19002376Y-11770347D01*
X-19002376Y-11770347D02*
X-19211900Y-11770347D01*
X-19211900Y-11770347D02*
X-19316662Y-11822728D01*
X-18845233Y-12451300D02*
X-18949995Y-12503680D01*
X-18949995Y-12503680D02*
X-19211900Y-12503680D01*
X-19211900Y-12503680D02*
X-19316662Y-12451300D01*
X-19316662Y-12451300D02*
X-19369043Y-12346538D01*
X-19369043Y-12346538D02*
X-19369043Y-12241776D01*
X-19369043Y-12241776D02*
X-19316662Y-12137014D01*
X-19316662Y-12137014D02*
X-19211900Y-12084633D01*
X-19211900Y-12084633D02*
X-18949995Y-12084633D01*
X-18949995Y-12084633D02*
X-18845233Y-12032252D01*
X-17849995Y-12451300D02*
X-17954757Y-12503680D01*
X-17954757Y-12503680D02*
X-18164281Y-12503680D01*
X-18164281Y-12503680D02*
X-18269043Y-12451300D01*
X-18269043Y-12451300D02*
X-18321424Y-12398919D01*
X-18321424Y-12398919D02*
X-18373805Y-12294157D01*
X-18373805Y-12294157D02*
X-18373805Y-11979871D01*
X-18373805Y-11979871D02*
X-18321424Y-11875109D01*
X-18321424Y-11875109D02*
X-18269043Y-11822728D01*
X-18269043Y-11822728D02*
X-18164281Y-11770347D01*
X-18164281Y-11770347D02*
X-17954757Y-11770347D01*
X-17954757Y-11770347D02*
X-17849995Y-11822728D01*
X-17378567Y-12503680D02*
X-17378567Y-11403680D01*
X-17273805Y-12084633D02*
X-16959519Y-12503680D01*
X-16959519Y-11770347D02*
X-17378567Y-12189395D01*
X-16016662Y-12503680D02*
X-16016662Y-11927490D01*
X-16016662Y-11927490D02*
X-16069043Y-11822728D01*
X-16069043Y-11822728D02*
X-16173805Y-11770347D01*
X-16173805Y-11770347D02*
X-16383329Y-11770347D01*
X-16383329Y-11770347D02*
X-16488091Y-11822728D01*
X-16016662Y-12451300D02*
X-16121424Y-12503680D01*
X-16121424Y-12503680D02*
X-16383329Y-12503680D01*
X-16383329Y-12503680D02*
X-16488091Y-12451300D01*
X-16488091Y-12451300D02*
X-16540472Y-12346538D01*
X-16540472Y-12346538D02*
X-16540472Y-12241776D01*
X-16540472Y-12241776D02*
X-16488091Y-12137014D01*
X-16488091Y-12137014D02*
X-16383329Y-12084633D01*
X-16383329Y-12084633D02*
X-16121424Y-12084633D01*
X-16121424Y-12084633D02*
X-16016662Y-12032252D01*
X-15021424Y-11770347D02*
X-15021424Y-12660823D01*
X-15021424Y-12660823D02*
X-15073805Y-12765585D01*
X-15073805Y-12765585D02*
X-15126186Y-12817966D01*
X-15126186Y-12817966D02*
X-15230948Y-12870347D01*
X-15230948Y-12870347D02*
X-15388091Y-12870347D01*
X-15388091Y-12870347D02*
X-15492853Y-12817966D01*
X-15021424Y-12451300D02*
X-15126186Y-12503680D01*
X-15126186Y-12503680D02*
X-15335710Y-12503680D01*
X-15335710Y-12503680D02*
X-15440472Y-12451300D01*
X-15440472Y-12451300D02*
X-15492853Y-12398919D01*
X-15492853Y-12398919D02*
X-15545234Y-12294157D01*
X-15545234Y-12294157D02*
X-15545234Y-11979871D01*
X-15545234Y-11979871D02*
X-15492853Y-11875109D01*
X-15492853Y-11875109D02*
X-15440472Y-11822728D01*
X-15440472Y-11822728D02*
X-15335710Y-11770347D01*
X-15335710Y-11770347D02*
X-15126186Y-11770347D01*
X-15126186Y-11770347D02*
X-15021424Y-11822728D01*
X-14078567Y-12451300D02*
X-14183329Y-12503680D01*
X-14183329Y-12503680D02*
X-14392853Y-12503680D01*
X-14392853Y-12503680D02*
X-14497615Y-12451300D01*
X-14497615Y-12451300D02*
X-14549996Y-12346538D01*
X-14549996Y-12346538D02*
X-14549996Y-11927490D01*
X-14549996Y-11927490D02*
X-14497615Y-11822728D01*
X-14497615Y-11822728D02*
X-14392853Y-11770347D01*
X-14392853Y-11770347D02*
X-14183329Y-11770347D01*
X-14183329Y-11770347D02*
X-14078567Y-11822728D01*
X-14078567Y-11822728D02*
X-14026186Y-11927490D01*
X-14026186Y-11927490D02*
X-14026186Y-12032252D01*
X-14026186Y-12032252D02*
X-14549996Y-12137014D01*
X-12140472Y-12503680D02*
X-12769044Y-12503680D01*
X-12454758Y-12503680D02*
X-12454758Y-11403680D01*
X-12454758Y-11403680D02*
X-12559520Y-11560823D01*
X-12559520Y-11560823D02*
X-12664282Y-11665585D01*
X-12664282Y-11665585D02*
X-12769044Y-11717966D01*
X-11145234Y-11403680D02*
X-11669044Y-11403680D01*
X-11669044Y-11403680D02*
X-11721425Y-11927490D01*
X-11721425Y-11927490D02*
X-11669044Y-11875109D01*
X-11669044Y-11875109D02*
X-11564282Y-11822728D01*
X-11564282Y-11822728D02*
X-11302377Y-11822728D01*
X-11302377Y-11822728D02*
X-11197615Y-11875109D01*
X-11197615Y-11875109D02*
X-11145234Y-11927490D01*
X-11145234Y-11927490D02*
X-11092853Y-12032252D01*
X-11092853Y-12032252D02*
X-11092853Y-12294157D01*
X-11092853Y-12294157D02*
X-11145234Y-12398919D01*
X-11145234Y-12398919D02*
X-11197615Y-12451300D01*
X-11197615Y-12451300D02*
X-11302377Y-12503680D01*
X-11302377Y-12503680D02*
X-11564282Y-12503680D01*
X-11564282Y-12503680D02*
X-11669044Y-12451300D01*
X-11669044Y-12451300D02*
X-11721425Y-12398919D01*
X-10726187Y-12503680D02*
X-10149996Y-11770347D01*
X-10726187Y-11770347D02*
X-10149996Y-12503680D01*
X-9154758Y-12503680D02*
X-9783330Y-12503680D01*
X-9469044Y-12503680D02*
X-9469044Y-11403680D01*
X-9469044Y-11403680D02*
X-9573806Y-11560823D01*
X-9573806Y-11560823D02*
X-9678568Y-11665585D01*
X-9678568Y-11665585D02*
X-9783330Y-11717966D01*
X-8159520Y-11403680D02*
X-8683330Y-11403680D01*
X-8683330Y-11403680D02*
X-8735711Y-11927490D01*
X-8735711Y-11927490D02*
X-8683330Y-11875109D01*
X-8683330Y-11875109D02*
X-8578568Y-11822728D01*
X-8578568Y-11822728D02*
X-8316663Y-11822728D01*
X-8316663Y-11822728D02*
X-8211901Y-11875109D01*
X-8211901Y-11875109D02*
X-8159520Y-11927490D01*
X-8159520Y-11927490D02*
X-8107139Y-12032252D01*
X-8107139Y-12032252D02*
X-8107139Y-12294157D01*
X-8107139Y-12294157D02*
X-8159520Y-12398919D01*
X-8159520Y-12398919D02*
X-8211901Y-12451300D01*
X-8211901Y-12451300D02*
X-8316663Y-12503680D01*
X-8316663Y-12503680D02*
X-8578568Y-12503680D01*
X-8578568Y-12503680D02*
X-8683330Y-12451300D01*
X-8683330Y-12451300D02*
X-8735711Y-12398919D01*
X-6902378Y-11770347D02*
X-6640473Y-12503680D01*
X-6640473Y-12503680D02*
X-6378568Y-11770347D01*
X-6011902Y-12451300D02*
X-5907140Y-12503680D01*
X-5907140Y-12503680D02*
X-5697616Y-12503680D01*
X-5697616Y-12503680D02*
X-5592854Y-12451300D01*
X-5592854Y-12451300D02*
X-5540473Y-12346538D01*
X-5540473Y-12346538D02*
X-5540473Y-12294157D01*
X-5540473Y-12294157D02*
X-5592854Y-12189395D01*
X-5592854Y-12189395D02*
X-5697616Y-12137014D01*
X-5697616Y-12137014D02*
X-5854759Y-12137014D01*
X-5854759Y-12137014D02*
X-5959521Y-12084633D01*
X-5959521Y-12084633D02*
X-6011902Y-11979871D01*
X-6011902Y-11979871D02*
X-6011902Y-11927490D01*
X-6011902Y-11927490D02*
X-5959521Y-11822728D01*
X-5959521Y-11822728D02*
X-5854759Y-11770347D01*
X-5854759Y-11770347D02*
X-5697616Y-11770347D01*
X-5697616Y-11770347D02*
X-5592854Y-11822728D01*
X-3654759Y-12503680D02*
X-4283331Y-12503680D01*
X-3969045Y-12503680D02*
X-3969045Y-11403680D01*
X-3969045Y-11403680D02*
X-4073807Y-11560823D01*
X-4073807Y-11560823D02*
X-4178569Y-11665585D01*
X-4178569Y-11665585D02*
X-4283331Y-11717966D01*
X-3130950Y-12503680D02*
X-2921426Y-12503680D01*
X-2921426Y-12503680D02*
X-2816664Y-12451300D01*
X-2816664Y-12451300D02*
X-2764283Y-12398919D01*
X-2764283Y-12398919D02*
X-2659521Y-12241776D01*
X-2659521Y-12241776D02*
X-2607140Y-12032252D01*
X-2607140Y-12032252D02*
X-2607140Y-11613204D01*
X-2607140Y-11613204D02*
X-2659521Y-11508442D01*
X-2659521Y-11508442D02*
X-2711902Y-11456061D01*
X-2711902Y-11456061D02*
X-2816664Y-11403680D01*
X-2816664Y-11403680D02*
X-3026188Y-11403680D01*
X-3026188Y-11403680D02*
X-3130950Y-11456061D01*
X-3130950Y-11456061D02*
X-3183331Y-11508442D01*
X-3183331Y-11508442D02*
X-3235712Y-11613204D01*
X-3235712Y-11613204D02*
X-3235712Y-11875109D01*
X-3235712Y-11875109D02*
X-3183331Y-11979871D01*
X-3183331Y-11979871D02*
X-3130950Y-12032252D01*
X-3130950Y-12032252D02*
X-3026188Y-12084633D01*
X-3026188Y-12084633D02*
X-2816664Y-12084633D01*
X-2816664Y-12084633D02*
X-2711902Y-12032252D01*
X-2711902Y-12032252D02*
X-2659521Y-11979871D01*
X-2659521Y-11979871D02*
X-2607140Y-11875109D01*
X-2240474Y-12503680D02*
X-1664283Y-11770347D01*
X-2240474Y-11770347D02*
X-1664283Y-12503680D01*
X-669045Y-12503680D02*
X-1297617Y-12503680D01*
X-983331Y-12503680D02*
X-983331Y-11403680D01*
X-983331Y-11403680D02*
X-1088093Y-11560823D01*
X-1088093Y-11560823D02*
X-1192855Y-11665585D01*
X-1192855Y-11665585D02*
X-1297617Y-11717966D01*
X-145236Y-12503680D02*
X64287Y-12503680D01*
X64287Y-12503680D02*
X169049Y-12451300D01*
X169049Y-12451300D02*
X221430Y-12398919D01*
X221430Y-12398919D02*
X326192Y-12241776D01*
X326192Y-12241776D02*
X378573Y-12032252D01*
X378573Y-12032252D02*
X378573Y-11613204D01*
X378573Y-11613204D02*
X326192Y-11508442D01*
X326192Y-11508442D02*
X273811Y-11456061D01*
X273811Y-11456061D02*
X169049Y-11403680D01*
X169049Y-11403680D02*
X-40474Y-11403680D01*
X-40474Y-11403680D02*
X-145236Y-11456061D01*
X-145236Y-11456061D02*
X-197617Y-11508442D01*
X-197617Y-11508442D02*
X-249998Y-11613204D01*
X-249998Y-11613204D02*
X-249998Y-11875109D01*
X-249998Y-11875109D02*
X-197617Y-11979871D01*
X-197617Y-11979871D02*
X-145236Y-12032252D01*
X-145236Y-12032252D02*
X-40474Y-12084633D01*
X-40474Y-12084633D02*
X169049Y-12084633D01*
X169049Y-12084633D02*
X273811Y-12032252D01*
X273811Y-12032252D02*
X326192Y-11979871D01*
X326192Y-11979871D02*
X378573Y-11875109D01*
X1688096Y-12503680D02*
X1688096Y-11403680D01*
X1688096Y-11403680D02*
X2316668Y-12503680D01*
X2316668Y-12503680D02*
X2316668Y-11403680D01*
X3050001Y-11403680D02*
X3259525Y-11403680D01*
X3259525Y-11403680D02*
X3364287Y-11456061D01*
X3364287Y-11456061D02*
X3469049Y-11560823D01*
X3469049Y-11560823D02*
X3521430Y-11770347D01*
X3521430Y-11770347D02*
X3521430Y-12137014D01*
X3521430Y-12137014D02*
X3469049Y-12346538D01*
X3469049Y-12346538D02*
X3364287Y-12451300D01*
X3364287Y-12451300D02*
X3259525Y-12503680D01*
X3259525Y-12503680D02*
X3050001Y-12503680D01*
X3050001Y-12503680D02*
X2945239Y-12451300D01*
X2945239Y-12451300D02*
X2840477Y-12346538D01*
X2840477Y-12346538D02*
X2788096Y-12137014D01*
X2788096Y-12137014D02*
X2788096Y-11770347D01*
X2788096Y-11770347D02*
X2840477Y-11560823D01*
X2840477Y-11560823D02*
X2945239Y-11456061D01*
X2945239Y-11456061D02*
X3050001Y-11403680D01*
X3835715Y-11403680D02*
X4464287Y-11403680D01*
X4150001Y-12503680D02*
X4150001Y-11403680D01*
X6035715Y-11927490D02*
X5669048Y-11927490D01*
X5669048Y-12503680D02*
X5669048Y-11403680D01*
X5669048Y-11403680D02*
X6192858Y-11403680D01*
X7240477Y-12503680D02*
X6873810Y-11979871D01*
X6611905Y-12503680D02*
X6611905Y-11403680D01*
X6611905Y-11403680D02*
X7030953Y-11403680D01*
X7030953Y-11403680D02*
X7135715Y-11456061D01*
X7135715Y-11456061D02*
X7188096Y-11508442D01*
X7188096Y-11508442D02*
X7240477Y-11613204D01*
X7240477Y-11613204D02*
X7240477Y-11770347D01*
X7240477Y-11770347D02*
X7188096Y-11875109D01*
X7188096Y-11875109D02*
X7135715Y-11927490D01*
X7135715Y-11927490D02*
X7030953Y-11979871D01*
X7030953Y-11979871D02*
X6611905Y-11979871D01*
X7921429Y-11403680D02*
X8130953Y-11403680D01*
X8130953Y-11403680D02*
X8235715Y-11456061D01*
X8235715Y-11456061D02*
X8340477Y-11560823D01*
X8340477Y-11560823D02*
X8392858Y-11770347D01*
X8392858Y-11770347D02*
X8392858Y-12137014D01*
X8392858Y-12137014D02*
X8340477Y-12346538D01*
X8340477Y-12346538D02*
X8235715Y-12451300D01*
X8235715Y-12451300D02*
X8130953Y-12503680D01*
X8130953Y-12503680D02*
X7921429Y-12503680D01*
X7921429Y-12503680D02*
X7816667Y-12451300D01*
X7816667Y-12451300D02*
X7711905Y-12346538D01*
X7711905Y-12346538D02*
X7659524Y-12137014D01*
X7659524Y-12137014D02*
X7659524Y-11770347D01*
X7659524Y-11770347D02*
X7711905Y-11560823D01*
X7711905Y-11560823D02*
X7816667Y-11456061D01*
X7816667Y-11456061D02*
X7921429Y-11403680D01*
X8759524Y-11403680D02*
X9492858Y-11403680D01*
X9492858Y-11403680D02*
X8759524Y-12503680D01*
X8759524Y-12503680D02*
X9492858Y-12503680D01*
X9911905Y-11927490D02*
X10278572Y-11927490D01*
X10435715Y-12503680D02*
X9911905Y-12503680D01*
X9911905Y-12503680D02*
X9911905Y-11403680D01*
X9911905Y-11403680D02*
X10435715Y-11403680D01*
X10907143Y-12503680D02*
X10907143Y-11403680D01*
X10907143Y-11403680D02*
X11535715Y-12503680D01*
X11535715Y-12503680D02*
X11535715Y-11403680D01*
X12792857Y-12137014D02*
X13735715Y-12137014D01*
X15411905Y-12451300D02*
X15307143Y-12503680D01*
X15307143Y-12503680D02*
X15097619Y-12503680D01*
X15097619Y-12503680D02*
X14992857Y-12451300D01*
X14992857Y-12451300D02*
X14940476Y-12346538D01*
X14940476Y-12346538D02*
X14940476Y-11927490D01*
X14940476Y-11927490D02*
X14992857Y-11822728D01*
X14992857Y-11822728D02*
X15097619Y-11770347D01*
X15097619Y-11770347D02*
X15307143Y-11770347D01*
X15307143Y-11770347D02*
X15411905Y-11822728D01*
X15411905Y-11822728D02*
X15464286Y-11927490D01*
X15464286Y-11927490D02*
X15464286Y-12032252D01*
X15464286Y-12032252D02*
X14940476Y-12137014D01*
X15935714Y-11770347D02*
X15935714Y-12503680D01*
X15935714Y-11875109D02*
X15988095Y-11822728D01*
X15988095Y-11822728D02*
X16092857Y-11770347D01*
X16092857Y-11770347D02*
X16250000Y-11770347D01*
X16250000Y-11770347D02*
X16354762Y-11822728D01*
X16354762Y-11822728D02*
X16407143Y-11927490D01*
X16407143Y-11927490D02*
X16407143Y-12503680D01*
X16826190Y-11770347D02*
X17088095Y-12503680D01*
X17088095Y-12503680D02*
X17350000Y-11770347D01*
X18188095Y-12451300D02*
X18083333Y-12503680D01*
X18083333Y-12503680D02*
X17873809Y-12503680D01*
X17873809Y-12503680D02*
X17769047Y-12451300D01*
X17769047Y-12451300D02*
X17716666Y-12346538D01*
X17716666Y-12346538D02*
X17716666Y-11927490D01*
X17716666Y-11927490D02*
X17769047Y-11822728D01*
X17769047Y-11822728D02*
X17873809Y-11770347D01*
X17873809Y-11770347D02*
X18083333Y-11770347D01*
X18083333Y-11770347D02*
X18188095Y-11822728D01*
X18188095Y-11822728D02*
X18240476Y-11927490D01*
X18240476Y-11927490D02*
X18240476Y-12032252D01*
X18240476Y-12032252D02*
X17716666Y-12137014D01*
X18869047Y-12503680D02*
X18764285Y-12451300D01*
X18764285Y-12451300D02*
X18711904Y-12346538D01*
X18711904Y-12346538D02*
X18711904Y-11403680D01*
X19445237Y-12503680D02*
X19340475Y-12451300D01*
X19340475Y-12451300D02*
X19288094Y-12398919D01*
X19288094Y-12398919D02*
X19235713Y-12294157D01*
X19235713Y-12294157D02*
X19235713Y-11979871D01*
X19235713Y-11979871D02*
X19288094Y-11875109D01*
X19288094Y-11875109D02*
X19340475Y-11822728D01*
X19340475Y-11822728D02*
X19445237Y-11770347D01*
X19445237Y-11770347D02*
X19602380Y-11770347D01*
X19602380Y-11770347D02*
X19707142Y-11822728D01*
X19707142Y-11822728D02*
X19759523Y-11875109D01*
X19759523Y-11875109D02*
X19811904Y-11979871D01*
X19811904Y-11979871D02*
X19811904Y-12294157D01*
X19811904Y-12294157D02*
X19759523Y-12398919D01*
X19759523Y-12398919D02*
X19707142Y-12451300D01*
X19707142Y-12451300D02*
X19602380Y-12503680D01*
X19602380Y-12503680D02*
X19445237Y-12503680D01*
X20283332Y-11770347D02*
X20283332Y-12870347D01*
X20283332Y-11822728D02*
X20388094Y-11770347D01*
X20388094Y-11770347D02*
X20597618Y-11770347D01*
X20597618Y-11770347D02*
X20702380Y-11822728D01*
X20702380Y-11822728D02*
X20754761Y-11875109D01*
X20754761Y-11875109D02*
X20807142Y-11979871D01*
X20807142Y-11979871D02*
X20807142Y-12294157D01*
X20807142Y-12294157D02*
X20754761Y-12398919D01*
X20754761Y-12398919D02*
X20702380Y-12451300D01*
X20702380Y-12451300D02*
X20597618Y-12503680D01*
X20597618Y-12503680D02*
X20388094Y-12503680D01*
X20388094Y-12503680D02*
X20283332Y-12451300D01*
X21697618Y-12451300D02*
X21592856Y-12503680D01*
X21592856Y-12503680D02*
X21383332Y-12503680D01*
X21383332Y-12503680D02*
X21278570Y-12451300D01*
X21278570Y-12451300D02*
X21226189Y-12346538D01*
X21226189Y-12346538D02*
X21226189Y-11927490D01*
X21226189Y-11927490D02*
X21278570Y-11822728D01*
X21278570Y-11822728D02*
X21383332Y-11770347D01*
X21383332Y-11770347D02*
X21592856Y-11770347D01*
X21592856Y-11770347D02*
X21697618Y-11822728D01*
X21697618Y-11822728D02*
X21749999Y-11927490D01*
X21749999Y-11927490D02*
X21749999Y-12032252D01*
X21749999Y-12032252D02*
X21226189Y-12137014D01*
X23059522Y-11770347D02*
X23059522Y-12870347D01*
X23059522Y-11822728D02*
X23164284Y-11770347D01*
X23164284Y-11770347D02*
X23373808Y-11770347D01*
X23373808Y-11770347D02*
X23478570Y-11822728D01*
X23478570Y-11822728D02*
X23530951Y-11875109D01*
X23530951Y-11875109D02*
X23583332Y-11979871D01*
X23583332Y-11979871D02*
X23583332Y-12294157D01*
X23583332Y-12294157D02*
X23530951Y-12398919D01*
X23530951Y-12398919D02*
X23478570Y-12451300D01*
X23478570Y-12451300D02*
X23373808Y-12503680D01*
X23373808Y-12503680D02*
X23164284Y-12503680D01*
X23164284Y-12503680D02*
X23059522Y-12451300D01*
X24211903Y-12503680D02*
X24107141Y-12451300D01*
X24107141Y-12451300D02*
X24054760Y-12346538D01*
X24054760Y-12346538D02*
X24054760Y-11403680D01*
X25102379Y-12503680D02*
X25102379Y-11927490D01*
X25102379Y-11927490D02*
X25049998Y-11822728D01*
X25049998Y-11822728D02*
X24945236Y-11770347D01*
X24945236Y-11770347D02*
X24735712Y-11770347D01*
X24735712Y-11770347D02*
X24630950Y-11822728D01*
X25102379Y-12451300D02*
X24997617Y-12503680D01*
X24997617Y-12503680D02*
X24735712Y-12503680D01*
X24735712Y-12503680D02*
X24630950Y-12451300D01*
X24630950Y-12451300D02*
X24578569Y-12346538D01*
X24578569Y-12346538D02*
X24578569Y-12241776D01*
X24578569Y-12241776D02*
X24630950Y-12137014D01*
X24630950Y-12137014D02*
X24735712Y-12084633D01*
X24735712Y-12084633D02*
X24997617Y-12084633D01*
X24997617Y-12084633D02*
X25102379Y-12032252D01*
X26097617Y-12451300D02*
X25992855Y-12503680D01*
X25992855Y-12503680D02*
X25783331Y-12503680D01*
X25783331Y-12503680D02*
X25678569Y-12451300D01*
X25678569Y-12451300D02*
X25626188Y-12398919D01*
X25626188Y-12398919D02*
X25573807Y-12294157D01*
X25573807Y-12294157D02*
X25573807Y-11979871D01*
X25573807Y-11979871D02*
X25626188Y-11875109D01*
X25626188Y-11875109D02*
X25678569Y-11822728D01*
X25678569Y-11822728D02*
X25783331Y-11770347D01*
X25783331Y-11770347D02*
X25992855Y-11770347D01*
X25992855Y-11770347D02*
X26097617Y-11822728D01*
X26988093Y-12451300D02*
X26883331Y-12503680D01*
X26883331Y-12503680D02*
X26673807Y-12503680D01*
X26673807Y-12503680D02*
X26569045Y-12451300D01*
X26569045Y-12451300D02*
X26516664Y-12346538D01*
X26516664Y-12346538D02*
X26516664Y-11927490D01*
X26516664Y-11927490D02*
X26569045Y-11822728D01*
X26569045Y-11822728D02*
X26673807Y-11770347D01*
X26673807Y-11770347D02*
X26883331Y-11770347D01*
X26883331Y-11770347D02*
X26988093Y-11822728D01*
X26988093Y-11822728D02*
X27040474Y-11927490D01*
X27040474Y-11927490D02*
X27040474Y-12032252D01*
X27040474Y-12032252D02*
X26516664Y-12137014D01*
X27511902Y-12503680D02*
X27511902Y-11403680D01*
X27983331Y-12503680D02*
X27983331Y-11927490D01*
X27983331Y-11927490D02*
X27930950Y-11822728D01*
X27930950Y-11822728D02*
X27826188Y-11770347D01*
X27826188Y-11770347D02*
X27669045Y-11770347D01*
X27669045Y-11770347D02*
X27564283Y-11822728D01*
X27564283Y-11822728D02*
X27511902Y-11875109D01*
X28664283Y-12503680D02*
X28559521Y-12451300D01*
X28559521Y-12451300D02*
X28507140Y-12398919D01*
X28507140Y-12398919D02*
X28454759Y-12294157D01*
X28454759Y-12294157D02*
X28454759Y-11979871D01*
X28454759Y-11979871D02*
X28507140Y-11875109D01*
X28507140Y-11875109D02*
X28559521Y-11822728D01*
X28559521Y-11822728D02*
X28664283Y-11770347D01*
X28664283Y-11770347D02*
X28821426Y-11770347D01*
X28821426Y-11770347D02*
X28926188Y-11822728D01*
X28926188Y-11822728D02*
X28978569Y-11875109D01*
X28978569Y-11875109D02*
X29030950Y-11979871D01*
X29030950Y-11979871D02*
X29030950Y-12294157D01*
X29030950Y-12294157D02*
X28978569Y-12398919D01*
X28978569Y-12398919D02*
X28926188Y-12451300D01*
X28926188Y-12451300D02*
X28821426Y-12503680D01*
X28821426Y-12503680D02*
X28664283Y-12503680D01*
X29659521Y-12503680D02*
X29554759Y-12451300D01*
X29554759Y-12451300D02*
X29502378Y-12346538D01*
X29502378Y-12346538D02*
X29502378Y-11403680D01*
X30549997Y-12503680D02*
X30549997Y-11403680D01*
X30549997Y-12451300D02*
X30445235Y-12503680D01*
X30445235Y-12503680D02*
X30235711Y-12503680D01*
X30235711Y-12503680D02*
X30130949Y-12451300D01*
X30130949Y-12451300D02*
X30078568Y-12398919D01*
X30078568Y-12398919D02*
X30026187Y-12294157D01*
X30026187Y-12294157D02*
X30026187Y-11979871D01*
X30026187Y-11979871D02*
X30078568Y-11875109D01*
X30078568Y-11875109D02*
X30130949Y-11822728D01*
X30130949Y-11822728D02*
X30235711Y-11770347D01*
X30235711Y-11770347D02*
X30445235Y-11770347D01*
X30445235Y-11770347D02*
X30549997Y-11822728D01*
X31492854Y-12451300D02*
X31388092Y-12503680D01*
X31388092Y-12503680D02*
X31178568Y-12503680D01*
X31178568Y-12503680D02*
X31073806Y-12451300D01*
X31073806Y-12451300D02*
X31021425Y-12346538D01*
X31021425Y-12346538D02*
X31021425Y-11927490D01*
X31021425Y-11927490D02*
X31073806Y-11822728D01*
X31073806Y-11822728D02*
X31178568Y-11770347D01*
X31178568Y-11770347D02*
X31388092Y-11770347D01*
X31388092Y-11770347D02*
X31492854Y-11822728D01*
X31492854Y-11822728D02*
X31545235Y-11927490D01*
X31545235Y-11927490D02*
X31545235Y-12032252D01*
X31545235Y-12032252D02*
X31021425Y-12137014D01*
X32016663Y-12503680D02*
X32016663Y-11770347D01*
X32016663Y-11979871D02*
X32069044Y-11875109D01*
X32069044Y-11875109D02*
X32121425Y-11822728D01*
X32121425Y-11822728D02*
X32226187Y-11770347D01*
X32226187Y-11770347D02*
X32330949Y-11770347D01*
X33692853Y-12503680D02*
X33588091Y-12451300D01*
X33588091Y-12451300D02*
X33535710Y-12398919D01*
X33535710Y-12398919D02*
X33483329Y-12294157D01*
X33483329Y-12294157D02*
X33483329Y-11979871D01*
X33483329Y-11979871D02*
X33535710Y-11875109D01*
X33535710Y-11875109D02*
X33588091Y-11822728D01*
X33588091Y-11822728D02*
X33692853Y-11770347D01*
X33692853Y-11770347D02*
X33849996Y-11770347D01*
X33849996Y-11770347D02*
X33954758Y-11822728D01*
X33954758Y-11822728D02*
X34007139Y-11875109D01*
X34007139Y-11875109D02*
X34059520Y-11979871D01*
X34059520Y-11979871D02*
X34059520Y-12294157D01*
X34059520Y-12294157D02*
X34007139Y-12398919D01*
X34007139Y-12398919D02*
X33954758Y-12451300D01*
X33954758Y-12451300D02*
X33849996Y-12503680D01*
X33849996Y-12503680D02*
X33692853Y-12503680D01*
X34530948Y-11770347D02*
X34530948Y-12503680D01*
X34530948Y-11875109D02*
X34583329Y-11822728D01*
X34583329Y-11822728D02*
X34688091Y-11770347D01*
X34688091Y-11770347D02*
X34845234Y-11770347D01*
X34845234Y-11770347D02*
X34949996Y-11822728D01*
X34949996Y-11822728D02*
X35002377Y-11927490D01*
X35002377Y-11927490D02*
X35002377Y-12503680D01*
X35683329Y-12503680D02*
X35578567Y-12451300D01*
X35578567Y-12451300D02*
X35526186Y-12346538D01*
X35526186Y-12346538D02*
X35526186Y-11403680D01*
X35997614Y-11770347D02*
X36259519Y-12503680D01*
X36521424Y-11770347D02*
X36259519Y-12503680D01*
X36259519Y-12503680D02*
X36154757Y-12765585D01*
X36154757Y-12765585D02*
X36102376Y-12817966D01*
X36102376Y-12817966D02*
X35997614Y-12870347D01*
X-7242855Y-18503680D02*
X-7242855Y-17403680D01*
X-7242855Y-17403680D02*
X-6614283Y-18503680D01*
X-6614283Y-18503680D02*
X-6614283Y-17403680D01*
X-5933331Y-18503680D02*
X-6038093Y-18451300D01*
X-6038093Y-18451300D02*
X-6090474Y-18398919D01*
X-6090474Y-18398919D02*
X-6142855Y-18294157D01*
X-6142855Y-18294157D02*
X-6142855Y-17979871D01*
X-6142855Y-17979871D02*
X-6090474Y-17875109D01*
X-6090474Y-17875109D02*
X-6038093Y-17822728D01*
X-6038093Y-17822728D02*
X-5933331Y-17770347D01*
X-5933331Y-17770347D02*
X-5776188Y-17770347D01*
X-5776188Y-17770347D02*
X-5671426Y-17822728D01*
X-5671426Y-17822728D02*
X-5619045Y-17875109D01*
X-5619045Y-17875109D02*
X-5566664Y-17979871D01*
X-5566664Y-17979871D02*
X-5566664Y-18294157D01*
X-5566664Y-18294157D02*
X-5619045Y-18398919D01*
X-5619045Y-18398919D02*
X-5671426Y-18451300D01*
X-5671426Y-18451300D02*
X-5776188Y-18503680D01*
X-5776188Y-18503680D02*
X-5933331Y-18503680D01*
X-3733331Y-18503680D02*
X-4257141Y-18503680D01*
X-4257141Y-18503680D02*
X-4257141Y-17403680D01*
X-3366665Y-18503680D02*
X-3366665Y-17403680D01*
X-3366665Y-17403680D02*
X-2947617Y-17403680D01*
X-2947617Y-17403680D02*
X-2842855Y-17456061D01*
X-2842855Y-17456061D02*
X-2790474Y-17508442D01*
X-2790474Y-17508442D02*
X-2738093Y-17613204D01*
X-2738093Y-17613204D02*
X-2738093Y-17770347D01*
X-2738093Y-17770347D02*
X-2790474Y-17875109D01*
X-2790474Y-17875109D02*
X-2842855Y-17927490D01*
X-2842855Y-17927490D02*
X-2947617Y-17979871D01*
X-2947617Y-17979871D02*
X-3366665Y-17979871D01*
X-2266665Y-18503680D02*
X-2266665Y-17403680D01*
X-2266665Y-17403680D02*
X-2004760Y-17403680D01*
X-2004760Y-17403680D02*
X-1847617Y-17456061D01*
X-1847617Y-17456061D02*
X-1742855Y-17560823D01*
X-1742855Y-17560823D02*
X-1690474Y-17665585D01*
X-1690474Y-17665585D02*
X-1638093Y-17875109D01*
X-1638093Y-17875109D02*
X-1638093Y-18032252D01*
X-1638093Y-18032252D02*
X-1690474Y-18241776D01*
X-1690474Y-18241776D02*
X-1742855Y-18346538D01*
X-1742855Y-18346538D02*
X-1847617Y-18451300D01*
X-1847617Y-18451300D02*
X-2004760Y-18503680D01*
X-2004760Y-18503680D02*
X-2266665Y-18503680D01*
X-1166665Y-18503680D02*
X-1166665Y-17403680D01*
X-1166665Y-17403680D02*
X-904760Y-17403680D01*
X-904760Y-17403680D02*
X-747617Y-17456061D01*
X-747617Y-17456061D02*
X-642855Y-17560823D01*
X-642855Y-17560823D02*
X-590474Y-17665585D01*
X-590474Y-17665585D02*
X-538093Y-17875109D01*
X-538093Y-17875109D02*
X-538093Y-18032252D01*
X-538093Y-18032252D02*
X-590474Y-18241776D01*
X-590474Y-18241776D02*
X-642855Y-18346538D01*
X-642855Y-18346538D02*
X-747617Y-18451300D01*
X-747617Y-18451300D02*
X-904760Y-18503680D01*
X-904760Y-18503680D02*
X-1166665Y-18503680D01*
X561906Y-18503680D02*
X195239Y-17979871D01*
X-66665Y-18503680D02*
X-66665Y-17403680D01*
X-66665Y-17403680D02*
X352382Y-17403680D01*
X352382Y-17403680D02*
X457144Y-17456061D01*
X457144Y-17456061D02*
X509525Y-17508442D01*
X509525Y-17508442D02*
X561906Y-17613204D01*
X561906Y-17613204D02*
X561906Y-17770347D01*
X561906Y-17770347D02*
X509525Y-17875109D01*
X509525Y-17875109D02*
X457144Y-17927490D01*
X457144Y-17927490D02*
X352382Y-17979871D01*
X352382Y-17979871D02*
X-66665Y-17979871D01*
X1714286Y-17770347D02*
X2133334Y-17770347D01*
X1871429Y-18503680D02*
X1871429Y-17560823D01*
X1871429Y-17560823D02*
X1923810Y-17456061D01*
X1923810Y-17456061D02*
X2028572Y-17403680D01*
X2028572Y-17403680D02*
X2133334Y-17403680D01*
X2657143Y-18503680D02*
X2552381Y-18451300D01*
X2552381Y-18451300D02*
X2500000Y-18346538D01*
X2500000Y-18346538D02*
X2500000Y-17403680D01*
X2971428Y-17770347D02*
X3233333Y-18503680D01*
X3495238Y-17770347D02*
X3233333Y-18503680D01*
X3233333Y-18503680D02*
X3128571Y-18765585D01*
X3128571Y-18765585D02*
X3076190Y-18817966D01*
X3076190Y-18817966D02*
X2971428Y-18870347D01*
X3914285Y-18084633D02*
X4752381Y-18084633D01*
X5276190Y-18503680D02*
X5276190Y-17403680D01*
X5276190Y-17822728D02*
X5380952Y-17770347D01*
X5380952Y-17770347D02*
X5590476Y-17770347D01*
X5590476Y-17770347D02*
X5695238Y-17822728D01*
X5695238Y-17822728D02*
X5747619Y-17875109D01*
X5747619Y-17875109D02*
X5800000Y-17979871D01*
X5800000Y-17979871D02*
X5800000Y-18294157D01*
X5800000Y-18294157D02*
X5747619Y-18398919D01*
X5747619Y-18398919D02*
X5695238Y-18451300D01*
X5695238Y-18451300D02*
X5590476Y-18503680D01*
X5590476Y-18503680D02*
X5380952Y-18503680D01*
X5380952Y-18503680D02*
X5276190Y-18451300D01*
X6166666Y-17770347D02*
X6428571Y-18503680D01*
X6690476Y-17770347D02*
X6428571Y-18503680D01*
X6428571Y-18503680D02*
X6323809Y-18765585D01*
X6323809Y-18765585D02*
X6271428Y-18817966D01*
X6271428Y-18817966D02*
X6166666Y-18870347D01*
X7895238Y-17351300D02*
X6952380Y-18765585D01*
X8104761Y-17403680D02*
X8733333Y-17403680D01*
X8419047Y-18503680D02*
X8419047Y-17403680D01*
X9099999Y-18084633D02*
X9938095Y-18084633D01*
X10461904Y-18503680D02*
X10461904Y-17403680D01*
X10461904Y-17822728D02*
X10566666Y-17770347D01*
X10566666Y-17770347D02*
X10776190Y-17770347D01*
X10776190Y-17770347D02*
X10880952Y-17822728D01*
X10880952Y-17822728D02*
X10933333Y-17875109D01*
X10933333Y-17875109D02*
X10985714Y-17979871D01*
X10985714Y-17979871D02*
X10985714Y-18294157D01*
X10985714Y-18294157D02*
X10933333Y-18398919D01*
X10933333Y-18398919D02*
X10880952Y-18451300D01*
X10880952Y-18451300D02*
X10776190Y-18503680D01*
X10776190Y-18503680D02*
X10566666Y-18503680D01*
X10566666Y-18503680D02*
X10461904Y-18451300D01*
X11457142Y-18503680D02*
X11457142Y-17770347D01*
X11457142Y-17979871D02*
X11509523Y-17875109D01*
X11509523Y-17875109D02*
X11561904Y-17822728D01*
X11561904Y-17822728D02*
X11666666Y-17770347D01*
X11666666Y-17770347D02*
X11771428Y-17770347D01*
X12609523Y-18503680D02*
X12609523Y-17927490D01*
X12609523Y-17927490D02*
X12557142Y-17822728D01*
X12557142Y-17822728D02*
X12452380Y-17770347D01*
X12452380Y-17770347D02*
X12242856Y-17770347D01*
X12242856Y-17770347D02*
X12138094Y-17822728D01*
X12609523Y-18451300D02*
X12504761Y-18503680D01*
X12504761Y-18503680D02*
X12242856Y-18503680D01*
X12242856Y-18503680D02*
X12138094Y-18451300D01*
X12138094Y-18451300D02*
X12085713Y-18346538D01*
X12085713Y-18346538D02*
X12085713Y-18241776D01*
X12085713Y-18241776D02*
X12138094Y-18137014D01*
X12138094Y-18137014D02*
X12242856Y-18084633D01*
X12242856Y-18084633D02*
X12504761Y-18084633D01*
X12504761Y-18084633D02*
X12609523Y-18032252D01*
X13133332Y-17770347D02*
X13133332Y-18503680D01*
X13133332Y-17875109D02*
X13185713Y-17822728D01*
X13185713Y-17822728D02*
X13290475Y-17770347D01*
X13290475Y-17770347D02*
X13447618Y-17770347D01*
X13447618Y-17770347D02*
X13552380Y-17822728D01*
X13552380Y-17822728D02*
X13604761Y-17927490D01*
X13604761Y-17927490D02*
X13604761Y-18503680D01*
X14599999Y-18451300D02*
X14495237Y-18503680D01*
X14495237Y-18503680D02*
X14285713Y-18503680D01*
X14285713Y-18503680D02*
X14180951Y-18451300D01*
X14180951Y-18451300D02*
X14128570Y-18398919D01*
X14128570Y-18398919D02*
X14076189Y-18294157D01*
X14076189Y-18294157D02*
X14076189Y-17979871D01*
X14076189Y-17979871D02*
X14128570Y-17875109D01*
X14128570Y-17875109D02*
X14180951Y-17822728D01*
X14180951Y-17822728D02*
X14285713Y-17770347D01*
X14285713Y-17770347D02*
X14495237Y-17770347D01*
X14495237Y-17770347D02*
X14599999Y-17822728D01*
X15071427Y-18503680D02*
X15071427Y-17403680D01*
X15542856Y-18503680D02*
X15542856Y-17927490D01*
X15542856Y-17927490D02*
X15490475Y-17822728D01*
X15490475Y-17822728D02*
X15385713Y-17770347D01*
X15385713Y-17770347D02*
X15228570Y-17770347D01*
X15228570Y-17770347D02*
X15123808Y-17822728D01*
X15123808Y-17822728D02*
X15071427Y-17875109D01*
X16904760Y-18503680D02*
X16904760Y-17770347D01*
X16904760Y-17403680D02*
X16852379Y-17456061D01*
X16852379Y-17456061D02*
X16904760Y-17508442D01*
X16904760Y-17508442D02*
X16957141Y-17456061D01*
X16957141Y-17456061D02*
X16904760Y-17403680D01*
X16904760Y-17403680D02*
X16904760Y-17508442D01*
X17428570Y-17770347D02*
X17428570Y-18503680D01*
X17428570Y-17875109D02*
X17480951Y-17822728D01*
X17480951Y-17822728D02*
X17585713Y-17770347D01*
X17585713Y-17770347D02*
X17742856Y-17770347D01*
X17742856Y-17770347D02*
X17847618Y-17822728D01*
X17847618Y-17822728D02*
X17899999Y-17927490D01*
X17899999Y-17927490D02*
X17899999Y-18503680D01*
X18319046Y-17770347D02*
X18580951Y-18503680D01*
X18580951Y-18503680D02*
X18842856Y-17770347D01*
X19680951Y-18451300D02*
X19576189Y-18503680D01*
X19576189Y-18503680D02*
X19366665Y-18503680D01*
X19366665Y-18503680D02*
X19261903Y-18451300D01*
X19261903Y-18451300D02*
X19209522Y-18346538D01*
X19209522Y-18346538D02*
X19209522Y-17927490D01*
X19209522Y-17927490D02*
X19261903Y-17822728D01*
X19261903Y-17822728D02*
X19366665Y-17770347D01*
X19366665Y-17770347D02*
X19576189Y-17770347D01*
X19576189Y-17770347D02*
X19680951Y-17822728D01*
X19680951Y-17822728D02*
X19733332Y-17927490D01*
X19733332Y-17927490D02*
X19733332Y-18032252D01*
X19733332Y-18032252D02*
X19209522Y-18137014D01*
X20204760Y-17770347D02*
X20204760Y-18503680D01*
X20204760Y-17875109D02*
X20257141Y-17822728D01*
X20257141Y-17822728D02*
X20361903Y-17770347D01*
X20361903Y-17770347D02*
X20519046Y-17770347D01*
X20519046Y-17770347D02*
X20623808Y-17822728D01*
X20623808Y-17822728D02*
X20676189Y-17927490D01*
X20676189Y-17927490D02*
X20676189Y-18503680D01*
X21042855Y-17770347D02*
X21461903Y-17770347D01*
X21199998Y-17403680D02*
X21199998Y-18346538D01*
X21199998Y-18346538D02*
X21252379Y-18451300D01*
X21252379Y-18451300D02*
X21357141Y-18503680D01*
X21357141Y-18503680D02*
X21461903Y-18503680D01*
X22247617Y-18451300D02*
X22142855Y-18503680D01*
X22142855Y-18503680D02*
X21933331Y-18503680D01*
X21933331Y-18503680D02*
X21828569Y-18451300D01*
X21828569Y-18451300D02*
X21776188Y-18346538D01*
X21776188Y-18346538D02*
X21776188Y-17927490D01*
X21776188Y-17927490D02*
X21828569Y-17822728D01*
X21828569Y-17822728D02*
X21933331Y-17770347D01*
X21933331Y-17770347D02*
X22142855Y-17770347D01*
X22142855Y-17770347D02*
X22247617Y-17822728D01*
X22247617Y-17822728D02*
X22299998Y-17927490D01*
X22299998Y-17927490D02*
X22299998Y-18032252D01*
X22299998Y-18032252D02*
X21776188Y-18137014D01*
X23242855Y-18503680D02*
X23242855Y-17403680D01*
X23242855Y-18451300D02*
X23138093Y-18503680D01*
X23138093Y-18503680D02*
X22928569Y-18503680D01*
X22928569Y-18503680D02*
X22823807Y-18451300D01*
X22823807Y-18451300D02*
X22771426Y-18398919D01*
X22771426Y-18398919D02*
X22719045Y-18294157D01*
X22719045Y-18294157D02*
X22719045Y-17979871D01*
X22719045Y-17979871D02*
X22771426Y-17875109D01*
X22771426Y-17875109D02*
X22823807Y-17822728D01*
X22823807Y-17822728D02*
X22928569Y-17770347D01*
X22928569Y-17770347D02*
X23138093Y-17770347D01*
X23138093Y-17770347D02*
X23242855Y-17822728D01*
X-5959522Y-24503680D02*
X-5959522Y-23403680D01*
X-5959522Y-23403680D02*
X-5330950Y-24503680D01*
X-5330950Y-24503680D02*
X-5330950Y-23403680D01*
X-4649998Y-24503680D02*
X-4754760Y-24451300D01*
X-4754760Y-24451300D02*
X-4807141Y-24398919D01*
X-4807141Y-24398919D02*
X-4859522Y-24294157D01*
X-4859522Y-24294157D02*
X-4859522Y-23979871D01*
X-4859522Y-23979871D02*
X-4807141Y-23875109D01*
X-4807141Y-23875109D02*
X-4754760Y-23822728D01*
X-4754760Y-23822728D02*
X-4649998Y-23770347D01*
X-4649998Y-23770347D02*
X-4492855Y-23770347D01*
X-4492855Y-23770347D02*
X-4388093Y-23822728D01*
X-4388093Y-23822728D02*
X-4335712Y-23875109D01*
X-4335712Y-23875109D02*
X-4283331Y-23979871D01*
X-4283331Y-23979871D02*
X-4283331Y-24294157D01*
X-4283331Y-24294157D02*
X-4335712Y-24398919D01*
X-4335712Y-24398919D02*
X-4388093Y-24451300D01*
X-4388093Y-24451300D02*
X-4492855Y-24503680D01*
X-4492855Y-24503680D02*
X-4649998Y-24503680D01*
X-2973808Y-24503680D02*
X-2973808Y-23403680D01*
X-2973808Y-23403680D02*
X-2554760Y-23403680D01*
X-2554760Y-23403680D02*
X-2449998Y-23456061D01*
X-2449998Y-23456061D02*
X-2397617Y-23508442D01*
X-2397617Y-23508442D02*
X-2345236Y-23613204D01*
X-2345236Y-23613204D02*
X-2345236Y-23770347D01*
X-2345236Y-23770347D02*
X-2397617Y-23875109D01*
X-2397617Y-23875109D02*
X-2449998Y-23927490D01*
X-2449998Y-23927490D02*
X-2554760Y-23979871D01*
X-2554760Y-23979871D02*
X-2973808Y-23979871D01*
X-1245236Y-24398919D02*
X-1297617Y-24451300D01*
X-1297617Y-24451300D02*
X-1454760Y-24503680D01*
X-1454760Y-24503680D02*
X-1559522Y-24503680D01*
X-1559522Y-24503680D02*
X-1716665Y-24451300D01*
X-1716665Y-24451300D02*
X-1821427Y-24346538D01*
X-1821427Y-24346538D02*
X-1873808Y-24241776D01*
X-1873808Y-24241776D02*
X-1926189Y-24032252D01*
X-1926189Y-24032252D02*
X-1926189Y-23875109D01*
X-1926189Y-23875109D02*
X-1873808Y-23665585D01*
X-1873808Y-23665585D02*
X-1821427Y-23560823D01*
X-1821427Y-23560823D02*
X-1716665Y-23456061D01*
X-1716665Y-23456061D02*
X-1559522Y-23403680D01*
X-1559522Y-23403680D02*
X-1454760Y-23403680D01*
X-1454760Y-23403680D02*
X-1297617Y-23456061D01*
X-1297617Y-23456061D02*
X-1245236Y-23508442D01*
X-773808Y-24503680D02*
X-773808Y-23403680D01*
X169049Y-24451300D02*
X64287Y-24503680D01*
X64287Y-24503680D02*
X-145236Y-24503680D01*
X-145236Y-24503680D02*
X-249998Y-24451300D01*
X-249998Y-24451300D02*
X-302379Y-24346538D01*
X-302379Y-24346538D02*
X-302379Y-23927490D01*
X-302379Y-23927490D02*
X-249998Y-23822728D01*
X-249998Y-23822728D02*
X-145236Y-23770347D01*
X-145236Y-23770347D02*
X64287Y-23770347D01*
X64287Y-23770347D02*
X169049Y-23822728D01*
X169049Y-23822728D02*
X221430Y-23927490D01*
X221430Y-23927490D02*
X221430Y-24032252D01*
X221430Y-24032252D02*
X-302379Y-24137014D01*
X1688096Y-24503680D02*
X1583334Y-24451300D01*
X1583334Y-24451300D02*
X1530953Y-24346538D01*
X1530953Y-24346538D02*
X1530953Y-23403680D01*
X2578572Y-24503680D02*
X2578572Y-23927490D01*
X2578572Y-23927490D02*
X2526191Y-23822728D01*
X2526191Y-23822728D02*
X2421429Y-23770347D01*
X2421429Y-23770347D02*
X2211905Y-23770347D01*
X2211905Y-23770347D02*
X2107143Y-23822728D01*
X2578572Y-24451300D02*
X2473810Y-24503680D01*
X2473810Y-24503680D02*
X2211905Y-24503680D01*
X2211905Y-24503680D02*
X2107143Y-24451300D01*
X2107143Y-24451300D02*
X2054762Y-24346538D01*
X2054762Y-24346538D02*
X2054762Y-24241776D01*
X2054762Y-24241776D02*
X2107143Y-24137014D01*
X2107143Y-24137014D02*
X2211905Y-24084633D01*
X2211905Y-24084633D02*
X2473810Y-24084633D01*
X2473810Y-24084633D02*
X2578572Y-24032252D01*
X3102381Y-23770347D02*
X3102381Y-24503680D01*
X3102381Y-23875109D02*
X3154762Y-23822728D01*
X3154762Y-23822728D02*
X3259524Y-23770347D01*
X3259524Y-23770347D02*
X3416667Y-23770347D01*
X3416667Y-23770347D02*
X3521429Y-23822728D01*
X3521429Y-23822728D02*
X3573810Y-23927490D01*
X3573810Y-23927490D02*
X3573810Y-24503680D01*
X4516667Y-24451300D02*
X4411905Y-24503680D01*
X4411905Y-24503680D02*
X4202381Y-24503680D01*
X4202381Y-24503680D02*
X4097619Y-24451300D01*
X4097619Y-24451300D02*
X4045238Y-24346538D01*
X4045238Y-24346538D02*
X4045238Y-23927490D01*
X4045238Y-23927490D02*
X4097619Y-23822728D01*
X4097619Y-23822728D02*
X4202381Y-23770347D01*
X4202381Y-23770347D02*
X4411905Y-23770347D01*
X4411905Y-23770347D02*
X4516667Y-23822728D01*
X4516667Y-23822728D02*
X4569048Y-23927490D01*
X4569048Y-23927490D02*
X4569048Y-24032252D01*
X4569048Y-24032252D02*
X4045238Y-24137014D01*
X6350000Y-24503680D02*
X6350000Y-23927490D01*
X6350000Y-23927490D02*
X6297619Y-23822728D01*
X6297619Y-23822728D02*
X6192857Y-23770347D01*
X6192857Y-23770347D02*
X5983333Y-23770347D01*
X5983333Y-23770347D02*
X5878571Y-23822728D01*
X6350000Y-24451300D02*
X6245238Y-24503680D01*
X6245238Y-24503680D02*
X5983333Y-24503680D01*
X5983333Y-24503680D02*
X5878571Y-24451300D01*
X5878571Y-24451300D02*
X5826190Y-24346538D01*
X5826190Y-24346538D02*
X5826190Y-24241776D01*
X5826190Y-24241776D02*
X5878571Y-24137014D01*
X5878571Y-24137014D02*
X5983333Y-24084633D01*
X5983333Y-24084633D02*
X6245238Y-24084633D01*
X6245238Y-24084633D02*
X6350000Y-24032252D01*
X6821428Y-24451300D02*
X6926190Y-24503680D01*
X6926190Y-24503680D02*
X7135714Y-24503680D01*
X7135714Y-24503680D02*
X7240476Y-24451300D01*
X7240476Y-24451300D02*
X7292857Y-24346538D01*
X7292857Y-24346538D02*
X7292857Y-24294157D01*
X7292857Y-24294157D02*
X7240476Y-24189395D01*
X7240476Y-24189395D02*
X7135714Y-24137014D01*
X7135714Y-24137014D02*
X6978571Y-24137014D01*
X6978571Y-24137014D02*
X6873809Y-24084633D01*
X6873809Y-24084633D02*
X6821428Y-23979871D01*
X6821428Y-23979871D02*
X6821428Y-23927490D01*
X6821428Y-23927490D02*
X6873809Y-23822728D01*
X6873809Y-23822728D02*
X6978571Y-23770347D01*
X6978571Y-23770347D02*
X7135714Y-23770347D01*
X7135714Y-23770347D02*
X7240476Y-23822728D01*
X7711904Y-24451300D02*
X7816666Y-24503680D01*
X7816666Y-24503680D02*
X8026190Y-24503680D01*
X8026190Y-24503680D02*
X8130952Y-24451300D01*
X8130952Y-24451300D02*
X8183333Y-24346538D01*
X8183333Y-24346538D02*
X8183333Y-24294157D01*
X8183333Y-24294157D02*
X8130952Y-24189395D01*
X8130952Y-24189395D02*
X8026190Y-24137014D01*
X8026190Y-24137014D02*
X7869047Y-24137014D01*
X7869047Y-24137014D02*
X7764285Y-24084633D01*
X7764285Y-24084633D02*
X7711904Y-23979871D01*
X7711904Y-23979871D02*
X7711904Y-23927490D01*
X7711904Y-23927490D02*
X7764285Y-23822728D01*
X7764285Y-23822728D02*
X7869047Y-23770347D01*
X7869047Y-23770347D02*
X8026190Y-23770347D01*
X8026190Y-23770347D02*
X8130952Y-23822728D01*
X8654761Y-24503680D02*
X8654761Y-23770347D01*
X8654761Y-23403680D02*
X8602380Y-23456061D01*
X8602380Y-23456061D02*
X8654761Y-23508442D01*
X8654761Y-23508442D02*
X8707142Y-23456061D01*
X8707142Y-23456061D02*
X8654761Y-23403680D01*
X8654761Y-23403680D02*
X8654761Y-23508442D01*
X9650000Y-23770347D02*
X9650000Y-24660823D01*
X9650000Y-24660823D02*
X9597619Y-24765585D01*
X9597619Y-24765585D02*
X9545238Y-24817966D01*
X9545238Y-24817966D02*
X9440476Y-24870347D01*
X9440476Y-24870347D02*
X9283333Y-24870347D01*
X9283333Y-24870347D02*
X9178571Y-24817966D01*
X9650000Y-24451300D02*
X9545238Y-24503680D01*
X9545238Y-24503680D02*
X9335714Y-24503680D01*
X9335714Y-24503680D02*
X9230952Y-24451300D01*
X9230952Y-24451300D02*
X9178571Y-24398919D01*
X9178571Y-24398919D02*
X9126190Y-24294157D01*
X9126190Y-24294157D02*
X9126190Y-23979871D01*
X9126190Y-23979871D02*
X9178571Y-23875109D01*
X9178571Y-23875109D02*
X9230952Y-23822728D01*
X9230952Y-23822728D02*
X9335714Y-23770347D01*
X9335714Y-23770347D02*
X9545238Y-23770347D01*
X9545238Y-23770347D02*
X9650000Y-23822728D01*
X10173809Y-23770347D02*
X10173809Y-24503680D01*
X10173809Y-23875109D02*
X10226190Y-23822728D01*
X10226190Y-23822728D02*
X10330952Y-23770347D01*
X10330952Y-23770347D02*
X10488095Y-23770347D01*
X10488095Y-23770347D02*
X10592857Y-23822728D01*
X10592857Y-23822728D02*
X10645238Y-23927490D01*
X10645238Y-23927490D02*
X10645238Y-24503680D01*
X11169047Y-24503680D02*
X11169047Y-23770347D01*
X11169047Y-23875109D02*
X11221428Y-23822728D01*
X11221428Y-23822728D02*
X11326190Y-23770347D01*
X11326190Y-23770347D02*
X11483333Y-23770347D01*
X11483333Y-23770347D02*
X11588095Y-23822728D01*
X11588095Y-23822728D02*
X11640476Y-23927490D01*
X11640476Y-23927490D02*
X11640476Y-24503680D01*
X11640476Y-23927490D02*
X11692857Y-23822728D01*
X11692857Y-23822728D02*
X11797619Y-23770347D01*
X11797619Y-23770347D02*
X11954762Y-23770347D01*
X11954762Y-23770347D02*
X12059523Y-23822728D01*
X12059523Y-23822728D02*
X12111904Y-23927490D01*
X12111904Y-23927490D02*
X12111904Y-24503680D01*
X13054762Y-24451300D02*
X12950000Y-24503680D01*
X12950000Y-24503680D02*
X12740476Y-24503680D01*
X12740476Y-24503680D02*
X12635714Y-24451300D01*
X12635714Y-24451300D02*
X12583333Y-24346538D01*
X12583333Y-24346538D02*
X12583333Y-23927490D01*
X12583333Y-23927490D02*
X12635714Y-23822728D01*
X12635714Y-23822728D02*
X12740476Y-23770347D01*
X12740476Y-23770347D02*
X12950000Y-23770347D01*
X12950000Y-23770347D02*
X13054762Y-23822728D01*
X13054762Y-23822728D02*
X13107143Y-23927490D01*
X13107143Y-23927490D02*
X13107143Y-24032252D01*
X13107143Y-24032252D02*
X12583333Y-24137014D01*
X13578571Y-23770347D02*
X13578571Y-24503680D01*
X13578571Y-23875109D02*
X13630952Y-23822728D01*
X13630952Y-23822728D02*
X13735714Y-23770347D01*
X13735714Y-23770347D02*
X13892857Y-23770347D01*
X13892857Y-23770347D02*
X13997619Y-23822728D01*
X13997619Y-23822728D02*
X14050000Y-23927490D01*
X14050000Y-23927490D02*
X14050000Y-24503680D01*
X14416666Y-23770347D02*
X14835714Y-23770347D01*
X14573809Y-23403680D02*
X14573809Y-24346538D01*
X14573809Y-24346538D02*
X14626190Y-24451300D01*
X14626190Y-24451300D02*
X14730952Y-24503680D01*
X14730952Y-24503680D02*
X14835714Y-24503680D01*
X16511904Y-24451300D02*
X16407142Y-24503680D01*
X16407142Y-24503680D02*
X16197618Y-24503680D01*
X16197618Y-24503680D02*
X16092856Y-24451300D01*
X16092856Y-24451300D02*
X16040475Y-24398919D01*
X16040475Y-24398919D02*
X15988094Y-24294157D01*
X15988094Y-24294157D02*
X15988094Y-23979871D01*
X15988094Y-23979871D02*
X16040475Y-23875109D01*
X16040475Y-23875109D02*
X16092856Y-23822728D01*
X16092856Y-23822728D02*
X16197618Y-23770347D01*
X16197618Y-23770347D02*
X16407142Y-23770347D01*
X16407142Y-23770347D02*
X16511904Y-23822728D01*
X17140475Y-24503680D02*
X17035713Y-24451300D01*
X17035713Y-24451300D02*
X16983332Y-24346538D01*
X16983332Y-24346538D02*
X16983332Y-23403680D01*
X18030951Y-24503680D02*
X18030951Y-23927490D01*
X18030951Y-23927490D02*
X17978570Y-23822728D01*
X17978570Y-23822728D02*
X17873808Y-23770347D01*
X17873808Y-23770347D02*
X17664284Y-23770347D01*
X17664284Y-23770347D02*
X17559522Y-23822728D01*
X18030951Y-24451300D02*
X17926189Y-24503680D01*
X17926189Y-24503680D02*
X17664284Y-24503680D01*
X17664284Y-24503680D02*
X17559522Y-24451300D01*
X17559522Y-24451300D02*
X17507141Y-24346538D01*
X17507141Y-24346538D02*
X17507141Y-24241776D01*
X17507141Y-24241776D02*
X17559522Y-24137014D01*
X17559522Y-24137014D02*
X17664284Y-24084633D01*
X17664284Y-24084633D02*
X17926189Y-24084633D01*
X17926189Y-24084633D02*
X18030951Y-24032252D01*
X18554760Y-24503680D02*
X18554760Y-23770347D01*
X18554760Y-23403680D02*
X18502379Y-23456061D01*
X18502379Y-23456061D02*
X18554760Y-23508442D01*
X18554760Y-23508442D02*
X18607141Y-23456061D01*
X18607141Y-23456061D02*
X18554760Y-23403680D01*
X18554760Y-23403680D02*
X18554760Y-23508442D01*
X19078570Y-24503680D02*
X19078570Y-23770347D01*
X19078570Y-23875109D02*
X19130951Y-23822728D01*
X19130951Y-23822728D02*
X19235713Y-23770347D01*
X19235713Y-23770347D02*
X19392856Y-23770347D01*
X19392856Y-23770347D02*
X19497618Y-23822728D01*
X19497618Y-23822728D02*
X19549999Y-23927490D01*
X19549999Y-23927490D02*
X19549999Y-24503680D01*
X19549999Y-23927490D02*
X19602380Y-23822728D01*
X19602380Y-23822728D02*
X19707142Y-23770347D01*
X19707142Y-23770347D02*
X19864285Y-23770347D01*
X19864285Y-23770347D02*
X19969046Y-23822728D01*
X19969046Y-23822728D02*
X20021427Y-23927490D01*
X20021427Y-23927490D02*
X20021427Y-24503680D01*
X20964285Y-24451300D02*
X20859523Y-24503680D01*
X20859523Y-24503680D02*
X20649999Y-24503680D01*
X20649999Y-24503680D02*
X20545237Y-24451300D01*
X20545237Y-24451300D02*
X20492856Y-24346538D01*
X20492856Y-24346538D02*
X20492856Y-23927490D01*
X20492856Y-23927490D02*
X20545237Y-23822728D01*
X20545237Y-23822728D02*
X20649999Y-23770347D01*
X20649999Y-23770347D02*
X20859523Y-23770347D01*
X20859523Y-23770347D02*
X20964285Y-23822728D01*
X20964285Y-23822728D02*
X21016666Y-23927490D01*
X21016666Y-23927490D02*
X21016666Y-24032252D01*
X21016666Y-24032252D02*
X20492856Y-24137014D01*
X21959523Y-24503680D02*
X21959523Y-23403680D01*
X21959523Y-24451300D02*
X21854761Y-24503680D01*
X21854761Y-24503680D02*
X21645237Y-24503680D01*
X21645237Y-24503680D02*
X21540475Y-24451300D01*
X21540475Y-24451300D02*
X21488094Y-24398919D01*
X21488094Y-24398919D02*
X21435713Y-24294157D01*
X21435713Y-24294157D02*
X21435713Y-23979871D01*
X21435713Y-23979871D02*
X21488094Y-23875109D01*
X21488094Y-23875109D02*
X21540475Y-23822728D01*
X21540475Y-23822728D02*
X21645237Y-23770347D01*
X21645237Y-23770347D02*
X21854761Y-23770347D01*
X21854761Y-23770347D02*
X21959523Y-23822728D01*
X-17692854Y-30451300D02*
X-17535711Y-30503680D01*
X-17535711Y-30503680D02*
X-17273806Y-30503680D01*
X-17273806Y-30503680D02*
X-17169044Y-30451300D01*
X-17169044Y-30451300D02*
X-17116663Y-30398919D01*
X-17116663Y-30398919D02*
X-17064282Y-30294157D01*
X-17064282Y-30294157D02*
X-17064282Y-30189395D01*
X-17064282Y-30189395D02*
X-17116663Y-30084633D01*
X-17116663Y-30084633D02*
X-17169044Y-30032252D01*
X-17169044Y-30032252D02*
X-17273806Y-29979871D01*
X-17273806Y-29979871D02*
X-17483330Y-29927490D01*
X-17483330Y-29927490D02*
X-17588092Y-29875109D01*
X-17588092Y-29875109D02*
X-17640473Y-29822728D01*
X-17640473Y-29822728D02*
X-17692854Y-29717966D01*
X-17692854Y-29717966D02*
X-17692854Y-29613204D01*
X-17692854Y-29613204D02*
X-17640473Y-29508442D01*
X-17640473Y-29508442D02*
X-17588092Y-29456061D01*
X-17588092Y-29456061D02*
X-17483330Y-29403680D01*
X-17483330Y-29403680D02*
X-17221425Y-29403680D01*
X-17221425Y-29403680D02*
X-17064282Y-29456061D01*
X-16592854Y-30503680D02*
X-16592854Y-29403680D01*
X-15230949Y-29770347D02*
X-15230949Y-30503680D01*
X-15230949Y-29875109D02*
X-15178568Y-29822728D01*
X-15178568Y-29822728D02*
X-15073806Y-29770347D01*
X-15073806Y-29770347D02*
X-14916663Y-29770347D01*
X-14916663Y-29770347D02*
X-14811901Y-29822728D01*
X-14811901Y-29822728D02*
X-14759520Y-29927490D01*
X-14759520Y-29927490D02*
X-14759520Y-30503680D01*
X-14078568Y-30503680D02*
X-14183330Y-30451300D01*
X-14183330Y-30451300D02*
X-14235711Y-30398919D01*
X-14235711Y-30398919D02*
X-14288092Y-30294157D01*
X-14288092Y-30294157D02*
X-14288092Y-29979871D01*
X-14288092Y-29979871D02*
X-14235711Y-29875109D01*
X-14235711Y-29875109D02*
X-14183330Y-29822728D01*
X-14183330Y-29822728D02*
X-14078568Y-29770347D01*
X-14078568Y-29770347D02*
X-13921425Y-29770347D01*
X-13921425Y-29770347D02*
X-13816663Y-29822728D01*
X-13816663Y-29822728D02*
X-13764282Y-29875109D01*
X-13764282Y-29875109D02*
X-13711901Y-29979871D01*
X-13711901Y-29979871D02*
X-13711901Y-30294157D01*
X-13711901Y-30294157D02*
X-13764282Y-30398919D01*
X-13764282Y-30398919D02*
X-13816663Y-30451300D01*
X-13816663Y-30451300D02*
X-13921425Y-30503680D01*
X-13921425Y-30503680D02*
X-14078568Y-30503680D01*
X-13397616Y-29770347D02*
X-12978568Y-29770347D01*
X-13240473Y-29403680D02*
X-13240473Y-30346538D01*
X-13240473Y-30346538D02*
X-13188092Y-30451300D01*
X-13188092Y-30451300D02*
X-13083330Y-30503680D01*
X-13083330Y-30503680D02*
X-12978568Y-30503680D01*
X-12192854Y-30451300D02*
X-12297616Y-30503680D01*
X-12297616Y-30503680D02*
X-12507140Y-30503680D01*
X-12507140Y-30503680D02*
X-12611902Y-30451300D01*
X-12611902Y-30451300D02*
X-12664283Y-30346538D01*
X-12664283Y-30346538D02*
X-12664283Y-29927490D01*
X-12664283Y-29927490D02*
X-12611902Y-29822728D01*
X-12611902Y-29822728D02*
X-12507140Y-29770347D01*
X-12507140Y-29770347D02*
X-12297616Y-29770347D01*
X-12297616Y-29770347D02*
X-12192854Y-29822728D01*
X-12192854Y-29822728D02*
X-12140473Y-29927490D01*
X-12140473Y-29927490D02*
X-12140473Y-30032252D01*
X-12140473Y-30032252D02*
X-12664283Y-30137014D01*
X-11721426Y-30451300D02*
X-11616664Y-30503680D01*
X-11616664Y-30503680D02*
X-11407140Y-30503680D01*
X-11407140Y-30503680D02*
X-11302378Y-30451300D01*
X-11302378Y-30451300D02*
X-11249997Y-30346538D01*
X-11249997Y-30346538D02*
X-11249997Y-30294157D01*
X-11249997Y-30294157D02*
X-11302378Y-30189395D01*
X-11302378Y-30189395D02*
X-11407140Y-30137014D01*
X-11407140Y-30137014D02*
X-11564283Y-30137014D01*
X-11564283Y-30137014D02*
X-11669045Y-30084633D01*
X-11669045Y-30084633D02*
X-11721426Y-29979871D01*
X-11721426Y-29979871D02*
X-11721426Y-29927490D01*
X-11721426Y-29927490D02*
X-11669045Y-29822728D01*
X-11669045Y-29822728D02*
X-11564283Y-29770347D01*
X-11564283Y-29770347D02*
X-11407140Y-29770347D01*
X-11407140Y-29770347D02*
X-11302378Y-29822728D01*
X-10778569Y-30398919D02*
X-10726188Y-30451300D01*
X-10726188Y-30451300D02*
X-10778569Y-30503680D01*
X-10778569Y-30503680D02*
X-10830950Y-30451300D01*
X-10830950Y-30451300D02*
X-10778569Y-30398919D01*
X-10778569Y-30398919D02*
X-10778569Y-30503680D01*
X-10778569Y-29822728D02*
X-10726188Y-29875109D01*
X-10726188Y-29875109D02*
X-10778569Y-29927490D01*
X-10778569Y-29927490D02*
X-10830950Y-29875109D01*
X-10830950Y-29875109D02*
X-10778569Y-29822728D01*
X-10778569Y-29822728D02*
X-10778569Y-29927490D01*
X-9573807Y-29770347D02*
X-9154759Y-29770347D01*
X-9416664Y-30503680D02*
X-9416664Y-29560823D01*
X-9416664Y-29560823D02*
X-9364283Y-29456061D01*
X-9364283Y-29456061D02*
X-9259521Y-29403680D01*
X-9259521Y-29403680D02*
X-9154759Y-29403680D01*
X-8630950Y-30503680D02*
X-8735712Y-30451300D01*
X-8735712Y-30451300D02*
X-8788093Y-30398919D01*
X-8788093Y-30398919D02*
X-8840474Y-30294157D01*
X-8840474Y-30294157D02*
X-8840474Y-29979871D01*
X-8840474Y-29979871D02*
X-8788093Y-29875109D01*
X-8788093Y-29875109D02*
X-8735712Y-29822728D01*
X-8735712Y-29822728D02*
X-8630950Y-29770347D01*
X-8630950Y-29770347D02*
X-8473807Y-29770347D01*
X-8473807Y-29770347D02*
X-8369045Y-29822728D01*
X-8369045Y-29822728D02*
X-8316664Y-29875109D01*
X-8316664Y-29875109D02*
X-8264283Y-29979871D01*
X-8264283Y-29979871D02*
X-8264283Y-30294157D01*
X-8264283Y-30294157D02*
X-8316664Y-30398919D01*
X-8316664Y-30398919D02*
X-8369045Y-30451300D01*
X-8369045Y-30451300D02*
X-8473807Y-30503680D01*
X-8473807Y-30503680D02*
X-8630950Y-30503680D01*
X-7635712Y-30503680D02*
X-7740474Y-30451300D01*
X-7740474Y-30451300D02*
X-7792855Y-30346538D01*
X-7792855Y-30346538D02*
X-7792855Y-29403680D01*
X-7059522Y-30503680D02*
X-7164284Y-30451300D01*
X-7164284Y-30451300D02*
X-7216665Y-30346538D01*
X-7216665Y-30346538D02*
X-7216665Y-29403680D01*
X-6483332Y-30503680D02*
X-6588094Y-30451300D01*
X-6588094Y-30451300D02*
X-6640475Y-30398919D01*
X-6640475Y-30398919D02*
X-6692856Y-30294157D01*
X-6692856Y-30294157D02*
X-6692856Y-29979871D01*
X-6692856Y-29979871D02*
X-6640475Y-29875109D01*
X-6640475Y-29875109D02*
X-6588094Y-29822728D01*
X-6588094Y-29822728D02*
X-6483332Y-29770347D01*
X-6483332Y-29770347D02*
X-6326189Y-29770347D01*
X-6326189Y-29770347D02*
X-6221427Y-29822728D01*
X-6221427Y-29822728D02*
X-6169046Y-29875109D01*
X-6169046Y-29875109D02*
X-6116665Y-29979871D01*
X-6116665Y-29979871D02*
X-6116665Y-30294157D01*
X-6116665Y-30294157D02*
X-6169046Y-30398919D01*
X-6169046Y-30398919D02*
X-6221427Y-30451300D01*
X-6221427Y-30451300D02*
X-6326189Y-30503680D01*
X-6326189Y-30503680D02*
X-6483332Y-30503680D01*
X-5749999Y-29770347D02*
X-5540475Y-30503680D01*
X-5540475Y-30503680D02*
X-5330951Y-29979871D01*
X-5330951Y-29979871D02*
X-5121427Y-30503680D01*
X-5121427Y-30503680D02*
X-4911903Y-29770347D01*
X-3654761Y-30503680D02*
X-3654761Y-29403680D01*
X-3654761Y-29403680D02*
X-3026189Y-30503680D01*
X-3026189Y-30503680D02*
X-3026189Y-29403680D01*
X-2607142Y-29403680D02*
X-1873808Y-30503680D01*
X-1873808Y-29403680D02*
X-2607142Y-30503680D01*
X-1454761Y-30503680D02*
X-1454761Y-29403680D01*
X-1454761Y-29403680D02*
X-1035713Y-29403680D01*
X-1035713Y-29403680D02*
X-930951Y-29456061D01*
X-930951Y-29456061D02*
X-878570Y-29508442D01*
X-878570Y-29508442D02*
X-826189Y-29613204D01*
X-826189Y-29613204D02*
X-826189Y-29770347D01*
X-826189Y-29770347D02*
X-878570Y-29875109D01*
X-878570Y-29875109D02*
X-930951Y-29927490D01*
X-930951Y-29927490D02*
X-1035713Y-29979871D01*
X-1035713Y-29979871D02*
X-1454761Y-29979871D01*
X483333Y-30503680D02*
X483333Y-29403680D01*
X483333Y-29927490D02*
X1111905Y-29927490D01*
X1111905Y-30503680D02*
X1111905Y-29403680D01*
X2107143Y-30503680D02*
X2107143Y-29927490D01*
X2107143Y-29927490D02*
X2054762Y-29822728D01*
X2054762Y-29822728D02*
X1950000Y-29770347D01*
X1950000Y-29770347D02*
X1740476Y-29770347D01*
X1740476Y-29770347D02*
X1635714Y-29822728D01*
X2107143Y-30451300D02*
X2002381Y-30503680D01*
X2002381Y-30503680D02*
X1740476Y-30503680D01*
X1740476Y-30503680D02*
X1635714Y-30451300D01*
X1635714Y-30451300D02*
X1583333Y-30346538D01*
X1583333Y-30346538D02*
X1583333Y-30241776D01*
X1583333Y-30241776D02*
X1635714Y-30137014D01*
X1635714Y-30137014D02*
X1740476Y-30084633D01*
X1740476Y-30084633D02*
X2002381Y-30084633D01*
X2002381Y-30084633D02*
X2107143Y-30032252D01*
X2630952Y-30503680D02*
X2630952Y-29770347D01*
X2630952Y-29979871D02*
X2683333Y-29875109D01*
X2683333Y-29875109D02*
X2735714Y-29822728D01*
X2735714Y-29822728D02*
X2840476Y-29770347D01*
X2840476Y-29770347D02*
X2945238Y-29770347D01*
X3783333Y-30503680D02*
X3783333Y-29403680D01*
X3783333Y-30451300D02*
X3678571Y-30503680D01*
X3678571Y-30503680D02*
X3469047Y-30503680D01*
X3469047Y-30503680D02*
X3364285Y-30451300D01*
X3364285Y-30451300D02*
X3311904Y-30398919D01*
X3311904Y-30398919D02*
X3259523Y-30294157D01*
X3259523Y-30294157D02*
X3259523Y-29979871D01*
X3259523Y-29979871D02*
X3311904Y-29875109D01*
X3311904Y-29875109D02*
X3364285Y-29822728D01*
X3364285Y-29822728D02*
X3469047Y-29770347D01*
X3469047Y-29770347D02*
X3678571Y-29770347D01*
X3678571Y-29770347D02*
X3783333Y-29822728D01*
X4202380Y-29770347D02*
X4411904Y-30503680D01*
X4411904Y-30503680D02*
X4621428Y-29979871D01*
X4621428Y-29979871D02*
X4830952Y-30503680D01*
X4830952Y-30503680D02*
X5040476Y-29770347D01*
X5930952Y-30503680D02*
X5930952Y-29927490D01*
X5930952Y-29927490D02*
X5878571Y-29822728D01*
X5878571Y-29822728D02*
X5773809Y-29770347D01*
X5773809Y-29770347D02*
X5564285Y-29770347D01*
X5564285Y-29770347D02*
X5459523Y-29822728D01*
X5930952Y-30451300D02*
X5826190Y-30503680D01*
X5826190Y-30503680D02*
X5564285Y-30503680D01*
X5564285Y-30503680D02*
X5459523Y-30451300D01*
X5459523Y-30451300D02*
X5407142Y-30346538D01*
X5407142Y-30346538D02*
X5407142Y-30241776D01*
X5407142Y-30241776D02*
X5459523Y-30137014D01*
X5459523Y-30137014D02*
X5564285Y-30084633D01*
X5564285Y-30084633D02*
X5826190Y-30084633D01*
X5826190Y-30084633D02*
X5930952Y-30032252D01*
X6454761Y-30503680D02*
X6454761Y-29770347D01*
X6454761Y-29979871D02*
X6507142Y-29875109D01*
X6507142Y-29875109D02*
X6559523Y-29822728D01*
X6559523Y-29822728D02*
X6664285Y-29770347D01*
X6664285Y-29770347D02*
X6769047Y-29770347D01*
X7554761Y-30451300D02*
X7449999Y-30503680D01*
X7449999Y-30503680D02*
X7240475Y-30503680D01*
X7240475Y-30503680D02*
X7135713Y-30451300D01*
X7135713Y-30451300D02*
X7083332Y-30346538D01*
X7083332Y-30346538D02*
X7083332Y-29927490D01*
X7083332Y-29927490D02*
X7135713Y-29822728D01*
X7135713Y-29822728D02*
X7240475Y-29770347D01*
X7240475Y-29770347D02*
X7449999Y-29770347D01*
X7449999Y-29770347D02*
X7554761Y-29822728D01*
X7554761Y-29822728D02*
X7607142Y-29927490D01*
X7607142Y-29927490D02*
X7607142Y-30032252D01*
X7607142Y-30032252D02*
X7083332Y-30137014D01*
X8916665Y-30503680D02*
X8916665Y-29403680D01*
X8916665Y-29403680D02*
X9178570Y-29403680D01*
X9178570Y-29403680D02*
X9335713Y-29456061D01*
X9335713Y-29456061D02*
X9440475Y-29560823D01*
X9440475Y-29560823D02*
X9492856Y-29665585D01*
X9492856Y-29665585D02*
X9545237Y-29875109D01*
X9545237Y-29875109D02*
X9545237Y-30032252D01*
X9545237Y-30032252D02*
X9492856Y-30241776D01*
X9492856Y-30241776D02*
X9440475Y-30346538D01*
X9440475Y-30346538D02*
X9335713Y-30451300D01*
X9335713Y-30451300D02*
X9178570Y-30503680D01*
X9178570Y-30503680D02*
X8916665Y-30503680D01*
X10435713Y-30451300D02*
X10330951Y-30503680D01*
X10330951Y-30503680D02*
X10121427Y-30503680D01*
X10121427Y-30503680D02*
X10016665Y-30451300D01*
X10016665Y-30451300D02*
X9964284Y-30346538D01*
X9964284Y-30346538D02*
X9964284Y-29927490D01*
X9964284Y-29927490D02*
X10016665Y-29822728D01*
X10016665Y-29822728D02*
X10121427Y-29770347D01*
X10121427Y-29770347D02*
X10330951Y-29770347D01*
X10330951Y-29770347D02*
X10435713Y-29822728D01*
X10435713Y-29822728D02*
X10488094Y-29927490D01*
X10488094Y-29927490D02*
X10488094Y-30032252D01*
X10488094Y-30032252D02*
X9964284Y-30137014D01*
X10907141Y-30451300D02*
X11011903Y-30503680D01*
X11011903Y-30503680D02*
X11221427Y-30503680D01*
X11221427Y-30503680D02*
X11326189Y-30451300D01*
X11326189Y-30451300D02*
X11378570Y-30346538D01*
X11378570Y-30346538D02*
X11378570Y-30294157D01*
X11378570Y-30294157D02*
X11326189Y-30189395D01*
X11326189Y-30189395D02*
X11221427Y-30137014D01*
X11221427Y-30137014D02*
X11064284Y-30137014D01*
X11064284Y-30137014D02*
X10959522Y-30084633D01*
X10959522Y-30084633D02*
X10907141Y-29979871D01*
X10907141Y-29979871D02*
X10907141Y-29927490D01*
X10907141Y-29927490D02*
X10959522Y-29822728D01*
X10959522Y-29822728D02*
X11064284Y-29770347D01*
X11064284Y-29770347D02*
X11221427Y-29770347D01*
X11221427Y-29770347D02*
X11326189Y-29822728D01*
X11849998Y-30503680D02*
X11849998Y-29770347D01*
X11849998Y-29403680D02*
X11797617Y-29456061D01*
X11797617Y-29456061D02*
X11849998Y-29508442D01*
X11849998Y-29508442D02*
X11902379Y-29456061D01*
X11902379Y-29456061D02*
X11849998Y-29403680D01*
X11849998Y-29403680D02*
X11849998Y-29508442D01*
X12845237Y-29770347D02*
X12845237Y-30660823D01*
X12845237Y-30660823D02*
X12792856Y-30765585D01*
X12792856Y-30765585D02*
X12740475Y-30817966D01*
X12740475Y-30817966D02*
X12635713Y-30870347D01*
X12635713Y-30870347D02*
X12478570Y-30870347D01*
X12478570Y-30870347D02*
X12373808Y-30817966D01*
X12845237Y-30451300D02*
X12740475Y-30503680D01*
X12740475Y-30503680D02*
X12530951Y-30503680D01*
X12530951Y-30503680D02*
X12426189Y-30451300D01*
X12426189Y-30451300D02*
X12373808Y-30398919D01*
X12373808Y-30398919D02*
X12321427Y-30294157D01*
X12321427Y-30294157D02*
X12321427Y-29979871D01*
X12321427Y-29979871D02*
X12373808Y-29875109D01*
X12373808Y-29875109D02*
X12426189Y-29822728D01*
X12426189Y-29822728D02*
X12530951Y-29770347D01*
X12530951Y-29770347D02*
X12740475Y-29770347D01*
X12740475Y-29770347D02*
X12845237Y-29822728D01*
X13369046Y-29770347D02*
X13369046Y-30503680D01*
X13369046Y-29875109D02*
X13421427Y-29822728D01*
X13421427Y-29822728D02*
X13526189Y-29770347D01*
X13526189Y-29770347D02*
X13683332Y-29770347D01*
X13683332Y-29770347D02*
X13788094Y-29822728D01*
X13788094Y-29822728D02*
X13840475Y-29927490D01*
X13840475Y-29927490D02*
X13840475Y-30503680D01*
X15778570Y-29456061D02*
X15673808Y-29403680D01*
X15673808Y-29403680D02*
X15516665Y-29403680D01*
X15516665Y-29403680D02*
X15359522Y-29456061D01*
X15359522Y-29456061D02*
X15254760Y-29560823D01*
X15254760Y-29560823D02*
X15202379Y-29665585D01*
X15202379Y-29665585D02*
X15149998Y-29875109D01*
X15149998Y-29875109D02*
X15149998Y-30032252D01*
X15149998Y-30032252D02*
X15202379Y-30241776D01*
X15202379Y-30241776D02*
X15254760Y-30346538D01*
X15254760Y-30346538D02*
X15359522Y-30451300D01*
X15359522Y-30451300D02*
X15516665Y-30503680D01*
X15516665Y-30503680D02*
X15621427Y-30503680D01*
X15621427Y-30503680D02*
X15778570Y-30451300D01*
X15778570Y-30451300D02*
X15830951Y-30398919D01*
X15830951Y-30398919D02*
X15830951Y-30032252D01*
X15830951Y-30032252D02*
X15621427Y-30032252D01*
X16773808Y-29770347D02*
X16773808Y-30503680D01*
X16302379Y-29770347D02*
X16302379Y-30346538D01*
X16302379Y-30346538D02*
X16354760Y-30451300D01*
X16354760Y-30451300D02*
X16459522Y-30503680D01*
X16459522Y-30503680D02*
X16616665Y-30503680D01*
X16616665Y-30503680D02*
X16721427Y-30451300D01*
X16721427Y-30451300D02*
X16773808Y-30398919D01*
X17297617Y-30503680D02*
X17297617Y-29770347D01*
X17297617Y-29403680D02*
X17245236Y-29456061D01*
X17245236Y-29456061D02*
X17297617Y-29508442D01*
X17297617Y-29508442D02*
X17349998Y-29456061D01*
X17349998Y-29456061D02*
X17297617Y-29403680D01*
X17297617Y-29403680D02*
X17297617Y-29508442D01*
X18292856Y-30503680D02*
X18292856Y-29403680D01*
X18292856Y-30451300D02*
X18188094Y-30503680D01*
X18188094Y-30503680D02*
X17978570Y-30503680D01*
X17978570Y-30503680D02*
X17873808Y-30451300D01*
X17873808Y-30451300D02*
X17821427Y-30398919D01*
X17821427Y-30398919D02*
X17769046Y-30294157D01*
X17769046Y-30294157D02*
X17769046Y-29979871D01*
X17769046Y-29979871D02*
X17821427Y-29875109D01*
X17821427Y-29875109D02*
X17873808Y-29822728D01*
X17873808Y-29822728D02*
X17978570Y-29770347D01*
X17978570Y-29770347D02*
X18188094Y-29770347D01*
X18188094Y-29770347D02*
X18292856Y-29822728D01*
X19235713Y-30451300D02*
X19130951Y-30503680D01*
X19130951Y-30503680D02*
X18921427Y-30503680D01*
X18921427Y-30503680D02*
X18816665Y-30451300D01*
X18816665Y-30451300D02*
X18764284Y-30346538D01*
X18764284Y-30346538D02*
X18764284Y-29927490D01*
X18764284Y-29927490D02*
X18816665Y-29822728D01*
X18816665Y-29822728D02*
X18921427Y-29770347D01*
X18921427Y-29770347D02*
X19130951Y-29770347D01*
X19130951Y-29770347D02*
X19235713Y-29822728D01*
X19235713Y-29822728D02*
X19288094Y-29927490D01*
X19288094Y-29927490D02*
X19288094Y-30032252D01*
X19288094Y-30032252D02*
X18764284Y-30137014D01*
X20492855Y-29770347D02*
X20702379Y-30503680D01*
X20702379Y-30503680D02*
X20911903Y-29979871D01*
X20911903Y-29979871D02*
X21121427Y-30503680D01*
X21121427Y-30503680D02*
X21330951Y-29770347D01*
X21749998Y-30503680D02*
X21749998Y-29403680D01*
X22221427Y-30503680D02*
X22221427Y-29927490D01*
X22221427Y-29927490D02*
X22169046Y-29822728D01*
X22169046Y-29822728D02*
X22064284Y-29770347D01*
X22064284Y-29770347D02*
X21907141Y-29770347D01*
X21907141Y-29770347D02*
X21802379Y-29822728D01*
X21802379Y-29822728D02*
X21749998Y-29875109D01*
X23164284Y-30451300D02*
X23059522Y-30503680D01*
X23059522Y-30503680D02*
X22849998Y-30503680D01*
X22849998Y-30503680D02*
X22745236Y-30451300D01*
X22745236Y-30451300D02*
X22692855Y-30346538D01*
X22692855Y-30346538D02*
X22692855Y-29927490D01*
X22692855Y-29927490D02*
X22745236Y-29822728D01*
X22745236Y-29822728D02*
X22849998Y-29770347D01*
X22849998Y-29770347D02*
X23059522Y-29770347D01*
X23059522Y-29770347D02*
X23164284Y-29822728D01*
X23164284Y-29822728D02*
X23216665Y-29927490D01*
X23216665Y-29927490D02*
X23216665Y-30032252D01*
X23216665Y-30032252D02*
X22692855Y-30137014D01*
X23688093Y-29770347D02*
X23688093Y-30503680D01*
X23688093Y-29875109D02*
X23740474Y-29822728D01*
X23740474Y-29822728D02*
X23845236Y-29770347D01*
X23845236Y-29770347D02*
X24002379Y-29770347D01*
X24002379Y-29770347D02*
X24107141Y-29822728D01*
X24107141Y-29822728D02*
X24159522Y-29927490D01*
X24159522Y-29927490D02*
X24159522Y-30503680D01*
X25992855Y-30503680D02*
X25992855Y-29927490D01*
X25992855Y-29927490D02*
X25940474Y-29822728D01*
X25940474Y-29822728D02*
X25835712Y-29770347D01*
X25835712Y-29770347D02*
X25626188Y-29770347D01*
X25626188Y-29770347D02*
X25521426Y-29822728D01*
X25992855Y-30451300D02*
X25888093Y-30503680D01*
X25888093Y-30503680D02*
X25626188Y-30503680D01*
X25626188Y-30503680D02*
X25521426Y-30451300D01*
X25521426Y-30451300D02*
X25469045Y-30346538D01*
X25469045Y-30346538D02*
X25469045Y-30241776D01*
X25469045Y-30241776D02*
X25521426Y-30137014D01*
X25521426Y-30137014D02*
X25626188Y-30084633D01*
X25626188Y-30084633D02*
X25888093Y-30084633D01*
X25888093Y-30084633D02*
X25992855Y-30032252D01*
X26988093Y-30451300D02*
X26883331Y-30503680D01*
X26883331Y-30503680D02*
X26673807Y-30503680D01*
X26673807Y-30503680D02*
X26569045Y-30451300D01*
X26569045Y-30451300D02*
X26516664Y-30398919D01*
X26516664Y-30398919D02*
X26464283Y-30294157D01*
X26464283Y-30294157D02*
X26464283Y-29979871D01*
X26464283Y-29979871D02*
X26516664Y-29875109D01*
X26516664Y-29875109D02*
X26569045Y-29822728D01*
X26569045Y-29822728D02*
X26673807Y-29770347D01*
X26673807Y-29770347D02*
X26883331Y-29770347D01*
X26883331Y-29770347D02*
X26988093Y-29822728D01*
X27930950Y-30451300D02*
X27826188Y-30503680D01*
X27826188Y-30503680D02*
X27616664Y-30503680D01*
X27616664Y-30503680D02*
X27511902Y-30451300D01*
X27511902Y-30451300D02*
X27459521Y-30398919D01*
X27459521Y-30398919D02*
X27407140Y-30294157D01*
X27407140Y-30294157D02*
X27407140Y-29979871D01*
X27407140Y-29979871D02*
X27459521Y-29875109D01*
X27459521Y-29875109D02*
X27511902Y-29822728D01*
X27511902Y-29822728D02*
X27616664Y-29770347D01*
X27616664Y-29770347D02*
X27826188Y-29770347D01*
X27826188Y-29770347D02*
X27930950Y-29822728D01*
X28821426Y-30451300D02*
X28716664Y-30503680D01*
X28716664Y-30503680D02*
X28507140Y-30503680D01*
X28507140Y-30503680D02*
X28402378Y-30451300D01*
X28402378Y-30451300D02*
X28349997Y-30346538D01*
X28349997Y-30346538D02*
X28349997Y-29927490D01*
X28349997Y-29927490D02*
X28402378Y-29822728D01*
X28402378Y-29822728D02*
X28507140Y-29770347D01*
X28507140Y-29770347D02*
X28716664Y-29770347D01*
X28716664Y-29770347D02*
X28821426Y-29822728D01*
X28821426Y-29822728D02*
X28873807Y-29927490D01*
X28873807Y-29927490D02*
X28873807Y-30032252D01*
X28873807Y-30032252D02*
X28349997Y-30137014D01*
X29292854Y-30451300D02*
X29397616Y-30503680D01*
X29397616Y-30503680D02*
X29607140Y-30503680D01*
X29607140Y-30503680D02*
X29711902Y-30451300D01*
X29711902Y-30451300D02*
X29764283Y-30346538D01*
X29764283Y-30346538D02*
X29764283Y-30294157D01*
X29764283Y-30294157D02*
X29711902Y-30189395D01*
X29711902Y-30189395D02*
X29607140Y-30137014D01*
X29607140Y-30137014D02*
X29449997Y-30137014D01*
X29449997Y-30137014D02*
X29345235Y-30084633D01*
X29345235Y-30084633D02*
X29292854Y-29979871D01*
X29292854Y-29979871D02*
X29292854Y-29927490D01*
X29292854Y-29927490D02*
X29345235Y-29822728D01*
X29345235Y-29822728D02*
X29449997Y-29770347D01*
X29449997Y-29770347D02*
X29607140Y-29770347D01*
X29607140Y-29770347D02*
X29711902Y-29822728D01*
X30183330Y-30451300D02*
X30288092Y-30503680D01*
X30288092Y-30503680D02*
X30497616Y-30503680D01*
X30497616Y-30503680D02*
X30602378Y-30451300D01*
X30602378Y-30451300D02*
X30654759Y-30346538D01*
X30654759Y-30346538D02*
X30654759Y-30294157D01*
X30654759Y-30294157D02*
X30602378Y-30189395D01*
X30602378Y-30189395D02*
X30497616Y-30137014D01*
X30497616Y-30137014D02*
X30340473Y-30137014D01*
X30340473Y-30137014D02*
X30235711Y-30084633D01*
X30235711Y-30084633D02*
X30183330Y-29979871D01*
X30183330Y-29979871D02*
X30183330Y-29927490D01*
X30183330Y-29927490D02*
X30235711Y-29822728D01*
X30235711Y-29822728D02*
X30340473Y-29770347D01*
X30340473Y-29770347D02*
X30497616Y-29770347D01*
X30497616Y-29770347D02*
X30602378Y-29822728D01*
X31126187Y-30503680D02*
X31126187Y-29770347D01*
X31126187Y-29403680D02*
X31073806Y-29456061D01*
X31073806Y-29456061D02*
X31126187Y-29508442D01*
X31126187Y-29508442D02*
X31178568Y-29456061D01*
X31178568Y-29456061D02*
X31126187Y-29403680D01*
X31126187Y-29403680D02*
X31126187Y-29508442D01*
X31649997Y-30503680D02*
X31649997Y-29403680D01*
X31649997Y-29822728D02*
X31754759Y-29770347D01*
X31754759Y-29770347D02*
X31964283Y-29770347D01*
X31964283Y-29770347D02*
X32069045Y-29822728D01*
X32069045Y-29822728D02*
X32121426Y-29875109D01*
X32121426Y-29875109D02*
X32173807Y-29979871D01*
X32173807Y-29979871D02*
X32173807Y-30294157D01*
X32173807Y-30294157D02*
X32121426Y-30398919D01*
X32121426Y-30398919D02*
X32069045Y-30451300D01*
X32069045Y-30451300D02*
X31964283Y-30503680D01*
X31964283Y-30503680D02*
X31754759Y-30503680D01*
X31754759Y-30503680D02*
X31649997Y-30451300D01*
X32802378Y-30503680D02*
X32697616Y-30451300D01*
X32697616Y-30451300D02*
X32645235Y-30346538D01*
X32645235Y-30346538D02*
X32645235Y-29403680D01*
X33640473Y-30451300D02*
X33535711Y-30503680D01*
X33535711Y-30503680D02*
X33326187Y-30503680D01*
X33326187Y-30503680D02*
X33221425Y-30451300D01*
X33221425Y-30451300D02*
X33169044Y-30346538D01*
X33169044Y-30346538D02*
X33169044Y-29927490D01*
X33169044Y-29927490D02*
X33221425Y-29822728D01*
X33221425Y-29822728D02*
X33326187Y-29770347D01*
X33326187Y-29770347D02*
X33535711Y-29770347D01*
X33535711Y-29770347D02*
X33640473Y-29822728D01*
X33640473Y-29822728D02*
X33692854Y-29927490D01*
X33692854Y-29927490D02*
X33692854Y-30032252D01*
X33692854Y-30032252D02*
X33169044Y-30137014D01*
M02*
