%TF.GenerationSoftware,KiCad,Pcbnew,10.0.5*%
%TF.CreationDate,2026-08-09T12:16:22-05:00*%
%TF.ProjectId,ds_xl_coder,64735f78-6c5f-4636-9f64-65722e6b6963,0.4.0-cont-vii*%
%TF.SameCoordinates,Original*%
%TF.FileFunction,Other,User*%
%FSLAX46Y46*%
G04 Gerber Fmt 4.6, Leading zero omitted, Abs format (unit mm)*
G04 Created by KiCad (PCBNEW 10.0.5) date 2026-08-09 12:16:22*
%MOMM*%
%LPD*%
G01*
G04 APERTURE LIST*
%ADD10C,0.050000*%
G04 APERTURE END LIST*
%TO.C,U*%
D10*
X15000000Y-15000000D02*
X21000000Y-15000000D01*
X21000000Y-21000000D01*
X15000000Y-21000000D01*
X15000000Y-15000000D01*
%TO.C,UCOM1*%
X31000000Y-15000000D02*
X37000000Y-15000000D01*
X37000000Y-21000000D01*
X31000000Y-21000000D01*
X31000000Y-15000000D01*
%TO.C,J_EDP0*%
X47000000Y-15000000D02*
X53000000Y-15000000D01*
X53000000Y-21000000D01*
X47000000Y-21000000D01*
X47000000Y-15000000D01*
%TO.C,J_EDP1*%
X63000000Y-15000000D02*
X69000000Y-15000000D01*
X69000000Y-21000000D01*
X63000000Y-21000000D01*
X63000000Y-15000000D01*
%TO.C,U_BRG*%
X79000000Y-15000000D02*
X85000000Y-15000000D01*
X85000000Y-21000000D01*
X79000000Y-21000000D01*
X79000000Y-15000000D01*
%TO.C,U_PD*%
X95000000Y-15000000D02*
X101000000Y-15000000D01*
X101000000Y-21000000D01*
X95000000Y-21000000D01*
X95000000Y-15000000D01*
%TO.C,U_CHG*%
X111000000Y-15000000D02*
X117000000Y-15000000D01*
X117000000Y-21000000D01*
X111000000Y-21000000D01*
X111000000Y-15000000D01*
%TO.C,U_WIFI*%
X127000000Y-15000000D02*
X133000000Y-15000000D01*
X133000000Y-21000000D01*
X127000000Y-21000000D01*
X127000000Y-15000000D01*
%TO.C,U_WWAN*%
X143000000Y-15000000D02*
X149000000Y-15000000D01*
X149000000Y-21000000D01*
X143000000Y-21000000D01*
X143000000Y-15000000D01*
%TO.C,U_EC*%
X159000000Y-15000000D02*
X165000000Y-15000000D01*
X165000000Y-21000000D01*
X159000000Y-21000000D01*
X159000000Y-15000000D01*
%TO.C,J_HINGE*%
X175000000Y-15000000D02*
X181000000Y-15000000D01*
X181000000Y-21000000D01*
X175000000Y-21000000D01*
X175000000Y-15000000D01*
%TD*%
M02*
