%TF.GenerationSoftware,KiCad,Pcbnew,10.0.5*%
%TF.CreationDate,2026-08-09T12:16:22-05:00*%
%TF.ProjectId,ds_xl_coder,64735f78-6c5f-4636-9f64-65722e6b6963,0.4.0-cont-vii*%
%TF.SameCoordinates,Original*%
%TF.FileFunction,Legend,Top*%
%TF.FilePolarity,Positive*%
%FSLAX46Y46*%
G04 Gerber Fmt 4.6, Leading zero omitted, Abs format (unit mm)*
G04 Created by KiCad (PCBNEW 10.0.5) date 2026-08-09 12:16:22*
%MOMM*%
%LPD*%
G01*
G04 APERTURE LIST*
%ADD10C,0.120000*%
G04 APERTURE END LIST*
%TO.C,U*%
D10*
X15500000Y-15500000D02*
X20500000Y-15500000D01*
X20500000Y-20500000D01*
X15500000Y-20500000D01*
X15500000Y-15500000D01*
%TO.C,UCOM1*%
X31500000Y-15500000D02*
X36500000Y-15500000D01*
X36500000Y-20500000D01*
X31500000Y-20500000D01*
X31500000Y-15500000D01*
%TO.C,J_EDP0*%
X47500000Y-15500000D02*
X52500000Y-15500000D01*
X52500000Y-20500000D01*
X47500000Y-20500000D01*
X47500000Y-15500000D01*
%TO.C,J_EDP1*%
X63500000Y-15500000D02*
X68500000Y-15500000D01*
X68500000Y-20500000D01*
X63500000Y-20500000D01*
X63500000Y-15500000D01*
%TO.C,U_BRG*%
X79500000Y-15500000D02*
X84500000Y-15500000D01*
X84500000Y-20500000D01*
X79500000Y-20500000D01*
X79500000Y-15500000D01*
%TO.C,U_PD*%
X95500000Y-15500000D02*
X100500000Y-15500000D01*
X100500000Y-20500000D01*
X95500000Y-20500000D01*
X95500000Y-15500000D01*
%TO.C,U_CHG*%
X111500000Y-15500000D02*
X116500000Y-15500000D01*
X116500000Y-20500000D01*
X111500000Y-20500000D01*
X111500000Y-15500000D01*
%TO.C,U_WIFI*%
X127500000Y-15500000D02*
X132500000Y-15500000D01*
X132500000Y-20500000D01*
X127500000Y-20500000D01*
X127500000Y-15500000D01*
%TO.C,U_WWAN*%
X143500000Y-15500000D02*
X148500000Y-15500000D01*
X148500000Y-20500000D01*
X143500000Y-20500000D01*
X143500000Y-15500000D01*
%TO.C,U_EC*%
X159500000Y-15500000D02*
X164500000Y-15500000D01*
X164500000Y-20500000D01*
X159500000Y-20500000D01*
X159500000Y-15500000D01*
%TO.C,J_HINGE*%
X175500000Y-15500000D02*
X180500000Y-15500000D01*
X180500000Y-20500000D01*
X175500000Y-20500000D01*
X175500000Y-15500000D01*
%TD*%
M02*
