%TF.GenerationSoftware,KiCad,Pcbnew,10.0.5*%
%TF.CreationDate,2026-08-09T14:46:49-05:00*%
%TF.ProjectId,edge_io_rings,65646765-5f69-46f5-9f72-696e67732e6b,0.5.0-cont-viii*%
%TF.SameCoordinates,Original*%
%TF.FileFunction,OtherDrawing,Comment*%
%FSLAX46Y46*%
G04 Gerber Fmt 4.6, Leading zero omitted, Abs format (unit mm)*
G04 Created by KiCad (PCBNEW 10.0.5) date 2026-08-09 14:46:49*
%MOMM*%
%LPD*%
G01*
G04 APERTURE LIST*
%ADD10C,0.100000*%
G04 APERTURE END LIST*
D10*
X-16547620Y-18409800D02*
X-16404763Y-18457419D01*
X-16404763Y-18457419D02*
X-16166668Y-18457419D01*
X-16166668Y-18457419D02*
X-16071430Y-18409800D01*
X-16071430Y-18409800D02*
X-16023811Y-18362180D01*
X-16023811Y-18362180D02*
X-15976192Y-18266942D01*
X-15976192Y-18266942D02*
X-15976192Y-18171704D01*
X-15976192Y-18171704D02*
X-16023811Y-18076466D01*
X-16023811Y-18076466D02*
X-16071430Y-18028847D01*
X-16071430Y-18028847D02*
X-16166668Y-17981228D01*
X-16166668Y-17981228D02*
X-16357144Y-17933609D01*
X-16357144Y-17933609D02*
X-16452382Y-17885990D01*
X-16452382Y-17885990D02*
X-16500001Y-17838371D01*
X-16500001Y-17838371D02*
X-16547620Y-17743133D01*
X-16547620Y-17743133D02*
X-16547620Y-17647895D01*
X-16547620Y-17647895D02*
X-16500001Y-17552657D01*
X-16500001Y-17552657D02*
X-16452382Y-17505038D01*
X-16452382Y-17505038D02*
X-16357144Y-17457419D01*
X-16357144Y-17457419D02*
X-16119049Y-17457419D01*
X-16119049Y-17457419D02*
X-15976192Y-17505038D01*
X-15547620Y-18457419D02*
X-15547620Y-17457419D01*
X-15071430Y-18362180D02*
X-15023811Y-18409800D01*
X-15023811Y-18409800D02*
X-15071430Y-18457419D01*
X-15071430Y-18457419D02*
X-15119049Y-18409800D01*
X-15119049Y-18409800D02*
X-15071430Y-18362180D01*
X-15071430Y-18362180D02*
X-15071430Y-18457419D01*
X-15071430Y-17838371D02*
X-15023811Y-17885990D01*
X-15023811Y-17885990D02*
X-15071430Y-17933609D01*
X-15071430Y-17933609D02*
X-15119049Y-17885990D01*
X-15119049Y-17885990D02*
X-15071430Y-17838371D01*
X-15071430Y-17838371D02*
X-15071430Y-17933609D01*
X-13833335Y-17457419D02*
X-13833335Y-18266942D01*
X-13833335Y-18266942D02*
X-13785716Y-18362180D01*
X-13785716Y-18362180D02*
X-13738097Y-18409800D01*
X-13738097Y-18409800D02*
X-13642859Y-18457419D01*
X-13642859Y-18457419D02*
X-13452383Y-18457419D01*
X-13452383Y-18457419D02*
X-13357145Y-18409800D01*
X-13357145Y-18409800D02*
X-13309526Y-18362180D01*
X-13309526Y-18362180D02*
X-13261907Y-18266942D01*
X-13261907Y-18266942D02*
X-13261907Y-17457419D01*
X-12833335Y-18409800D02*
X-12690478Y-18457419D01*
X-12690478Y-18457419D02*
X-12452383Y-18457419D01*
X-12452383Y-18457419D02*
X-12357145Y-18409800D01*
X-12357145Y-18409800D02*
X-12309526Y-18362180D01*
X-12309526Y-18362180D02*
X-12261907Y-18266942D01*
X-12261907Y-18266942D02*
X-12261907Y-18171704D01*
X-12261907Y-18171704D02*
X-12309526Y-18076466D01*
X-12309526Y-18076466D02*
X-12357145Y-18028847D01*
X-12357145Y-18028847D02*
X-12452383Y-17981228D01*
X-12452383Y-17981228D02*
X-12642859Y-17933609D01*
X-12642859Y-17933609D02*
X-12738097Y-17885990D01*
X-12738097Y-17885990D02*
X-12785716Y-17838371D01*
X-12785716Y-17838371D02*
X-12833335Y-17743133D01*
X-12833335Y-17743133D02*
X-12833335Y-17647895D01*
X-12833335Y-17647895D02*
X-12785716Y-17552657D01*
X-12785716Y-17552657D02*
X-12738097Y-17505038D01*
X-12738097Y-17505038D02*
X-12642859Y-17457419D01*
X-12642859Y-17457419D02*
X-12404764Y-17457419D01*
X-12404764Y-17457419D02*
X-12261907Y-17505038D01*
X-11500002Y-17933609D02*
X-11357145Y-17981228D01*
X-11357145Y-17981228D02*
X-11309526Y-18028847D01*
X-11309526Y-18028847D02*
X-11261907Y-18124085D01*
X-11261907Y-18124085D02*
X-11261907Y-18266942D01*
X-11261907Y-18266942D02*
X-11309526Y-18362180D01*
X-11309526Y-18362180D02*
X-11357145Y-18409800D01*
X-11357145Y-18409800D02*
X-11452383Y-18457419D01*
X-11452383Y-18457419D02*
X-11833335Y-18457419D01*
X-11833335Y-18457419D02*
X-11833335Y-17457419D01*
X-11833335Y-17457419D02*
X-11500002Y-17457419D01*
X-11500002Y-17457419D02*
X-11404764Y-17505038D01*
X-11404764Y-17505038D02*
X-11357145Y-17552657D01*
X-11357145Y-17552657D02*
X-11309526Y-17647895D01*
X-11309526Y-17647895D02*
X-11309526Y-17743133D01*
X-11309526Y-17743133D02*
X-11357145Y-17838371D01*
X-11357145Y-17838371D02*
X-11404764Y-17885990D01*
X-11404764Y-17885990D02*
X-11500002Y-17933609D01*
X-11500002Y-17933609D02*
X-11833335Y-17933609D01*
X-10880954Y-17552657D02*
X-10833335Y-17505038D01*
X-10833335Y-17505038D02*
X-10738097Y-17457419D01*
X-10738097Y-17457419D02*
X-10500002Y-17457419D01*
X-10500002Y-17457419D02*
X-10404764Y-17505038D01*
X-10404764Y-17505038D02*
X-10357145Y-17552657D01*
X-10357145Y-17552657D02*
X-10309526Y-17647895D01*
X-10309526Y-17647895D02*
X-10309526Y-17743133D01*
X-10309526Y-17743133D02*
X-10357145Y-17885990D01*
X-10357145Y-17885990D02*
X-10928573Y-18457419D01*
X-10928573Y-18457419D02*
X-10309526Y-18457419D01*
X-9071430Y-18457419D02*
X-8880954Y-18457419D01*
X-8880954Y-18457419D02*
X-8785716Y-18409800D01*
X-8785716Y-18409800D02*
X-8738097Y-18362180D01*
X-8738097Y-18362180D02*
X-8642859Y-18219323D01*
X-8642859Y-18219323D02*
X-8595240Y-18028847D01*
X-8595240Y-18028847D02*
X-8595240Y-17647895D01*
X-8595240Y-17647895D02*
X-8642859Y-17552657D01*
X-8642859Y-17552657D02*
X-8690478Y-17505038D01*
X-8690478Y-17505038D02*
X-8785716Y-17457419D01*
X-8785716Y-17457419D02*
X-8976192Y-17457419D01*
X-8976192Y-17457419D02*
X-9071430Y-17505038D01*
X-9071430Y-17505038D02*
X-9119049Y-17552657D01*
X-9119049Y-17552657D02*
X-9166668Y-17647895D01*
X-9166668Y-17647895D02*
X-9166668Y-17885990D01*
X-9166668Y-17885990D02*
X-9119049Y-17981228D01*
X-9119049Y-17981228D02*
X-9071430Y-18028847D01*
X-9071430Y-18028847D02*
X-8976192Y-18076466D01*
X-8976192Y-18076466D02*
X-8785716Y-18076466D01*
X-8785716Y-18076466D02*
X-8690478Y-18028847D01*
X-8690478Y-18028847D02*
X-8642859Y-17981228D01*
X-8642859Y-17981228D02*
X-8595240Y-17885990D01*
X-7976192Y-17457419D02*
X-7880954Y-17457419D01*
X-7880954Y-17457419D02*
X-7785716Y-17505038D01*
X-7785716Y-17505038D02*
X-7738097Y-17552657D01*
X-7738097Y-17552657D02*
X-7690478Y-17647895D01*
X-7690478Y-17647895D02*
X-7642859Y-17838371D01*
X-7642859Y-17838371D02*
X-7642859Y-18076466D01*
X-7642859Y-18076466D02*
X-7690478Y-18266942D01*
X-7690478Y-18266942D02*
X-7738097Y-18362180D01*
X-7738097Y-18362180D02*
X-7785716Y-18409800D01*
X-7785716Y-18409800D02*
X-7880954Y-18457419D01*
X-7880954Y-18457419D02*
X-7976192Y-18457419D01*
X-7976192Y-18457419D02*
X-8071430Y-18409800D01*
X-8071430Y-18409800D02*
X-8119049Y-18362180D01*
X-8119049Y-18362180D02*
X-8166668Y-18266942D01*
X-8166668Y-18266942D02*
X-8214287Y-18076466D01*
X-8214287Y-18076466D02*
X-8214287Y-17838371D01*
X-8214287Y-17838371D02*
X-8166668Y-17647895D01*
X-8166668Y-17647895D02*
X-8119049Y-17552657D01*
X-8119049Y-17552657D02*
X-8071430Y-17505038D01*
X-8071430Y-17505038D02*
X-7976192Y-17457419D01*
X-6642859Y-18457419D02*
X-6976192Y-17981228D01*
X-7214287Y-18457419D02*
X-7214287Y-17457419D01*
X-7214287Y-17457419D02*
X-6833335Y-17457419D01*
X-6833335Y-17457419D02*
X-6738097Y-17505038D01*
X-6738097Y-17505038D02*
X-6690478Y-17552657D01*
X-6690478Y-17552657D02*
X-6642859Y-17647895D01*
X-6642859Y-17647895D02*
X-6642859Y-17790752D01*
X-6642859Y-17790752D02*
X-6690478Y-17885990D01*
X-6690478Y-17885990D02*
X-6738097Y-17933609D01*
X-6738097Y-17933609D02*
X-6833335Y-17981228D01*
X-6833335Y-17981228D02*
X-7214287Y-17981228D01*
X-5452382Y-17457419D02*
X-5452382Y-18266942D01*
X-5452382Y-18266942D02*
X-5404763Y-18362180D01*
X-5404763Y-18362180D02*
X-5357144Y-18409800D01*
X-5357144Y-18409800D02*
X-5261906Y-18457419D01*
X-5261906Y-18457419D02*
X-5071430Y-18457419D01*
X-5071430Y-18457419D02*
X-4976192Y-18409800D01*
X-4976192Y-18409800D02*
X-4928573Y-18362180D01*
X-4928573Y-18362180D02*
X-4880954Y-18266942D01*
X-4880954Y-18266942D02*
X-4880954Y-17457419D01*
X-4452382Y-18409800D02*
X-4309525Y-18457419D01*
X-4309525Y-18457419D02*
X-4071430Y-18457419D01*
X-4071430Y-18457419D02*
X-3976192Y-18409800D01*
X-3976192Y-18409800D02*
X-3928573Y-18362180D01*
X-3928573Y-18362180D02*
X-3880954Y-18266942D01*
X-3880954Y-18266942D02*
X-3880954Y-18171704D01*
X-3880954Y-18171704D02*
X-3928573Y-18076466D01*
X-3928573Y-18076466D02*
X-3976192Y-18028847D01*
X-3976192Y-18028847D02*
X-4071430Y-17981228D01*
X-4071430Y-17981228D02*
X-4261906Y-17933609D01*
X-4261906Y-17933609D02*
X-4357144Y-17885990D01*
X-4357144Y-17885990D02*
X-4404763Y-17838371D01*
X-4404763Y-17838371D02*
X-4452382Y-17743133D01*
X-4452382Y-17743133D02*
X-4452382Y-17647895D01*
X-4452382Y-17647895D02*
X-4404763Y-17552657D01*
X-4404763Y-17552657D02*
X-4357144Y-17505038D01*
X-4357144Y-17505038D02*
X-4261906Y-17457419D01*
X-4261906Y-17457419D02*
X-4023811Y-17457419D01*
X-4023811Y-17457419D02*
X-3880954Y-17505038D01*
X-3119049Y-17933609D02*
X-2976192Y-17981228D01*
X-2976192Y-17981228D02*
X-2928573Y-18028847D01*
X-2928573Y-18028847D02*
X-2880954Y-18124085D01*
X-2880954Y-18124085D02*
X-2880954Y-18266942D01*
X-2880954Y-18266942D02*
X-2928573Y-18362180D01*
X-2928573Y-18362180D02*
X-2976192Y-18409800D01*
X-2976192Y-18409800D02*
X-3071430Y-18457419D01*
X-3071430Y-18457419D02*
X-3452382Y-18457419D01*
X-3452382Y-18457419D02*
X-3452382Y-17457419D01*
X-3452382Y-17457419D02*
X-3119049Y-17457419D01*
X-3119049Y-17457419D02*
X-3023811Y-17505038D01*
X-3023811Y-17505038D02*
X-2976192Y-17552657D01*
X-2976192Y-17552657D02*
X-2928573Y-17647895D01*
X-2928573Y-17647895D02*
X-2928573Y-17743133D01*
X-2928573Y-17743133D02*
X-2976192Y-17838371D01*
X-2976192Y-17838371D02*
X-3023811Y-17885990D01*
X-3023811Y-17885990D02*
X-3119049Y-17933609D01*
X-3119049Y-17933609D02*
X-3452382Y-17933609D01*
X-2547620Y-17457419D02*
X-1928573Y-17457419D01*
X-1928573Y-17457419D02*
X-2261906Y-17838371D01*
X-2261906Y-17838371D02*
X-2119049Y-17838371D01*
X-2119049Y-17838371D02*
X-2023811Y-17885990D01*
X-2023811Y-17885990D02*
X-1976192Y-17933609D01*
X-1976192Y-17933609D02*
X-1928573Y-18028847D01*
X-1928573Y-18028847D02*
X-1928573Y-18266942D01*
X-1928573Y-18266942D02*
X-1976192Y-18362180D01*
X-1976192Y-18362180D02*
X-2023811Y-18409800D01*
X-2023811Y-18409800D02*
X-2119049Y-18457419D01*
X-2119049Y-18457419D02*
X-2404763Y-18457419D01*
X-2404763Y-18457419D02*
X-2500001Y-18409800D01*
X-2500001Y-18409800D02*
X-2547620Y-18362180D01*
X-785716Y-17409800D02*
X-1642858Y-18695514D01*
X-23811Y-17790752D02*
X-23811Y-18457419D01*
X-261906Y-17409800D02*
X-500001Y-18124085D01*
X-500001Y-18124085D02*
X119045Y-18124085D01*
X1404760Y-17885990D02*
X1309522Y-17838371D01*
X1309522Y-17838371D02*
X1261903Y-17790752D01*
X1261903Y-17790752D02*
X1214284Y-17695514D01*
X1214284Y-17695514D02*
X1214284Y-17647895D01*
X1214284Y-17647895D02*
X1261903Y-17552657D01*
X1261903Y-17552657D02*
X1309522Y-17505038D01*
X1309522Y-17505038D02*
X1404760Y-17457419D01*
X1404760Y-17457419D02*
X1595236Y-17457419D01*
X1595236Y-17457419D02*
X1690474Y-17505038D01*
X1690474Y-17505038D02*
X1738093Y-17552657D01*
X1738093Y-17552657D02*
X1785712Y-17647895D01*
X1785712Y-17647895D02*
X1785712Y-17695514D01*
X1785712Y-17695514D02*
X1738093Y-17790752D01*
X1738093Y-17790752D02*
X1690474Y-17838371D01*
X1690474Y-17838371D02*
X1595236Y-17885990D01*
X1595236Y-17885990D02*
X1404760Y-17885990D01*
X1404760Y-17885990D02*
X1309522Y-17933609D01*
X1309522Y-17933609D02*
X1261903Y-17981228D01*
X1261903Y-17981228D02*
X1214284Y-18076466D01*
X1214284Y-18076466D02*
X1214284Y-18266942D01*
X1214284Y-18266942D02*
X1261903Y-18362180D01*
X1261903Y-18362180D02*
X1309522Y-18409800D01*
X1309522Y-18409800D02*
X1404760Y-18457419D01*
X1404760Y-18457419D02*
X1595236Y-18457419D01*
X1595236Y-18457419D02*
X1690474Y-18409800D01*
X1690474Y-18409800D02*
X1738093Y-18362180D01*
X1738093Y-18362180D02*
X1785712Y-18266942D01*
X1785712Y-18266942D02*
X1785712Y-18076466D01*
X1785712Y-18076466D02*
X1738093Y-17981228D01*
X1738093Y-17981228D02*
X1690474Y-17933609D01*
X1690474Y-17933609D02*
X1595236Y-17885990D01*
X2690474Y-17457419D02*
X2214284Y-17457419D01*
X2214284Y-17457419D02*
X2166665Y-17933609D01*
X2166665Y-17933609D02*
X2214284Y-17885990D01*
X2214284Y-17885990D02*
X2309522Y-17838371D01*
X2309522Y-17838371D02*
X2547617Y-17838371D01*
X2547617Y-17838371D02*
X2642855Y-17885990D01*
X2642855Y-17885990D02*
X2690474Y-17933609D01*
X2690474Y-17933609D02*
X2738093Y-18028847D01*
X2738093Y-18028847D02*
X2738093Y-18266942D01*
X2738093Y-18266942D02*
X2690474Y-18362180D01*
X2690474Y-18362180D02*
X2642855Y-18409800D01*
X2642855Y-18409800D02*
X2547617Y-18457419D01*
X2547617Y-18457419D02*
X2309522Y-18457419D01*
X2309522Y-18457419D02*
X2214284Y-18409800D01*
X2214284Y-18409800D02*
X2166665Y-18362180D01*
X3166665Y-18076466D02*
X3928570Y-18076466D01*
X4452379Y-18457419D02*
X4642855Y-18457419D01*
X4642855Y-18457419D02*
X4738093Y-18409800D01*
X4738093Y-18409800D02*
X4785712Y-18362180D01*
X4785712Y-18362180D02*
X4880950Y-18219323D01*
X4880950Y-18219323D02*
X4928569Y-18028847D01*
X4928569Y-18028847D02*
X4928569Y-17647895D01*
X4928569Y-17647895D02*
X4880950Y-17552657D01*
X4880950Y-17552657D02*
X4833331Y-17505038D01*
X4833331Y-17505038D02*
X4738093Y-17457419D01*
X4738093Y-17457419D02*
X4547617Y-17457419D01*
X4547617Y-17457419D02*
X4452379Y-17505038D01*
X4452379Y-17505038D02*
X4404760Y-17552657D01*
X4404760Y-17552657D02*
X4357141Y-17647895D01*
X4357141Y-17647895D02*
X4357141Y-17885990D01*
X4357141Y-17885990D02*
X4404760Y-17981228D01*
X4404760Y-17981228D02*
X4452379Y-18028847D01*
X4452379Y-18028847D02*
X4547617Y-18076466D01*
X4547617Y-18076466D02*
X4738093Y-18076466D01*
X4738093Y-18076466D02*
X4833331Y-18028847D01*
X4833331Y-18028847D02*
X4880950Y-17981228D01*
X4880950Y-17981228D02*
X4928569Y-17885990D01*
X5547617Y-17457419D02*
X5642855Y-17457419D01*
X5642855Y-17457419D02*
X5738093Y-17505038D01*
X5738093Y-17505038D02*
X5785712Y-17552657D01*
X5785712Y-17552657D02*
X5833331Y-17647895D01*
X5833331Y-17647895D02*
X5880950Y-17838371D01*
X5880950Y-17838371D02*
X5880950Y-18076466D01*
X5880950Y-18076466D02*
X5833331Y-18266942D01*
X5833331Y-18266942D02*
X5785712Y-18362180D01*
X5785712Y-18362180D02*
X5738093Y-18409800D01*
X5738093Y-18409800D02*
X5642855Y-18457419D01*
X5642855Y-18457419D02*
X5547617Y-18457419D01*
X5547617Y-18457419D02*
X5452379Y-18409800D01*
X5452379Y-18409800D02*
X5404760Y-18362180D01*
X5404760Y-18362180D02*
X5357141Y-18266942D01*
X5357141Y-18266942D02*
X5309522Y-18076466D01*
X5309522Y-18076466D02*
X5309522Y-17838371D01*
X5309522Y-17838371D02*
X5357141Y-17647895D01*
X5357141Y-17647895D02*
X5404760Y-17552657D01*
X5404760Y-17552657D02*
X5452379Y-17505038D01*
X5452379Y-17505038D02*
X5547617Y-17457419D01*
X6880950Y-18457419D02*
X6547617Y-17981228D01*
X6309522Y-18457419D02*
X6309522Y-17457419D01*
X6309522Y-17457419D02*
X6690474Y-17457419D01*
X6690474Y-17457419D02*
X6785712Y-17505038D01*
X6785712Y-17505038D02*
X6833331Y-17552657D01*
X6833331Y-17552657D02*
X6880950Y-17647895D01*
X6880950Y-17647895D02*
X6880950Y-17790752D01*
X6880950Y-17790752D02*
X6833331Y-17885990D01*
X6833331Y-17885990D02*
X6785712Y-17933609D01*
X6785712Y-17933609D02*
X6690474Y-17981228D01*
X6690474Y-17981228D02*
X6309522Y-17981228D01*
X8452379Y-18409800D02*
X8357141Y-18457419D01*
X8357141Y-18457419D02*
X8166665Y-18457419D01*
X8166665Y-18457419D02*
X8071427Y-18409800D01*
X8071427Y-18409800D02*
X8023808Y-18314561D01*
X8023808Y-18314561D02*
X8023808Y-17933609D01*
X8023808Y-17933609D02*
X8071427Y-17838371D01*
X8071427Y-17838371D02*
X8166665Y-17790752D01*
X8166665Y-17790752D02*
X8357141Y-17790752D01*
X8357141Y-17790752D02*
X8452379Y-17838371D01*
X8452379Y-17838371D02*
X8499998Y-17933609D01*
X8499998Y-17933609D02*
X8499998Y-18028847D01*
X8499998Y-18028847D02*
X8023808Y-18124085D01*
X8928570Y-18457419D02*
X8928570Y-17457419D01*
X8928570Y-17457419D02*
X9166665Y-17457419D01*
X9166665Y-17457419D02*
X9309522Y-17505038D01*
X9309522Y-17505038D02*
X9404760Y-17600276D01*
X9404760Y-17600276D02*
X9452379Y-17695514D01*
X9452379Y-17695514D02*
X9499998Y-17885990D01*
X9499998Y-17885990D02*
X9499998Y-18028847D01*
X9499998Y-18028847D02*
X9452379Y-18219323D01*
X9452379Y-18219323D02*
X9404760Y-18314561D01*
X9404760Y-18314561D02*
X9309522Y-18409800D01*
X9309522Y-18409800D02*
X9166665Y-18457419D01*
X9166665Y-18457419D02*
X8928570Y-18457419D01*
X9928570Y-18457419D02*
X9928570Y-17457419D01*
X9928570Y-17457419D02*
X10309522Y-17457419D01*
X10309522Y-17457419D02*
X10404760Y-17505038D01*
X10404760Y-17505038D02*
X10452379Y-17552657D01*
X10452379Y-17552657D02*
X10499998Y-17647895D01*
X10499998Y-17647895D02*
X10499998Y-17790752D01*
X10499998Y-17790752D02*
X10452379Y-17885990D01*
X10452379Y-17885990D02*
X10404760Y-17933609D01*
X10404760Y-17933609D02*
X10309522Y-17981228D01*
X10309522Y-17981228D02*
X9928570Y-17981228D01*
X12214284Y-18457419D02*
X11642856Y-18457419D01*
X11928570Y-18457419D02*
X11928570Y-17457419D01*
X11928570Y-17457419D02*
X11833332Y-17600276D01*
X11833332Y-17600276D02*
X11738094Y-17695514D01*
X11738094Y-17695514D02*
X11642856Y-17743133D01*
X12833332Y-17457419D02*
X12928570Y-17457419D01*
X12928570Y-17457419D02*
X13023808Y-17505038D01*
X13023808Y-17505038D02*
X13071427Y-17552657D01*
X13071427Y-17552657D02*
X13119046Y-17647895D01*
X13119046Y-17647895D02*
X13166665Y-17838371D01*
X13166665Y-17838371D02*
X13166665Y-18076466D01*
X13166665Y-18076466D02*
X13119046Y-18266942D01*
X13119046Y-18266942D02*
X13071427Y-18362180D01*
X13071427Y-18362180D02*
X13023808Y-18409800D01*
X13023808Y-18409800D02*
X12928570Y-18457419D01*
X12928570Y-18457419D02*
X12833332Y-18457419D01*
X12833332Y-18457419D02*
X12738094Y-18409800D01*
X12738094Y-18409800D02*
X12690475Y-18362180D01*
X12690475Y-18362180D02*
X12642856Y-18266942D01*
X12642856Y-18266942D02*
X12595237Y-18076466D01*
X12595237Y-18076466D02*
X12595237Y-17838371D01*
X12595237Y-17838371D02*
X12642856Y-17647895D01*
X12642856Y-17647895D02*
X12690475Y-17552657D01*
X12690475Y-17552657D02*
X12738094Y-17505038D01*
X12738094Y-17505038D02*
X12833332Y-17457419D01*
X13785713Y-17457419D02*
X13880951Y-17457419D01*
X13880951Y-17457419D02*
X13976189Y-17505038D01*
X13976189Y-17505038D02*
X14023808Y-17552657D01*
X14023808Y-17552657D02*
X14071427Y-17647895D01*
X14071427Y-17647895D02*
X14119046Y-17838371D01*
X14119046Y-17838371D02*
X14119046Y-18076466D01*
X14119046Y-18076466D02*
X14071427Y-18266942D01*
X14071427Y-18266942D02*
X14023808Y-18362180D01*
X14023808Y-18362180D02*
X13976189Y-18409800D01*
X13976189Y-18409800D02*
X13880951Y-18457419D01*
X13880951Y-18457419D02*
X13785713Y-18457419D01*
X13785713Y-18457419D02*
X13690475Y-18409800D01*
X13690475Y-18409800D02*
X13642856Y-18362180D01*
X13642856Y-18362180D02*
X13595237Y-18266942D01*
X13595237Y-18266942D02*
X13547618Y-18076466D01*
X13547618Y-18076466D02*
X13547618Y-17838371D01*
X13547618Y-17838371D02*
X13595237Y-17647895D01*
X13595237Y-17647895D02*
X13642856Y-17552657D01*
X13642856Y-17552657D02*
X13690475Y-17505038D01*
X13690475Y-17505038D02*
X13785713Y-17457419D01*
X15119046Y-18457419D02*
X14785713Y-17981228D01*
X14547618Y-18457419D02*
X14547618Y-17457419D01*
X14547618Y-17457419D02*
X14928570Y-17457419D01*
X14928570Y-17457419D02*
X15023808Y-17505038D01*
X15023808Y-17505038D02*
X15071427Y-17552657D01*
X15071427Y-17552657D02*
X15119046Y-17647895D01*
X15119046Y-17647895D02*
X15119046Y-17790752D01*
X15119046Y-17790752D02*
X15071427Y-17885990D01*
X15071427Y-17885990D02*
X15023808Y-17933609D01*
X15023808Y-17933609D02*
X14928570Y-17981228D01*
X14928570Y-17981228D02*
X14547618Y-17981228D01*
X16261904Y-18409800D02*
X16357142Y-18457419D01*
X16357142Y-18457419D02*
X16547618Y-18457419D01*
X16547618Y-18457419D02*
X16642856Y-18409800D01*
X16642856Y-18409800D02*
X16690475Y-18314561D01*
X16690475Y-18314561D02*
X16690475Y-18266942D01*
X16690475Y-18266942D02*
X16642856Y-18171704D01*
X16642856Y-18171704D02*
X16547618Y-18124085D01*
X16547618Y-18124085D02*
X16404761Y-18124085D01*
X16404761Y-18124085D02*
X16309523Y-18076466D01*
X16309523Y-18076466D02*
X16261904Y-17981228D01*
X16261904Y-17981228D02*
X16261904Y-17933609D01*
X16261904Y-17933609D02*
X16309523Y-17838371D01*
X16309523Y-17838371D02*
X16404761Y-17790752D01*
X16404761Y-17790752D02*
X16547618Y-17790752D01*
X16547618Y-17790752D02*
X16642856Y-17838371D01*
X17119047Y-18457419D02*
X17119047Y-17457419D01*
X17214285Y-18076466D02*
X17499999Y-18457419D01*
X17499999Y-17790752D02*
X17119047Y-18171704D01*
X18309523Y-18409800D02*
X18214285Y-18457419D01*
X18214285Y-18457419D02*
X18023809Y-18457419D01*
X18023809Y-18457419D02*
X17928571Y-18409800D01*
X17928571Y-18409800D02*
X17880952Y-18314561D01*
X17880952Y-18314561D02*
X17880952Y-17933609D01*
X17880952Y-17933609D02*
X17928571Y-17838371D01*
X17928571Y-17838371D02*
X18023809Y-17790752D01*
X18023809Y-17790752D02*
X18214285Y-17790752D01*
X18214285Y-17790752D02*
X18309523Y-17838371D01*
X18309523Y-17838371D02*
X18357142Y-17933609D01*
X18357142Y-17933609D02*
X18357142Y-18028847D01*
X18357142Y-18028847D02*
X17880952Y-18124085D01*
X18690476Y-17790752D02*
X18880952Y-18457419D01*
X18880952Y-18457419D02*
X19071428Y-17981228D01*
X19071428Y-17981228D02*
X19261904Y-18457419D01*
X19261904Y-18457419D02*
X19452380Y-17790752D01*
X20595238Y-17790752D02*
X19833333Y-18076466D01*
X19833333Y-18076466D02*
X20595238Y-18362180D01*
X21071428Y-17933609D02*
X21833333Y-17933609D01*
X21833333Y-18219323D02*
X21071428Y-18219323D01*
X22785713Y-17457419D02*
X22309523Y-17457419D01*
X22309523Y-17457419D02*
X22261904Y-17933609D01*
X22261904Y-17933609D02*
X22309523Y-17885990D01*
X22309523Y-17885990D02*
X22404761Y-17838371D01*
X22404761Y-17838371D02*
X22642856Y-17838371D01*
X22642856Y-17838371D02*
X22738094Y-17885990D01*
X22738094Y-17885990D02*
X22785713Y-17933609D01*
X22785713Y-17933609D02*
X22833332Y-18028847D01*
X22833332Y-18028847D02*
X22833332Y-18266942D01*
X22833332Y-18266942D02*
X22785713Y-18362180D01*
X22785713Y-18362180D02*
X22738094Y-18409800D01*
X22738094Y-18409800D02*
X22642856Y-18457419D01*
X22642856Y-18457419D02*
X22404761Y-18457419D01*
X22404761Y-18457419D02*
X22309523Y-18409800D01*
X22309523Y-18409800D02*
X22261904Y-18362180D01*
X23261904Y-18457419D02*
X23261904Y-17790752D01*
X23261904Y-17885990D02*
X23309523Y-17838371D01*
X23309523Y-17838371D02*
X23404761Y-17790752D01*
X23404761Y-17790752D02*
X23547618Y-17790752D01*
X23547618Y-17790752D02*
X23642856Y-17838371D01*
X23642856Y-17838371D02*
X23690475Y-17933609D01*
X23690475Y-17933609D02*
X23690475Y-18457419D01*
X23690475Y-17933609D02*
X23738094Y-17838371D01*
X23738094Y-17838371D02*
X23833332Y-17790752D01*
X23833332Y-17790752D02*
X23976189Y-17790752D01*
X23976189Y-17790752D02*
X24071428Y-17838371D01*
X24071428Y-17838371D02*
X24119047Y-17933609D01*
X24119047Y-17933609D02*
X24119047Y-18457419D01*
X24595237Y-18457419D02*
X24595237Y-17790752D01*
X24595237Y-17457419D02*
X24547618Y-17505038D01*
X24547618Y-17505038D02*
X24595237Y-17552657D01*
X24595237Y-17552657D02*
X24642856Y-17505038D01*
X24642856Y-17505038D02*
X24595237Y-17457419D01*
X24595237Y-17457419D02*
X24595237Y-17552657D01*
X25214284Y-18457419D02*
X25119046Y-18409800D01*
X25119046Y-18409800D02*
X25071427Y-18314561D01*
X25071427Y-18314561D02*
X25071427Y-17457419D01*
X26261904Y-18124085D02*
X27119047Y-18124085D01*
X28690475Y-18457419D02*
X28690475Y-17457419D01*
X28690475Y-18409800D02*
X28595237Y-18457419D01*
X28595237Y-18457419D02*
X28404761Y-18457419D01*
X28404761Y-18457419D02*
X28309523Y-18409800D01*
X28309523Y-18409800D02*
X28261904Y-18362180D01*
X28261904Y-18362180D02*
X28214285Y-18266942D01*
X28214285Y-18266942D02*
X28214285Y-17981228D01*
X28214285Y-17981228D02*
X28261904Y-17885990D01*
X28261904Y-17885990D02*
X28309523Y-17838371D01*
X28309523Y-17838371D02*
X28404761Y-17790752D01*
X28404761Y-17790752D02*
X28595237Y-17790752D01*
X28595237Y-17790752D02*
X28690475Y-17838371D01*
X29547618Y-18409800D02*
X29452380Y-18457419D01*
X29452380Y-18457419D02*
X29261904Y-18457419D01*
X29261904Y-18457419D02*
X29166666Y-18409800D01*
X29166666Y-18409800D02*
X29119047Y-18314561D01*
X29119047Y-18314561D02*
X29119047Y-17933609D01*
X29119047Y-17933609D02*
X29166666Y-17838371D01*
X29166666Y-17838371D02*
X29261904Y-17790752D01*
X29261904Y-17790752D02*
X29452380Y-17790752D01*
X29452380Y-17790752D02*
X29547618Y-17838371D01*
X29547618Y-17838371D02*
X29595237Y-17933609D01*
X29595237Y-17933609D02*
X29595237Y-18028847D01*
X29595237Y-18028847D02*
X29119047Y-18124085D01*
X29976190Y-18409800D02*
X30071428Y-18457419D01*
X30071428Y-18457419D02*
X30261904Y-18457419D01*
X30261904Y-18457419D02*
X30357142Y-18409800D01*
X30357142Y-18409800D02*
X30404761Y-18314561D01*
X30404761Y-18314561D02*
X30404761Y-18266942D01*
X30404761Y-18266942D02*
X30357142Y-18171704D01*
X30357142Y-18171704D02*
X30261904Y-18124085D01*
X30261904Y-18124085D02*
X30119047Y-18124085D01*
X30119047Y-18124085D02*
X30023809Y-18076466D01*
X30023809Y-18076466D02*
X29976190Y-17981228D01*
X29976190Y-17981228D02*
X29976190Y-17933609D01*
X29976190Y-17933609D02*
X30023809Y-17838371D01*
X30023809Y-17838371D02*
X30119047Y-17790752D01*
X30119047Y-17790752D02*
X30261904Y-17790752D01*
X30261904Y-17790752D02*
X30357142Y-17838371D01*
X30833333Y-18457419D02*
X30833333Y-17790752D01*
X30833333Y-17457419D02*
X30785714Y-17505038D01*
X30785714Y-17505038D02*
X30833333Y-17552657D01*
X30833333Y-17552657D02*
X30880952Y-17505038D01*
X30880952Y-17505038D02*
X30833333Y-17457419D01*
X30833333Y-17457419D02*
X30833333Y-17552657D01*
X31738094Y-17790752D02*
X31738094Y-18600276D01*
X31738094Y-18600276D02*
X31690475Y-18695514D01*
X31690475Y-18695514D02*
X31642856Y-18743133D01*
X31642856Y-18743133D02*
X31547618Y-18790752D01*
X31547618Y-18790752D02*
X31404761Y-18790752D01*
X31404761Y-18790752D02*
X31309523Y-18743133D01*
X31738094Y-18409800D02*
X31642856Y-18457419D01*
X31642856Y-18457419D02*
X31452380Y-18457419D01*
X31452380Y-18457419D02*
X31357142Y-18409800D01*
X31357142Y-18409800D02*
X31309523Y-18362180D01*
X31309523Y-18362180D02*
X31261904Y-18266942D01*
X31261904Y-18266942D02*
X31261904Y-17981228D01*
X31261904Y-17981228D02*
X31309523Y-17885990D01*
X31309523Y-17885990D02*
X31357142Y-17838371D01*
X31357142Y-17838371D02*
X31452380Y-17790752D01*
X31452380Y-17790752D02*
X31642856Y-17790752D01*
X31642856Y-17790752D02*
X31738094Y-17838371D01*
X32214285Y-17790752D02*
X32214285Y-18457419D01*
X32214285Y-17885990D02*
X32261904Y-17838371D01*
X32261904Y-17838371D02*
X32357142Y-17790752D01*
X32357142Y-17790752D02*
X32499999Y-17790752D01*
X32499999Y-17790752D02*
X32595237Y-17838371D01*
X32595237Y-17838371D02*
X32642856Y-17933609D01*
X32642856Y-17933609D02*
X32642856Y-18457419D01*
X33880952Y-17790752D02*
X33880952Y-18457419D01*
X33880952Y-17885990D02*
X33928571Y-17838371D01*
X33928571Y-17838371D02*
X34023809Y-17790752D01*
X34023809Y-17790752D02*
X34166666Y-17790752D01*
X34166666Y-17790752D02*
X34261904Y-17838371D01*
X34261904Y-17838371D02*
X34309523Y-17933609D01*
X34309523Y-17933609D02*
X34309523Y-18457419D01*
X34928571Y-18457419D02*
X34833333Y-18409800D01*
X34833333Y-18409800D02*
X34785714Y-18362180D01*
X34785714Y-18362180D02*
X34738095Y-18266942D01*
X34738095Y-18266942D02*
X34738095Y-17981228D01*
X34738095Y-17981228D02*
X34785714Y-17885990D01*
X34785714Y-17885990D02*
X34833333Y-17838371D01*
X34833333Y-17838371D02*
X34928571Y-17790752D01*
X34928571Y-17790752D02*
X35071428Y-17790752D01*
X35071428Y-17790752D02*
X35166666Y-17838371D01*
X35166666Y-17838371D02*
X35214285Y-17885990D01*
X35214285Y-17885990D02*
X35261904Y-17981228D01*
X35261904Y-17981228D02*
X35261904Y-18266942D01*
X35261904Y-18266942D02*
X35214285Y-18362180D01*
X35214285Y-18362180D02*
X35166666Y-18409800D01*
X35166666Y-18409800D02*
X35071428Y-18457419D01*
X35071428Y-18457419D02*
X34928571Y-18457419D01*
X35547619Y-17790752D02*
X35928571Y-17790752D01*
X35690476Y-17457419D02*
X35690476Y-18314561D01*
X35690476Y-18314561D02*
X35738095Y-18409800D01*
X35738095Y-18409800D02*
X35833333Y-18457419D01*
X35833333Y-18457419D02*
X35928571Y-18457419D01*
X36642857Y-18409800D02*
X36547619Y-18457419D01*
X36547619Y-18457419D02*
X36357143Y-18457419D01*
X36357143Y-18457419D02*
X36261905Y-18409800D01*
X36261905Y-18409800D02*
X36214286Y-18314561D01*
X36214286Y-18314561D02*
X36214286Y-17933609D01*
X36214286Y-17933609D02*
X36261905Y-17838371D01*
X36261905Y-17838371D02*
X36357143Y-17790752D01*
X36357143Y-17790752D02*
X36547619Y-17790752D01*
X36547619Y-17790752D02*
X36642857Y-17838371D01*
X36642857Y-17838371D02*
X36690476Y-17933609D01*
X36690476Y-17933609D02*
X36690476Y-18028847D01*
X36690476Y-18028847D02*
X36214286Y-18124085D01*
X38023810Y-18457419D02*
X37928572Y-18409800D01*
X37928572Y-18409800D02*
X37880953Y-18362180D01*
X37880953Y-18362180D02*
X37833334Y-18266942D01*
X37833334Y-18266942D02*
X37833334Y-17981228D01*
X37833334Y-17981228D02*
X37880953Y-17885990D01*
X37880953Y-17885990D02*
X37928572Y-17838371D01*
X37928572Y-17838371D02*
X38023810Y-17790752D01*
X38023810Y-17790752D02*
X38166667Y-17790752D01*
X38166667Y-17790752D02*
X38261905Y-17838371D01*
X38261905Y-17838371D02*
X38309524Y-17885990D01*
X38309524Y-17885990D02*
X38357143Y-17981228D01*
X38357143Y-17981228D02*
X38357143Y-18266942D01*
X38357143Y-18266942D02*
X38309524Y-18362180D01*
X38309524Y-18362180D02*
X38261905Y-18409800D01*
X38261905Y-18409800D02*
X38166667Y-18457419D01*
X38166667Y-18457419D02*
X38023810Y-18457419D01*
X38785715Y-17790752D02*
X38785715Y-18457419D01*
X38785715Y-17885990D02*
X38833334Y-17838371D01*
X38833334Y-17838371D02*
X38928572Y-17790752D01*
X38928572Y-17790752D02*
X39071429Y-17790752D01*
X39071429Y-17790752D02*
X39166667Y-17838371D01*
X39166667Y-17838371D02*
X39214286Y-17933609D01*
X39214286Y-17933609D02*
X39214286Y-18457419D01*
X39833334Y-18457419D02*
X39738096Y-18409800D01*
X39738096Y-18409800D02*
X39690477Y-18314561D01*
X39690477Y-18314561D02*
X39690477Y-17457419D01*
X40119049Y-17790752D02*
X40357144Y-18457419D01*
X40595239Y-17790752D02*
X40357144Y-18457419D01*
X40357144Y-18457419D02*
X40261906Y-18695514D01*
X40261906Y-18695514D02*
X40214287Y-18743133D01*
X40214287Y-18743133D02*
X40119049Y-18790752D01*
M02*
