%TF.GenerationSoftware,KiCad,Pcbnew,10.0.5*%
%TF.CreationDate,2026-09-18T13:38:16-05:00*%
%TF.ProjectId,dock_no_nda,646f636b-5f6e-46f5-9f6e-64612e6b6963,1.0.0-stream-e*%
%TF.SameCoordinates,Original*%
%TF.FileFunction,Legend,Top*%
%TF.FilePolarity,Positive*%
%FSLAX46Y46*%
G04 Gerber Fmt 4.6, Leading zero omitted, Abs format (unit mm)*
G04 Created by KiCad (PCBNEW 10.0.5) date 2026-09-18 13:38:16*
%MOMM*%
%LPD*%
G01*
G04 APERTURE LIST*
%ADD10C,0.200000*%
G04 APERTURE END LIST*
D10*
X-607142Y-8683528D02*
X-1107142Y-7969242D01*
X-1464285Y-8683528D02*
X-1464285Y-7183528D01*
X-1464285Y-7183528D02*
X-892856Y-7183528D01*
X-892856Y-7183528D02*
X-749999Y-7254957D01*
X-749999Y-7254957D02*
X-678570Y-7326385D01*
X-678570Y-7326385D02*
X-607142Y-7469242D01*
X-607142Y-7469242D02*
X-607142Y-7683528D01*
X-607142Y-7683528D02*
X-678570Y-7826385D01*
X-678570Y-7826385D02*
X-749999Y-7897814D01*
X-749999Y-7897814D02*
X-892856Y-7969242D01*
X-892856Y-7969242D02*
X-1464285Y-7969242D01*
X35714Y-7897814D02*
X535714Y-7897814D01*
X750000Y-8683528D02*
X35714Y-8683528D01*
X35714Y-8683528D02*
X35714Y-7183528D01*
X35714Y-7183528D02*
X750000Y-7183528D01*
X1178572Y-7183528D02*
X1678572Y-8683528D01*
X1678572Y-8683528D02*
X2178572Y-7183528D01*
X4607143Y-8683528D02*
X3750000Y-8683528D01*
X4178571Y-8683528D02*
X4178571Y-7183528D01*
X4178571Y-7183528D02*
X4035714Y-7397814D01*
X4035714Y-7397814D02*
X3892857Y-7540671D01*
X3892857Y-7540671D02*
X3750000Y-7612100D01*
X5249999Y-8540671D02*
X5321428Y-8612100D01*
X5321428Y-8612100D02*
X5249999Y-8683528D01*
X5249999Y-8683528D02*
X5178571Y-8612100D01*
X5178571Y-8612100D02*
X5249999Y-8540671D01*
X5249999Y-8540671D02*
X5249999Y-8683528D01*
X6250000Y-7183528D02*
X6392857Y-7183528D01*
X6392857Y-7183528D02*
X6535714Y-7254957D01*
X6535714Y-7254957D02*
X6607143Y-7326385D01*
X6607143Y-7326385D02*
X6678571Y-7469242D01*
X6678571Y-7469242D02*
X6750000Y-7754957D01*
X6750000Y-7754957D02*
X6750000Y-8112100D01*
X6750000Y-8112100D02*
X6678571Y-8397814D01*
X6678571Y-8397814D02*
X6607143Y-8540671D01*
X6607143Y-8540671D02*
X6535714Y-8612100D01*
X6535714Y-8612100D02*
X6392857Y-8683528D01*
X6392857Y-8683528D02*
X6250000Y-8683528D01*
X6250000Y-8683528D02*
X6107143Y-8612100D01*
X6107143Y-8612100D02*
X6035714Y-8540671D01*
X6035714Y-8540671D02*
X5964285Y-8397814D01*
X5964285Y-8397814D02*
X5892857Y-8112100D01*
X5892857Y-8112100D02*
X5892857Y-7754957D01*
X5892857Y-7754957D02*
X5964285Y-7469242D01*
X5964285Y-7469242D02*
X6035714Y-7326385D01*
X6035714Y-7326385D02*
X6107143Y-7254957D01*
X6107143Y-7254957D02*
X6250000Y-7183528D01*
X7392856Y-8540671D02*
X7464285Y-8612100D01*
X7464285Y-8612100D02*
X7392856Y-8683528D01*
X7392856Y-8683528D02*
X7321428Y-8612100D01*
X7321428Y-8612100D02*
X7392856Y-8540671D01*
X7392856Y-8540671D02*
X7392856Y-8683528D01*
X8392857Y-7183528D02*
X8535714Y-7183528D01*
X8535714Y-7183528D02*
X8678571Y-7254957D01*
X8678571Y-7254957D02*
X8750000Y-7326385D01*
X8750000Y-7326385D02*
X8821428Y-7469242D01*
X8821428Y-7469242D02*
X8892857Y-7754957D01*
X8892857Y-7754957D02*
X8892857Y-8112100D01*
X8892857Y-8112100D02*
X8821428Y-8397814D01*
X8821428Y-8397814D02*
X8750000Y-8540671D01*
X8750000Y-8540671D02*
X8678571Y-8612100D01*
X8678571Y-8612100D02*
X8535714Y-8683528D01*
X8535714Y-8683528D02*
X8392857Y-8683528D01*
X8392857Y-8683528D02*
X8250000Y-8612100D01*
X8250000Y-8612100D02*
X8178571Y-8540671D01*
X8178571Y-8540671D02*
X8107142Y-8397814D01*
X8107142Y-8397814D02*
X8035714Y-8112100D01*
X8035714Y-8112100D02*
X8035714Y-7754957D01*
X8035714Y-7754957D02*
X8107142Y-7469242D01*
X8107142Y-7469242D02*
X8178571Y-7326385D01*
X8178571Y-7326385D02*
X8250000Y-7254957D01*
X8250000Y-7254957D02*
X8392857Y-7183528D01*
X9535713Y-8112100D02*
X10678571Y-8112100D01*
X11321428Y-8612100D02*
X11464285Y-8683528D01*
X11464285Y-8683528D02*
X11749999Y-8683528D01*
X11749999Y-8683528D02*
X11892856Y-8612100D01*
X11892856Y-8612100D02*
X11964285Y-8469242D01*
X11964285Y-8469242D02*
X11964285Y-8397814D01*
X11964285Y-8397814D02*
X11892856Y-8254957D01*
X11892856Y-8254957D02*
X11749999Y-8183528D01*
X11749999Y-8183528D02*
X11535714Y-8183528D01*
X11535714Y-8183528D02*
X11392856Y-8112100D01*
X11392856Y-8112100D02*
X11321428Y-7969242D01*
X11321428Y-7969242D02*
X11321428Y-7897814D01*
X11321428Y-7897814D02*
X11392856Y-7754957D01*
X11392856Y-7754957D02*
X11535714Y-7683528D01*
X11535714Y-7683528D02*
X11749999Y-7683528D01*
X11749999Y-7683528D02*
X11892856Y-7754957D01*
X12392857Y-7683528D02*
X12964285Y-7683528D01*
X12607142Y-7183528D02*
X12607142Y-8469242D01*
X12607142Y-8469242D02*
X12678571Y-8612100D01*
X12678571Y-8612100D02*
X12821428Y-8683528D01*
X12821428Y-8683528D02*
X12964285Y-8683528D01*
X13464285Y-8683528D02*
X13464285Y-7683528D01*
X13464285Y-7969242D02*
X13535714Y-7826385D01*
X13535714Y-7826385D02*
X13607143Y-7754957D01*
X13607143Y-7754957D02*
X13750000Y-7683528D01*
X13750000Y-7683528D02*
X13892857Y-7683528D01*
X14964285Y-8612100D02*
X14821428Y-8683528D01*
X14821428Y-8683528D02*
X14535714Y-8683528D01*
X14535714Y-8683528D02*
X14392856Y-8612100D01*
X14392856Y-8612100D02*
X14321428Y-8469242D01*
X14321428Y-8469242D02*
X14321428Y-7897814D01*
X14321428Y-7897814D02*
X14392856Y-7754957D01*
X14392856Y-7754957D02*
X14535714Y-7683528D01*
X14535714Y-7683528D02*
X14821428Y-7683528D01*
X14821428Y-7683528D02*
X14964285Y-7754957D01*
X14964285Y-7754957D02*
X15035714Y-7897814D01*
X15035714Y-7897814D02*
X15035714Y-8040671D01*
X15035714Y-8040671D02*
X14321428Y-8183528D01*
X16321428Y-8683528D02*
X16321428Y-7897814D01*
X16321428Y-7897814D02*
X16249999Y-7754957D01*
X16249999Y-7754957D02*
X16107142Y-7683528D01*
X16107142Y-7683528D02*
X15821428Y-7683528D01*
X15821428Y-7683528D02*
X15678570Y-7754957D01*
X16321428Y-8612100D02*
X16178570Y-8683528D01*
X16178570Y-8683528D02*
X15821428Y-8683528D01*
X15821428Y-8683528D02*
X15678570Y-8612100D01*
X15678570Y-8612100D02*
X15607142Y-8469242D01*
X15607142Y-8469242D02*
X15607142Y-8326385D01*
X15607142Y-8326385D02*
X15678570Y-8183528D01*
X15678570Y-8183528D02*
X15821428Y-8112100D01*
X15821428Y-8112100D02*
X16178570Y-8112100D01*
X16178570Y-8112100D02*
X16321428Y-8040671D01*
X17035713Y-8683528D02*
X17035713Y-7683528D01*
X17035713Y-7826385D02*
X17107142Y-7754957D01*
X17107142Y-7754957D02*
X17249999Y-7683528D01*
X17249999Y-7683528D02*
X17464285Y-7683528D01*
X17464285Y-7683528D02*
X17607142Y-7754957D01*
X17607142Y-7754957D02*
X17678571Y-7897814D01*
X17678571Y-7897814D02*
X17678571Y-8683528D01*
X17678571Y-7897814D02*
X17749999Y-7754957D01*
X17749999Y-7754957D02*
X17892856Y-7683528D01*
X17892856Y-7683528D02*
X18107142Y-7683528D01*
X18107142Y-7683528D02*
X18249999Y-7754957D01*
X18249999Y-7754957D02*
X18321428Y-7897814D01*
X18321428Y-7897814D02*
X18321428Y-8683528D01*
X19035713Y-8112100D02*
X20178571Y-8112100D01*
X21464285Y-8612100D02*
X21321428Y-8683528D01*
X21321428Y-8683528D02*
X21035714Y-8683528D01*
X21035714Y-8683528D02*
X20892856Y-8612100D01*
X20892856Y-8612100D02*
X20821428Y-8469242D01*
X20821428Y-8469242D02*
X20821428Y-7897814D01*
X20821428Y-7897814D02*
X20892856Y-7754957D01*
X20892856Y-7754957D02*
X21035714Y-7683528D01*
X21035714Y-7683528D02*
X21321428Y-7683528D01*
X21321428Y-7683528D02*
X21464285Y-7754957D01*
X21464285Y-7754957D02*
X21535714Y-7897814D01*
X21535714Y-7897814D02*
X21535714Y-8040671D01*
X21535714Y-8040671D02*
X20821428Y-8183528D01*
M02*
