solid edge_io_ring_pcb
  facet normal 0 0 0
    outer loop
      vertex 0 0 0
      vertex 28.0 0 0
      vertex 28.0 10.0 0
    endloop
  endfacet
  facet normal 0 0 0
    outer loop
      vertex 0 0 0
      vertex 28.0 10.0 0
      vertex 0 10.0 0
    endloop
  endfacet
  facet normal 0 0 0
    outer loop
      vertex 0 0 0.8
      vertex 28.0 10.0 0.8
      vertex 28.0 0 0.8
    endloop
  endfacet
  facet normal 0 0 0
    outer loop
      vertex 0 0 0.8
      vertex 0 10.0 0.8
      vertex 28.0 10.0 0.8
    endloop
  endfacet
  facet normal 0 0 0
    outer loop
      vertex 0 0 0
      vertex 0 0 0.8
      vertex 28.0 0 0.8
    endloop
  endfacet
  facet normal 0 0 0
    outer loop
      vertex 0 0 0
      vertex 28.0 0 0.8
      vertex 28.0 0 0
    endloop
  endfacet
  facet normal 0 0 0
    outer loop
      vertex 28.0 0 0
      vertex 28.0 0 0.8
      vertex 28.0 10.0 0.8
    endloop
  endfacet
  facet normal 0 0 0
    outer loop
      vertex 28.0 0 0
      vertex 28.0 10.0 0.8
      vertex 28.0 10.0 0
    endloop
  endfacet
  facet normal 0 0 0
    outer loop
      vertex 28.0 10.0 0
      vertex 28.0 10.0 0.8
      vertex 0 10.0 0.8
    endloop
  endfacet
  facet normal 0 0 0
    outer loop
      vertex 28.0 10.0 0
      vertex 0 10.0 0.8
      vertex 0 10.0 0
    endloop
  endfacet
  facet normal 0 0 0
    outer loop
      vertex 0 10.0 0
      vertex 0 10.0 0.8
      vertex 0 0 0.8
    endloop
  endfacet
  facet normal 0 0 0
    outer loop
      vertex 0 10.0 0
      vertex 0 0 0.8
      vertex 0 0 0
    endloop
  endfacet
endsolid edge_io_ring_pcb
