%TF.GenerationSoftware,KiCad,Pcbnew,10.0.5*%
%TF.CreationDate,2026-08-09T12:16:25-05:00*%
%TF.ProjectId,handheld_hybrid,68616e64-6865-46c6-945f-687962726964,0.4.0-cont-vii*%
%TF.SameCoordinates,Original*%
%TF.FileFunction,Other,User*%
%FSLAX46Y46*%
G04 Gerber Fmt 4.6, Leading zero omitted, Abs format (unit mm)*
G04 Created by KiCad (PCBNEW 10.0.5) date 2026-08-09 12:16:25*
%MOMM*%
%LPD*%
G01*
G04 APERTURE LIST*
%ADD10C,0.050000*%
G04 APERTURE END LIST*
%TO.C,U*%
D10*
X15000000Y-15000000D02*
X21000000Y-15000000D01*
X21000000Y-21000000D01*
X15000000Y-21000000D01*
X15000000Y-15000000D01*
%TO.C,USOM1*%
X31000000Y-15000000D02*
X37000000Y-15000000D01*
X37000000Y-21000000D01*
X31000000Y-21000000D01*
X31000000Y-15000000D01*
%TO.C,JSOM1*%
X47000000Y-15000000D02*
X53000000Y-15000000D01*
X53000000Y-21000000D01*
X47000000Y-21000000D01*
X47000000Y-15000000D01*
%TO.C,J_DISP*%
X63000000Y-15000000D02*
X69000000Y-15000000D01*
X69000000Y-21000000D01*
X63000000Y-21000000D01*
X63000000Y-15000000D01*
%TO.C,U_WIFI*%
X79000000Y-15000000D02*
X85000000Y-15000000D01*
X85000000Y-21000000D01*
X79000000Y-21000000D01*
X79000000Y-15000000D01*
%TO.C,U_WWAN*%
X95000000Y-15000000D02*
X101000000Y-15000000D01*
X101000000Y-21000000D01*
X95000000Y-21000000D01*
X95000000Y-15000000D01*
%TO.C,U_HID*%
X111000000Y-15000000D02*
X117000000Y-15000000D01*
X117000000Y-21000000D01*
X111000000Y-21000000D01*
X111000000Y-15000000D01*
%TO.C,U_PD*%
X127000000Y-15000000D02*
X133000000Y-15000000D01*
X133000000Y-21000000D01*
X127000000Y-21000000D01*
X127000000Y-15000000D01*
%TO.C,U_CHG*%
X143000000Y-15000000D02*
X149000000Y-15000000D01*
X149000000Y-21000000D01*
X143000000Y-21000000D01*
X143000000Y-15000000D01*
%TO.C,U_FG*%
X159000000Y-15000000D02*
X165000000Y-15000000D01*
X165000000Y-21000000D01*
X159000000Y-21000000D01*
X159000000Y-15000000D01*
%TO.C,U_SE*%
X175000000Y-15000000D02*
X181000000Y-15000000D01*
X181000000Y-21000000D01*
X175000000Y-21000000D01*
X175000000Y-15000000D01*
%TO.C,J_USBC*%
X191000000Y-15000000D02*
X197000000Y-15000000D01*
X197000000Y-21000000D01*
X191000000Y-21000000D01*
X191000000Y-15000000D01*
%TO.C,J_USD*%
X15000000Y-31000000D02*
X21000000Y-31000000D01*
X21000000Y-37000000D01*
X15000000Y-37000000D01*
X15000000Y-31000000D01*
%TO.C,J_AUDIO*%
X31000000Y-31000000D02*
X37000000Y-31000000D01*
X37000000Y-37000000D01*
X31000000Y-37000000D01*
X31000000Y-31000000D01*
%TO.C,J_DBG*%
X47000000Y-31000000D02*
X53000000Y-31000000D01*
X53000000Y-37000000D01*
X47000000Y-37000000D01*
X47000000Y-31000000D01*
%TO.C,BT1*%
X63000000Y-31000000D02*
X69000000Y-31000000D01*
X69000000Y-37000000D01*
X63000000Y-37000000D01*
X63000000Y-31000000D01*
%TO.C,SW_ABXY*%
X79000000Y-31000000D02*
X85000000Y-31000000D01*
X85000000Y-37000000D01*
X79000000Y-37000000D01*
X79000000Y-31000000D01*
%TO.C,JS1*%
X95000000Y-31000000D02*
X101000000Y-31000000D01*
X101000000Y-37000000D01*
X95000000Y-37000000D01*
X95000000Y-31000000D01*
%TO.C,JS2*%
X111000000Y-31000000D02*
X117000000Y-31000000D01*
X117000000Y-37000000D01*
X111000000Y-37000000D01*
X111000000Y-31000000D01*
%TD*%
M02*
