%TF.GenerationSoftware,KiCad,Pcbnew,10.0.5*%
%TF.CreationDate,2026-08-09T15:51:03-05:00*%
%TF.ProjectId,dock,646f636b-2e6b-4696-9361-645f70636258,0.6.0-cont-ix*%
%TF.SameCoordinates,Original*%
%TF.FileFunction,Legend,Top*%
%TF.FilePolarity,Positive*%
%FSLAX46Y46*%
G04 Gerber Fmt 4.6, Leading zero omitted, Abs format (unit mm)*
G04 Created by KiCad (PCBNEW 10.0.5) date 2026-08-09 15:51:03*
%MOMM*%
%LPD*%
G01*
G04 APERTURE LIST*
%ADD10C,0.200000*%
%ADD11C,0.250000*%
G04 APERTURE END LIST*
D10*
X2464285Y-10683528D02*
X1964285Y-9969242D01*
X1607142Y-10683528D02*
X1607142Y-9183528D01*
X1607142Y-9183528D02*
X2178571Y-9183528D01*
X2178571Y-9183528D02*
X2321428Y-9254957D01*
X2321428Y-9254957D02*
X2392857Y-9326385D01*
X2392857Y-9326385D02*
X2464285Y-9469242D01*
X2464285Y-9469242D02*
X2464285Y-9683528D01*
X2464285Y-9683528D02*
X2392857Y-9826385D01*
X2392857Y-9826385D02*
X2321428Y-9897814D01*
X2321428Y-9897814D02*
X2178571Y-9969242D01*
X2178571Y-9969242D02*
X1607142Y-9969242D01*
X3107142Y-9897814D02*
X3607142Y-9897814D01*
X3821428Y-10683528D02*
X3107142Y-10683528D01*
X3107142Y-10683528D02*
X3107142Y-9183528D01*
X3107142Y-9183528D02*
X3821428Y-9183528D01*
X4250000Y-9183528D02*
X4750000Y-10683528D01*
X4750000Y-10683528D02*
X5250000Y-9183528D01*
X7178571Y-9183528D02*
X7321428Y-9183528D01*
X7321428Y-9183528D02*
X7464285Y-9254957D01*
X7464285Y-9254957D02*
X7535714Y-9326385D01*
X7535714Y-9326385D02*
X7607142Y-9469242D01*
X7607142Y-9469242D02*
X7678571Y-9754957D01*
X7678571Y-9754957D02*
X7678571Y-10112100D01*
X7678571Y-10112100D02*
X7607142Y-10397814D01*
X7607142Y-10397814D02*
X7535714Y-10540671D01*
X7535714Y-10540671D02*
X7464285Y-10612100D01*
X7464285Y-10612100D02*
X7321428Y-10683528D01*
X7321428Y-10683528D02*
X7178571Y-10683528D01*
X7178571Y-10683528D02*
X7035714Y-10612100D01*
X7035714Y-10612100D02*
X6964285Y-10540671D01*
X6964285Y-10540671D02*
X6892856Y-10397814D01*
X6892856Y-10397814D02*
X6821428Y-10112100D01*
X6821428Y-10112100D02*
X6821428Y-9754957D01*
X6821428Y-9754957D02*
X6892856Y-9469242D01*
X6892856Y-9469242D02*
X6964285Y-9326385D01*
X6964285Y-9326385D02*
X7035714Y-9254957D01*
X7035714Y-9254957D02*
X7178571Y-9183528D01*
X8321427Y-10540671D02*
X8392856Y-10612100D01*
X8392856Y-10612100D02*
X8321427Y-10683528D01*
X8321427Y-10683528D02*
X8249999Y-10612100D01*
X8249999Y-10612100D02*
X8321427Y-10540671D01*
X8321427Y-10540671D02*
X8321427Y-10683528D01*
X9678571Y-9183528D02*
X9392856Y-9183528D01*
X9392856Y-9183528D02*
X9249999Y-9254957D01*
X9249999Y-9254957D02*
X9178571Y-9326385D01*
X9178571Y-9326385D02*
X9035713Y-9540671D01*
X9035713Y-9540671D02*
X8964285Y-9826385D01*
X8964285Y-9826385D02*
X8964285Y-10397814D01*
X8964285Y-10397814D02*
X9035713Y-10540671D01*
X9035713Y-10540671D02*
X9107142Y-10612100D01*
X9107142Y-10612100D02*
X9249999Y-10683528D01*
X9249999Y-10683528D02*
X9535713Y-10683528D01*
X9535713Y-10683528D02*
X9678571Y-10612100D01*
X9678571Y-10612100D02*
X9749999Y-10540671D01*
X9749999Y-10540671D02*
X9821428Y-10397814D01*
X9821428Y-10397814D02*
X9821428Y-10040671D01*
X9821428Y-10040671D02*
X9749999Y-9897814D01*
X9749999Y-9897814D02*
X9678571Y-9826385D01*
X9678571Y-9826385D02*
X9535713Y-9754957D01*
X9535713Y-9754957D02*
X9249999Y-9754957D01*
X9249999Y-9754957D02*
X9107142Y-9826385D01*
X9107142Y-9826385D02*
X9035713Y-9897814D01*
X9035713Y-9897814D02*
X8964285Y-10040671D01*
X10464284Y-10540671D02*
X10535713Y-10612100D01*
X10535713Y-10612100D02*
X10464284Y-10683528D01*
X10464284Y-10683528D02*
X10392856Y-10612100D01*
X10392856Y-10612100D02*
X10464284Y-10540671D01*
X10464284Y-10540671D02*
X10464284Y-10683528D01*
X11464285Y-9183528D02*
X11607142Y-9183528D01*
X11607142Y-9183528D02*
X11749999Y-9254957D01*
X11749999Y-9254957D02*
X11821428Y-9326385D01*
X11821428Y-9326385D02*
X11892856Y-9469242D01*
X11892856Y-9469242D02*
X11964285Y-9754957D01*
X11964285Y-9754957D02*
X11964285Y-10112100D01*
X11964285Y-10112100D02*
X11892856Y-10397814D01*
X11892856Y-10397814D02*
X11821428Y-10540671D01*
X11821428Y-10540671D02*
X11749999Y-10612100D01*
X11749999Y-10612100D02*
X11607142Y-10683528D01*
X11607142Y-10683528D02*
X11464285Y-10683528D01*
X11464285Y-10683528D02*
X11321428Y-10612100D01*
X11321428Y-10612100D02*
X11249999Y-10540671D01*
X11249999Y-10540671D02*
X11178570Y-10397814D01*
X11178570Y-10397814D02*
X11107142Y-10112100D01*
X11107142Y-10112100D02*
X11107142Y-9754957D01*
X11107142Y-9754957D02*
X11178570Y-9469242D01*
X11178570Y-9469242D02*
X11249999Y-9326385D01*
X11249999Y-9326385D02*
X11321428Y-9254957D01*
X11321428Y-9254957D02*
X11464285Y-9183528D01*
X12607141Y-10112100D02*
X13749999Y-10112100D01*
X15107142Y-10612100D02*
X14964284Y-10683528D01*
X14964284Y-10683528D02*
X14678570Y-10683528D01*
X14678570Y-10683528D02*
X14535713Y-10612100D01*
X14535713Y-10612100D02*
X14464284Y-10540671D01*
X14464284Y-10540671D02*
X14392856Y-10397814D01*
X14392856Y-10397814D02*
X14392856Y-9969242D01*
X14392856Y-9969242D02*
X14464284Y-9826385D01*
X14464284Y-9826385D02*
X14535713Y-9754957D01*
X14535713Y-9754957D02*
X14678570Y-9683528D01*
X14678570Y-9683528D02*
X14964284Y-9683528D01*
X14964284Y-9683528D02*
X15107142Y-9754957D01*
X15964284Y-10683528D02*
X15821427Y-10612100D01*
X15821427Y-10612100D02*
X15749998Y-10540671D01*
X15749998Y-10540671D02*
X15678570Y-10397814D01*
X15678570Y-10397814D02*
X15678570Y-9969242D01*
X15678570Y-9969242D02*
X15749998Y-9826385D01*
X15749998Y-9826385D02*
X15821427Y-9754957D01*
X15821427Y-9754957D02*
X15964284Y-9683528D01*
X15964284Y-9683528D02*
X16178570Y-9683528D01*
X16178570Y-9683528D02*
X16321427Y-9754957D01*
X16321427Y-9754957D02*
X16392856Y-9826385D01*
X16392856Y-9826385D02*
X16464284Y-9969242D01*
X16464284Y-9969242D02*
X16464284Y-10397814D01*
X16464284Y-10397814D02*
X16392856Y-10540671D01*
X16392856Y-10540671D02*
X16321427Y-10612100D01*
X16321427Y-10612100D02*
X16178570Y-10683528D01*
X16178570Y-10683528D02*
X15964284Y-10683528D01*
X17107141Y-9683528D02*
X17107141Y-10683528D01*
X17107141Y-9826385D02*
X17178570Y-9754957D01*
X17178570Y-9754957D02*
X17321427Y-9683528D01*
X17321427Y-9683528D02*
X17535713Y-9683528D01*
X17535713Y-9683528D02*
X17678570Y-9754957D01*
X17678570Y-9754957D02*
X17749999Y-9897814D01*
X17749999Y-9897814D02*
X17749999Y-10683528D01*
X18249999Y-9683528D02*
X18821427Y-9683528D01*
X18464284Y-9183528D02*
X18464284Y-10469242D01*
X18464284Y-10469242D02*
X18535713Y-10612100D01*
X18535713Y-10612100D02*
X18678570Y-10683528D01*
X18678570Y-10683528D02*
X18821427Y-10683528D01*
X19321427Y-10112100D02*
X20464285Y-10112100D01*
X21178570Y-10683528D02*
X21178570Y-9683528D01*
X21178570Y-9183528D02*
X21107142Y-9254957D01*
X21107142Y-9254957D02*
X21178570Y-9326385D01*
X21178570Y-9326385D02*
X21249999Y-9254957D01*
X21249999Y-9254957D02*
X21178570Y-9183528D01*
X21178570Y-9183528D02*
X21178570Y-9326385D01*
X21749999Y-10683528D02*
X22535714Y-9683528D01*
X21749999Y-9683528D02*
X22535714Y-10683528D01*
%TO.C,JUSB1*%
D11*
X39500000Y-41500000D02*
X44500000Y-41500000D01*
X44500000Y-46500000D01*
X39500000Y-46500000D01*
X39500000Y-41500000D01*
X39600000Y-46800000D02*
G75*
G02*
X38800000Y-46800000I-400000J0D01*
G01*
X38800000Y-46800000D02*
G75*
G02*
X39600000Y-46800000I400000J0D01*
G01*
%TO.C,UPD1*%
X63500000Y-41500000D02*
X68500000Y-41500000D01*
X68500000Y-46500000D01*
X63500000Y-46500000D01*
X63500000Y-41500000D01*
X63600000Y-46800000D02*
G75*
G02*
X62800000Y-46800000I-400000J0D01*
G01*
X62800000Y-46800000D02*
G75*
G02*
X63600000Y-46800000I400000J0D01*
G01*
%TO.C,UCHG1*%
X87500000Y-41500000D02*
X92500000Y-41500000D01*
X92500000Y-46500000D01*
X87500000Y-46500000D01*
X87500000Y-41500000D01*
X87600000Y-46800000D02*
G75*
G02*
X86800000Y-46800000I-400000J0D01*
G01*
X86800000Y-46800000D02*
G75*
G02*
X87600000Y-46800000I400000J0D01*
G01*
%TO.C,U3V3*%
X111500000Y-41500000D02*
X116500000Y-41500000D01*
X116500000Y-46500000D01*
X111500000Y-46500000D01*
X111500000Y-41500000D01*
X111600000Y-46800000D02*
G75*
G02*
X110800000Y-46800000I-400000J0D01*
G01*
X110800000Y-46800000D02*
G75*
G02*
X111600000Y-46800000I400000J0D01*
G01*
%TO.C,C1*%
X135500000Y-41500000D02*
X140500000Y-41500000D01*
X140500000Y-46500000D01*
X135500000Y-46500000D01*
X135500000Y-41500000D01*
X135600000Y-46800000D02*
G75*
G02*
X134800000Y-46800000I-400000J0D01*
G01*
X134800000Y-46800000D02*
G75*
G02*
X135600000Y-46800000I400000J0D01*
G01*
%TO.C,C2*%
X39500000Y-65500000D02*
X44500000Y-65500000D01*
X44500000Y-70500000D01*
X39500000Y-70500000D01*
X39500000Y-65500000D01*
X39600000Y-70800000D02*
G75*
G02*
X38800000Y-70800000I-400000J0D01*
G01*
X38800000Y-70800000D02*
G75*
G02*
X39600000Y-70800000I400000J0D01*
G01*
%TO.C,R1*%
X63500000Y-65500000D02*
X68500000Y-65500000D01*
X68500000Y-70500000D01*
X63500000Y-70500000D01*
X63500000Y-65500000D01*
X63600000Y-70800000D02*
G75*
G02*
X62800000Y-70800000I-400000J0D01*
G01*
X62800000Y-70800000D02*
G75*
G02*
X63600000Y-70800000I400000J0D01*
G01*
%TO.C,R2*%
X87500000Y-65500000D02*
X92500000Y-65500000D01*
X92500000Y-70500000D01*
X87500000Y-70500000D01*
X87500000Y-65500000D01*
X87600000Y-70800000D02*
G75*
G02*
X86800000Y-70800000I-400000J0D01*
G01*
X86800000Y-70800000D02*
G75*
G02*
X87600000Y-70800000I400000J0D01*
G01*
%TO.C,D1*%
X111500000Y-65500000D02*
X116500000Y-65500000D01*
X116500000Y-70500000D01*
X111500000Y-70500000D01*
X111500000Y-65500000D01*
X111600000Y-70800000D02*
G75*
G02*
X110800000Y-70800000I-400000J0D01*
G01*
X110800000Y-70800000D02*
G75*
G02*
X111600000Y-70800000I400000J0D01*
G01*
%TO.C,DESD1*%
X135500000Y-65500000D02*
X140500000Y-65500000D01*
X140500000Y-70500000D01*
X135500000Y-70500000D01*
X135500000Y-65500000D01*
X135600000Y-70800000D02*
G75*
G02*
X134800000Y-70800000I-400000J0D01*
G01*
X134800000Y-70800000D02*
G75*
G02*
X135600000Y-70800000I400000J0D01*
G01*
%TO.C,UUSB4*%
X39500000Y-89500000D02*
X44500000Y-89500000D01*
X44500000Y-94500000D01*
X39500000Y-94500000D01*
X39500000Y-89500000D01*
X39600000Y-94800000D02*
G75*
G02*
X38800000Y-94800000I-400000J0D01*
G01*
X38800000Y-94800000D02*
G75*
G02*
X39600000Y-94800000I400000J0D01*
G01*
%TO.C,URET1*%
X63500000Y-89500000D02*
X68500000Y-89500000D01*
X68500000Y-94500000D01*
X63500000Y-94500000D01*
X63500000Y-89500000D01*
X63600000Y-94800000D02*
G75*
G02*
X62800000Y-94800000I-400000J0D01*
G01*
X62800000Y-94800000D02*
G75*
G02*
X63600000Y-94800000I400000J0D01*
G01*
%TO.C,UETH1*%
X87500000Y-89500000D02*
X92500000Y-89500000D01*
X92500000Y-94500000D01*
X87500000Y-94500000D01*
X87500000Y-89500000D01*
X87600000Y-94800000D02*
G75*
G02*
X86800000Y-94800000I-400000J0D01*
G01*
X86800000Y-94800000D02*
G75*
G02*
X87600000Y-94800000I400000J0D01*
G01*
%TO.C,UHUB1*%
X111500000Y-89500000D02*
X116500000Y-89500000D01*
X116500000Y-94500000D01*
X111500000Y-94500000D01*
X111500000Y-89500000D01*
X111600000Y-94800000D02*
G75*
G02*
X110800000Y-94800000I-400000J0D01*
G01*
X110800000Y-94800000D02*
G75*
G02*
X111600000Y-94800000I400000J0D01*
G01*
%TO.C,JUSB2*%
X135500000Y-89500000D02*
X140500000Y-89500000D01*
X140500000Y-94500000D01*
X135500000Y-94500000D01*
X135500000Y-89500000D01*
X135600000Y-94800000D02*
G75*
G02*
X134800000Y-94800000I-400000J0D01*
G01*
X134800000Y-94800000D02*
G75*
G02*
X135600000Y-94800000I400000J0D01*
G01*
%TD*%
M02*
