%TF.GenerationSoftware,KiCad,Pcbnew,10.0.5*%
%TF.CreationDate,2026-08-09T15:50:54-05:00*%
%TF.ProjectId,handheld_hybrid,68616e64-6865-46c6-945f-687962726964,0.6.0-cont-ix*%
%TF.SameCoordinates,Original*%
%TF.FileFunction,Soldermask,Top*%
%TF.FilePolarity,Negative*%
%FSLAX46Y46*%
G04 Gerber Fmt 4.6, Leading zero omitted, Abs format (unit mm)*
G04 Created by KiCad (PCBNEW 10.0.5) date 2026-08-09 15:50:54*
%MOMM*%
%LPD*%
G01*
G04 APERTURE LIST*
%ADD10C,3.200000*%
%ADD11R,1.600000X1.600000*%
%ADD12C,1.500000*%
G04 APERTURE END LIST*
D10*
%TO.C,H1*%
X12000000Y-12000000D03*
%TD*%
%TO.C,H2*%
X228000000Y-12000000D03*
%TD*%
%TO.C,H3*%
X12000000Y-118000000D03*
%TD*%
%TO.C,H4*%
X228000000Y-118000000D03*
%TD*%
D11*
%TO.C,JUSB1*%
X42000000Y-44000000D03*
%TD*%
%TO.C,UPD1*%
X66000000Y-44000000D03*
%TD*%
%TO.C,UCHG1*%
X90000000Y-44000000D03*
%TD*%
%TO.C,U3V3*%
X114000000Y-44000000D03*
%TD*%
%TO.C,C1*%
X138000000Y-44000000D03*
%TD*%
%TO.C,C2*%
X162000000Y-44000000D03*
%TD*%
%TO.C,R1*%
X42000000Y-68000000D03*
%TD*%
%TO.C,R2*%
X66000000Y-68000000D03*
%TD*%
%TO.C,D1*%
X90000000Y-68000000D03*
%TD*%
%TO.C,DESD1*%
X114000000Y-68000000D03*
%TD*%
%TO.C,UHID1*%
X138000000Y-68000000D03*
%TD*%
%TO.C,JDISP1*%
X162000000Y-68000000D03*
%TD*%
%TO.C,JTP1*%
X42000000Y-81000000D03*
%TD*%
%TO.C,JAUD1*%
X66000000Y-81000000D03*
%TD*%
%TO.C,JCAM1*%
X90000000Y-81000000D03*
%TD*%
%TO.C,JKEY1*%
X114000000Y-81000000D03*
%TD*%
%TO.C,JTRK1*%
X138000000Y-81000000D03*
%TD*%
%TO.C,JWWAN1*%
X162000000Y-81000000D03*
%TD*%
%TO.C,JGNSS1*%
X42000000Y-89000000D03*
%TD*%
%TO.C,JWIFI1*%
X66000000Y-89000000D03*
%TD*%
%TO.C,JBAT1*%
X90000000Y-89000000D03*
%TD*%
%TO.C,JSEC1*%
X114000000Y-89000000D03*
%TD*%
%TO.C,JDBG1*%
X138000000Y-89000000D03*
%TD*%
%TO.C,JHAP1*%
X162000000Y-89000000D03*
%TD*%
%TO.C,JFAN1*%
X42000000Y-97000000D03*
%TD*%
%TO.C,JSOM1*%
X66000000Y-97000000D03*
%TD*%
D12*
%TO.C,TP1*%
X42000000Y-106000000D03*
%TD*%
%TO.C,TP2*%
X60000000Y-106000000D03*
%TD*%
%TO.C,TP3*%
X78000000Y-106000000D03*
%TD*%
%TO.C,TP4*%
X96000000Y-106000000D03*
%TD*%
%TO.C,TP5*%
X114000000Y-106000000D03*
%TD*%
%TO.C,TP6*%
X132000000Y-106000000D03*
%TD*%
M02*
