%TF.GenerationSoftware,KiCad,Pcbnew,10.0.5*%
%TF.CreationDate,2026-08-09T15:50:54-05:00*%
%TF.ProjectId,handheld_hybrid,68616e64-6865-46c6-945f-687962726964,0.6.0-cont-ix*%
%TF.SameCoordinates,Original*%
%TF.FileFunction,Other,User*%
%FSLAX46Y46*%
G04 Gerber Fmt 4.6, Leading zero omitted, Abs format (unit mm)*
G04 Created by KiCad (PCBNEW 10.0.5) date 2026-08-09 15:50:54*
%MOMM*%
%LPD*%
G01*
G04 APERTURE LIST*
%ADD10C,0.050000*%
G04 APERTURE END LIST*
%TO.C,JUSB1*%
D10*
X39000000Y-41000000D02*
X45000000Y-41000000D01*
X45000000Y-47000000D01*
X39000000Y-47000000D01*
X39000000Y-41000000D01*
%TO.C,UPD1*%
X63000000Y-41000000D02*
X69000000Y-41000000D01*
X69000000Y-47000000D01*
X63000000Y-47000000D01*
X63000000Y-41000000D01*
%TO.C,UCHG1*%
X87000000Y-41000000D02*
X93000000Y-41000000D01*
X93000000Y-47000000D01*
X87000000Y-47000000D01*
X87000000Y-41000000D01*
%TO.C,U3V3*%
X111000000Y-41000000D02*
X117000000Y-41000000D01*
X117000000Y-47000000D01*
X111000000Y-47000000D01*
X111000000Y-41000000D01*
%TO.C,C1*%
X135000000Y-41000000D02*
X141000000Y-41000000D01*
X141000000Y-47000000D01*
X135000000Y-47000000D01*
X135000000Y-41000000D01*
%TO.C,C2*%
X159000000Y-41000000D02*
X165000000Y-41000000D01*
X165000000Y-47000000D01*
X159000000Y-47000000D01*
X159000000Y-41000000D01*
%TO.C,R1*%
X39000000Y-65000000D02*
X45000000Y-65000000D01*
X45000000Y-71000000D01*
X39000000Y-71000000D01*
X39000000Y-65000000D01*
%TO.C,R2*%
X63000000Y-65000000D02*
X69000000Y-65000000D01*
X69000000Y-71000000D01*
X63000000Y-71000000D01*
X63000000Y-65000000D01*
%TO.C,D1*%
X87000000Y-65000000D02*
X93000000Y-65000000D01*
X93000000Y-71000000D01*
X87000000Y-71000000D01*
X87000000Y-65000000D01*
%TO.C,DESD1*%
X111000000Y-65000000D02*
X117000000Y-65000000D01*
X117000000Y-71000000D01*
X111000000Y-71000000D01*
X111000000Y-65000000D01*
%TO.C,UHID1*%
X135000000Y-65000000D02*
X141000000Y-65000000D01*
X141000000Y-71000000D01*
X135000000Y-71000000D01*
X135000000Y-65000000D01*
%TO.C,JDISP1*%
X159000000Y-65000000D02*
X165000000Y-65000000D01*
X165000000Y-71000000D01*
X159000000Y-71000000D01*
X159000000Y-65000000D01*
%TO.C,JTP1*%
X39000000Y-78000000D02*
X45000000Y-78000000D01*
X45000000Y-84000000D01*
X39000000Y-84000000D01*
X39000000Y-78000000D01*
%TO.C,JAUD1*%
X63000000Y-78000000D02*
X69000000Y-78000000D01*
X69000000Y-84000000D01*
X63000000Y-84000000D01*
X63000000Y-78000000D01*
%TO.C,JCAM1*%
X87000000Y-78000000D02*
X93000000Y-78000000D01*
X93000000Y-84000000D01*
X87000000Y-84000000D01*
X87000000Y-78000000D01*
%TO.C,JKEY1*%
X111000000Y-78000000D02*
X117000000Y-78000000D01*
X117000000Y-84000000D01*
X111000000Y-84000000D01*
X111000000Y-78000000D01*
%TO.C,JTRK1*%
X135000000Y-78000000D02*
X141000000Y-78000000D01*
X141000000Y-84000000D01*
X135000000Y-84000000D01*
X135000000Y-78000000D01*
%TO.C,JWWAN1*%
X159000000Y-78000000D02*
X165000000Y-78000000D01*
X165000000Y-84000000D01*
X159000000Y-84000000D01*
X159000000Y-78000000D01*
%TO.C,JGNSS1*%
X39000000Y-86000000D02*
X45000000Y-86000000D01*
X45000000Y-92000000D01*
X39000000Y-92000000D01*
X39000000Y-86000000D01*
%TO.C,JWIFI1*%
X63000000Y-86000000D02*
X69000000Y-86000000D01*
X69000000Y-92000000D01*
X63000000Y-92000000D01*
X63000000Y-86000000D01*
%TO.C,JBAT1*%
X87000000Y-86000000D02*
X93000000Y-86000000D01*
X93000000Y-92000000D01*
X87000000Y-92000000D01*
X87000000Y-86000000D01*
%TO.C,JSEC1*%
X111000000Y-86000000D02*
X117000000Y-86000000D01*
X117000000Y-92000000D01*
X111000000Y-92000000D01*
X111000000Y-86000000D01*
%TO.C,JDBG1*%
X135000000Y-86000000D02*
X141000000Y-86000000D01*
X141000000Y-92000000D01*
X135000000Y-92000000D01*
X135000000Y-86000000D01*
%TO.C,JHAP1*%
X159000000Y-86000000D02*
X165000000Y-86000000D01*
X165000000Y-92000000D01*
X159000000Y-92000000D01*
X159000000Y-86000000D01*
%TO.C,JFAN1*%
X39000000Y-94000000D02*
X45000000Y-94000000D01*
X45000000Y-100000000D01*
X39000000Y-100000000D01*
X39000000Y-94000000D01*
%TO.C,JSOM1*%
X63000000Y-94000000D02*
X69000000Y-94000000D01*
X69000000Y-100000000D01*
X63000000Y-100000000D01*
X63000000Y-94000000D01*
%TD*%
M02*
