%TF.GenerationSoftware,KiCad,Pcbnew,10.0.5*%
%TF.CreationDate,2026-08-09T14:46:53-05:00*%
%TF.ProjectId,dock,646f636b-2e6b-4696-9361-645f70636258,0.5.0-cont-viii*%
%TF.SameCoordinates,Original*%
%TF.FileFunction,Legend,Top*%
%TF.FilePolarity,Positive*%
%FSLAX46Y46*%
G04 Gerber Fmt 4.6, Leading zero omitted, Abs format (unit mm)*
G04 Created by KiCad (PCBNEW 10.0.5) date 2026-08-09 14:46:53*
%MOMM*%
%LPD*%
G01*
G04 APERTURE LIST*
%ADD10C,0.200000*%
%ADD11C,0.120000*%
G04 APERTURE END LIST*
D10*
X1785714Y-10683528D02*
X1285714Y-9969242D01*
X928571Y-10683528D02*
X928571Y-9183528D01*
X928571Y-9183528D02*
X1500000Y-9183528D01*
X1500000Y-9183528D02*
X1642857Y-9254957D01*
X1642857Y-9254957D02*
X1714286Y-9326385D01*
X1714286Y-9326385D02*
X1785714Y-9469242D01*
X1785714Y-9469242D02*
X1785714Y-9683528D01*
X1785714Y-9683528D02*
X1714286Y-9826385D01*
X1714286Y-9826385D02*
X1642857Y-9897814D01*
X1642857Y-9897814D02*
X1500000Y-9969242D01*
X1500000Y-9969242D02*
X928571Y-9969242D01*
X2428571Y-9897814D02*
X2928571Y-9897814D01*
X3142857Y-10683528D02*
X2428571Y-10683528D01*
X2428571Y-10683528D02*
X2428571Y-9183528D01*
X2428571Y-9183528D02*
X3142857Y-9183528D01*
X3571429Y-9183528D02*
X4071429Y-10683528D01*
X4071429Y-10683528D02*
X4571429Y-9183528D01*
X6500000Y-9183528D02*
X6642857Y-9183528D01*
X6642857Y-9183528D02*
X6785714Y-9254957D01*
X6785714Y-9254957D02*
X6857143Y-9326385D01*
X6857143Y-9326385D02*
X6928571Y-9469242D01*
X6928571Y-9469242D02*
X7000000Y-9754957D01*
X7000000Y-9754957D02*
X7000000Y-10112100D01*
X7000000Y-10112100D02*
X6928571Y-10397814D01*
X6928571Y-10397814D02*
X6857143Y-10540671D01*
X6857143Y-10540671D02*
X6785714Y-10612100D01*
X6785714Y-10612100D02*
X6642857Y-10683528D01*
X6642857Y-10683528D02*
X6500000Y-10683528D01*
X6500000Y-10683528D02*
X6357143Y-10612100D01*
X6357143Y-10612100D02*
X6285714Y-10540671D01*
X6285714Y-10540671D02*
X6214285Y-10397814D01*
X6214285Y-10397814D02*
X6142857Y-10112100D01*
X6142857Y-10112100D02*
X6142857Y-9754957D01*
X6142857Y-9754957D02*
X6214285Y-9469242D01*
X6214285Y-9469242D02*
X6285714Y-9326385D01*
X6285714Y-9326385D02*
X6357143Y-9254957D01*
X6357143Y-9254957D02*
X6500000Y-9183528D01*
X7642856Y-10540671D02*
X7714285Y-10612100D01*
X7714285Y-10612100D02*
X7642856Y-10683528D01*
X7642856Y-10683528D02*
X7571428Y-10612100D01*
X7571428Y-10612100D02*
X7642856Y-10540671D01*
X7642856Y-10540671D02*
X7642856Y-10683528D01*
X9071428Y-9183528D02*
X8357142Y-9183528D01*
X8357142Y-9183528D02*
X8285714Y-9897814D01*
X8285714Y-9897814D02*
X8357142Y-9826385D01*
X8357142Y-9826385D02*
X8500000Y-9754957D01*
X8500000Y-9754957D02*
X8857142Y-9754957D01*
X8857142Y-9754957D02*
X9000000Y-9826385D01*
X9000000Y-9826385D02*
X9071428Y-9897814D01*
X9071428Y-9897814D02*
X9142857Y-10040671D01*
X9142857Y-10040671D02*
X9142857Y-10397814D01*
X9142857Y-10397814D02*
X9071428Y-10540671D01*
X9071428Y-10540671D02*
X9000000Y-10612100D01*
X9000000Y-10612100D02*
X8857142Y-10683528D01*
X8857142Y-10683528D02*
X8500000Y-10683528D01*
X8500000Y-10683528D02*
X8357142Y-10612100D01*
X8357142Y-10612100D02*
X8285714Y-10540671D01*
X9785713Y-10540671D02*
X9857142Y-10612100D01*
X9857142Y-10612100D02*
X9785713Y-10683528D01*
X9785713Y-10683528D02*
X9714285Y-10612100D01*
X9714285Y-10612100D02*
X9785713Y-10540671D01*
X9785713Y-10540671D02*
X9785713Y-10683528D01*
X10785714Y-9183528D02*
X10928571Y-9183528D01*
X10928571Y-9183528D02*
X11071428Y-9254957D01*
X11071428Y-9254957D02*
X11142857Y-9326385D01*
X11142857Y-9326385D02*
X11214285Y-9469242D01*
X11214285Y-9469242D02*
X11285714Y-9754957D01*
X11285714Y-9754957D02*
X11285714Y-10112100D01*
X11285714Y-10112100D02*
X11214285Y-10397814D01*
X11214285Y-10397814D02*
X11142857Y-10540671D01*
X11142857Y-10540671D02*
X11071428Y-10612100D01*
X11071428Y-10612100D02*
X10928571Y-10683528D01*
X10928571Y-10683528D02*
X10785714Y-10683528D01*
X10785714Y-10683528D02*
X10642857Y-10612100D01*
X10642857Y-10612100D02*
X10571428Y-10540671D01*
X10571428Y-10540671D02*
X10499999Y-10397814D01*
X10499999Y-10397814D02*
X10428571Y-10112100D01*
X10428571Y-10112100D02*
X10428571Y-9754957D01*
X10428571Y-9754957D02*
X10499999Y-9469242D01*
X10499999Y-9469242D02*
X10571428Y-9326385D01*
X10571428Y-9326385D02*
X10642857Y-9254957D01*
X10642857Y-9254957D02*
X10785714Y-9183528D01*
X11928570Y-10112100D02*
X13071428Y-10112100D01*
X14428571Y-10612100D02*
X14285713Y-10683528D01*
X14285713Y-10683528D02*
X13999999Y-10683528D01*
X13999999Y-10683528D02*
X13857142Y-10612100D01*
X13857142Y-10612100D02*
X13785713Y-10540671D01*
X13785713Y-10540671D02*
X13714285Y-10397814D01*
X13714285Y-10397814D02*
X13714285Y-9969242D01*
X13714285Y-9969242D02*
X13785713Y-9826385D01*
X13785713Y-9826385D02*
X13857142Y-9754957D01*
X13857142Y-9754957D02*
X13999999Y-9683528D01*
X13999999Y-9683528D02*
X14285713Y-9683528D01*
X14285713Y-9683528D02*
X14428571Y-9754957D01*
X15285713Y-10683528D02*
X15142856Y-10612100D01*
X15142856Y-10612100D02*
X15071427Y-10540671D01*
X15071427Y-10540671D02*
X14999999Y-10397814D01*
X14999999Y-10397814D02*
X14999999Y-9969242D01*
X14999999Y-9969242D02*
X15071427Y-9826385D01*
X15071427Y-9826385D02*
X15142856Y-9754957D01*
X15142856Y-9754957D02*
X15285713Y-9683528D01*
X15285713Y-9683528D02*
X15499999Y-9683528D01*
X15499999Y-9683528D02*
X15642856Y-9754957D01*
X15642856Y-9754957D02*
X15714285Y-9826385D01*
X15714285Y-9826385D02*
X15785713Y-9969242D01*
X15785713Y-9969242D02*
X15785713Y-10397814D01*
X15785713Y-10397814D02*
X15714285Y-10540671D01*
X15714285Y-10540671D02*
X15642856Y-10612100D01*
X15642856Y-10612100D02*
X15499999Y-10683528D01*
X15499999Y-10683528D02*
X15285713Y-10683528D01*
X16428570Y-9683528D02*
X16428570Y-10683528D01*
X16428570Y-9826385D02*
X16499999Y-9754957D01*
X16499999Y-9754957D02*
X16642856Y-9683528D01*
X16642856Y-9683528D02*
X16857142Y-9683528D01*
X16857142Y-9683528D02*
X16999999Y-9754957D01*
X16999999Y-9754957D02*
X17071428Y-9897814D01*
X17071428Y-9897814D02*
X17071428Y-10683528D01*
X17571428Y-9683528D02*
X18142856Y-9683528D01*
X17785713Y-9183528D02*
X17785713Y-10469242D01*
X17785713Y-10469242D02*
X17857142Y-10612100D01*
X17857142Y-10612100D02*
X17999999Y-10683528D01*
X17999999Y-10683528D02*
X18142856Y-10683528D01*
X18642856Y-10112100D02*
X19785714Y-10112100D01*
X20357142Y-9683528D02*
X20714285Y-10683528D01*
X20714285Y-10683528D02*
X21071428Y-9683528D01*
X21642856Y-10683528D02*
X21642856Y-9683528D01*
X21642856Y-9183528D02*
X21571428Y-9254957D01*
X21571428Y-9254957D02*
X21642856Y-9326385D01*
X21642856Y-9326385D02*
X21714285Y-9254957D01*
X21714285Y-9254957D02*
X21642856Y-9183528D01*
X21642856Y-9183528D02*
X21642856Y-9326385D01*
X22357142Y-10683528D02*
X22357142Y-9683528D01*
X22357142Y-9183528D02*
X22285714Y-9254957D01*
X22285714Y-9254957D02*
X22357142Y-9326385D01*
X22357142Y-9326385D02*
X22428571Y-9254957D01*
X22428571Y-9254957D02*
X22357142Y-9183528D01*
X22357142Y-9183528D02*
X22357142Y-9326385D01*
X23071428Y-10683528D02*
X23071428Y-9683528D01*
X23071428Y-9183528D02*
X23000000Y-9254957D01*
X23000000Y-9254957D02*
X23071428Y-9326385D01*
X23071428Y-9326385D02*
X23142857Y-9254957D01*
X23142857Y-9254957D02*
X23071428Y-9183528D01*
X23071428Y-9183528D02*
X23071428Y-9326385D01*
%TO.C,JUSB1*%
D11*
X35500000Y-35500000D02*
X40500000Y-35500000D01*
X40500000Y-40500000D01*
X35500000Y-40500000D01*
X35500000Y-35500000D01*
%TO.C,UPD1*%
X59500000Y-35500000D02*
X64500000Y-35500000D01*
X64500000Y-40500000D01*
X59500000Y-40500000D01*
X59500000Y-35500000D01*
%TO.C,UCHG1*%
X83500000Y-35500000D02*
X88500000Y-35500000D01*
X88500000Y-40500000D01*
X83500000Y-40500000D01*
X83500000Y-35500000D01*
%TO.C,U3V3*%
X107500000Y-35500000D02*
X112500000Y-35500000D01*
X112500000Y-40500000D01*
X107500000Y-40500000D01*
X107500000Y-35500000D01*
%TO.C,C1*%
X131500000Y-35500000D02*
X136500000Y-35500000D01*
X136500000Y-40500000D01*
X131500000Y-40500000D01*
X131500000Y-35500000D01*
%TO.C,C2*%
X35500000Y-59500000D02*
X40500000Y-59500000D01*
X40500000Y-64500000D01*
X35500000Y-64500000D01*
X35500000Y-59500000D01*
%TO.C,R1*%
X59500000Y-59500000D02*
X64500000Y-59500000D01*
X64500000Y-64500000D01*
X59500000Y-64500000D01*
X59500000Y-59500000D01*
%TO.C,D1*%
X83500000Y-59500000D02*
X88500000Y-59500000D01*
X88500000Y-64500000D01*
X83500000Y-64500000D01*
X83500000Y-59500000D01*
%TO.C,R2*%
X107500000Y-59500000D02*
X112500000Y-59500000D01*
X112500000Y-64500000D01*
X107500000Y-64500000D01*
X107500000Y-59500000D01*
%TO.C,DESD1*%
X131500000Y-59500000D02*
X136500000Y-59500000D01*
X136500000Y-64500000D01*
X131500000Y-64500000D01*
X131500000Y-59500000D01*
%TD*%
M02*
