%TF.GenerationSoftware,KiCad,Pcbnew,10.0.5*%
%TF.CreationDate,2026-08-09T15:51:03-05:00*%
%TF.ProjectId,dock,646f636b-2e6b-4696-9361-645f70636258,0.6.0-cont-ix*%
%TF.SameCoordinates,Original*%
%TF.FileFunction,Other,Comment*%
%FSLAX46Y46*%
G04 Gerber Fmt 4.6, Leading zero omitted, Abs format (unit mm)*
G04 Created by KiCad (PCBNEW 10.0.5) date 2026-08-09 15:51:03*
%MOMM*%
%LPD*%
G01*
G04 APERTURE LIST*
%ADD10C,0.100000*%
G04 APERTURE END LIST*
D10*
X-23642863Y-131505038D02*
X-23738101Y-131457419D01*
X-23738101Y-131457419D02*
X-23880958Y-131457419D01*
X-23880958Y-131457419D02*
X-24023815Y-131505038D01*
X-24023815Y-131505038D02*
X-24119053Y-131600276D01*
X-24119053Y-131600276D02*
X-24166672Y-131695514D01*
X-24166672Y-131695514D02*
X-24214291Y-131885990D01*
X-24214291Y-131885990D02*
X-24214291Y-132028847D01*
X-24214291Y-132028847D02*
X-24166672Y-132219323D01*
X-24166672Y-132219323D02*
X-24119053Y-132314561D01*
X-24119053Y-132314561D02*
X-24023815Y-132409800D01*
X-24023815Y-132409800D02*
X-23880958Y-132457419D01*
X-23880958Y-132457419D02*
X-23785720Y-132457419D01*
X-23785720Y-132457419D02*
X-23642863Y-132409800D01*
X-23642863Y-132409800D02*
X-23595244Y-132362180D01*
X-23595244Y-132362180D02*
X-23595244Y-132028847D01*
X-23595244Y-132028847D02*
X-23785720Y-132028847D01*
X-23166672Y-132457419D02*
X-23166672Y-131457419D01*
X-23166672Y-131457419D02*
X-22595244Y-132457419D01*
X-22595244Y-132457419D02*
X-22595244Y-131457419D01*
X-22119053Y-132457419D02*
X-22119053Y-131457419D01*
X-22119053Y-131457419D02*
X-21880958Y-131457419D01*
X-21880958Y-131457419D02*
X-21738101Y-131505038D01*
X-21738101Y-131505038D02*
X-21642863Y-131600276D01*
X-21642863Y-131600276D02*
X-21595244Y-131695514D01*
X-21595244Y-131695514D02*
X-21547625Y-131885990D01*
X-21547625Y-131885990D02*
X-21547625Y-132028847D01*
X-21547625Y-132028847D02*
X-21595244Y-132219323D01*
X-21595244Y-132219323D02*
X-21642863Y-132314561D01*
X-21642863Y-132314561D02*
X-21738101Y-132409800D01*
X-21738101Y-132409800D02*
X-21880958Y-132457419D01*
X-21880958Y-132457419D02*
X-22119053Y-132457419D01*
X-20357148Y-131790752D02*
X-20357148Y-132790752D01*
X-20357148Y-131838371D02*
X-20261910Y-131790752D01*
X-20261910Y-131790752D02*
X-20071434Y-131790752D01*
X-20071434Y-131790752D02*
X-19976196Y-131838371D01*
X-19976196Y-131838371D02*
X-19928577Y-131885990D01*
X-19928577Y-131885990D02*
X-19880958Y-131981228D01*
X-19880958Y-131981228D02*
X-19880958Y-132266942D01*
X-19880958Y-132266942D02*
X-19928577Y-132362180D01*
X-19928577Y-132362180D02*
X-19976196Y-132409800D01*
X-19976196Y-132409800D02*
X-20071434Y-132457419D01*
X-20071434Y-132457419D02*
X-20261910Y-132457419D01*
X-20261910Y-132457419D02*
X-20357148Y-132409800D01*
X-19309529Y-132457419D02*
X-19404767Y-132409800D01*
X-19404767Y-132409800D02*
X-19452386Y-132362180D01*
X-19452386Y-132362180D02*
X-19500005Y-132266942D01*
X-19500005Y-132266942D02*
X-19500005Y-131981228D01*
X-19500005Y-131981228D02*
X-19452386Y-131885990D01*
X-19452386Y-131885990D02*
X-19404767Y-131838371D01*
X-19404767Y-131838371D02*
X-19309529Y-131790752D01*
X-19309529Y-131790752D02*
X-19166672Y-131790752D01*
X-19166672Y-131790752D02*
X-19071434Y-131838371D01*
X-19071434Y-131838371D02*
X-19023815Y-131885990D01*
X-19023815Y-131885990D02*
X-18976196Y-131981228D01*
X-18976196Y-131981228D02*
X-18976196Y-132266942D01*
X-18976196Y-132266942D02*
X-19023815Y-132362180D01*
X-19023815Y-132362180D02*
X-19071434Y-132409800D01*
X-19071434Y-132409800D02*
X-19166672Y-132457419D01*
X-19166672Y-132457419D02*
X-19309529Y-132457419D01*
X-18119053Y-131790752D02*
X-18119053Y-132457419D01*
X-18547624Y-131790752D02*
X-18547624Y-132314561D01*
X-18547624Y-132314561D02*
X-18500005Y-132409800D01*
X-18500005Y-132409800D02*
X-18404767Y-132457419D01*
X-18404767Y-132457419D02*
X-18261910Y-132457419D01*
X-18261910Y-132457419D02*
X-18166672Y-132409800D01*
X-18166672Y-132409800D02*
X-18119053Y-132362180D01*
X-17642862Y-132457419D02*
X-17642862Y-131790752D01*
X-17642862Y-131981228D02*
X-17595243Y-131885990D01*
X-17595243Y-131885990D02*
X-17547624Y-131838371D01*
X-17547624Y-131838371D02*
X-17452386Y-131790752D01*
X-17452386Y-131790752D02*
X-17357148Y-131790752D01*
X-16261909Y-132457419D02*
X-16261909Y-131790752D01*
X-16261909Y-131457419D02*
X-16309528Y-131505038D01*
X-16309528Y-131505038D02*
X-16261909Y-131552657D01*
X-16261909Y-131552657D02*
X-16214290Y-131505038D01*
X-16214290Y-131505038D02*
X-16261909Y-131457419D01*
X-16261909Y-131457419D02*
X-16261909Y-131552657D01*
X-15785719Y-131790752D02*
X-15785719Y-132457419D01*
X-15785719Y-131885990D02*
X-15738100Y-131838371D01*
X-15738100Y-131838371D02*
X-15642862Y-131790752D01*
X-15642862Y-131790752D02*
X-15500005Y-131790752D01*
X-15500005Y-131790752D02*
X-15404767Y-131838371D01*
X-15404767Y-131838371D02*
X-15357148Y-131933609D01*
X-15357148Y-131933609D02*
X-15357148Y-132457419D01*
X-15023814Y-131790752D02*
X-14642862Y-131790752D01*
X-14880957Y-131457419D02*
X-14880957Y-132314561D01*
X-14880957Y-132314561D02*
X-14833338Y-132409800D01*
X-14833338Y-132409800D02*
X-14738100Y-132457419D01*
X-14738100Y-132457419D02*
X-14642862Y-132457419D01*
X-13928576Y-132409800D02*
X-14023814Y-132457419D01*
X-14023814Y-132457419D02*
X-14214290Y-132457419D01*
X-14214290Y-132457419D02*
X-14309528Y-132409800D01*
X-14309528Y-132409800D02*
X-14357147Y-132314561D01*
X-14357147Y-132314561D02*
X-14357147Y-131933609D01*
X-14357147Y-131933609D02*
X-14309528Y-131838371D01*
X-14309528Y-131838371D02*
X-14214290Y-131790752D01*
X-14214290Y-131790752D02*
X-14023814Y-131790752D01*
X-14023814Y-131790752D02*
X-13928576Y-131838371D01*
X-13928576Y-131838371D02*
X-13880957Y-131933609D01*
X-13880957Y-131933609D02*
X-13880957Y-132028847D01*
X-13880957Y-132028847D02*
X-14357147Y-132124085D01*
X-13452385Y-131790752D02*
X-13452385Y-132457419D01*
X-13452385Y-131885990D02*
X-13404766Y-131838371D01*
X-13404766Y-131838371D02*
X-13309528Y-131790752D01*
X-13309528Y-131790752D02*
X-13166671Y-131790752D01*
X-13166671Y-131790752D02*
X-13071433Y-131838371D01*
X-13071433Y-131838371D02*
X-13023814Y-131933609D01*
X-13023814Y-131933609D02*
X-13023814Y-132457419D01*
X-12690480Y-131790752D02*
X-12309528Y-131790752D01*
X-12547623Y-131457419D02*
X-12547623Y-132314561D01*
X-12547623Y-132314561D02*
X-12500004Y-132409800D01*
X-12500004Y-132409800D02*
X-12404766Y-132457419D01*
X-12404766Y-132457419D02*
X-12309528Y-132457419D01*
X-10880956Y-131933609D02*
X-11214289Y-131933609D01*
X-11214289Y-132457419D02*
X-11214289Y-131457419D01*
X-11214289Y-131457419D02*
X-10738099Y-131457419D01*
X-9642861Y-131409800D02*
X-10500003Y-132695514D01*
X-8976194Y-131933609D02*
X-8833337Y-131981228D01*
X-8833337Y-131981228D02*
X-8785718Y-132028847D01*
X-8785718Y-132028847D02*
X-8738099Y-132124085D01*
X-8738099Y-132124085D02*
X-8738099Y-132266942D01*
X-8738099Y-132266942D02*
X-8785718Y-132362180D01*
X-8785718Y-132362180D02*
X-8833337Y-132409800D01*
X-8833337Y-132409800D02*
X-8928575Y-132457419D01*
X-8928575Y-132457419D02*
X-9309527Y-132457419D01*
X-9309527Y-132457419D02*
X-9309527Y-131457419D01*
X-9309527Y-131457419D02*
X-8976194Y-131457419D01*
X-8976194Y-131457419D02*
X-8880956Y-131505038D01*
X-8880956Y-131505038D02*
X-8833337Y-131552657D01*
X-8833337Y-131552657D02*
X-8785718Y-131647895D01*
X-8785718Y-131647895D02*
X-8785718Y-131743133D01*
X-8785718Y-131743133D02*
X-8833337Y-131838371D01*
X-8833337Y-131838371D02*
X-8880956Y-131885990D01*
X-8880956Y-131885990D02*
X-8976194Y-131933609D01*
X-8976194Y-131933609D02*
X-9309527Y-131933609D01*
X-7642860Y-132124085D02*
X-6785718Y-132124085D01*
X-5071432Y-132362180D02*
X-5119051Y-132409800D01*
X-5119051Y-132409800D02*
X-5261908Y-132457419D01*
X-5261908Y-132457419D02*
X-5357146Y-132457419D01*
X-5357146Y-132457419D02*
X-5500003Y-132409800D01*
X-5500003Y-132409800D02*
X-5595241Y-132314561D01*
X-5595241Y-132314561D02*
X-5642860Y-132219323D01*
X-5642860Y-132219323D02*
X-5690479Y-132028847D01*
X-5690479Y-132028847D02*
X-5690479Y-131885990D01*
X-5690479Y-131885990D02*
X-5642860Y-131695514D01*
X-5642860Y-131695514D02*
X-5595241Y-131600276D01*
X-5595241Y-131600276D02*
X-5500003Y-131505038D01*
X-5500003Y-131505038D02*
X-5357146Y-131457419D01*
X-5357146Y-131457419D02*
X-5261908Y-131457419D01*
X-5261908Y-131457419D02*
X-5119051Y-131505038D01*
X-5119051Y-131505038D02*
X-5071432Y-131552657D01*
X-4500003Y-132457419D02*
X-4595241Y-132409800D01*
X-4595241Y-132409800D02*
X-4642860Y-132362180D01*
X-4642860Y-132362180D02*
X-4690479Y-132266942D01*
X-4690479Y-132266942D02*
X-4690479Y-131981228D01*
X-4690479Y-131981228D02*
X-4642860Y-131885990D01*
X-4642860Y-131885990D02*
X-4595241Y-131838371D01*
X-4595241Y-131838371D02*
X-4500003Y-131790752D01*
X-4500003Y-131790752D02*
X-4357146Y-131790752D01*
X-4357146Y-131790752D02*
X-4261908Y-131838371D01*
X-4261908Y-131838371D02*
X-4214289Y-131885990D01*
X-4214289Y-131885990D02*
X-4166670Y-131981228D01*
X-4166670Y-131981228D02*
X-4166670Y-132266942D01*
X-4166670Y-132266942D02*
X-4214289Y-132362180D01*
X-4214289Y-132362180D02*
X-4261908Y-132409800D01*
X-4261908Y-132409800D02*
X-4357146Y-132457419D01*
X-4357146Y-132457419D02*
X-4500003Y-132457419D01*
X-3738098Y-131790752D02*
X-3738098Y-132457419D01*
X-3738098Y-131885990D02*
X-3690479Y-131838371D01*
X-3690479Y-131838371D02*
X-3595241Y-131790752D01*
X-3595241Y-131790752D02*
X-3452384Y-131790752D01*
X-3452384Y-131790752D02*
X-3357146Y-131838371D01*
X-3357146Y-131838371D02*
X-3309527Y-131933609D01*
X-3309527Y-131933609D02*
X-3309527Y-132457419D01*
X-2976193Y-131790752D02*
X-2595241Y-131790752D01*
X-2833336Y-131457419D02*
X-2833336Y-132314561D01*
X-2833336Y-132314561D02*
X-2785717Y-132409800D01*
X-2785717Y-132409800D02*
X-2690479Y-132457419D01*
X-2690479Y-132457419D02*
X-2595241Y-132457419D01*
X-1500002Y-132457419D02*
X-1500002Y-131457419D01*
X-1119050Y-131457419D02*
X-452384Y-132457419D01*
X-452384Y-131457419D02*
X-1119050Y-132457419D01*
X833330Y-132457419D02*
X738092Y-132409800D01*
X738092Y-132409800D02*
X690473Y-132314561D01*
X690473Y-132314561D02*
X690473Y-131457419D01*
X1595235Y-132409800D02*
X1499997Y-132457419D01*
X1499997Y-132457419D02*
X1309521Y-132457419D01*
X1309521Y-132457419D02*
X1214283Y-132409800D01*
X1214283Y-132409800D02*
X1166664Y-132314561D01*
X1166664Y-132314561D02*
X1166664Y-131933609D01*
X1166664Y-131933609D02*
X1214283Y-131838371D01*
X1214283Y-131838371D02*
X1309521Y-131790752D01*
X1309521Y-131790752D02*
X1499997Y-131790752D01*
X1499997Y-131790752D02*
X1595235Y-131838371D01*
X1595235Y-131838371D02*
X1642854Y-131933609D01*
X1642854Y-131933609D02*
X1642854Y-132028847D01*
X1642854Y-132028847D02*
X1166664Y-132124085D01*
X2499997Y-132457419D02*
X2499997Y-131933609D01*
X2499997Y-131933609D02*
X2452378Y-131838371D01*
X2452378Y-131838371D02*
X2357140Y-131790752D01*
X2357140Y-131790752D02*
X2166664Y-131790752D01*
X2166664Y-131790752D02*
X2071426Y-131838371D01*
X2499997Y-132409800D02*
X2404759Y-132457419D01*
X2404759Y-132457419D02*
X2166664Y-132457419D01*
X2166664Y-132457419D02*
X2071426Y-132409800D01*
X2071426Y-132409800D02*
X2023807Y-132314561D01*
X2023807Y-132314561D02*
X2023807Y-132219323D01*
X2023807Y-132219323D02*
X2071426Y-132124085D01*
X2071426Y-132124085D02*
X2166664Y-132076466D01*
X2166664Y-132076466D02*
X2404759Y-132076466D01*
X2404759Y-132076466D02*
X2499997Y-132028847D01*
X2880950Y-131790752D02*
X3119045Y-132457419D01*
X3119045Y-132457419D02*
X3357140Y-131790752D01*
X4119045Y-132409800D02*
X4023807Y-132457419D01*
X4023807Y-132457419D02*
X3833331Y-132457419D01*
X3833331Y-132457419D02*
X3738093Y-132409800D01*
X3738093Y-132409800D02*
X3690474Y-132314561D01*
X3690474Y-132314561D02*
X3690474Y-131933609D01*
X3690474Y-131933609D02*
X3738093Y-131838371D01*
X3738093Y-131838371D02*
X3833331Y-131790752D01*
X3833331Y-131790752D02*
X4023807Y-131790752D01*
X4023807Y-131790752D02*
X4119045Y-131838371D01*
X4119045Y-131838371D02*
X4166664Y-131933609D01*
X4166664Y-131933609D02*
X4166664Y-132028847D01*
X4166664Y-132028847D02*
X3690474Y-132124085D01*
X4547617Y-132409800D02*
X4642855Y-132457419D01*
X4642855Y-132457419D02*
X4833331Y-132457419D01*
X4833331Y-132457419D02*
X4928569Y-132409800D01*
X4928569Y-132409800D02*
X4976188Y-132314561D01*
X4976188Y-132314561D02*
X4976188Y-132266942D01*
X4976188Y-132266942D02*
X4928569Y-132171704D01*
X4928569Y-132171704D02*
X4833331Y-132124085D01*
X4833331Y-132124085D02*
X4690474Y-132124085D01*
X4690474Y-132124085D02*
X4595236Y-132076466D01*
X4595236Y-132076466D02*
X4547617Y-131981228D01*
X4547617Y-131981228D02*
X4547617Y-131933609D01*
X4547617Y-131933609D02*
X4595236Y-131838371D01*
X4595236Y-131838371D02*
X4690474Y-131790752D01*
X4690474Y-131790752D02*
X4833331Y-131790752D01*
X4833331Y-131790752D02*
X4928569Y-131838371D01*
X6595236Y-131790752D02*
X6595236Y-132457419D01*
X6166665Y-131790752D02*
X6166665Y-132314561D01*
X6166665Y-132314561D02*
X6214284Y-132409800D01*
X6214284Y-132409800D02*
X6309522Y-132457419D01*
X6309522Y-132457419D02*
X6452379Y-132457419D01*
X6452379Y-132457419D02*
X6547617Y-132409800D01*
X6547617Y-132409800D02*
X6595236Y-132362180D01*
X7071427Y-131790752D02*
X7071427Y-132457419D01*
X7071427Y-131885990D02*
X7119046Y-131838371D01*
X7119046Y-131838371D02*
X7214284Y-131790752D01*
X7214284Y-131790752D02*
X7357141Y-131790752D01*
X7357141Y-131790752D02*
X7452379Y-131838371D01*
X7452379Y-131838371D02*
X7499998Y-131933609D01*
X7499998Y-131933609D02*
X7499998Y-132457419D01*
X7833332Y-131790752D02*
X8214284Y-131790752D01*
X7976189Y-132457419D02*
X7976189Y-131600276D01*
X7976189Y-131600276D02*
X8023808Y-131505038D01*
X8023808Y-131505038D02*
X8119046Y-131457419D01*
X8119046Y-131457419D02*
X8214284Y-131457419D01*
X8547618Y-132457419D02*
X8547618Y-131790752D01*
X8547618Y-131457419D02*
X8499999Y-131505038D01*
X8499999Y-131505038D02*
X8547618Y-131552657D01*
X8547618Y-131552657D02*
X8595237Y-131505038D01*
X8595237Y-131505038D02*
X8547618Y-131457419D01*
X8547618Y-131457419D02*
X8547618Y-131552657D01*
X9166665Y-132457419D02*
X9071427Y-132409800D01*
X9071427Y-132409800D02*
X9023808Y-132314561D01*
X9023808Y-132314561D02*
X9023808Y-131457419D01*
X9690475Y-132457419D02*
X9595237Y-132409800D01*
X9595237Y-132409800D02*
X9547618Y-132314561D01*
X9547618Y-132314561D02*
X9547618Y-131457419D01*
X10452380Y-132409800D02*
X10357142Y-132457419D01*
X10357142Y-132457419D02*
X10166666Y-132457419D01*
X10166666Y-132457419D02*
X10071428Y-132409800D01*
X10071428Y-132409800D02*
X10023809Y-132314561D01*
X10023809Y-132314561D02*
X10023809Y-131933609D01*
X10023809Y-131933609D02*
X10071428Y-131838371D01*
X10071428Y-131838371D02*
X10166666Y-131790752D01*
X10166666Y-131790752D02*
X10357142Y-131790752D01*
X10357142Y-131790752D02*
X10452380Y-131838371D01*
X10452380Y-131838371D02*
X10499999Y-131933609D01*
X10499999Y-131933609D02*
X10499999Y-132028847D01*
X10499999Y-132028847D02*
X10023809Y-132124085D01*
X11357142Y-132457419D02*
X11357142Y-131457419D01*
X11357142Y-132409800D02*
X11261904Y-132457419D01*
X11261904Y-132457419D02*
X11071428Y-132457419D01*
X11071428Y-132457419D02*
X10976190Y-132409800D01*
X10976190Y-132409800D02*
X10928571Y-132362180D01*
X10928571Y-132362180D02*
X10880952Y-132266942D01*
X10880952Y-132266942D02*
X10880952Y-131981228D01*
X10880952Y-131981228D02*
X10928571Y-131885990D01*
X10928571Y-131885990D02*
X10976190Y-131838371D01*
X10976190Y-131838371D02*
X11071428Y-131790752D01*
X11071428Y-131790752D02*
X11261904Y-131790752D01*
X11261904Y-131790752D02*
X11357142Y-131838371D01*
X12452381Y-131790752D02*
X12833333Y-131790752D01*
X12595238Y-132457419D02*
X12595238Y-131600276D01*
X12595238Y-131600276D02*
X12642857Y-131505038D01*
X12642857Y-131505038D02*
X12738095Y-131457419D01*
X12738095Y-131457419D02*
X12833333Y-131457419D01*
X13309524Y-132457419D02*
X13214286Y-132409800D01*
X13214286Y-132409800D02*
X13166667Y-132362180D01*
X13166667Y-132362180D02*
X13119048Y-132266942D01*
X13119048Y-132266942D02*
X13119048Y-131981228D01*
X13119048Y-131981228D02*
X13166667Y-131885990D01*
X13166667Y-131885990D02*
X13214286Y-131838371D01*
X13214286Y-131838371D02*
X13309524Y-131790752D01*
X13309524Y-131790752D02*
X13452381Y-131790752D01*
X13452381Y-131790752D02*
X13547619Y-131838371D01*
X13547619Y-131838371D02*
X13595238Y-131885990D01*
X13595238Y-131885990D02*
X13642857Y-131981228D01*
X13642857Y-131981228D02*
X13642857Y-132266942D01*
X13642857Y-132266942D02*
X13595238Y-132362180D01*
X13595238Y-132362180D02*
X13547619Y-132409800D01*
X13547619Y-132409800D02*
X13452381Y-132457419D01*
X13452381Y-132457419D02*
X13309524Y-132457419D01*
X14071429Y-132457419D02*
X14071429Y-131790752D01*
X14071429Y-131981228D02*
X14119048Y-131885990D01*
X14119048Y-131885990D02*
X14166667Y-131838371D01*
X14166667Y-131838371D02*
X14261905Y-131790752D01*
X14261905Y-131790752D02*
X14357143Y-131790752D01*
X15452382Y-132457419D02*
X15452382Y-131457419D01*
X15452382Y-131457419D02*
X15690477Y-131457419D01*
X15690477Y-131457419D02*
X15833334Y-131505038D01*
X15833334Y-131505038D02*
X15928572Y-131600276D01*
X15928572Y-131600276D02*
X15976191Y-131695514D01*
X15976191Y-131695514D02*
X16023810Y-131885990D01*
X16023810Y-131885990D02*
X16023810Y-132028847D01*
X16023810Y-132028847D02*
X15976191Y-132219323D01*
X15976191Y-132219323D02*
X15928572Y-132314561D01*
X15928572Y-132314561D02*
X15833334Y-132409800D01*
X15833334Y-132409800D02*
X15690477Y-132457419D01*
X15690477Y-132457419D02*
X15452382Y-132457419D01*
X17023810Y-132457419D02*
X16690477Y-131981228D01*
X16452382Y-132457419D02*
X16452382Y-131457419D01*
X16452382Y-131457419D02*
X16833334Y-131457419D01*
X16833334Y-131457419D02*
X16928572Y-131505038D01*
X16928572Y-131505038D02*
X16976191Y-131552657D01*
X16976191Y-131552657D02*
X17023810Y-131647895D01*
X17023810Y-131647895D02*
X17023810Y-131790752D01*
X17023810Y-131790752D02*
X16976191Y-131885990D01*
X16976191Y-131885990D02*
X16928572Y-131933609D01*
X16928572Y-131933609D02*
X16833334Y-131981228D01*
X16833334Y-131981228D02*
X16452382Y-131981228D01*
X18023810Y-132362180D02*
X17976191Y-132409800D01*
X17976191Y-132409800D02*
X17833334Y-132457419D01*
X17833334Y-132457419D02*
X17738096Y-132457419D01*
X17738096Y-132457419D02*
X17595239Y-132409800D01*
X17595239Y-132409800D02*
X17500001Y-132314561D01*
X17500001Y-132314561D02*
X17452382Y-132219323D01*
X17452382Y-132219323D02*
X17404763Y-132028847D01*
X17404763Y-132028847D02*
X17404763Y-131885990D01*
X17404763Y-131885990D02*
X17452382Y-131695514D01*
X17452382Y-131695514D02*
X17500001Y-131600276D01*
X17500001Y-131600276D02*
X17595239Y-131505038D01*
X17595239Y-131505038D02*
X17738096Y-131457419D01*
X17738096Y-131457419D02*
X17833334Y-131457419D01*
X17833334Y-131457419D02*
X17976191Y-131505038D01*
X17976191Y-131505038D02*
X18023810Y-131552657D01*
X18452382Y-132076466D02*
X19214287Y-132076466D01*
X20119048Y-132409800D02*
X20023810Y-132457419D01*
X20023810Y-132457419D02*
X19833334Y-132457419D01*
X19833334Y-132457419D02*
X19738096Y-132409800D01*
X19738096Y-132409800D02*
X19690477Y-132362180D01*
X19690477Y-132362180D02*
X19642858Y-132266942D01*
X19642858Y-132266942D02*
X19642858Y-131981228D01*
X19642858Y-131981228D02*
X19690477Y-131885990D01*
X19690477Y-131885990D02*
X19738096Y-131838371D01*
X19738096Y-131838371D02*
X19833334Y-131790752D01*
X19833334Y-131790752D02*
X20023810Y-131790752D01*
X20023810Y-131790752D02*
X20119048Y-131838371D01*
X20690477Y-132457419D02*
X20595239Y-132409800D01*
X20595239Y-132409800D02*
X20547620Y-132314561D01*
X20547620Y-132314561D02*
X20547620Y-131457419D01*
X21452382Y-132409800D02*
X21357144Y-132457419D01*
X21357144Y-132457419D02*
X21166668Y-132457419D01*
X21166668Y-132457419D02*
X21071430Y-132409800D01*
X21071430Y-132409800D02*
X21023811Y-132314561D01*
X21023811Y-132314561D02*
X21023811Y-131933609D01*
X21023811Y-131933609D02*
X21071430Y-131838371D01*
X21071430Y-131838371D02*
X21166668Y-131790752D01*
X21166668Y-131790752D02*
X21357144Y-131790752D01*
X21357144Y-131790752D02*
X21452382Y-131838371D01*
X21452382Y-131838371D02*
X21500001Y-131933609D01*
X21500001Y-131933609D02*
X21500001Y-132028847D01*
X21500001Y-132028847D02*
X21023811Y-132124085D01*
X22357144Y-132457419D02*
X22357144Y-131933609D01*
X22357144Y-131933609D02*
X22309525Y-131838371D01*
X22309525Y-131838371D02*
X22214287Y-131790752D01*
X22214287Y-131790752D02*
X22023811Y-131790752D01*
X22023811Y-131790752D02*
X21928573Y-131838371D01*
X22357144Y-132409800D02*
X22261906Y-132457419D01*
X22261906Y-132457419D02*
X22023811Y-132457419D01*
X22023811Y-132457419D02*
X21928573Y-132409800D01*
X21928573Y-132409800D02*
X21880954Y-132314561D01*
X21880954Y-132314561D02*
X21880954Y-132219323D01*
X21880954Y-132219323D02*
X21928573Y-132124085D01*
X21928573Y-132124085D02*
X22023811Y-132076466D01*
X22023811Y-132076466D02*
X22261906Y-132076466D01*
X22261906Y-132076466D02*
X22357144Y-132028847D01*
X22833335Y-131790752D02*
X22833335Y-132457419D01*
X22833335Y-131885990D02*
X22880954Y-131838371D01*
X22880954Y-131838371D02*
X22976192Y-131790752D01*
X22976192Y-131790752D02*
X23119049Y-131790752D01*
X23119049Y-131790752D02*
X23214287Y-131838371D01*
X23214287Y-131838371D02*
X23261906Y-131933609D01*
X23261906Y-131933609D02*
X23261906Y-132457419D01*
X24928573Y-132457419D02*
X24928573Y-131457419D01*
X24928573Y-132409800D02*
X24833335Y-132457419D01*
X24833335Y-132457419D02*
X24642859Y-132457419D01*
X24642859Y-132457419D02*
X24547621Y-132409800D01*
X24547621Y-132409800D02*
X24500002Y-132362180D01*
X24500002Y-132362180D02*
X24452383Y-132266942D01*
X24452383Y-132266942D02*
X24452383Y-131981228D01*
X24452383Y-131981228D02*
X24500002Y-131885990D01*
X24500002Y-131885990D02*
X24547621Y-131838371D01*
X24547621Y-131838371D02*
X24642859Y-131790752D01*
X24642859Y-131790752D02*
X24833335Y-131790752D01*
X24833335Y-131790752D02*
X24928573Y-131838371D01*
X25404764Y-132457419D02*
X25404764Y-131790752D01*
X25404764Y-131457419D02*
X25357145Y-131505038D01*
X25357145Y-131505038D02*
X25404764Y-131552657D01*
X25404764Y-131552657D02*
X25452383Y-131505038D01*
X25452383Y-131505038D02*
X25404764Y-131457419D01*
X25404764Y-131457419D02*
X25404764Y-131552657D01*
X26309525Y-131790752D02*
X26309525Y-132600276D01*
X26309525Y-132600276D02*
X26261906Y-132695514D01*
X26261906Y-132695514D02*
X26214287Y-132743133D01*
X26214287Y-132743133D02*
X26119049Y-132790752D01*
X26119049Y-132790752D02*
X25976192Y-132790752D01*
X25976192Y-132790752D02*
X25880954Y-132743133D01*
X26309525Y-132409800D02*
X26214287Y-132457419D01*
X26214287Y-132457419D02*
X26023811Y-132457419D01*
X26023811Y-132457419D02*
X25928573Y-132409800D01*
X25928573Y-132409800D02*
X25880954Y-132362180D01*
X25880954Y-132362180D02*
X25833335Y-132266942D01*
X25833335Y-132266942D02*
X25833335Y-131981228D01*
X25833335Y-131981228D02*
X25880954Y-131885990D01*
X25880954Y-131885990D02*
X25928573Y-131838371D01*
X25928573Y-131838371D02*
X26023811Y-131790752D01*
X26023811Y-131790752D02*
X26214287Y-131790752D01*
X26214287Y-131790752D02*
X26309525Y-131838371D01*
X26785716Y-132457419D02*
X26785716Y-131790752D01*
X26785716Y-131457419D02*
X26738097Y-131505038D01*
X26738097Y-131505038D02*
X26785716Y-131552657D01*
X26785716Y-131552657D02*
X26833335Y-131505038D01*
X26833335Y-131505038D02*
X26785716Y-131457419D01*
X26785716Y-131457419D02*
X26785716Y-131552657D01*
X27119049Y-131790752D02*
X27500001Y-131790752D01*
X27261906Y-131457419D02*
X27261906Y-132314561D01*
X27261906Y-132314561D02*
X27309525Y-132409800D01*
X27309525Y-132409800D02*
X27404763Y-132457419D01*
X27404763Y-132457419D02*
X27500001Y-132457419D01*
X28261906Y-132457419D02*
X28261906Y-131933609D01*
X28261906Y-131933609D02*
X28214287Y-131838371D01*
X28214287Y-131838371D02*
X28119049Y-131790752D01*
X28119049Y-131790752D02*
X27928573Y-131790752D01*
X27928573Y-131790752D02*
X27833335Y-131838371D01*
X28261906Y-132409800D02*
X28166668Y-132457419D01*
X28166668Y-132457419D02*
X27928573Y-132457419D01*
X27928573Y-132457419D02*
X27833335Y-132409800D01*
X27833335Y-132409800D02*
X27785716Y-132314561D01*
X27785716Y-132314561D02*
X27785716Y-132219323D01*
X27785716Y-132219323D02*
X27833335Y-132124085D01*
X27833335Y-132124085D02*
X27928573Y-132076466D01*
X27928573Y-132076466D02*
X28166668Y-132076466D01*
X28166668Y-132076466D02*
X28261906Y-132028847D01*
X28880954Y-132457419D02*
X28785716Y-132409800D01*
X28785716Y-132409800D02*
X28738097Y-132314561D01*
X28738097Y-132314561D02*
X28738097Y-131457419D01*
X30023812Y-131790752D02*
X30023812Y-132790752D01*
X30023812Y-131838371D02*
X30119050Y-131790752D01*
X30119050Y-131790752D02*
X30309526Y-131790752D01*
X30309526Y-131790752D02*
X30404764Y-131838371D01*
X30404764Y-131838371D02*
X30452383Y-131885990D01*
X30452383Y-131885990D02*
X30500002Y-131981228D01*
X30500002Y-131981228D02*
X30500002Y-132266942D01*
X30500002Y-132266942D02*
X30452383Y-132362180D01*
X30452383Y-132362180D02*
X30404764Y-132409800D01*
X30404764Y-132409800D02*
X30309526Y-132457419D01*
X30309526Y-132457419D02*
X30119050Y-132457419D01*
X30119050Y-132457419D02*
X30023812Y-132409800D01*
X31357145Y-132457419D02*
X31357145Y-131933609D01*
X31357145Y-131933609D02*
X31309526Y-131838371D01*
X31309526Y-131838371D02*
X31214288Y-131790752D01*
X31214288Y-131790752D02*
X31023812Y-131790752D01*
X31023812Y-131790752D02*
X30928574Y-131838371D01*
X31357145Y-132409800D02*
X31261907Y-132457419D01*
X31261907Y-132457419D02*
X31023812Y-132457419D01*
X31023812Y-132457419D02*
X30928574Y-132409800D01*
X30928574Y-132409800D02*
X30880955Y-132314561D01*
X30880955Y-132314561D02*
X30880955Y-132219323D01*
X30880955Y-132219323D02*
X30928574Y-132124085D01*
X30928574Y-132124085D02*
X31023812Y-132076466D01*
X31023812Y-132076466D02*
X31261907Y-132076466D01*
X31261907Y-132076466D02*
X31357145Y-132028847D01*
X32261907Y-132409800D02*
X32166669Y-132457419D01*
X32166669Y-132457419D02*
X31976193Y-132457419D01*
X31976193Y-132457419D02*
X31880955Y-132409800D01*
X31880955Y-132409800D02*
X31833336Y-132362180D01*
X31833336Y-132362180D02*
X31785717Y-132266942D01*
X31785717Y-132266942D02*
X31785717Y-131981228D01*
X31785717Y-131981228D02*
X31833336Y-131885990D01*
X31833336Y-131885990D02*
X31880955Y-131838371D01*
X31880955Y-131838371D02*
X31976193Y-131790752D01*
X31976193Y-131790752D02*
X32166669Y-131790752D01*
X32166669Y-131790752D02*
X32261907Y-131838371D01*
X32690479Y-132457419D02*
X32690479Y-131457419D01*
X32785717Y-132076466D02*
X33071431Y-132457419D01*
X33071431Y-131790752D02*
X32690479Y-132171704D01*
X33928574Y-132457419D02*
X33928574Y-131933609D01*
X33928574Y-131933609D02*
X33880955Y-131838371D01*
X33880955Y-131838371D02*
X33785717Y-131790752D01*
X33785717Y-131790752D02*
X33595241Y-131790752D01*
X33595241Y-131790752D02*
X33500003Y-131838371D01*
X33928574Y-132409800D02*
X33833336Y-132457419D01*
X33833336Y-132457419D02*
X33595241Y-132457419D01*
X33595241Y-132457419D02*
X33500003Y-132409800D01*
X33500003Y-132409800D02*
X33452384Y-132314561D01*
X33452384Y-132314561D02*
X33452384Y-132219323D01*
X33452384Y-132219323D02*
X33500003Y-132124085D01*
X33500003Y-132124085D02*
X33595241Y-132076466D01*
X33595241Y-132076466D02*
X33833336Y-132076466D01*
X33833336Y-132076466D02*
X33928574Y-132028847D01*
X34833336Y-131790752D02*
X34833336Y-132600276D01*
X34833336Y-132600276D02*
X34785717Y-132695514D01*
X34785717Y-132695514D02*
X34738098Y-132743133D01*
X34738098Y-132743133D02*
X34642860Y-132790752D01*
X34642860Y-132790752D02*
X34500003Y-132790752D01*
X34500003Y-132790752D02*
X34404765Y-132743133D01*
X34833336Y-132409800D02*
X34738098Y-132457419D01*
X34738098Y-132457419D02*
X34547622Y-132457419D01*
X34547622Y-132457419D02*
X34452384Y-132409800D01*
X34452384Y-132409800D02*
X34404765Y-132362180D01*
X34404765Y-132362180D02*
X34357146Y-132266942D01*
X34357146Y-132266942D02*
X34357146Y-131981228D01*
X34357146Y-131981228D02*
X34404765Y-131885990D01*
X34404765Y-131885990D02*
X34452384Y-131838371D01*
X34452384Y-131838371D02*
X34547622Y-131790752D01*
X34547622Y-131790752D02*
X34738098Y-131790752D01*
X34738098Y-131790752D02*
X34833336Y-131838371D01*
X35690479Y-132409800D02*
X35595241Y-132457419D01*
X35595241Y-132457419D02*
X35404765Y-132457419D01*
X35404765Y-132457419D02*
X35309527Y-132409800D01*
X35309527Y-132409800D02*
X35261908Y-132314561D01*
X35261908Y-132314561D02*
X35261908Y-131933609D01*
X35261908Y-131933609D02*
X35309527Y-131838371D01*
X35309527Y-131838371D02*
X35404765Y-131790752D01*
X35404765Y-131790752D02*
X35595241Y-131790752D01*
X35595241Y-131790752D02*
X35690479Y-131838371D01*
X35690479Y-131838371D02*
X35738098Y-131933609D01*
X35738098Y-131933609D02*
X35738098Y-132028847D01*
X35738098Y-132028847D02*
X35261908Y-132124085D01*
X36214289Y-132409800D02*
X36214289Y-132457419D01*
X36214289Y-132457419D02*
X36166670Y-132552657D01*
X36166670Y-132552657D02*
X36119051Y-132600276D01*
X36166670Y-131838371D02*
X36214289Y-131885990D01*
X36214289Y-131885990D02*
X36166670Y-131933609D01*
X36166670Y-131933609D02*
X36119051Y-131885990D01*
X36119051Y-131885990D02*
X36166670Y-131838371D01*
X36166670Y-131838371D02*
X36166670Y-131933609D01*
X37976193Y-132362180D02*
X37928574Y-132409800D01*
X37928574Y-132409800D02*
X37785717Y-132457419D01*
X37785717Y-132457419D02*
X37690479Y-132457419D01*
X37690479Y-132457419D02*
X37547622Y-132409800D01*
X37547622Y-132409800D02*
X37452384Y-132314561D01*
X37452384Y-132314561D02*
X37404765Y-132219323D01*
X37404765Y-132219323D02*
X37357146Y-132028847D01*
X37357146Y-132028847D02*
X37357146Y-131885990D01*
X37357146Y-131885990D02*
X37404765Y-131695514D01*
X37404765Y-131695514D02*
X37452384Y-131600276D01*
X37452384Y-131600276D02*
X37547622Y-131505038D01*
X37547622Y-131505038D02*
X37690479Y-131457419D01*
X37690479Y-131457419D02*
X37785717Y-131457419D01*
X37785717Y-131457419D02*
X37928574Y-131505038D01*
X37928574Y-131505038D02*
X37976193Y-131552657D01*
X38357146Y-132171704D02*
X38833336Y-132171704D01*
X38261908Y-132457419D02*
X38595241Y-131457419D01*
X38595241Y-131457419D02*
X38928574Y-132457419D01*
X39261908Y-132457419D02*
X39261908Y-131457419D01*
X39261908Y-131457419D02*
X39595241Y-132171704D01*
X39595241Y-132171704D02*
X39928574Y-131457419D01*
X39928574Y-131457419D02*
X39928574Y-132457419D01*
X41023813Y-131790752D02*
X41404765Y-131790752D01*
X41166670Y-132457419D02*
X41166670Y-131600276D01*
X41166670Y-131600276D02*
X41214289Y-131505038D01*
X41214289Y-131505038D02*
X41309527Y-131457419D01*
X41309527Y-131457419D02*
X41404765Y-131457419D01*
X41738099Y-132457419D02*
X41738099Y-131790752D01*
X41738099Y-131457419D02*
X41690480Y-131505038D01*
X41690480Y-131505038D02*
X41738099Y-131552657D01*
X41738099Y-131552657D02*
X41785718Y-131505038D01*
X41785718Y-131505038D02*
X41738099Y-131457419D01*
X41738099Y-131457419D02*
X41738099Y-131552657D01*
X42357146Y-132457419D02*
X42261908Y-132409800D01*
X42261908Y-132409800D02*
X42214289Y-132314561D01*
X42214289Y-132314561D02*
X42214289Y-131457419D01*
X42880956Y-132457419D02*
X42785718Y-132409800D01*
X42785718Y-132409800D02*
X42738099Y-132314561D01*
X42738099Y-132314561D02*
X42738099Y-131457419D01*
X44452385Y-132457419D02*
X44452385Y-131933609D01*
X44452385Y-131933609D02*
X44404766Y-131838371D01*
X44404766Y-131838371D02*
X44309528Y-131790752D01*
X44309528Y-131790752D02*
X44119052Y-131790752D01*
X44119052Y-131790752D02*
X44023814Y-131838371D01*
X44452385Y-132409800D02*
X44357147Y-132457419D01*
X44357147Y-132457419D02*
X44119052Y-132457419D01*
X44119052Y-132457419D02*
X44023814Y-132409800D01*
X44023814Y-132409800D02*
X43976195Y-132314561D01*
X43976195Y-132314561D02*
X43976195Y-132219323D01*
X43976195Y-132219323D02*
X44023814Y-132124085D01*
X44023814Y-132124085D02*
X44119052Y-132076466D01*
X44119052Y-132076466D02*
X44357147Y-132076466D01*
X44357147Y-132076466D02*
X44452385Y-132028847D01*
X44785719Y-131790752D02*
X45166671Y-131790752D01*
X44928576Y-131457419D02*
X44928576Y-132314561D01*
X44928576Y-132314561D02*
X44976195Y-132409800D01*
X44976195Y-132409800D02*
X45071433Y-132457419D01*
X45071433Y-132457419D02*
X45166671Y-132457419D01*
X46119053Y-131790752D02*
X46500005Y-131790752D01*
X46261910Y-132457419D02*
X46261910Y-131600276D01*
X46261910Y-131600276D02*
X46309529Y-131505038D01*
X46309529Y-131505038D02*
X46404767Y-131457419D01*
X46404767Y-131457419D02*
X46500005Y-131457419D01*
X47261910Y-132457419D02*
X47261910Y-131933609D01*
X47261910Y-131933609D02*
X47214291Y-131838371D01*
X47214291Y-131838371D02*
X47119053Y-131790752D01*
X47119053Y-131790752D02*
X46928577Y-131790752D01*
X46928577Y-131790752D02*
X46833339Y-131838371D01*
X47261910Y-132409800D02*
X47166672Y-132457419D01*
X47166672Y-132457419D02*
X46928577Y-132457419D01*
X46928577Y-132457419D02*
X46833339Y-132409800D01*
X46833339Y-132409800D02*
X46785720Y-132314561D01*
X46785720Y-132314561D02*
X46785720Y-132219323D01*
X46785720Y-132219323D02*
X46833339Y-132124085D01*
X46833339Y-132124085D02*
X46928577Y-132076466D01*
X46928577Y-132076466D02*
X47166672Y-132076466D01*
X47166672Y-132076466D02*
X47261910Y-132028847D01*
X47738101Y-132457419D02*
X47738101Y-131457419D01*
X47738101Y-131838371D02*
X47833339Y-131790752D01*
X47833339Y-131790752D02*
X48023815Y-131790752D01*
X48023815Y-131790752D02*
X48119053Y-131838371D01*
X48119053Y-131838371D02*
X48166672Y-131885990D01*
X48166672Y-131885990D02*
X48214291Y-131981228D01*
X48214291Y-131981228D02*
X48214291Y-132266942D01*
X48214291Y-132266942D02*
X48166672Y-132362180D01*
X48166672Y-132362180D02*
X48119053Y-132409800D01*
X48119053Y-132409800D02*
X48023815Y-132457419D01*
X48023815Y-132457419D02*
X47833339Y-132457419D01*
X47833339Y-132457419D02*
X47738101Y-132409800D01*
X-23642863Y-131505038D02*
X-23738101Y-131457419D01*
X-23738101Y-131457419D02*
X-23880958Y-131457419D01*
X-23880958Y-131457419D02*
X-24023815Y-131505038D01*
X-24023815Y-131505038D02*
X-24119053Y-131600276D01*
X-24119053Y-131600276D02*
X-24166672Y-131695514D01*
X-24166672Y-131695514D02*
X-24214291Y-131885990D01*
X-24214291Y-131885990D02*
X-24214291Y-132028847D01*
X-24214291Y-132028847D02*
X-24166672Y-132219323D01*
X-24166672Y-132219323D02*
X-24119053Y-132314561D01*
X-24119053Y-132314561D02*
X-24023815Y-132409800D01*
X-24023815Y-132409800D02*
X-23880958Y-132457419D01*
X-23880958Y-132457419D02*
X-23785720Y-132457419D01*
X-23785720Y-132457419D02*
X-23642863Y-132409800D01*
X-23642863Y-132409800D02*
X-23595244Y-132362180D01*
X-23595244Y-132362180D02*
X-23595244Y-132028847D01*
X-23595244Y-132028847D02*
X-23785720Y-132028847D01*
X-23166672Y-132457419D02*
X-23166672Y-131457419D01*
X-23166672Y-131457419D02*
X-22595244Y-132457419D01*
X-22595244Y-132457419D02*
X-22595244Y-131457419D01*
X-22119053Y-132457419D02*
X-22119053Y-131457419D01*
X-22119053Y-131457419D02*
X-21880958Y-131457419D01*
X-21880958Y-131457419D02*
X-21738101Y-131505038D01*
X-21738101Y-131505038D02*
X-21642863Y-131600276D01*
X-21642863Y-131600276D02*
X-21595244Y-131695514D01*
X-21595244Y-131695514D02*
X-21547625Y-131885990D01*
X-21547625Y-131885990D02*
X-21547625Y-132028847D01*
X-21547625Y-132028847D02*
X-21595244Y-132219323D01*
X-21595244Y-132219323D02*
X-21642863Y-132314561D01*
X-21642863Y-132314561D02*
X-21738101Y-132409800D01*
X-21738101Y-132409800D02*
X-21880958Y-132457419D01*
X-21880958Y-132457419D02*
X-22119053Y-132457419D01*
X-20357148Y-131790752D02*
X-20357148Y-132790752D01*
X-20357148Y-131838371D02*
X-20261910Y-131790752D01*
X-20261910Y-131790752D02*
X-20071434Y-131790752D01*
X-20071434Y-131790752D02*
X-19976196Y-131838371D01*
X-19976196Y-131838371D02*
X-19928577Y-131885990D01*
X-19928577Y-131885990D02*
X-19880958Y-131981228D01*
X-19880958Y-131981228D02*
X-19880958Y-132266942D01*
X-19880958Y-132266942D02*
X-19928577Y-132362180D01*
X-19928577Y-132362180D02*
X-19976196Y-132409800D01*
X-19976196Y-132409800D02*
X-20071434Y-132457419D01*
X-20071434Y-132457419D02*
X-20261910Y-132457419D01*
X-20261910Y-132457419D02*
X-20357148Y-132409800D01*
X-19309529Y-132457419D02*
X-19404767Y-132409800D01*
X-19404767Y-132409800D02*
X-19452386Y-132362180D01*
X-19452386Y-132362180D02*
X-19500005Y-132266942D01*
X-19500005Y-132266942D02*
X-19500005Y-131981228D01*
X-19500005Y-131981228D02*
X-19452386Y-131885990D01*
X-19452386Y-131885990D02*
X-19404767Y-131838371D01*
X-19404767Y-131838371D02*
X-19309529Y-131790752D01*
X-19309529Y-131790752D02*
X-19166672Y-131790752D01*
X-19166672Y-131790752D02*
X-19071434Y-131838371D01*
X-19071434Y-131838371D02*
X-19023815Y-131885990D01*
X-19023815Y-131885990D02*
X-18976196Y-131981228D01*
X-18976196Y-131981228D02*
X-18976196Y-132266942D01*
X-18976196Y-132266942D02*
X-19023815Y-132362180D01*
X-19023815Y-132362180D02*
X-19071434Y-132409800D01*
X-19071434Y-132409800D02*
X-19166672Y-132457419D01*
X-19166672Y-132457419D02*
X-19309529Y-132457419D01*
X-18119053Y-131790752D02*
X-18119053Y-132457419D01*
X-18547624Y-131790752D02*
X-18547624Y-132314561D01*
X-18547624Y-132314561D02*
X-18500005Y-132409800D01*
X-18500005Y-132409800D02*
X-18404767Y-132457419D01*
X-18404767Y-132457419D02*
X-18261910Y-132457419D01*
X-18261910Y-132457419D02*
X-18166672Y-132409800D01*
X-18166672Y-132409800D02*
X-18119053Y-132362180D01*
X-17642862Y-132457419D02*
X-17642862Y-131790752D01*
X-17642862Y-131981228D02*
X-17595243Y-131885990D01*
X-17595243Y-131885990D02*
X-17547624Y-131838371D01*
X-17547624Y-131838371D02*
X-17452386Y-131790752D01*
X-17452386Y-131790752D02*
X-17357148Y-131790752D01*
X-16261909Y-132457419D02*
X-16261909Y-131790752D01*
X-16261909Y-131457419D02*
X-16309528Y-131505038D01*
X-16309528Y-131505038D02*
X-16261909Y-131552657D01*
X-16261909Y-131552657D02*
X-16214290Y-131505038D01*
X-16214290Y-131505038D02*
X-16261909Y-131457419D01*
X-16261909Y-131457419D02*
X-16261909Y-131552657D01*
X-15785719Y-131790752D02*
X-15785719Y-132457419D01*
X-15785719Y-131885990D02*
X-15738100Y-131838371D01*
X-15738100Y-131838371D02*
X-15642862Y-131790752D01*
X-15642862Y-131790752D02*
X-15500005Y-131790752D01*
X-15500005Y-131790752D02*
X-15404767Y-131838371D01*
X-15404767Y-131838371D02*
X-15357148Y-131933609D01*
X-15357148Y-131933609D02*
X-15357148Y-132457419D01*
X-15023814Y-131790752D02*
X-14642862Y-131790752D01*
X-14880957Y-131457419D02*
X-14880957Y-132314561D01*
X-14880957Y-132314561D02*
X-14833338Y-132409800D01*
X-14833338Y-132409800D02*
X-14738100Y-132457419D01*
X-14738100Y-132457419D02*
X-14642862Y-132457419D01*
X-13928576Y-132409800D02*
X-14023814Y-132457419D01*
X-14023814Y-132457419D02*
X-14214290Y-132457419D01*
X-14214290Y-132457419D02*
X-14309528Y-132409800D01*
X-14309528Y-132409800D02*
X-14357147Y-132314561D01*
X-14357147Y-132314561D02*
X-14357147Y-131933609D01*
X-14357147Y-131933609D02*
X-14309528Y-131838371D01*
X-14309528Y-131838371D02*
X-14214290Y-131790752D01*
X-14214290Y-131790752D02*
X-14023814Y-131790752D01*
X-14023814Y-131790752D02*
X-13928576Y-131838371D01*
X-13928576Y-131838371D02*
X-13880957Y-131933609D01*
X-13880957Y-131933609D02*
X-13880957Y-132028847D01*
X-13880957Y-132028847D02*
X-14357147Y-132124085D01*
X-13452385Y-131790752D02*
X-13452385Y-132457419D01*
X-13452385Y-131885990D02*
X-13404766Y-131838371D01*
X-13404766Y-131838371D02*
X-13309528Y-131790752D01*
X-13309528Y-131790752D02*
X-13166671Y-131790752D01*
X-13166671Y-131790752D02*
X-13071433Y-131838371D01*
X-13071433Y-131838371D02*
X-13023814Y-131933609D01*
X-13023814Y-131933609D02*
X-13023814Y-132457419D01*
X-12690480Y-131790752D02*
X-12309528Y-131790752D01*
X-12547623Y-131457419D02*
X-12547623Y-132314561D01*
X-12547623Y-132314561D02*
X-12500004Y-132409800D01*
X-12500004Y-132409800D02*
X-12404766Y-132457419D01*
X-12404766Y-132457419D02*
X-12309528Y-132457419D01*
X-10880956Y-131933609D02*
X-11214289Y-131933609D01*
X-11214289Y-132457419D02*
X-11214289Y-131457419D01*
X-11214289Y-131457419D02*
X-10738099Y-131457419D01*
X-9642861Y-131409800D02*
X-10500003Y-132695514D01*
X-8976194Y-131933609D02*
X-8833337Y-131981228D01*
X-8833337Y-131981228D02*
X-8785718Y-132028847D01*
X-8785718Y-132028847D02*
X-8738099Y-132124085D01*
X-8738099Y-132124085D02*
X-8738099Y-132266942D01*
X-8738099Y-132266942D02*
X-8785718Y-132362180D01*
X-8785718Y-132362180D02*
X-8833337Y-132409800D01*
X-8833337Y-132409800D02*
X-8928575Y-132457419D01*
X-8928575Y-132457419D02*
X-9309527Y-132457419D01*
X-9309527Y-132457419D02*
X-9309527Y-131457419D01*
X-9309527Y-131457419D02*
X-8976194Y-131457419D01*
X-8976194Y-131457419D02*
X-8880956Y-131505038D01*
X-8880956Y-131505038D02*
X-8833337Y-131552657D01*
X-8833337Y-131552657D02*
X-8785718Y-131647895D01*
X-8785718Y-131647895D02*
X-8785718Y-131743133D01*
X-8785718Y-131743133D02*
X-8833337Y-131838371D01*
X-8833337Y-131838371D02*
X-8880956Y-131885990D01*
X-8880956Y-131885990D02*
X-8976194Y-131933609D01*
X-8976194Y-131933609D02*
X-9309527Y-131933609D01*
X-7642860Y-132124085D02*
X-6785718Y-132124085D01*
X-5071432Y-132362180D02*
X-5119051Y-132409800D01*
X-5119051Y-132409800D02*
X-5261908Y-132457419D01*
X-5261908Y-132457419D02*
X-5357146Y-132457419D01*
X-5357146Y-132457419D02*
X-5500003Y-132409800D01*
X-5500003Y-132409800D02*
X-5595241Y-132314561D01*
X-5595241Y-132314561D02*
X-5642860Y-132219323D01*
X-5642860Y-132219323D02*
X-5690479Y-132028847D01*
X-5690479Y-132028847D02*
X-5690479Y-131885990D01*
X-5690479Y-131885990D02*
X-5642860Y-131695514D01*
X-5642860Y-131695514D02*
X-5595241Y-131600276D01*
X-5595241Y-131600276D02*
X-5500003Y-131505038D01*
X-5500003Y-131505038D02*
X-5357146Y-131457419D01*
X-5357146Y-131457419D02*
X-5261908Y-131457419D01*
X-5261908Y-131457419D02*
X-5119051Y-131505038D01*
X-5119051Y-131505038D02*
X-5071432Y-131552657D01*
X-4500003Y-132457419D02*
X-4595241Y-132409800D01*
X-4595241Y-132409800D02*
X-4642860Y-132362180D01*
X-4642860Y-132362180D02*
X-4690479Y-132266942D01*
X-4690479Y-132266942D02*
X-4690479Y-131981228D01*
X-4690479Y-131981228D02*
X-4642860Y-131885990D01*
X-4642860Y-131885990D02*
X-4595241Y-131838371D01*
X-4595241Y-131838371D02*
X-4500003Y-131790752D01*
X-4500003Y-131790752D02*
X-4357146Y-131790752D01*
X-4357146Y-131790752D02*
X-4261908Y-131838371D01*
X-4261908Y-131838371D02*
X-4214289Y-131885990D01*
X-4214289Y-131885990D02*
X-4166670Y-131981228D01*
X-4166670Y-131981228D02*
X-4166670Y-132266942D01*
X-4166670Y-132266942D02*
X-4214289Y-132362180D01*
X-4214289Y-132362180D02*
X-4261908Y-132409800D01*
X-4261908Y-132409800D02*
X-4357146Y-132457419D01*
X-4357146Y-132457419D02*
X-4500003Y-132457419D01*
X-3738098Y-131790752D02*
X-3738098Y-132457419D01*
X-3738098Y-131885990D02*
X-3690479Y-131838371D01*
X-3690479Y-131838371D02*
X-3595241Y-131790752D01*
X-3595241Y-131790752D02*
X-3452384Y-131790752D01*
X-3452384Y-131790752D02*
X-3357146Y-131838371D01*
X-3357146Y-131838371D02*
X-3309527Y-131933609D01*
X-3309527Y-131933609D02*
X-3309527Y-132457419D01*
X-2976193Y-131790752D02*
X-2595241Y-131790752D01*
X-2833336Y-131457419D02*
X-2833336Y-132314561D01*
X-2833336Y-132314561D02*
X-2785717Y-132409800D01*
X-2785717Y-132409800D02*
X-2690479Y-132457419D01*
X-2690479Y-132457419D02*
X-2595241Y-132457419D01*
X-1500002Y-132457419D02*
X-1500002Y-131457419D01*
X-1119050Y-131457419D02*
X-452384Y-132457419D01*
X-452384Y-131457419D02*
X-1119050Y-132457419D01*
X833330Y-132457419D02*
X738092Y-132409800D01*
X738092Y-132409800D02*
X690473Y-132314561D01*
X690473Y-132314561D02*
X690473Y-131457419D01*
X1595235Y-132409800D02*
X1499997Y-132457419D01*
X1499997Y-132457419D02*
X1309521Y-132457419D01*
X1309521Y-132457419D02*
X1214283Y-132409800D01*
X1214283Y-132409800D02*
X1166664Y-132314561D01*
X1166664Y-132314561D02*
X1166664Y-131933609D01*
X1166664Y-131933609D02*
X1214283Y-131838371D01*
X1214283Y-131838371D02*
X1309521Y-131790752D01*
X1309521Y-131790752D02*
X1499997Y-131790752D01*
X1499997Y-131790752D02*
X1595235Y-131838371D01*
X1595235Y-131838371D02*
X1642854Y-131933609D01*
X1642854Y-131933609D02*
X1642854Y-132028847D01*
X1642854Y-132028847D02*
X1166664Y-132124085D01*
X2499997Y-132457419D02*
X2499997Y-131933609D01*
X2499997Y-131933609D02*
X2452378Y-131838371D01*
X2452378Y-131838371D02*
X2357140Y-131790752D01*
X2357140Y-131790752D02*
X2166664Y-131790752D01*
X2166664Y-131790752D02*
X2071426Y-131838371D01*
X2499997Y-132409800D02*
X2404759Y-132457419D01*
X2404759Y-132457419D02*
X2166664Y-132457419D01*
X2166664Y-132457419D02*
X2071426Y-132409800D01*
X2071426Y-132409800D02*
X2023807Y-132314561D01*
X2023807Y-132314561D02*
X2023807Y-132219323D01*
X2023807Y-132219323D02*
X2071426Y-132124085D01*
X2071426Y-132124085D02*
X2166664Y-132076466D01*
X2166664Y-132076466D02*
X2404759Y-132076466D01*
X2404759Y-132076466D02*
X2499997Y-132028847D01*
X2880950Y-131790752D02*
X3119045Y-132457419D01*
X3119045Y-132457419D02*
X3357140Y-131790752D01*
X4119045Y-132409800D02*
X4023807Y-132457419D01*
X4023807Y-132457419D02*
X3833331Y-132457419D01*
X3833331Y-132457419D02*
X3738093Y-132409800D01*
X3738093Y-132409800D02*
X3690474Y-132314561D01*
X3690474Y-132314561D02*
X3690474Y-131933609D01*
X3690474Y-131933609D02*
X3738093Y-131838371D01*
X3738093Y-131838371D02*
X3833331Y-131790752D01*
X3833331Y-131790752D02*
X4023807Y-131790752D01*
X4023807Y-131790752D02*
X4119045Y-131838371D01*
X4119045Y-131838371D02*
X4166664Y-131933609D01*
X4166664Y-131933609D02*
X4166664Y-132028847D01*
X4166664Y-132028847D02*
X3690474Y-132124085D01*
X4547617Y-132409800D02*
X4642855Y-132457419D01*
X4642855Y-132457419D02*
X4833331Y-132457419D01*
X4833331Y-132457419D02*
X4928569Y-132409800D01*
X4928569Y-132409800D02*
X4976188Y-132314561D01*
X4976188Y-132314561D02*
X4976188Y-132266942D01*
X4976188Y-132266942D02*
X4928569Y-132171704D01*
X4928569Y-132171704D02*
X4833331Y-132124085D01*
X4833331Y-132124085D02*
X4690474Y-132124085D01*
X4690474Y-132124085D02*
X4595236Y-132076466D01*
X4595236Y-132076466D02*
X4547617Y-131981228D01*
X4547617Y-131981228D02*
X4547617Y-131933609D01*
X4547617Y-131933609D02*
X4595236Y-131838371D01*
X4595236Y-131838371D02*
X4690474Y-131790752D01*
X4690474Y-131790752D02*
X4833331Y-131790752D01*
X4833331Y-131790752D02*
X4928569Y-131838371D01*
X6595236Y-131790752D02*
X6595236Y-132457419D01*
X6166665Y-131790752D02*
X6166665Y-132314561D01*
X6166665Y-132314561D02*
X6214284Y-132409800D01*
X6214284Y-132409800D02*
X6309522Y-132457419D01*
X6309522Y-132457419D02*
X6452379Y-132457419D01*
X6452379Y-132457419D02*
X6547617Y-132409800D01*
X6547617Y-132409800D02*
X6595236Y-132362180D01*
X7071427Y-131790752D02*
X7071427Y-132457419D01*
X7071427Y-131885990D02*
X7119046Y-131838371D01*
X7119046Y-131838371D02*
X7214284Y-131790752D01*
X7214284Y-131790752D02*
X7357141Y-131790752D01*
X7357141Y-131790752D02*
X7452379Y-131838371D01*
X7452379Y-131838371D02*
X7499998Y-131933609D01*
X7499998Y-131933609D02*
X7499998Y-132457419D01*
X7833332Y-131790752D02*
X8214284Y-131790752D01*
X7976189Y-132457419D02*
X7976189Y-131600276D01*
X7976189Y-131600276D02*
X8023808Y-131505038D01*
X8023808Y-131505038D02*
X8119046Y-131457419D01*
X8119046Y-131457419D02*
X8214284Y-131457419D01*
X8547618Y-132457419D02*
X8547618Y-131790752D01*
X8547618Y-131457419D02*
X8499999Y-131505038D01*
X8499999Y-131505038D02*
X8547618Y-131552657D01*
X8547618Y-131552657D02*
X8595237Y-131505038D01*
X8595237Y-131505038D02*
X8547618Y-131457419D01*
X8547618Y-131457419D02*
X8547618Y-131552657D01*
X9166665Y-132457419D02*
X9071427Y-132409800D01*
X9071427Y-132409800D02*
X9023808Y-132314561D01*
X9023808Y-132314561D02*
X9023808Y-131457419D01*
X9690475Y-132457419D02*
X9595237Y-132409800D01*
X9595237Y-132409800D02*
X9547618Y-132314561D01*
X9547618Y-132314561D02*
X9547618Y-131457419D01*
X10452380Y-132409800D02*
X10357142Y-132457419D01*
X10357142Y-132457419D02*
X10166666Y-132457419D01*
X10166666Y-132457419D02*
X10071428Y-132409800D01*
X10071428Y-132409800D02*
X10023809Y-132314561D01*
X10023809Y-132314561D02*
X10023809Y-131933609D01*
X10023809Y-131933609D02*
X10071428Y-131838371D01*
X10071428Y-131838371D02*
X10166666Y-131790752D01*
X10166666Y-131790752D02*
X10357142Y-131790752D01*
X10357142Y-131790752D02*
X10452380Y-131838371D01*
X10452380Y-131838371D02*
X10499999Y-131933609D01*
X10499999Y-131933609D02*
X10499999Y-132028847D01*
X10499999Y-132028847D02*
X10023809Y-132124085D01*
X11357142Y-132457419D02*
X11357142Y-131457419D01*
X11357142Y-132409800D02*
X11261904Y-132457419D01*
X11261904Y-132457419D02*
X11071428Y-132457419D01*
X11071428Y-132457419D02*
X10976190Y-132409800D01*
X10976190Y-132409800D02*
X10928571Y-132362180D01*
X10928571Y-132362180D02*
X10880952Y-132266942D01*
X10880952Y-132266942D02*
X10880952Y-131981228D01*
X10880952Y-131981228D02*
X10928571Y-131885990D01*
X10928571Y-131885990D02*
X10976190Y-131838371D01*
X10976190Y-131838371D02*
X11071428Y-131790752D01*
X11071428Y-131790752D02*
X11261904Y-131790752D01*
X11261904Y-131790752D02*
X11357142Y-131838371D01*
X12452381Y-131790752D02*
X12833333Y-131790752D01*
X12595238Y-132457419D02*
X12595238Y-131600276D01*
X12595238Y-131600276D02*
X12642857Y-131505038D01*
X12642857Y-131505038D02*
X12738095Y-131457419D01*
X12738095Y-131457419D02*
X12833333Y-131457419D01*
X13309524Y-132457419D02*
X13214286Y-132409800D01*
X13214286Y-132409800D02*
X13166667Y-132362180D01*
X13166667Y-132362180D02*
X13119048Y-132266942D01*
X13119048Y-132266942D02*
X13119048Y-131981228D01*
X13119048Y-131981228D02*
X13166667Y-131885990D01*
X13166667Y-131885990D02*
X13214286Y-131838371D01*
X13214286Y-131838371D02*
X13309524Y-131790752D01*
X13309524Y-131790752D02*
X13452381Y-131790752D01*
X13452381Y-131790752D02*
X13547619Y-131838371D01*
X13547619Y-131838371D02*
X13595238Y-131885990D01*
X13595238Y-131885990D02*
X13642857Y-131981228D01*
X13642857Y-131981228D02*
X13642857Y-132266942D01*
X13642857Y-132266942D02*
X13595238Y-132362180D01*
X13595238Y-132362180D02*
X13547619Y-132409800D01*
X13547619Y-132409800D02*
X13452381Y-132457419D01*
X13452381Y-132457419D02*
X13309524Y-132457419D01*
X14071429Y-132457419D02*
X14071429Y-131790752D01*
X14071429Y-131981228D02*
X14119048Y-131885990D01*
X14119048Y-131885990D02*
X14166667Y-131838371D01*
X14166667Y-131838371D02*
X14261905Y-131790752D01*
X14261905Y-131790752D02*
X14357143Y-131790752D01*
X15452382Y-132457419D02*
X15452382Y-131457419D01*
X15452382Y-131457419D02*
X15690477Y-131457419D01*
X15690477Y-131457419D02*
X15833334Y-131505038D01*
X15833334Y-131505038D02*
X15928572Y-131600276D01*
X15928572Y-131600276D02*
X15976191Y-131695514D01*
X15976191Y-131695514D02*
X16023810Y-131885990D01*
X16023810Y-131885990D02*
X16023810Y-132028847D01*
X16023810Y-132028847D02*
X15976191Y-132219323D01*
X15976191Y-132219323D02*
X15928572Y-132314561D01*
X15928572Y-132314561D02*
X15833334Y-132409800D01*
X15833334Y-132409800D02*
X15690477Y-132457419D01*
X15690477Y-132457419D02*
X15452382Y-132457419D01*
X17023810Y-132457419D02*
X16690477Y-131981228D01*
X16452382Y-132457419D02*
X16452382Y-131457419D01*
X16452382Y-131457419D02*
X16833334Y-131457419D01*
X16833334Y-131457419D02*
X16928572Y-131505038D01*
X16928572Y-131505038D02*
X16976191Y-131552657D01*
X16976191Y-131552657D02*
X17023810Y-131647895D01*
X17023810Y-131647895D02*
X17023810Y-131790752D01*
X17023810Y-131790752D02*
X16976191Y-131885990D01*
X16976191Y-131885990D02*
X16928572Y-131933609D01*
X16928572Y-131933609D02*
X16833334Y-131981228D01*
X16833334Y-131981228D02*
X16452382Y-131981228D01*
X18023810Y-132362180D02*
X17976191Y-132409800D01*
X17976191Y-132409800D02*
X17833334Y-132457419D01*
X17833334Y-132457419D02*
X17738096Y-132457419D01*
X17738096Y-132457419D02*
X17595239Y-132409800D01*
X17595239Y-132409800D02*
X17500001Y-132314561D01*
X17500001Y-132314561D02*
X17452382Y-132219323D01*
X17452382Y-132219323D02*
X17404763Y-132028847D01*
X17404763Y-132028847D02*
X17404763Y-131885990D01*
X17404763Y-131885990D02*
X17452382Y-131695514D01*
X17452382Y-131695514D02*
X17500001Y-131600276D01*
X17500001Y-131600276D02*
X17595239Y-131505038D01*
X17595239Y-131505038D02*
X17738096Y-131457419D01*
X17738096Y-131457419D02*
X17833334Y-131457419D01*
X17833334Y-131457419D02*
X17976191Y-131505038D01*
X17976191Y-131505038D02*
X18023810Y-131552657D01*
X18452382Y-132076466D02*
X19214287Y-132076466D01*
X20119048Y-132409800D02*
X20023810Y-132457419D01*
X20023810Y-132457419D02*
X19833334Y-132457419D01*
X19833334Y-132457419D02*
X19738096Y-132409800D01*
X19738096Y-132409800D02*
X19690477Y-132362180D01*
X19690477Y-132362180D02*
X19642858Y-132266942D01*
X19642858Y-132266942D02*
X19642858Y-131981228D01*
X19642858Y-131981228D02*
X19690477Y-131885990D01*
X19690477Y-131885990D02*
X19738096Y-131838371D01*
X19738096Y-131838371D02*
X19833334Y-131790752D01*
X19833334Y-131790752D02*
X20023810Y-131790752D01*
X20023810Y-131790752D02*
X20119048Y-131838371D01*
X20690477Y-132457419D02*
X20595239Y-132409800D01*
X20595239Y-132409800D02*
X20547620Y-132314561D01*
X20547620Y-132314561D02*
X20547620Y-131457419D01*
X21452382Y-132409800D02*
X21357144Y-132457419D01*
X21357144Y-132457419D02*
X21166668Y-132457419D01*
X21166668Y-132457419D02*
X21071430Y-132409800D01*
X21071430Y-132409800D02*
X21023811Y-132314561D01*
X21023811Y-132314561D02*
X21023811Y-131933609D01*
X21023811Y-131933609D02*
X21071430Y-131838371D01*
X21071430Y-131838371D02*
X21166668Y-131790752D01*
X21166668Y-131790752D02*
X21357144Y-131790752D01*
X21357144Y-131790752D02*
X21452382Y-131838371D01*
X21452382Y-131838371D02*
X21500001Y-131933609D01*
X21500001Y-131933609D02*
X21500001Y-132028847D01*
X21500001Y-132028847D02*
X21023811Y-132124085D01*
X22357144Y-132457419D02*
X22357144Y-131933609D01*
X22357144Y-131933609D02*
X22309525Y-131838371D01*
X22309525Y-131838371D02*
X22214287Y-131790752D01*
X22214287Y-131790752D02*
X22023811Y-131790752D01*
X22023811Y-131790752D02*
X21928573Y-131838371D01*
X22357144Y-132409800D02*
X22261906Y-132457419D01*
X22261906Y-132457419D02*
X22023811Y-132457419D01*
X22023811Y-132457419D02*
X21928573Y-132409800D01*
X21928573Y-132409800D02*
X21880954Y-132314561D01*
X21880954Y-132314561D02*
X21880954Y-132219323D01*
X21880954Y-132219323D02*
X21928573Y-132124085D01*
X21928573Y-132124085D02*
X22023811Y-132076466D01*
X22023811Y-132076466D02*
X22261906Y-132076466D01*
X22261906Y-132076466D02*
X22357144Y-132028847D01*
X22833335Y-131790752D02*
X22833335Y-132457419D01*
X22833335Y-131885990D02*
X22880954Y-131838371D01*
X22880954Y-131838371D02*
X22976192Y-131790752D01*
X22976192Y-131790752D02*
X23119049Y-131790752D01*
X23119049Y-131790752D02*
X23214287Y-131838371D01*
X23214287Y-131838371D02*
X23261906Y-131933609D01*
X23261906Y-131933609D02*
X23261906Y-132457419D01*
X24928573Y-132457419D02*
X24928573Y-131457419D01*
X24928573Y-132409800D02*
X24833335Y-132457419D01*
X24833335Y-132457419D02*
X24642859Y-132457419D01*
X24642859Y-132457419D02*
X24547621Y-132409800D01*
X24547621Y-132409800D02*
X24500002Y-132362180D01*
X24500002Y-132362180D02*
X24452383Y-132266942D01*
X24452383Y-132266942D02*
X24452383Y-131981228D01*
X24452383Y-131981228D02*
X24500002Y-131885990D01*
X24500002Y-131885990D02*
X24547621Y-131838371D01*
X24547621Y-131838371D02*
X24642859Y-131790752D01*
X24642859Y-131790752D02*
X24833335Y-131790752D01*
X24833335Y-131790752D02*
X24928573Y-131838371D01*
X25404764Y-132457419D02*
X25404764Y-131790752D01*
X25404764Y-131457419D02*
X25357145Y-131505038D01*
X25357145Y-131505038D02*
X25404764Y-131552657D01*
X25404764Y-131552657D02*
X25452383Y-131505038D01*
X25452383Y-131505038D02*
X25404764Y-131457419D01*
X25404764Y-131457419D02*
X25404764Y-131552657D01*
X26309525Y-131790752D02*
X26309525Y-132600276D01*
X26309525Y-132600276D02*
X26261906Y-132695514D01*
X26261906Y-132695514D02*
X26214287Y-132743133D01*
X26214287Y-132743133D02*
X26119049Y-132790752D01*
X26119049Y-132790752D02*
X25976192Y-132790752D01*
X25976192Y-132790752D02*
X25880954Y-132743133D01*
X26309525Y-132409800D02*
X26214287Y-132457419D01*
X26214287Y-132457419D02*
X26023811Y-132457419D01*
X26023811Y-132457419D02*
X25928573Y-132409800D01*
X25928573Y-132409800D02*
X25880954Y-132362180D01*
X25880954Y-132362180D02*
X25833335Y-132266942D01*
X25833335Y-132266942D02*
X25833335Y-131981228D01*
X25833335Y-131981228D02*
X25880954Y-131885990D01*
X25880954Y-131885990D02*
X25928573Y-131838371D01*
X25928573Y-131838371D02*
X26023811Y-131790752D01*
X26023811Y-131790752D02*
X26214287Y-131790752D01*
X26214287Y-131790752D02*
X26309525Y-131838371D01*
X26785716Y-132457419D02*
X26785716Y-131790752D01*
X26785716Y-131457419D02*
X26738097Y-131505038D01*
X26738097Y-131505038D02*
X26785716Y-131552657D01*
X26785716Y-131552657D02*
X26833335Y-131505038D01*
X26833335Y-131505038D02*
X26785716Y-131457419D01*
X26785716Y-131457419D02*
X26785716Y-131552657D01*
X27119049Y-131790752D02*
X27500001Y-131790752D01*
X27261906Y-131457419D02*
X27261906Y-132314561D01*
X27261906Y-132314561D02*
X27309525Y-132409800D01*
X27309525Y-132409800D02*
X27404763Y-132457419D01*
X27404763Y-132457419D02*
X27500001Y-132457419D01*
X28261906Y-132457419D02*
X28261906Y-131933609D01*
X28261906Y-131933609D02*
X28214287Y-131838371D01*
X28214287Y-131838371D02*
X28119049Y-131790752D01*
X28119049Y-131790752D02*
X27928573Y-131790752D01*
X27928573Y-131790752D02*
X27833335Y-131838371D01*
X28261906Y-132409800D02*
X28166668Y-132457419D01*
X28166668Y-132457419D02*
X27928573Y-132457419D01*
X27928573Y-132457419D02*
X27833335Y-132409800D01*
X27833335Y-132409800D02*
X27785716Y-132314561D01*
X27785716Y-132314561D02*
X27785716Y-132219323D01*
X27785716Y-132219323D02*
X27833335Y-132124085D01*
X27833335Y-132124085D02*
X27928573Y-132076466D01*
X27928573Y-132076466D02*
X28166668Y-132076466D01*
X28166668Y-132076466D02*
X28261906Y-132028847D01*
X28880954Y-132457419D02*
X28785716Y-132409800D01*
X28785716Y-132409800D02*
X28738097Y-132314561D01*
X28738097Y-132314561D02*
X28738097Y-131457419D01*
X30023812Y-131790752D02*
X30023812Y-132790752D01*
X30023812Y-131838371D02*
X30119050Y-131790752D01*
X30119050Y-131790752D02*
X30309526Y-131790752D01*
X30309526Y-131790752D02*
X30404764Y-131838371D01*
X30404764Y-131838371D02*
X30452383Y-131885990D01*
X30452383Y-131885990D02*
X30500002Y-131981228D01*
X30500002Y-131981228D02*
X30500002Y-132266942D01*
X30500002Y-132266942D02*
X30452383Y-132362180D01*
X30452383Y-132362180D02*
X30404764Y-132409800D01*
X30404764Y-132409800D02*
X30309526Y-132457419D01*
X30309526Y-132457419D02*
X30119050Y-132457419D01*
X30119050Y-132457419D02*
X30023812Y-132409800D01*
X31357145Y-132457419D02*
X31357145Y-131933609D01*
X31357145Y-131933609D02*
X31309526Y-131838371D01*
X31309526Y-131838371D02*
X31214288Y-131790752D01*
X31214288Y-131790752D02*
X31023812Y-131790752D01*
X31023812Y-131790752D02*
X30928574Y-131838371D01*
X31357145Y-132409800D02*
X31261907Y-132457419D01*
X31261907Y-132457419D02*
X31023812Y-132457419D01*
X31023812Y-132457419D02*
X30928574Y-132409800D01*
X30928574Y-132409800D02*
X30880955Y-132314561D01*
X30880955Y-132314561D02*
X30880955Y-132219323D01*
X30880955Y-132219323D02*
X30928574Y-132124085D01*
X30928574Y-132124085D02*
X31023812Y-132076466D01*
X31023812Y-132076466D02*
X31261907Y-132076466D01*
X31261907Y-132076466D02*
X31357145Y-132028847D01*
X32261907Y-132409800D02*
X32166669Y-132457419D01*
X32166669Y-132457419D02*
X31976193Y-132457419D01*
X31976193Y-132457419D02*
X31880955Y-132409800D01*
X31880955Y-132409800D02*
X31833336Y-132362180D01*
X31833336Y-132362180D02*
X31785717Y-132266942D01*
X31785717Y-132266942D02*
X31785717Y-131981228D01*
X31785717Y-131981228D02*
X31833336Y-131885990D01*
X31833336Y-131885990D02*
X31880955Y-131838371D01*
X31880955Y-131838371D02*
X31976193Y-131790752D01*
X31976193Y-131790752D02*
X32166669Y-131790752D01*
X32166669Y-131790752D02*
X32261907Y-131838371D01*
X32690479Y-132457419D02*
X32690479Y-131457419D01*
X32785717Y-132076466D02*
X33071431Y-132457419D01*
X33071431Y-131790752D02*
X32690479Y-132171704D01*
X33928574Y-132457419D02*
X33928574Y-131933609D01*
X33928574Y-131933609D02*
X33880955Y-131838371D01*
X33880955Y-131838371D02*
X33785717Y-131790752D01*
X33785717Y-131790752D02*
X33595241Y-131790752D01*
X33595241Y-131790752D02*
X33500003Y-131838371D01*
X33928574Y-132409800D02*
X33833336Y-132457419D01*
X33833336Y-132457419D02*
X33595241Y-132457419D01*
X33595241Y-132457419D02*
X33500003Y-132409800D01*
X33500003Y-132409800D02*
X33452384Y-132314561D01*
X33452384Y-132314561D02*
X33452384Y-132219323D01*
X33452384Y-132219323D02*
X33500003Y-132124085D01*
X33500003Y-132124085D02*
X33595241Y-132076466D01*
X33595241Y-132076466D02*
X33833336Y-132076466D01*
X33833336Y-132076466D02*
X33928574Y-132028847D01*
X34833336Y-131790752D02*
X34833336Y-132600276D01*
X34833336Y-132600276D02*
X34785717Y-132695514D01*
X34785717Y-132695514D02*
X34738098Y-132743133D01*
X34738098Y-132743133D02*
X34642860Y-132790752D01*
X34642860Y-132790752D02*
X34500003Y-132790752D01*
X34500003Y-132790752D02*
X34404765Y-132743133D01*
X34833336Y-132409800D02*
X34738098Y-132457419D01*
X34738098Y-132457419D02*
X34547622Y-132457419D01*
X34547622Y-132457419D02*
X34452384Y-132409800D01*
X34452384Y-132409800D02*
X34404765Y-132362180D01*
X34404765Y-132362180D02*
X34357146Y-132266942D01*
X34357146Y-132266942D02*
X34357146Y-131981228D01*
X34357146Y-131981228D02*
X34404765Y-131885990D01*
X34404765Y-131885990D02*
X34452384Y-131838371D01*
X34452384Y-131838371D02*
X34547622Y-131790752D01*
X34547622Y-131790752D02*
X34738098Y-131790752D01*
X34738098Y-131790752D02*
X34833336Y-131838371D01*
X35690479Y-132409800D02*
X35595241Y-132457419D01*
X35595241Y-132457419D02*
X35404765Y-132457419D01*
X35404765Y-132457419D02*
X35309527Y-132409800D01*
X35309527Y-132409800D02*
X35261908Y-132314561D01*
X35261908Y-132314561D02*
X35261908Y-131933609D01*
X35261908Y-131933609D02*
X35309527Y-131838371D01*
X35309527Y-131838371D02*
X35404765Y-131790752D01*
X35404765Y-131790752D02*
X35595241Y-131790752D01*
X35595241Y-131790752D02*
X35690479Y-131838371D01*
X35690479Y-131838371D02*
X35738098Y-131933609D01*
X35738098Y-131933609D02*
X35738098Y-132028847D01*
X35738098Y-132028847D02*
X35261908Y-132124085D01*
X36214289Y-132409800D02*
X36214289Y-132457419D01*
X36214289Y-132457419D02*
X36166670Y-132552657D01*
X36166670Y-132552657D02*
X36119051Y-132600276D01*
X36166670Y-131838371D02*
X36214289Y-131885990D01*
X36214289Y-131885990D02*
X36166670Y-131933609D01*
X36166670Y-131933609D02*
X36119051Y-131885990D01*
X36119051Y-131885990D02*
X36166670Y-131838371D01*
X36166670Y-131838371D02*
X36166670Y-131933609D01*
X37976193Y-132362180D02*
X37928574Y-132409800D01*
X37928574Y-132409800D02*
X37785717Y-132457419D01*
X37785717Y-132457419D02*
X37690479Y-132457419D01*
X37690479Y-132457419D02*
X37547622Y-132409800D01*
X37547622Y-132409800D02*
X37452384Y-132314561D01*
X37452384Y-132314561D02*
X37404765Y-132219323D01*
X37404765Y-132219323D02*
X37357146Y-132028847D01*
X37357146Y-132028847D02*
X37357146Y-131885990D01*
X37357146Y-131885990D02*
X37404765Y-131695514D01*
X37404765Y-131695514D02*
X37452384Y-131600276D01*
X37452384Y-131600276D02*
X37547622Y-131505038D01*
X37547622Y-131505038D02*
X37690479Y-131457419D01*
X37690479Y-131457419D02*
X37785717Y-131457419D01*
X37785717Y-131457419D02*
X37928574Y-131505038D01*
X37928574Y-131505038D02*
X37976193Y-131552657D01*
X38357146Y-132171704D02*
X38833336Y-132171704D01*
X38261908Y-132457419D02*
X38595241Y-131457419D01*
X38595241Y-131457419D02*
X38928574Y-132457419D01*
X39261908Y-132457419D02*
X39261908Y-131457419D01*
X39261908Y-131457419D02*
X39595241Y-132171704D01*
X39595241Y-132171704D02*
X39928574Y-131457419D01*
X39928574Y-131457419D02*
X39928574Y-132457419D01*
X41023813Y-131790752D02*
X41404765Y-131790752D01*
X41166670Y-132457419D02*
X41166670Y-131600276D01*
X41166670Y-131600276D02*
X41214289Y-131505038D01*
X41214289Y-131505038D02*
X41309527Y-131457419D01*
X41309527Y-131457419D02*
X41404765Y-131457419D01*
X41738099Y-132457419D02*
X41738099Y-131790752D01*
X41738099Y-131457419D02*
X41690480Y-131505038D01*
X41690480Y-131505038D02*
X41738099Y-131552657D01*
X41738099Y-131552657D02*
X41785718Y-131505038D01*
X41785718Y-131505038D02*
X41738099Y-131457419D01*
X41738099Y-131457419D02*
X41738099Y-131552657D01*
X42357146Y-132457419D02*
X42261908Y-132409800D01*
X42261908Y-132409800D02*
X42214289Y-132314561D01*
X42214289Y-132314561D02*
X42214289Y-131457419D01*
X42880956Y-132457419D02*
X42785718Y-132409800D01*
X42785718Y-132409800D02*
X42738099Y-132314561D01*
X42738099Y-132314561D02*
X42738099Y-131457419D01*
X44452385Y-132457419D02*
X44452385Y-131933609D01*
X44452385Y-131933609D02*
X44404766Y-131838371D01*
X44404766Y-131838371D02*
X44309528Y-131790752D01*
X44309528Y-131790752D02*
X44119052Y-131790752D01*
X44119052Y-131790752D02*
X44023814Y-131838371D01*
X44452385Y-132409800D02*
X44357147Y-132457419D01*
X44357147Y-132457419D02*
X44119052Y-132457419D01*
X44119052Y-132457419D02*
X44023814Y-132409800D01*
X44023814Y-132409800D02*
X43976195Y-132314561D01*
X43976195Y-132314561D02*
X43976195Y-132219323D01*
X43976195Y-132219323D02*
X44023814Y-132124085D01*
X44023814Y-132124085D02*
X44119052Y-132076466D01*
X44119052Y-132076466D02*
X44357147Y-132076466D01*
X44357147Y-132076466D02*
X44452385Y-132028847D01*
X44785719Y-131790752D02*
X45166671Y-131790752D01*
X44928576Y-131457419D02*
X44928576Y-132314561D01*
X44928576Y-132314561D02*
X44976195Y-132409800D01*
X44976195Y-132409800D02*
X45071433Y-132457419D01*
X45071433Y-132457419D02*
X45166671Y-132457419D01*
X46119053Y-131790752D02*
X46500005Y-131790752D01*
X46261910Y-132457419D02*
X46261910Y-131600276D01*
X46261910Y-131600276D02*
X46309529Y-131505038D01*
X46309529Y-131505038D02*
X46404767Y-131457419D01*
X46404767Y-131457419D02*
X46500005Y-131457419D01*
X47261910Y-132457419D02*
X47261910Y-131933609D01*
X47261910Y-131933609D02*
X47214291Y-131838371D01*
X47214291Y-131838371D02*
X47119053Y-131790752D01*
X47119053Y-131790752D02*
X46928577Y-131790752D01*
X46928577Y-131790752D02*
X46833339Y-131838371D01*
X47261910Y-132409800D02*
X47166672Y-132457419D01*
X47166672Y-132457419D02*
X46928577Y-132457419D01*
X46928577Y-132457419D02*
X46833339Y-132409800D01*
X46833339Y-132409800D02*
X46785720Y-132314561D01*
X46785720Y-132314561D02*
X46785720Y-132219323D01*
X46785720Y-132219323D02*
X46833339Y-132124085D01*
X46833339Y-132124085D02*
X46928577Y-132076466D01*
X46928577Y-132076466D02*
X47166672Y-132076466D01*
X47166672Y-132076466D02*
X47261910Y-132028847D01*
X47738101Y-132457419D02*
X47738101Y-131457419D01*
X47738101Y-131838371D02*
X47833339Y-131790752D01*
X47833339Y-131790752D02*
X48023815Y-131790752D01*
X48023815Y-131790752D02*
X48119053Y-131838371D01*
X48119053Y-131838371D02*
X48166672Y-131885990D01*
X48166672Y-131885990D02*
X48214291Y-131981228D01*
X48214291Y-131981228D02*
X48214291Y-132266942D01*
X48214291Y-132266942D02*
X48166672Y-132362180D01*
X48166672Y-132362180D02*
X48119053Y-132409800D01*
X48119053Y-132409800D02*
X48023815Y-132457419D01*
X48023815Y-132457419D02*
X47833339Y-132457419D01*
X47833339Y-132457419D02*
X47738101Y-132409800D01*
X-23642863Y-131505038D02*
X-23738101Y-131457419D01*
X-23738101Y-131457419D02*
X-23880958Y-131457419D01*
X-23880958Y-131457419D02*
X-24023815Y-131505038D01*
X-24023815Y-131505038D02*
X-24119053Y-131600276D01*
X-24119053Y-131600276D02*
X-24166672Y-131695514D01*
X-24166672Y-131695514D02*
X-24214291Y-131885990D01*
X-24214291Y-131885990D02*
X-24214291Y-132028847D01*
X-24214291Y-132028847D02*
X-24166672Y-132219323D01*
X-24166672Y-132219323D02*
X-24119053Y-132314561D01*
X-24119053Y-132314561D02*
X-24023815Y-132409800D01*
X-24023815Y-132409800D02*
X-23880958Y-132457419D01*
X-23880958Y-132457419D02*
X-23785720Y-132457419D01*
X-23785720Y-132457419D02*
X-23642863Y-132409800D01*
X-23642863Y-132409800D02*
X-23595244Y-132362180D01*
X-23595244Y-132362180D02*
X-23595244Y-132028847D01*
X-23595244Y-132028847D02*
X-23785720Y-132028847D01*
X-23166672Y-132457419D02*
X-23166672Y-131457419D01*
X-23166672Y-131457419D02*
X-22595244Y-132457419D01*
X-22595244Y-132457419D02*
X-22595244Y-131457419D01*
X-22119053Y-132457419D02*
X-22119053Y-131457419D01*
X-22119053Y-131457419D02*
X-21880958Y-131457419D01*
X-21880958Y-131457419D02*
X-21738101Y-131505038D01*
X-21738101Y-131505038D02*
X-21642863Y-131600276D01*
X-21642863Y-131600276D02*
X-21595244Y-131695514D01*
X-21595244Y-131695514D02*
X-21547625Y-131885990D01*
X-21547625Y-131885990D02*
X-21547625Y-132028847D01*
X-21547625Y-132028847D02*
X-21595244Y-132219323D01*
X-21595244Y-132219323D02*
X-21642863Y-132314561D01*
X-21642863Y-132314561D02*
X-21738101Y-132409800D01*
X-21738101Y-132409800D02*
X-21880958Y-132457419D01*
X-21880958Y-132457419D02*
X-22119053Y-132457419D01*
X-20357148Y-131790752D02*
X-20357148Y-132790752D01*
X-20357148Y-131838371D02*
X-20261910Y-131790752D01*
X-20261910Y-131790752D02*
X-20071434Y-131790752D01*
X-20071434Y-131790752D02*
X-19976196Y-131838371D01*
X-19976196Y-131838371D02*
X-19928577Y-131885990D01*
X-19928577Y-131885990D02*
X-19880958Y-131981228D01*
X-19880958Y-131981228D02*
X-19880958Y-132266942D01*
X-19880958Y-132266942D02*
X-19928577Y-132362180D01*
X-19928577Y-132362180D02*
X-19976196Y-132409800D01*
X-19976196Y-132409800D02*
X-20071434Y-132457419D01*
X-20071434Y-132457419D02*
X-20261910Y-132457419D01*
X-20261910Y-132457419D02*
X-20357148Y-132409800D01*
X-19309529Y-132457419D02*
X-19404767Y-132409800D01*
X-19404767Y-132409800D02*
X-19452386Y-132362180D01*
X-19452386Y-132362180D02*
X-19500005Y-132266942D01*
X-19500005Y-132266942D02*
X-19500005Y-131981228D01*
X-19500005Y-131981228D02*
X-19452386Y-131885990D01*
X-19452386Y-131885990D02*
X-19404767Y-131838371D01*
X-19404767Y-131838371D02*
X-19309529Y-131790752D01*
X-19309529Y-131790752D02*
X-19166672Y-131790752D01*
X-19166672Y-131790752D02*
X-19071434Y-131838371D01*
X-19071434Y-131838371D02*
X-19023815Y-131885990D01*
X-19023815Y-131885990D02*
X-18976196Y-131981228D01*
X-18976196Y-131981228D02*
X-18976196Y-132266942D01*
X-18976196Y-132266942D02*
X-19023815Y-132362180D01*
X-19023815Y-132362180D02*
X-19071434Y-132409800D01*
X-19071434Y-132409800D02*
X-19166672Y-132457419D01*
X-19166672Y-132457419D02*
X-19309529Y-132457419D01*
X-18119053Y-131790752D02*
X-18119053Y-132457419D01*
X-18547624Y-131790752D02*
X-18547624Y-132314561D01*
X-18547624Y-132314561D02*
X-18500005Y-132409800D01*
X-18500005Y-132409800D02*
X-18404767Y-132457419D01*
X-18404767Y-132457419D02*
X-18261910Y-132457419D01*
X-18261910Y-132457419D02*
X-18166672Y-132409800D01*
X-18166672Y-132409800D02*
X-18119053Y-132362180D01*
X-17642862Y-132457419D02*
X-17642862Y-131790752D01*
X-17642862Y-131981228D02*
X-17595243Y-131885990D01*
X-17595243Y-131885990D02*
X-17547624Y-131838371D01*
X-17547624Y-131838371D02*
X-17452386Y-131790752D01*
X-17452386Y-131790752D02*
X-17357148Y-131790752D01*
X-16261909Y-132457419D02*
X-16261909Y-131790752D01*
X-16261909Y-131457419D02*
X-16309528Y-131505038D01*
X-16309528Y-131505038D02*
X-16261909Y-131552657D01*
X-16261909Y-131552657D02*
X-16214290Y-131505038D01*
X-16214290Y-131505038D02*
X-16261909Y-131457419D01*
X-16261909Y-131457419D02*
X-16261909Y-131552657D01*
X-15785719Y-131790752D02*
X-15785719Y-132457419D01*
X-15785719Y-131885990D02*
X-15738100Y-131838371D01*
X-15738100Y-131838371D02*
X-15642862Y-131790752D01*
X-15642862Y-131790752D02*
X-15500005Y-131790752D01*
X-15500005Y-131790752D02*
X-15404767Y-131838371D01*
X-15404767Y-131838371D02*
X-15357148Y-131933609D01*
X-15357148Y-131933609D02*
X-15357148Y-132457419D01*
X-15023814Y-131790752D02*
X-14642862Y-131790752D01*
X-14880957Y-131457419D02*
X-14880957Y-132314561D01*
X-14880957Y-132314561D02*
X-14833338Y-132409800D01*
X-14833338Y-132409800D02*
X-14738100Y-132457419D01*
X-14738100Y-132457419D02*
X-14642862Y-132457419D01*
X-13928576Y-132409800D02*
X-14023814Y-132457419D01*
X-14023814Y-132457419D02*
X-14214290Y-132457419D01*
X-14214290Y-132457419D02*
X-14309528Y-132409800D01*
X-14309528Y-132409800D02*
X-14357147Y-132314561D01*
X-14357147Y-132314561D02*
X-14357147Y-131933609D01*
X-14357147Y-131933609D02*
X-14309528Y-131838371D01*
X-14309528Y-131838371D02*
X-14214290Y-131790752D01*
X-14214290Y-131790752D02*
X-14023814Y-131790752D01*
X-14023814Y-131790752D02*
X-13928576Y-131838371D01*
X-13928576Y-131838371D02*
X-13880957Y-131933609D01*
X-13880957Y-131933609D02*
X-13880957Y-132028847D01*
X-13880957Y-132028847D02*
X-14357147Y-132124085D01*
X-13452385Y-131790752D02*
X-13452385Y-132457419D01*
X-13452385Y-131885990D02*
X-13404766Y-131838371D01*
X-13404766Y-131838371D02*
X-13309528Y-131790752D01*
X-13309528Y-131790752D02*
X-13166671Y-131790752D01*
X-13166671Y-131790752D02*
X-13071433Y-131838371D01*
X-13071433Y-131838371D02*
X-13023814Y-131933609D01*
X-13023814Y-131933609D02*
X-13023814Y-132457419D01*
X-12690480Y-131790752D02*
X-12309528Y-131790752D01*
X-12547623Y-131457419D02*
X-12547623Y-132314561D01*
X-12547623Y-132314561D02*
X-12500004Y-132409800D01*
X-12500004Y-132409800D02*
X-12404766Y-132457419D01*
X-12404766Y-132457419D02*
X-12309528Y-132457419D01*
X-10880956Y-131933609D02*
X-11214289Y-131933609D01*
X-11214289Y-132457419D02*
X-11214289Y-131457419D01*
X-11214289Y-131457419D02*
X-10738099Y-131457419D01*
X-9642861Y-131409800D02*
X-10500003Y-132695514D01*
X-8976194Y-131933609D02*
X-8833337Y-131981228D01*
X-8833337Y-131981228D02*
X-8785718Y-132028847D01*
X-8785718Y-132028847D02*
X-8738099Y-132124085D01*
X-8738099Y-132124085D02*
X-8738099Y-132266942D01*
X-8738099Y-132266942D02*
X-8785718Y-132362180D01*
X-8785718Y-132362180D02*
X-8833337Y-132409800D01*
X-8833337Y-132409800D02*
X-8928575Y-132457419D01*
X-8928575Y-132457419D02*
X-9309527Y-132457419D01*
X-9309527Y-132457419D02*
X-9309527Y-131457419D01*
X-9309527Y-131457419D02*
X-8976194Y-131457419D01*
X-8976194Y-131457419D02*
X-8880956Y-131505038D01*
X-8880956Y-131505038D02*
X-8833337Y-131552657D01*
X-8833337Y-131552657D02*
X-8785718Y-131647895D01*
X-8785718Y-131647895D02*
X-8785718Y-131743133D01*
X-8785718Y-131743133D02*
X-8833337Y-131838371D01*
X-8833337Y-131838371D02*
X-8880956Y-131885990D01*
X-8880956Y-131885990D02*
X-8976194Y-131933609D01*
X-8976194Y-131933609D02*
X-9309527Y-131933609D01*
X-7642860Y-132124085D02*
X-6785718Y-132124085D01*
X-5071432Y-132362180D02*
X-5119051Y-132409800D01*
X-5119051Y-132409800D02*
X-5261908Y-132457419D01*
X-5261908Y-132457419D02*
X-5357146Y-132457419D01*
X-5357146Y-132457419D02*
X-5500003Y-132409800D01*
X-5500003Y-132409800D02*
X-5595241Y-132314561D01*
X-5595241Y-132314561D02*
X-5642860Y-132219323D01*
X-5642860Y-132219323D02*
X-5690479Y-132028847D01*
X-5690479Y-132028847D02*
X-5690479Y-131885990D01*
X-5690479Y-131885990D02*
X-5642860Y-131695514D01*
X-5642860Y-131695514D02*
X-5595241Y-131600276D01*
X-5595241Y-131600276D02*
X-5500003Y-131505038D01*
X-5500003Y-131505038D02*
X-5357146Y-131457419D01*
X-5357146Y-131457419D02*
X-5261908Y-131457419D01*
X-5261908Y-131457419D02*
X-5119051Y-131505038D01*
X-5119051Y-131505038D02*
X-5071432Y-131552657D01*
X-4500003Y-132457419D02*
X-4595241Y-132409800D01*
X-4595241Y-132409800D02*
X-4642860Y-132362180D01*
X-4642860Y-132362180D02*
X-4690479Y-132266942D01*
X-4690479Y-132266942D02*
X-4690479Y-131981228D01*
X-4690479Y-131981228D02*
X-4642860Y-131885990D01*
X-4642860Y-131885990D02*
X-4595241Y-131838371D01*
X-4595241Y-131838371D02*
X-4500003Y-131790752D01*
X-4500003Y-131790752D02*
X-4357146Y-131790752D01*
X-4357146Y-131790752D02*
X-4261908Y-131838371D01*
X-4261908Y-131838371D02*
X-4214289Y-131885990D01*
X-4214289Y-131885990D02*
X-4166670Y-131981228D01*
X-4166670Y-131981228D02*
X-4166670Y-132266942D01*
X-4166670Y-132266942D02*
X-4214289Y-132362180D01*
X-4214289Y-132362180D02*
X-4261908Y-132409800D01*
X-4261908Y-132409800D02*
X-4357146Y-132457419D01*
X-4357146Y-132457419D02*
X-4500003Y-132457419D01*
X-3738098Y-131790752D02*
X-3738098Y-132457419D01*
X-3738098Y-131885990D02*
X-3690479Y-131838371D01*
X-3690479Y-131838371D02*
X-3595241Y-131790752D01*
X-3595241Y-131790752D02*
X-3452384Y-131790752D01*
X-3452384Y-131790752D02*
X-3357146Y-131838371D01*
X-3357146Y-131838371D02*
X-3309527Y-131933609D01*
X-3309527Y-131933609D02*
X-3309527Y-132457419D01*
X-2976193Y-131790752D02*
X-2595241Y-131790752D01*
X-2833336Y-131457419D02*
X-2833336Y-132314561D01*
X-2833336Y-132314561D02*
X-2785717Y-132409800D01*
X-2785717Y-132409800D02*
X-2690479Y-132457419D01*
X-2690479Y-132457419D02*
X-2595241Y-132457419D01*
X-1500002Y-132457419D02*
X-1500002Y-131457419D01*
X-1119050Y-131457419D02*
X-452384Y-132457419D01*
X-452384Y-131457419D02*
X-1119050Y-132457419D01*
X833330Y-132457419D02*
X738092Y-132409800D01*
X738092Y-132409800D02*
X690473Y-132314561D01*
X690473Y-132314561D02*
X690473Y-131457419D01*
X1595235Y-132409800D02*
X1499997Y-132457419D01*
X1499997Y-132457419D02*
X1309521Y-132457419D01*
X1309521Y-132457419D02*
X1214283Y-132409800D01*
X1214283Y-132409800D02*
X1166664Y-132314561D01*
X1166664Y-132314561D02*
X1166664Y-131933609D01*
X1166664Y-131933609D02*
X1214283Y-131838371D01*
X1214283Y-131838371D02*
X1309521Y-131790752D01*
X1309521Y-131790752D02*
X1499997Y-131790752D01*
X1499997Y-131790752D02*
X1595235Y-131838371D01*
X1595235Y-131838371D02*
X1642854Y-131933609D01*
X1642854Y-131933609D02*
X1642854Y-132028847D01*
X1642854Y-132028847D02*
X1166664Y-132124085D01*
X2499997Y-132457419D02*
X2499997Y-131933609D01*
X2499997Y-131933609D02*
X2452378Y-131838371D01*
X2452378Y-131838371D02*
X2357140Y-131790752D01*
X2357140Y-131790752D02*
X2166664Y-131790752D01*
X2166664Y-131790752D02*
X2071426Y-131838371D01*
X2499997Y-132409800D02*
X2404759Y-132457419D01*
X2404759Y-132457419D02*
X2166664Y-132457419D01*
X2166664Y-132457419D02*
X2071426Y-132409800D01*
X2071426Y-132409800D02*
X2023807Y-132314561D01*
X2023807Y-132314561D02*
X2023807Y-132219323D01*
X2023807Y-132219323D02*
X2071426Y-132124085D01*
X2071426Y-132124085D02*
X2166664Y-132076466D01*
X2166664Y-132076466D02*
X2404759Y-132076466D01*
X2404759Y-132076466D02*
X2499997Y-132028847D01*
X2880950Y-131790752D02*
X3119045Y-132457419D01*
X3119045Y-132457419D02*
X3357140Y-131790752D01*
X4119045Y-132409800D02*
X4023807Y-132457419D01*
X4023807Y-132457419D02*
X3833331Y-132457419D01*
X3833331Y-132457419D02*
X3738093Y-132409800D01*
X3738093Y-132409800D02*
X3690474Y-132314561D01*
X3690474Y-132314561D02*
X3690474Y-131933609D01*
X3690474Y-131933609D02*
X3738093Y-131838371D01*
X3738093Y-131838371D02*
X3833331Y-131790752D01*
X3833331Y-131790752D02*
X4023807Y-131790752D01*
X4023807Y-131790752D02*
X4119045Y-131838371D01*
X4119045Y-131838371D02*
X4166664Y-131933609D01*
X4166664Y-131933609D02*
X4166664Y-132028847D01*
X4166664Y-132028847D02*
X3690474Y-132124085D01*
X4547617Y-132409800D02*
X4642855Y-132457419D01*
X4642855Y-132457419D02*
X4833331Y-132457419D01*
X4833331Y-132457419D02*
X4928569Y-132409800D01*
X4928569Y-132409800D02*
X4976188Y-132314561D01*
X4976188Y-132314561D02*
X4976188Y-132266942D01*
X4976188Y-132266942D02*
X4928569Y-132171704D01*
X4928569Y-132171704D02*
X4833331Y-132124085D01*
X4833331Y-132124085D02*
X4690474Y-132124085D01*
X4690474Y-132124085D02*
X4595236Y-132076466D01*
X4595236Y-132076466D02*
X4547617Y-131981228D01*
X4547617Y-131981228D02*
X4547617Y-131933609D01*
X4547617Y-131933609D02*
X4595236Y-131838371D01*
X4595236Y-131838371D02*
X4690474Y-131790752D01*
X4690474Y-131790752D02*
X4833331Y-131790752D01*
X4833331Y-131790752D02*
X4928569Y-131838371D01*
X6595236Y-131790752D02*
X6595236Y-132457419D01*
X6166665Y-131790752D02*
X6166665Y-132314561D01*
X6166665Y-132314561D02*
X6214284Y-132409800D01*
X6214284Y-132409800D02*
X6309522Y-132457419D01*
X6309522Y-132457419D02*
X6452379Y-132457419D01*
X6452379Y-132457419D02*
X6547617Y-132409800D01*
X6547617Y-132409800D02*
X6595236Y-132362180D01*
X7071427Y-131790752D02*
X7071427Y-132457419D01*
X7071427Y-131885990D02*
X7119046Y-131838371D01*
X7119046Y-131838371D02*
X7214284Y-131790752D01*
X7214284Y-131790752D02*
X7357141Y-131790752D01*
X7357141Y-131790752D02*
X7452379Y-131838371D01*
X7452379Y-131838371D02*
X7499998Y-131933609D01*
X7499998Y-131933609D02*
X7499998Y-132457419D01*
X7833332Y-131790752D02*
X8214284Y-131790752D01*
X7976189Y-132457419D02*
X7976189Y-131600276D01*
X7976189Y-131600276D02*
X8023808Y-131505038D01*
X8023808Y-131505038D02*
X8119046Y-131457419D01*
X8119046Y-131457419D02*
X8214284Y-131457419D01*
X8547618Y-132457419D02*
X8547618Y-131790752D01*
X8547618Y-131457419D02*
X8499999Y-131505038D01*
X8499999Y-131505038D02*
X8547618Y-131552657D01*
X8547618Y-131552657D02*
X8595237Y-131505038D01*
X8595237Y-131505038D02*
X8547618Y-131457419D01*
X8547618Y-131457419D02*
X8547618Y-131552657D01*
X9166665Y-132457419D02*
X9071427Y-132409800D01*
X9071427Y-132409800D02*
X9023808Y-132314561D01*
X9023808Y-132314561D02*
X9023808Y-131457419D01*
X9690475Y-132457419D02*
X9595237Y-132409800D01*
X9595237Y-132409800D02*
X9547618Y-132314561D01*
X9547618Y-132314561D02*
X9547618Y-131457419D01*
X10452380Y-132409800D02*
X10357142Y-132457419D01*
X10357142Y-132457419D02*
X10166666Y-132457419D01*
X10166666Y-132457419D02*
X10071428Y-132409800D01*
X10071428Y-132409800D02*
X10023809Y-132314561D01*
X10023809Y-132314561D02*
X10023809Y-131933609D01*
X10023809Y-131933609D02*
X10071428Y-131838371D01*
X10071428Y-131838371D02*
X10166666Y-131790752D01*
X10166666Y-131790752D02*
X10357142Y-131790752D01*
X10357142Y-131790752D02*
X10452380Y-131838371D01*
X10452380Y-131838371D02*
X10499999Y-131933609D01*
X10499999Y-131933609D02*
X10499999Y-132028847D01*
X10499999Y-132028847D02*
X10023809Y-132124085D01*
X11357142Y-132457419D02*
X11357142Y-131457419D01*
X11357142Y-132409800D02*
X11261904Y-132457419D01*
X11261904Y-132457419D02*
X11071428Y-132457419D01*
X11071428Y-132457419D02*
X10976190Y-132409800D01*
X10976190Y-132409800D02*
X10928571Y-132362180D01*
X10928571Y-132362180D02*
X10880952Y-132266942D01*
X10880952Y-132266942D02*
X10880952Y-131981228D01*
X10880952Y-131981228D02*
X10928571Y-131885990D01*
X10928571Y-131885990D02*
X10976190Y-131838371D01*
X10976190Y-131838371D02*
X11071428Y-131790752D01*
X11071428Y-131790752D02*
X11261904Y-131790752D01*
X11261904Y-131790752D02*
X11357142Y-131838371D01*
X12452381Y-131790752D02*
X12833333Y-131790752D01*
X12595238Y-132457419D02*
X12595238Y-131600276D01*
X12595238Y-131600276D02*
X12642857Y-131505038D01*
X12642857Y-131505038D02*
X12738095Y-131457419D01*
X12738095Y-131457419D02*
X12833333Y-131457419D01*
X13309524Y-132457419D02*
X13214286Y-132409800D01*
X13214286Y-132409800D02*
X13166667Y-132362180D01*
X13166667Y-132362180D02*
X13119048Y-132266942D01*
X13119048Y-132266942D02*
X13119048Y-131981228D01*
X13119048Y-131981228D02*
X13166667Y-131885990D01*
X13166667Y-131885990D02*
X13214286Y-131838371D01*
X13214286Y-131838371D02*
X13309524Y-131790752D01*
X13309524Y-131790752D02*
X13452381Y-131790752D01*
X13452381Y-131790752D02*
X13547619Y-131838371D01*
X13547619Y-131838371D02*
X13595238Y-131885990D01*
X13595238Y-131885990D02*
X13642857Y-131981228D01*
X13642857Y-131981228D02*
X13642857Y-132266942D01*
X13642857Y-132266942D02*
X13595238Y-132362180D01*
X13595238Y-132362180D02*
X13547619Y-132409800D01*
X13547619Y-132409800D02*
X13452381Y-132457419D01*
X13452381Y-132457419D02*
X13309524Y-132457419D01*
X14071429Y-132457419D02*
X14071429Y-131790752D01*
X14071429Y-131981228D02*
X14119048Y-131885990D01*
X14119048Y-131885990D02*
X14166667Y-131838371D01*
X14166667Y-131838371D02*
X14261905Y-131790752D01*
X14261905Y-131790752D02*
X14357143Y-131790752D01*
X15452382Y-132457419D02*
X15452382Y-131457419D01*
X15452382Y-131457419D02*
X15690477Y-131457419D01*
X15690477Y-131457419D02*
X15833334Y-131505038D01*
X15833334Y-131505038D02*
X15928572Y-131600276D01*
X15928572Y-131600276D02*
X15976191Y-131695514D01*
X15976191Y-131695514D02*
X16023810Y-131885990D01*
X16023810Y-131885990D02*
X16023810Y-132028847D01*
X16023810Y-132028847D02*
X15976191Y-132219323D01*
X15976191Y-132219323D02*
X15928572Y-132314561D01*
X15928572Y-132314561D02*
X15833334Y-132409800D01*
X15833334Y-132409800D02*
X15690477Y-132457419D01*
X15690477Y-132457419D02*
X15452382Y-132457419D01*
X17023810Y-132457419D02*
X16690477Y-131981228D01*
X16452382Y-132457419D02*
X16452382Y-131457419D01*
X16452382Y-131457419D02*
X16833334Y-131457419D01*
X16833334Y-131457419D02*
X16928572Y-131505038D01*
X16928572Y-131505038D02*
X16976191Y-131552657D01*
X16976191Y-131552657D02*
X17023810Y-131647895D01*
X17023810Y-131647895D02*
X17023810Y-131790752D01*
X17023810Y-131790752D02*
X16976191Y-131885990D01*
X16976191Y-131885990D02*
X16928572Y-131933609D01*
X16928572Y-131933609D02*
X16833334Y-131981228D01*
X16833334Y-131981228D02*
X16452382Y-131981228D01*
X18023810Y-132362180D02*
X17976191Y-132409800D01*
X17976191Y-132409800D02*
X17833334Y-132457419D01*
X17833334Y-132457419D02*
X17738096Y-132457419D01*
X17738096Y-132457419D02*
X17595239Y-132409800D01*
X17595239Y-132409800D02*
X17500001Y-132314561D01*
X17500001Y-132314561D02*
X17452382Y-132219323D01*
X17452382Y-132219323D02*
X17404763Y-132028847D01*
X17404763Y-132028847D02*
X17404763Y-131885990D01*
X17404763Y-131885990D02*
X17452382Y-131695514D01*
X17452382Y-131695514D02*
X17500001Y-131600276D01*
X17500001Y-131600276D02*
X17595239Y-131505038D01*
X17595239Y-131505038D02*
X17738096Y-131457419D01*
X17738096Y-131457419D02*
X17833334Y-131457419D01*
X17833334Y-131457419D02*
X17976191Y-131505038D01*
X17976191Y-131505038D02*
X18023810Y-131552657D01*
X18452382Y-132076466D02*
X19214287Y-132076466D01*
X20119048Y-132409800D02*
X20023810Y-132457419D01*
X20023810Y-132457419D02*
X19833334Y-132457419D01*
X19833334Y-132457419D02*
X19738096Y-132409800D01*
X19738096Y-132409800D02*
X19690477Y-132362180D01*
X19690477Y-132362180D02*
X19642858Y-132266942D01*
X19642858Y-132266942D02*
X19642858Y-131981228D01*
X19642858Y-131981228D02*
X19690477Y-131885990D01*
X19690477Y-131885990D02*
X19738096Y-131838371D01*
X19738096Y-131838371D02*
X19833334Y-131790752D01*
X19833334Y-131790752D02*
X20023810Y-131790752D01*
X20023810Y-131790752D02*
X20119048Y-131838371D01*
X20690477Y-132457419D02*
X20595239Y-132409800D01*
X20595239Y-132409800D02*
X20547620Y-132314561D01*
X20547620Y-132314561D02*
X20547620Y-131457419D01*
X21452382Y-132409800D02*
X21357144Y-132457419D01*
X21357144Y-132457419D02*
X21166668Y-132457419D01*
X21166668Y-132457419D02*
X21071430Y-132409800D01*
X21071430Y-132409800D02*
X21023811Y-132314561D01*
X21023811Y-132314561D02*
X21023811Y-131933609D01*
X21023811Y-131933609D02*
X21071430Y-131838371D01*
X21071430Y-131838371D02*
X21166668Y-131790752D01*
X21166668Y-131790752D02*
X21357144Y-131790752D01*
X21357144Y-131790752D02*
X21452382Y-131838371D01*
X21452382Y-131838371D02*
X21500001Y-131933609D01*
X21500001Y-131933609D02*
X21500001Y-132028847D01*
X21500001Y-132028847D02*
X21023811Y-132124085D01*
X22357144Y-132457419D02*
X22357144Y-131933609D01*
X22357144Y-131933609D02*
X22309525Y-131838371D01*
X22309525Y-131838371D02*
X22214287Y-131790752D01*
X22214287Y-131790752D02*
X22023811Y-131790752D01*
X22023811Y-131790752D02*
X21928573Y-131838371D01*
X22357144Y-132409800D02*
X22261906Y-132457419D01*
X22261906Y-132457419D02*
X22023811Y-132457419D01*
X22023811Y-132457419D02*
X21928573Y-132409800D01*
X21928573Y-132409800D02*
X21880954Y-132314561D01*
X21880954Y-132314561D02*
X21880954Y-132219323D01*
X21880954Y-132219323D02*
X21928573Y-132124085D01*
X21928573Y-132124085D02*
X22023811Y-132076466D01*
X22023811Y-132076466D02*
X22261906Y-132076466D01*
X22261906Y-132076466D02*
X22357144Y-132028847D01*
X22833335Y-131790752D02*
X22833335Y-132457419D01*
X22833335Y-131885990D02*
X22880954Y-131838371D01*
X22880954Y-131838371D02*
X22976192Y-131790752D01*
X22976192Y-131790752D02*
X23119049Y-131790752D01*
X23119049Y-131790752D02*
X23214287Y-131838371D01*
X23214287Y-131838371D02*
X23261906Y-131933609D01*
X23261906Y-131933609D02*
X23261906Y-132457419D01*
X24928573Y-132457419D02*
X24928573Y-131457419D01*
X24928573Y-132409800D02*
X24833335Y-132457419D01*
X24833335Y-132457419D02*
X24642859Y-132457419D01*
X24642859Y-132457419D02*
X24547621Y-132409800D01*
X24547621Y-132409800D02*
X24500002Y-132362180D01*
X24500002Y-132362180D02*
X24452383Y-132266942D01*
X24452383Y-132266942D02*
X24452383Y-131981228D01*
X24452383Y-131981228D02*
X24500002Y-131885990D01*
X24500002Y-131885990D02*
X24547621Y-131838371D01*
X24547621Y-131838371D02*
X24642859Y-131790752D01*
X24642859Y-131790752D02*
X24833335Y-131790752D01*
X24833335Y-131790752D02*
X24928573Y-131838371D01*
X25404764Y-132457419D02*
X25404764Y-131790752D01*
X25404764Y-131457419D02*
X25357145Y-131505038D01*
X25357145Y-131505038D02*
X25404764Y-131552657D01*
X25404764Y-131552657D02*
X25452383Y-131505038D01*
X25452383Y-131505038D02*
X25404764Y-131457419D01*
X25404764Y-131457419D02*
X25404764Y-131552657D01*
X26309525Y-131790752D02*
X26309525Y-132600276D01*
X26309525Y-132600276D02*
X26261906Y-132695514D01*
X26261906Y-132695514D02*
X26214287Y-132743133D01*
X26214287Y-132743133D02*
X26119049Y-132790752D01*
X26119049Y-132790752D02*
X25976192Y-132790752D01*
X25976192Y-132790752D02*
X25880954Y-132743133D01*
X26309525Y-132409800D02*
X26214287Y-132457419D01*
X26214287Y-132457419D02*
X26023811Y-132457419D01*
X26023811Y-132457419D02*
X25928573Y-132409800D01*
X25928573Y-132409800D02*
X25880954Y-132362180D01*
X25880954Y-132362180D02*
X25833335Y-132266942D01*
X25833335Y-132266942D02*
X25833335Y-131981228D01*
X25833335Y-131981228D02*
X25880954Y-131885990D01*
X25880954Y-131885990D02*
X25928573Y-131838371D01*
X25928573Y-131838371D02*
X26023811Y-131790752D01*
X26023811Y-131790752D02*
X26214287Y-131790752D01*
X26214287Y-131790752D02*
X26309525Y-131838371D01*
X26785716Y-132457419D02*
X26785716Y-131790752D01*
X26785716Y-131457419D02*
X26738097Y-131505038D01*
X26738097Y-131505038D02*
X26785716Y-131552657D01*
X26785716Y-131552657D02*
X26833335Y-131505038D01*
X26833335Y-131505038D02*
X26785716Y-131457419D01*
X26785716Y-131457419D02*
X26785716Y-131552657D01*
X27119049Y-131790752D02*
X27500001Y-131790752D01*
X27261906Y-131457419D02*
X27261906Y-132314561D01*
X27261906Y-132314561D02*
X27309525Y-132409800D01*
X27309525Y-132409800D02*
X27404763Y-132457419D01*
X27404763Y-132457419D02*
X27500001Y-132457419D01*
X28261906Y-132457419D02*
X28261906Y-131933609D01*
X28261906Y-131933609D02*
X28214287Y-131838371D01*
X28214287Y-131838371D02*
X28119049Y-131790752D01*
X28119049Y-131790752D02*
X27928573Y-131790752D01*
X27928573Y-131790752D02*
X27833335Y-131838371D01*
X28261906Y-132409800D02*
X28166668Y-132457419D01*
X28166668Y-132457419D02*
X27928573Y-132457419D01*
X27928573Y-132457419D02*
X27833335Y-132409800D01*
X27833335Y-132409800D02*
X27785716Y-132314561D01*
X27785716Y-132314561D02*
X27785716Y-132219323D01*
X27785716Y-132219323D02*
X27833335Y-132124085D01*
X27833335Y-132124085D02*
X27928573Y-132076466D01*
X27928573Y-132076466D02*
X28166668Y-132076466D01*
X28166668Y-132076466D02*
X28261906Y-132028847D01*
X28880954Y-132457419D02*
X28785716Y-132409800D01*
X28785716Y-132409800D02*
X28738097Y-132314561D01*
X28738097Y-132314561D02*
X28738097Y-131457419D01*
X30023812Y-131790752D02*
X30023812Y-132790752D01*
X30023812Y-131838371D02*
X30119050Y-131790752D01*
X30119050Y-131790752D02*
X30309526Y-131790752D01*
X30309526Y-131790752D02*
X30404764Y-131838371D01*
X30404764Y-131838371D02*
X30452383Y-131885990D01*
X30452383Y-131885990D02*
X30500002Y-131981228D01*
X30500002Y-131981228D02*
X30500002Y-132266942D01*
X30500002Y-132266942D02*
X30452383Y-132362180D01*
X30452383Y-132362180D02*
X30404764Y-132409800D01*
X30404764Y-132409800D02*
X30309526Y-132457419D01*
X30309526Y-132457419D02*
X30119050Y-132457419D01*
X30119050Y-132457419D02*
X30023812Y-132409800D01*
X31357145Y-132457419D02*
X31357145Y-131933609D01*
X31357145Y-131933609D02*
X31309526Y-131838371D01*
X31309526Y-131838371D02*
X31214288Y-131790752D01*
X31214288Y-131790752D02*
X31023812Y-131790752D01*
X31023812Y-131790752D02*
X30928574Y-131838371D01*
X31357145Y-132409800D02*
X31261907Y-132457419D01*
X31261907Y-132457419D02*
X31023812Y-132457419D01*
X31023812Y-132457419D02*
X30928574Y-132409800D01*
X30928574Y-132409800D02*
X30880955Y-132314561D01*
X30880955Y-132314561D02*
X30880955Y-132219323D01*
X30880955Y-132219323D02*
X30928574Y-132124085D01*
X30928574Y-132124085D02*
X31023812Y-132076466D01*
X31023812Y-132076466D02*
X31261907Y-132076466D01*
X31261907Y-132076466D02*
X31357145Y-132028847D01*
X32261907Y-132409800D02*
X32166669Y-132457419D01*
X32166669Y-132457419D02*
X31976193Y-132457419D01*
X31976193Y-132457419D02*
X31880955Y-132409800D01*
X31880955Y-132409800D02*
X31833336Y-132362180D01*
X31833336Y-132362180D02*
X31785717Y-132266942D01*
X31785717Y-132266942D02*
X31785717Y-131981228D01*
X31785717Y-131981228D02*
X31833336Y-131885990D01*
X31833336Y-131885990D02*
X31880955Y-131838371D01*
X31880955Y-131838371D02*
X31976193Y-131790752D01*
X31976193Y-131790752D02*
X32166669Y-131790752D01*
X32166669Y-131790752D02*
X32261907Y-131838371D01*
X32690479Y-132457419D02*
X32690479Y-131457419D01*
X32785717Y-132076466D02*
X33071431Y-132457419D01*
X33071431Y-131790752D02*
X32690479Y-132171704D01*
X33928574Y-132457419D02*
X33928574Y-131933609D01*
X33928574Y-131933609D02*
X33880955Y-131838371D01*
X33880955Y-131838371D02*
X33785717Y-131790752D01*
X33785717Y-131790752D02*
X33595241Y-131790752D01*
X33595241Y-131790752D02*
X33500003Y-131838371D01*
X33928574Y-132409800D02*
X33833336Y-132457419D01*
X33833336Y-132457419D02*
X33595241Y-132457419D01*
X33595241Y-132457419D02*
X33500003Y-132409800D01*
X33500003Y-132409800D02*
X33452384Y-132314561D01*
X33452384Y-132314561D02*
X33452384Y-132219323D01*
X33452384Y-132219323D02*
X33500003Y-132124085D01*
X33500003Y-132124085D02*
X33595241Y-132076466D01*
X33595241Y-132076466D02*
X33833336Y-132076466D01*
X33833336Y-132076466D02*
X33928574Y-132028847D01*
X34833336Y-131790752D02*
X34833336Y-132600276D01*
X34833336Y-132600276D02*
X34785717Y-132695514D01*
X34785717Y-132695514D02*
X34738098Y-132743133D01*
X34738098Y-132743133D02*
X34642860Y-132790752D01*
X34642860Y-132790752D02*
X34500003Y-132790752D01*
X34500003Y-132790752D02*
X34404765Y-132743133D01*
X34833336Y-132409800D02*
X34738098Y-132457419D01*
X34738098Y-132457419D02*
X34547622Y-132457419D01*
X34547622Y-132457419D02*
X34452384Y-132409800D01*
X34452384Y-132409800D02*
X34404765Y-132362180D01*
X34404765Y-132362180D02*
X34357146Y-132266942D01*
X34357146Y-132266942D02*
X34357146Y-131981228D01*
X34357146Y-131981228D02*
X34404765Y-131885990D01*
X34404765Y-131885990D02*
X34452384Y-131838371D01*
X34452384Y-131838371D02*
X34547622Y-131790752D01*
X34547622Y-131790752D02*
X34738098Y-131790752D01*
X34738098Y-131790752D02*
X34833336Y-131838371D01*
X35690479Y-132409800D02*
X35595241Y-132457419D01*
X35595241Y-132457419D02*
X35404765Y-132457419D01*
X35404765Y-132457419D02*
X35309527Y-132409800D01*
X35309527Y-132409800D02*
X35261908Y-132314561D01*
X35261908Y-132314561D02*
X35261908Y-131933609D01*
X35261908Y-131933609D02*
X35309527Y-131838371D01*
X35309527Y-131838371D02*
X35404765Y-131790752D01*
X35404765Y-131790752D02*
X35595241Y-131790752D01*
X35595241Y-131790752D02*
X35690479Y-131838371D01*
X35690479Y-131838371D02*
X35738098Y-131933609D01*
X35738098Y-131933609D02*
X35738098Y-132028847D01*
X35738098Y-132028847D02*
X35261908Y-132124085D01*
X36214289Y-132409800D02*
X36214289Y-132457419D01*
X36214289Y-132457419D02*
X36166670Y-132552657D01*
X36166670Y-132552657D02*
X36119051Y-132600276D01*
X36166670Y-131838371D02*
X36214289Y-131885990D01*
X36214289Y-131885990D02*
X36166670Y-131933609D01*
X36166670Y-131933609D02*
X36119051Y-131885990D01*
X36119051Y-131885990D02*
X36166670Y-131838371D01*
X36166670Y-131838371D02*
X36166670Y-131933609D01*
X37976193Y-132362180D02*
X37928574Y-132409800D01*
X37928574Y-132409800D02*
X37785717Y-132457419D01*
X37785717Y-132457419D02*
X37690479Y-132457419D01*
X37690479Y-132457419D02*
X37547622Y-132409800D01*
X37547622Y-132409800D02*
X37452384Y-132314561D01*
X37452384Y-132314561D02*
X37404765Y-132219323D01*
X37404765Y-132219323D02*
X37357146Y-132028847D01*
X37357146Y-132028847D02*
X37357146Y-131885990D01*
X37357146Y-131885990D02*
X37404765Y-131695514D01*
X37404765Y-131695514D02*
X37452384Y-131600276D01*
X37452384Y-131600276D02*
X37547622Y-131505038D01*
X37547622Y-131505038D02*
X37690479Y-131457419D01*
X37690479Y-131457419D02*
X37785717Y-131457419D01*
X37785717Y-131457419D02*
X37928574Y-131505038D01*
X37928574Y-131505038D02*
X37976193Y-131552657D01*
X38357146Y-132171704D02*
X38833336Y-132171704D01*
X38261908Y-132457419D02*
X38595241Y-131457419D01*
X38595241Y-131457419D02*
X38928574Y-132457419D01*
X39261908Y-132457419D02*
X39261908Y-131457419D01*
X39261908Y-131457419D02*
X39595241Y-132171704D01*
X39595241Y-132171704D02*
X39928574Y-131457419D01*
X39928574Y-131457419D02*
X39928574Y-132457419D01*
X41023813Y-131790752D02*
X41404765Y-131790752D01*
X41166670Y-132457419D02*
X41166670Y-131600276D01*
X41166670Y-131600276D02*
X41214289Y-131505038D01*
X41214289Y-131505038D02*
X41309527Y-131457419D01*
X41309527Y-131457419D02*
X41404765Y-131457419D01*
X41738099Y-132457419D02*
X41738099Y-131790752D01*
X41738099Y-131457419D02*
X41690480Y-131505038D01*
X41690480Y-131505038D02*
X41738099Y-131552657D01*
X41738099Y-131552657D02*
X41785718Y-131505038D01*
X41785718Y-131505038D02*
X41738099Y-131457419D01*
X41738099Y-131457419D02*
X41738099Y-131552657D01*
X42357146Y-132457419D02*
X42261908Y-132409800D01*
X42261908Y-132409800D02*
X42214289Y-132314561D01*
X42214289Y-132314561D02*
X42214289Y-131457419D01*
X42880956Y-132457419D02*
X42785718Y-132409800D01*
X42785718Y-132409800D02*
X42738099Y-132314561D01*
X42738099Y-132314561D02*
X42738099Y-131457419D01*
X44452385Y-132457419D02*
X44452385Y-131933609D01*
X44452385Y-131933609D02*
X44404766Y-131838371D01*
X44404766Y-131838371D02*
X44309528Y-131790752D01*
X44309528Y-131790752D02*
X44119052Y-131790752D01*
X44119052Y-131790752D02*
X44023814Y-131838371D01*
X44452385Y-132409800D02*
X44357147Y-132457419D01*
X44357147Y-132457419D02*
X44119052Y-132457419D01*
X44119052Y-132457419D02*
X44023814Y-132409800D01*
X44023814Y-132409800D02*
X43976195Y-132314561D01*
X43976195Y-132314561D02*
X43976195Y-132219323D01*
X43976195Y-132219323D02*
X44023814Y-132124085D01*
X44023814Y-132124085D02*
X44119052Y-132076466D01*
X44119052Y-132076466D02*
X44357147Y-132076466D01*
X44357147Y-132076466D02*
X44452385Y-132028847D01*
X44785719Y-131790752D02*
X45166671Y-131790752D01*
X44928576Y-131457419D02*
X44928576Y-132314561D01*
X44928576Y-132314561D02*
X44976195Y-132409800D01*
X44976195Y-132409800D02*
X45071433Y-132457419D01*
X45071433Y-132457419D02*
X45166671Y-132457419D01*
X46119053Y-131790752D02*
X46500005Y-131790752D01*
X46261910Y-132457419D02*
X46261910Y-131600276D01*
X46261910Y-131600276D02*
X46309529Y-131505038D01*
X46309529Y-131505038D02*
X46404767Y-131457419D01*
X46404767Y-131457419D02*
X46500005Y-131457419D01*
X47261910Y-132457419D02*
X47261910Y-131933609D01*
X47261910Y-131933609D02*
X47214291Y-131838371D01*
X47214291Y-131838371D02*
X47119053Y-131790752D01*
X47119053Y-131790752D02*
X46928577Y-131790752D01*
X46928577Y-131790752D02*
X46833339Y-131838371D01*
X47261910Y-132409800D02*
X47166672Y-132457419D01*
X47166672Y-132457419D02*
X46928577Y-132457419D01*
X46928577Y-132457419D02*
X46833339Y-132409800D01*
X46833339Y-132409800D02*
X46785720Y-132314561D01*
X46785720Y-132314561D02*
X46785720Y-132219323D01*
X46785720Y-132219323D02*
X46833339Y-132124085D01*
X46833339Y-132124085D02*
X46928577Y-132076466D01*
X46928577Y-132076466D02*
X47166672Y-132076466D01*
X47166672Y-132076466D02*
X47261910Y-132028847D01*
X47738101Y-132457419D02*
X47738101Y-131457419D01*
X47738101Y-131838371D02*
X47833339Y-131790752D01*
X47833339Y-131790752D02*
X48023815Y-131790752D01*
X48023815Y-131790752D02*
X48119053Y-131838371D01*
X48119053Y-131838371D02*
X48166672Y-131885990D01*
X48166672Y-131885990D02*
X48214291Y-131981228D01*
X48214291Y-131981228D02*
X48214291Y-132266942D01*
X48214291Y-132266942D02*
X48166672Y-132362180D01*
X48166672Y-132362180D02*
X48119053Y-132409800D01*
X48119053Y-132409800D02*
X48023815Y-132457419D01*
X48023815Y-132457419D02*
X47833339Y-132457419D01*
X47833339Y-132457419D02*
X47738101Y-132409800D01*
M02*
