%TF.GenerationSoftware,KiCad,Pcbnew,10.0.5*%
%TF.CreationDate,2026-08-09T14:46:46-05:00*%
%TF.ProjectId,handheld_hybrid,68616e64-6865-46c6-945f-687962726964,0.5.0-cont-viii*%
%TF.SameCoordinates,Original*%
%TF.FileFunction,Other,Comment*%
%FSLAX46Y46*%
G04 Gerber Fmt 4.6, Leading zero omitted, Abs format (unit mm)*
G04 Created by KiCad (PCBNEW 10.0.5) date 2026-08-09 14:46:46*
%MOMM*%
%LPD*%
G01*
G04 APERTURE LIST*
%ADD10C,0.100000*%
G04 APERTURE END LIST*
D10*
X-21785719Y-101505038D02*
X-21880957Y-101457419D01*
X-21880957Y-101457419D02*
X-22023814Y-101457419D01*
X-22023814Y-101457419D02*
X-22166671Y-101505038D01*
X-22166671Y-101505038D02*
X-22261909Y-101600276D01*
X-22261909Y-101600276D02*
X-22309528Y-101695514D01*
X-22309528Y-101695514D02*
X-22357147Y-101885990D01*
X-22357147Y-101885990D02*
X-22357147Y-102028847D01*
X-22357147Y-102028847D02*
X-22309528Y-102219323D01*
X-22309528Y-102219323D02*
X-22261909Y-102314561D01*
X-22261909Y-102314561D02*
X-22166671Y-102409800D01*
X-22166671Y-102409800D02*
X-22023814Y-102457419D01*
X-22023814Y-102457419D02*
X-21928576Y-102457419D01*
X-21928576Y-102457419D02*
X-21785719Y-102409800D01*
X-21785719Y-102409800D02*
X-21738100Y-102362180D01*
X-21738100Y-102362180D02*
X-21738100Y-102028847D01*
X-21738100Y-102028847D02*
X-21928576Y-102028847D01*
X-21309528Y-102457419D02*
X-21309528Y-101457419D01*
X-21309528Y-101457419D02*
X-20738100Y-102457419D01*
X-20738100Y-102457419D02*
X-20738100Y-101457419D01*
X-20261909Y-102457419D02*
X-20261909Y-101457419D01*
X-20261909Y-101457419D02*
X-20023814Y-101457419D01*
X-20023814Y-101457419D02*
X-19880957Y-101505038D01*
X-19880957Y-101505038D02*
X-19785719Y-101600276D01*
X-19785719Y-101600276D02*
X-19738100Y-101695514D01*
X-19738100Y-101695514D02*
X-19690481Y-101885990D01*
X-19690481Y-101885990D02*
X-19690481Y-102028847D01*
X-19690481Y-102028847D02*
X-19738100Y-102219323D01*
X-19738100Y-102219323D02*
X-19785719Y-102314561D01*
X-19785719Y-102314561D02*
X-19880957Y-102409800D01*
X-19880957Y-102409800D02*
X-20023814Y-102457419D01*
X-20023814Y-102457419D02*
X-20261909Y-102457419D01*
X-18500004Y-101790752D02*
X-18500004Y-102790752D01*
X-18500004Y-101838371D02*
X-18404766Y-101790752D01*
X-18404766Y-101790752D02*
X-18214290Y-101790752D01*
X-18214290Y-101790752D02*
X-18119052Y-101838371D01*
X-18119052Y-101838371D02*
X-18071433Y-101885990D01*
X-18071433Y-101885990D02*
X-18023814Y-101981228D01*
X-18023814Y-101981228D02*
X-18023814Y-102266942D01*
X-18023814Y-102266942D02*
X-18071433Y-102362180D01*
X-18071433Y-102362180D02*
X-18119052Y-102409800D01*
X-18119052Y-102409800D02*
X-18214290Y-102457419D01*
X-18214290Y-102457419D02*
X-18404766Y-102457419D01*
X-18404766Y-102457419D02*
X-18500004Y-102409800D01*
X-17452385Y-102457419D02*
X-17547623Y-102409800D01*
X-17547623Y-102409800D02*
X-17595242Y-102362180D01*
X-17595242Y-102362180D02*
X-17642861Y-102266942D01*
X-17642861Y-102266942D02*
X-17642861Y-101981228D01*
X-17642861Y-101981228D02*
X-17595242Y-101885990D01*
X-17595242Y-101885990D02*
X-17547623Y-101838371D01*
X-17547623Y-101838371D02*
X-17452385Y-101790752D01*
X-17452385Y-101790752D02*
X-17309528Y-101790752D01*
X-17309528Y-101790752D02*
X-17214290Y-101838371D01*
X-17214290Y-101838371D02*
X-17166671Y-101885990D01*
X-17166671Y-101885990D02*
X-17119052Y-101981228D01*
X-17119052Y-101981228D02*
X-17119052Y-102266942D01*
X-17119052Y-102266942D02*
X-17166671Y-102362180D01*
X-17166671Y-102362180D02*
X-17214290Y-102409800D01*
X-17214290Y-102409800D02*
X-17309528Y-102457419D01*
X-17309528Y-102457419D02*
X-17452385Y-102457419D01*
X-16261909Y-101790752D02*
X-16261909Y-102457419D01*
X-16690480Y-101790752D02*
X-16690480Y-102314561D01*
X-16690480Y-102314561D02*
X-16642861Y-102409800D01*
X-16642861Y-102409800D02*
X-16547623Y-102457419D01*
X-16547623Y-102457419D02*
X-16404766Y-102457419D01*
X-16404766Y-102457419D02*
X-16309528Y-102409800D01*
X-16309528Y-102409800D02*
X-16261909Y-102362180D01*
X-15785718Y-102457419D02*
X-15785718Y-101790752D01*
X-15785718Y-101981228D02*
X-15738099Y-101885990D01*
X-15738099Y-101885990D02*
X-15690480Y-101838371D01*
X-15690480Y-101838371D02*
X-15595242Y-101790752D01*
X-15595242Y-101790752D02*
X-15500004Y-101790752D01*
X-14404765Y-102457419D02*
X-14404765Y-101790752D01*
X-14404765Y-101457419D02*
X-14452384Y-101505038D01*
X-14452384Y-101505038D02*
X-14404765Y-101552657D01*
X-14404765Y-101552657D02*
X-14357146Y-101505038D01*
X-14357146Y-101505038D02*
X-14404765Y-101457419D01*
X-14404765Y-101457419D02*
X-14404765Y-101552657D01*
X-13928575Y-101790752D02*
X-13928575Y-102457419D01*
X-13928575Y-101885990D02*
X-13880956Y-101838371D01*
X-13880956Y-101838371D02*
X-13785718Y-101790752D01*
X-13785718Y-101790752D02*
X-13642861Y-101790752D01*
X-13642861Y-101790752D02*
X-13547623Y-101838371D01*
X-13547623Y-101838371D02*
X-13500004Y-101933609D01*
X-13500004Y-101933609D02*
X-13500004Y-102457419D01*
X-13166670Y-101790752D02*
X-12785718Y-101790752D01*
X-13023813Y-101457419D02*
X-13023813Y-102314561D01*
X-13023813Y-102314561D02*
X-12976194Y-102409800D01*
X-12976194Y-102409800D02*
X-12880956Y-102457419D01*
X-12880956Y-102457419D02*
X-12785718Y-102457419D01*
X-12071432Y-102409800D02*
X-12166670Y-102457419D01*
X-12166670Y-102457419D02*
X-12357146Y-102457419D01*
X-12357146Y-102457419D02*
X-12452384Y-102409800D01*
X-12452384Y-102409800D02*
X-12500003Y-102314561D01*
X-12500003Y-102314561D02*
X-12500003Y-101933609D01*
X-12500003Y-101933609D02*
X-12452384Y-101838371D01*
X-12452384Y-101838371D02*
X-12357146Y-101790752D01*
X-12357146Y-101790752D02*
X-12166670Y-101790752D01*
X-12166670Y-101790752D02*
X-12071432Y-101838371D01*
X-12071432Y-101838371D02*
X-12023813Y-101933609D01*
X-12023813Y-101933609D02*
X-12023813Y-102028847D01*
X-12023813Y-102028847D02*
X-12500003Y-102124085D01*
X-11595241Y-101790752D02*
X-11595241Y-102457419D01*
X-11595241Y-101885990D02*
X-11547622Y-101838371D01*
X-11547622Y-101838371D02*
X-11452384Y-101790752D01*
X-11452384Y-101790752D02*
X-11309527Y-101790752D01*
X-11309527Y-101790752D02*
X-11214289Y-101838371D01*
X-11214289Y-101838371D02*
X-11166670Y-101933609D01*
X-11166670Y-101933609D02*
X-11166670Y-102457419D01*
X-10833336Y-101790752D02*
X-10452384Y-101790752D01*
X-10690479Y-101457419D02*
X-10690479Y-102314561D01*
X-10690479Y-102314561D02*
X-10642860Y-102409800D01*
X-10642860Y-102409800D02*
X-10547622Y-102457419D01*
X-10547622Y-102457419D02*
X-10452384Y-102457419D01*
X-9023812Y-101933609D02*
X-9357145Y-101933609D01*
X-9357145Y-102457419D02*
X-9357145Y-101457419D01*
X-9357145Y-101457419D02*
X-8880955Y-101457419D01*
X-8500002Y-102362180D02*
X-8452383Y-102409800D01*
X-8452383Y-102409800D02*
X-8500002Y-102457419D01*
X-8500002Y-102457419D02*
X-8547621Y-102409800D01*
X-8547621Y-102409800D02*
X-8500002Y-102362180D01*
X-8500002Y-102362180D02*
X-8500002Y-102457419D01*
X-7452384Y-102362180D02*
X-7500003Y-102409800D01*
X-7500003Y-102409800D02*
X-7642860Y-102457419D01*
X-7642860Y-102457419D02*
X-7738098Y-102457419D01*
X-7738098Y-102457419D02*
X-7880955Y-102409800D01*
X-7880955Y-102409800D02*
X-7976193Y-102314561D01*
X-7976193Y-102314561D02*
X-8023812Y-102219323D01*
X-8023812Y-102219323D02*
X-8071431Y-102028847D01*
X-8071431Y-102028847D02*
X-8071431Y-101885990D01*
X-8071431Y-101885990D02*
X-8023812Y-101695514D01*
X-8023812Y-101695514D02*
X-7976193Y-101600276D01*
X-7976193Y-101600276D02*
X-7880955Y-101505038D01*
X-7880955Y-101505038D02*
X-7738098Y-101457419D01*
X-7738098Y-101457419D02*
X-7642860Y-101457419D01*
X-7642860Y-101457419D02*
X-7500003Y-101505038D01*
X-7500003Y-101505038D02*
X-7452384Y-101552657D01*
X-6595241Y-101790752D02*
X-6595241Y-102457419D01*
X-7023812Y-101790752D02*
X-7023812Y-102314561D01*
X-7023812Y-102314561D02*
X-6976193Y-102409800D01*
X-6976193Y-102409800D02*
X-6880955Y-102457419D01*
X-6880955Y-102457419D02*
X-6738098Y-102457419D01*
X-6738098Y-102457419D02*
X-6642860Y-102409800D01*
X-6642860Y-102409800D02*
X-6595241Y-102362180D01*
X-5404765Y-101409800D02*
X-6261907Y-102695514D01*
X-4738098Y-101933609D02*
X-4595241Y-101981228D01*
X-4595241Y-101981228D02*
X-4547622Y-102028847D01*
X-4547622Y-102028847D02*
X-4500003Y-102124085D01*
X-4500003Y-102124085D02*
X-4500003Y-102266942D01*
X-4500003Y-102266942D02*
X-4547622Y-102362180D01*
X-4547622Y-102362180D02*
X-4595241Y-102409800D01*
X-4595241Y-102409800D02*
X-4690479Y-102457419D01*
X-4690479Y-102457419D02*
X-5071431Y-102457419D01*
X-5071431Y-102457419D02*
X-5071431Y-101457419D01*
X-5071431Y-101457419D02*
X-4738098Y-101457419D01*
X-4738098Y-101457419D02*
X-4642860Y-101505038D01*
X-4642860Y-101505038D02*
X-4595241Y-101552657D01*
X-4595241Y-101552657D02*
X-4547622Y-101647895D01*
X-4547622Y-101647895D02*
X-4547622Y-101743133D01*
X-4547622Y-101743133D02*
X-4595241Y-101838371D01*
X-4595241Y-101838371D02*
X-4642860Y-101885990D01*
X-4642860Y-101885990D02*
X-4738098Y-101933609D01*
X-4738098Y-101933609D02*
X-5071431Y-101933609D01*
X-4071431Y-102362180D02*
X-4023812Y-102409800D01*
X-4023812Y-102409800D02*
X-4071431Y-102457419D01*
X-4071431Y-102457419D02*
X-4119050Y-102409800D01*
X-4119050Y-102409800D02*
X-4071431Y-102362180D01*
X-4071431Y-102362180D02*
X-4071431Y-102457419D01*
X-3023813Y-102362180D02*
X-3071432Y-102409800D01*
X-3071432Y-102409800D02*
X-3214289Y-102457419D01*
X-3214289Y-102457419D02*
X-3309527Y-102457419D01*
X-3309527Y-102457419D02*
X-3452384Y-102409800D01*
X-3452384Y-102409800D02*
X-3547622Y-102314561D01*
X-3547622Y-102314561D02*
X-3595241Y-102219323D01*
X-3595241Y-102219323D02*
X-3642860Y-102028847D01*
X-3642860Y-102028847D02*
X-3642860Y-101885990D01*
X-3642860Y-101885990D02*
X-3595241Y-101695514D01*
X-3595241Y-101695514D02*
X-3547622Y-101600276D01*
X-3547622Y-101600276D02*
X-3452384Y-101505038D01*
X-3452384Y-101505038D02*
X-3309527Y-101457419D01*
X-3309527Y-101457419D02*
X-3214289Y-101457419D01*
X-3214289Y-101457419D02*
X-3071432Y-101505038D01*
X-3071432Y-101505038D02*
X-3023813Y-101552657D01*
X-2166670Y-101790752D02*
X-2166670Y-102457419D01*
X-2595241Y-101790752D02*
X-2595241Y-102314561D01*
X-2595241Y-102314561D02*
X-2547622Y-102409800D01*
X-2547622Y-102409800D02*
X-2452384Y-102457419D01*
X-2452384Y-102457419D02*
X-2309527Y-102457419D01*
X-2309527Y-102457419D02*
X-2214289Y-102409800D01*
X-2214289Y-102409800D02*
X-2166670Y-102362180D01*
X-1023812Y-102124085D02*
X-166670Y-102124085D01*
X833330Y-101790752D02*
X1214282Y-101790752D01*
X976187Y-102457419D02*
X976187Y-101600276D01*
X976187Y-101600276D02*
X1023806Y-101505038D01*
X1023806Y-101505038D02*
X1119044Y-101457419D01*
X1119044Y-101457419D02*
X1214282Y-101457419D01*
X1547616Y-102457419D02*
X1547616Y-101790752D01*
X1547616Y-101457419D02*
X1499997Y-101505038D01*
X1499997Y-101505038D02*
X1547616Y-101552657D01*
X1547616Y-101552657D02*
X1595235Y-101505038D01*
X1595235Y-101505038D02*
X1547616Y-101457419D01*
X1547616Y-101457419D02*
X1547616Y-101552657D01*
X2166663Y-102457419D02*
X2071425Y-102409800D01*
X2071425Y-102409800D02*
X2023806Y-102314561D01*
X2023806Y-102314561D02*
X2023806Y-101457419D01*
X2690473Y-102457419D02*
X2595235Y-102409800D01*
X2595235Y-102409800D02*
X2547616Y-102314561D01*
X2547616Y-102314561D02*
X2547616Y-101457419D01*
X4261902Y-102457419D02*
X4261902Y-101933609D01*
X4261902Y-101933609D02*
X4214283Y-101838371D01*
X4214283Y-101838371D02*
X4119045Y-101790752D01*
X4119045Y-101790752D02*
X3928569Y-101790752D01*
X3928569Y-101790752D02*
X3833331Y-101838371D01*
X4261902Y-102409800D02*
X4166664Y-102457419D01*
X4166664Y-102457419D02*
X3928569Y-102457419D01*
X3928569Y-102457419D02*
X3833331Y-102409800D01*
X3833331Y-102409800D02*
X3785712Y-102314561D01*
X3785712Y-102314561D02*
X3785712Y-102219323D01*
X3785712Y-102219323D02*
X3833331Y-102124085D01*
X3833331Y-102124085D02*
X3928569Y-102076466D01*
X3928569Y-102076466D02*
X4166664Y-102076466D01*
X4166664Y-102076466D02*
X4261902Y-102028847D01*
X4595236Y-101790752D02*
X4976188Y-101790752D01*
X4738093Y-101457419D02*
X4738093Y-102314561D01*
X4738093Y-102314561D02*
X4785712Y-102409800D01*
X4785712Y-102409800D02*
X4880950Y-102457419D01*
X4880950Y-102457419D02*
X4976188Y-102457419D01*
X5928570Y-101790752D02*
X6309522Y-101790752D01*
X6071427Y-102457419D02*
X6071427Y-101600276D01*
X6071427Y-101600276D02*
X6119046Y-101505038D01*
X6119046Y-101505038D02*
X6214284Y-101457419D01*
X6214284Y-101457419D02*
X6309522Y-101457419D01*
X7071427Y-102457419D02*
X7071427Y-101933609D01*
X7071427Y-101933609D02*
X7023808Y-101838371D01*
X7023808Y-101838371D02*
X6928570Y-101790752D01*
X6928570Y-101790752D02*
X6738094Y-101790752D01*
X6738094Y-101790752D02*
X6642856Y-101838371D01*
X7071427Y-102409800D02*
X6976189Y-102457419D01*
X6976189Y-102457419D02*
X6738094Y-102457419D01*
X6738094Y-102457419D02*
X6642856Y-102409800D01*
X6642856Y-102409800D02*
X6595237Y-102314561D01*
X6595237Y-102314561D02*
X6595237Y-102219323D01*
X6595237Y-102219323D02*
X6642856Y-102124085D01*
X6642856Y-102124085D02*
X6738094Y-102076466D01*
X6738094Y-102076466D02*
X6976189Y-102076466D01*
X6976189Y-102076466D02*
X7071427Y-102028847D01*
X7547618Y-102457419D02*
X7547618Y-101457419D01*
X7547618Y-101838371D02*
X7642856Y-101790752D01*
X7642856Y-101790752D02*
X7833332Y-101790752D01*
X7833332Y-101790752D02*
X7928570Y-101838371D01*
X7928570Y-101838371D02*
X7976189Y-101885990D01*
X7976189Y-101885990D02*
X8023808Y-101981228D01*
X8023808Y-101981228D02*
X8023808Y-102266942D01*
X8023808Y-102266942D02*
X7976189Y-102362180D01*
X7976189Y-102362180D02*
X7928570Y-102409800D01*
X7928570Y-102409800D02*
X7833332Y-102457419D01*
X7833332Y-102457419D02*
X7642856Y-102457419D01*
X7642856Y-102457419D02*
X7547618Y-102409800D01*
X9785713Y-102362180D02*
X9738094Y-102409800D01*
X9738094Y-102409800D02*
X9595237Y-102457419D01*
X9595237Y-102457419D02*
X9499999Y-102457419D01*
X9499999Y-102457419D02*
X9357142Y-102409800D01*
X9357142Y-102409800D02*
X9261904Y-102314561D01*
X9261904Y-102314561D02*
X9214285Y-102219323D01*
X9214285Y-102219323D02*
X9166666Y-102028847D01*
X9166666Y-102028847D02*
X9166666Y-101885990D01*
X9166666Y-101885990D02*
X9214285Y-101695514D01*
X9214285Y-101695514D02*
X9261904Y-101600276D01*
X9261904Y-101600276D02*
X9357142Y-101505038D01*
X9357142Y-101505038D02*
X9499999Y-101457419D01*
X9499999Y-101457419D02*
X9595237Y-101457419D01*
X9595237Y-101457419D02*
X9738094Y-101505038D01*
X9738094Y-101505038D02*
X9785713Y-101552657D01*
X10166666Y-102171704D02*
X10642856Y-102171704D01*
X10071428Y-102457419D02*
X10404761Y-101457419D01*
X10404761Y-101457419D02*
X10738094Y-102457419D01*
X11071428Y-102457419D02*
X11071428Y-101457419D01*
X11071428Y-101457419D02*
X11404761Y-102171704D01*
X11404761Y-102171704D02*
X11738094Y-101457419D01*
X11738094Y-101457419D02*
X11738094Y-102457419D01*
X12261904Y-102409800D02*
X12261904Y-102457419D01*
X12261904Y-102457419D02*
X12214285Y-102552657D01*
X12214285Y-102552657D02*
X12166666Y-102600276D01*
X12214285Y-101838371D02*
X12261904Y-101885990D01*
X12261904Y-101885990D02*
X12214285Y-101933609D01*
X12214285Y-101933609D02*
X12166666Y-101885990D01*
X12166666Y-101885990D02*
X12214285Y-101838371D01*
X12214285Y-101838371D02*
X12214285Y-101933609D01*
X14023808Y-102362180D02*
X13976189Y-102409800D01*
X13976189Y-102409800D02*
X13833332Y-102457419D01*
X13833332Y-102457419D02*
X13738094Y-102457419D01*
X13738094Y-102457419D02*
X13595237Y-102409800D01*
X13595237Y-102409800D02*
X13499999Y-102314561D01*
X13499999Y-102314561D02*
X13452380Y-102219323D01*
X13452380Y-102219323D02*
X13404761Y-102028847D01*
X13404761Y-102028847D02*
X13404761Y-101885990D01*
X13404761Y-101885990D02*
X13452380Y-101695514D01*
X13452380Y-101695514D02*
X13499999Y-101600276D01*
X13499999Y-101600276D02*
X13595237Y-101505038D01*
X13595237Y-101505038D02*
X13738094Y-101457419D01*
X13738094Y-101457419D02*
X13833332Y-101457419D01*
X13833332Y-101457419D02*
X13976189Y-101505038D01*
X13976189Y-101505038D02*
X14023808Y-101552657D01*
X14595237Y-102457419D02*
X14499999Y-102409800D01*
X14499999Y-102409800D02*
X14452380Y-102362180D01*
X14452380Y-102362180D02*
X14404761Y-102266942D01*
X14404761Y-102266942D02*
X14404761Y-101981228D01*
X14404761Y-101981228D02*
X14452380Y-101885990D01*
X14452380Y-101885990D02*
X14499999Y-101838371D01*
X14499999Y-101838371D02*
X14595237Y-101790752D01*
X14595237Y-101790752D02*
X14738094Y-101790752D01*
X14738094Y-101790752D02*
X14833332Y-101838371D01*
X14833332Y-101838371D02*
X14880951Y-101885990D01*
X14880951Y-101885990D02*
X14928570Y-101981228D01*
X14928570Y-101981228D02*
X14928570Y-102266942D01*
X14928570Y-102266942D02*
X14880951Y-102362180D01*
X14880951Y-102362180D02*
X14833332Y-102409800D01*
X14833332Y-102409800D02*
X14738094Y-102457419D01*
X14738094Y-102457419D02*
X14595237Y-102457419D01*
X15357142Y-101790752D02*
X15357142Y-102457419D01*
X15357142Y-101885990D02*
X15404761Y-101838371D01*
X15404761Y-101838371D02*
X15499999Y-101790752D01*
X15499999Y-101790752D02*
X15642856Y-101790752D01*
X15642856Y-101790752D02*
X15738094Y-101838371D01*
X15738094Y-101838371D02*
X15785713Y-101933609D01*
X15785713Y-101933609D02*
X15785713Y-102457419D01*
X16119047Y-101790752D02*
X16499999Y-101790752D01*
X16261904Y-101457419D02*
X16261904Y-102314561D01*
X16261904Y-102314561D02*
X16309523Y-102409800D01*
X16309523Y-102409800D02*
X16404761Y-102457419D01*
X16404761Y-102457419D02*
X16499999Y-102457419D01*
X17452381Y-101457419D02*
X17785714Y-102457419D01*
X17785714Y-102457419D02*
X18119047Y-101457419D01*
X18452381Y-102457419D02*
X18452381Y-101457419D01*
X18928571Y-102457419D02*
X18928571Y-101457419D01*
X19404761Y-102457419D02*
X19404761Y-101457419D01*
X20785713Y-102457419D02*
X20690475Y-102409800D01*
X20690475Y-102409800D02*
X20642856Y-102314561D01*
X20642856Y-102314561D02*
X20642856Y-101457419D01*
X21547618Y-102409800D02*
X21452380Y-102457419D01*
X21452380Y-102457419D02*
X21261904Y-102457419D01*
X21261904Y-102457419D02*
X21166666Y-102409800D01*
X21166666Y-102409800D02*
X21119047Y-102314561D01*
X21119047Y-102314561D02*
X21119047Y-101933609D01*
X21119047Y-101933609D02*
X21166666Y-101838371D01*
X21166666Y-101838371D02*
X21261904Y-101790752D01*
X21261904Y-101790752D02*
X21452380Y-101790752D01*
X21452380Y-101790752D02*
X21547618Y-101838371D01*
X21547618Y-101838371D02*
X21595237Y-101933609D01*
X21595237Y-101933609D02*
X21595237Y-102028847D01*
X21595237Y-102028847D02*
X21119047Y-102124085D01*
X22452380Y-102457419D02*
X22452380Y-101933609D01*
X22452380Y-101933609D02*
X22404761Y-101838371D01*
X22404761Y-101838371D02*
X22309523Y-101790752D01*
X22309523Y-101790752D02*
X22119047Y-101790752D01*
X22119047Y-101790752D02*
X22023809Y-101838371D01*
X22452380Y-102409800D02*
X22357142Y-102457419D01*
X22357142Y-102457419D02*
X22119047Y-102457419D01*
X22119047Y-102457419D02*
X22023809Y-102409800D01*
X22023809Y-102409800D02*
X21976190Y-102314561D01*
X21976190Y-102314561D02*
X21976190Y-102219323D01*
X21976190Y-102219323D02*
X22023809Y-102124085D01*
X22023809Y-102124085D02*
X22119047Y-102076466D01*
X22119047Y-102076466D02*
X22357142Y-102076466D01*
X22357142Y-102076466D02*
X22452380Y-102028847D01*
X22833333Y-101790752D02*
X23071428Y-102457419D01*
X23071428Y-102457419D02*
X23309523Y-101790752D01*
X24071428Y-102409800D02*
X23976190Y-102457419D01*
X23976190Y-102457419D02*
X23785714Y-102457419D01*
X23785714Y-102457419D02*
X23690476Y-102409800D01*
X23690476Y-102409800D02*
X23642857Y-102314561D01*
X23642857Y-102314561D02*
X23642857Y-101933609D01*
X23642857Y-101933609D02*
X23690476Y-101838371D01*
X23690476Y-101838371D02*
X23785714Y-101790752D01*
X23785714Y-101790752D02*
X23976190Y-101790752D01*
X23976190Y-101790752D02*
X24071428Y-101838371D01*
X24071428Y-101838371D02*
X24119047Y-101933609D01*
X24119047Y-101933609D02*
X24119047Y-102028847D01*
X24119047Y-102028847D02*
X23642857Y-102124085D01*
X24500000Y-102409800D02*
X24595238Y-102457419D01*
X24595238Y-102457419D02*
X24785714Y-102457419D01*
X24785714Y-102457419D02*
X24880952Y-102409800D01*
X24880952Y-102409800D02*
X24928571Y-102314561D01*
X24928571Y-102314561D02*
X24928571Y-102266942D01*
X24928571Y-102266942D02*
X24880952Y-102171704D01*
X24880952Y-102171704D02*
X24785714Y-102124085D01*
X24785714Y-102124085D02*
X24642857Y-102124085D01*
X24642857Y-102124085D02*
X24547619Y-102076466D01*
X24547619Y-102076466D02*
X24500000Y-101981228D01*
X24500000Y-101981228D02*
X24500000Y-101933609D01*
X24500000Y-101933609D02*
X24547619Y-101838371D01*
X24547619Y-101838371D02*
X24642857Y-101790752D01*
X24642857Y-101790752D02*
X24785714Y-101790752D01*
X24785714Y-101790752D02*
X24880952Y-101838371D01*
X26547619Y-101790752D02*
X26547619Y-102457419D01*
X26119048Y-101790752D02*
X26119048Y-102314561D01*
X26119048Y-102314561D02*
X26166667Y-102409800D01*
X26166667Y-102409800D02*
X26261905Y-102457419D01*
X26261905Y-102457419D02*
X26404762Y-102457419D01*
X26404762Y-102457419D02*
X26500000Y-102409800D01*
X26500000Y-102409800D02*
X26547619Y-102362180D01*
X27023810Y-101790752D02*
X27023810Y-102457419D01*
X27023810Y-101885990D02*
X27071429Y-101838371D01*
X27071429Y-101838371D02*
X27166667Y-101790752D01*
X27166667Y-101790752D02*
X27309524Y-101790752D01*
X27309524Y-101790752D02*
X27404762Y-101838371D01*
X27404762Y-101838371D02*
X27452381Y-101933609D01*
X27452381Y-101933609D02*
X27452381Y-102457419D01*
X27785715Y-101790752D02*
X28166667Y-101790752D01*
X27928572Y-102457419D02*
X27928572Y-101600276D01*
X27928572Y-101600276D02*
X27976191Y-101505038D01*
X27976191Y-101505038D02*
X28071429Y-101457419D01*
X28071429Y-101457419D02*
X28166667Y-101457419D01*
X28500001Y-102457419D02*
X28500001Y-101790752D01*
X28500001Y-101457419D02*
X28452382Y-101505038D01*
X28452382Y-101505038D02*
X28500001Y-101552657D01*
X28500001Y-101552657D02*
X28547620Y-101505038D01*
X28547620Y-101505038D02*
X28500001Y-101457419D01*
X28500001Y-101457419D02*
X28500001Y-101552657D01*
X29119048Y-102457419D02*
X29023810Y-102409800D01*
X29023810Y-102409800D02*
X28976191Y-102314561D01*
X28976191Y-102314561D02*
X28976191Y-101457419D01*
X29642858Y-102457419D02*
X29547620Y-102409800D01*
X29547620Y-102409800D02*
X29500001Y-102314561D01*
X29500001Y-102314561D02*
X29500001Y-101457419D01*
X30404763Y-102409800D02*
X30309525Y-102457419D01*
X30309525Y-102457419D02*
X30119049Y-102457419D01*
X30119049Y-102457419D02*
X30023811Y-102409800D01*
X30023811Y-102409800D02*
X29976192Y-102314561D01*
X29976192Y-102314561D02*
X29976192Y-101933609D01*
X29976192Y-101933609D02*
X30023811Y-101838371D01*
X30023811Y-101838371D02*
X30119049Y-101790752D01*
X30119049Y-101790752D02*
X30309525Y-101790752D01*
X30309525Y-101790752D02*
X30404763Y-101838371D01*
X30404763Y-101838371D02*
X30452382Y-101933609D01*
X30452382Y-101933609D02*
X30452382Y-102028847D01*
X30452382Y-102028847D02*
X29976192Y-102124085D01*
X31309525Y-102457419D02*
X31309525Y-101457419D01*
X31309525Y-102409800D02*
X31214287Y-102457419D01*
X31214287Y-102457419D02*
X31023811Y-102457419D01*
X31023811Y-102457419D02*
X30928573Y-102409800D01*
X30928573Y-102409800D02*
X30880954Y-102362180D01*
X30880954Y-102362180D02*
X30833335Y-102266942D01*
X30833335Y-102266942D02*
X30833335Y-101981228D01*
X30833335Y-101981228D02*
X30880954Y-101885990D01*
X30880954Y-101885990D02*
X30928573Y-101838371D01*
X30928573Y-101838371D02*
X31023811Y-101790752D01*
X31023811Y-101790752D02*
X31214287Y-101790752D01*
X31214287Y-101790752D02*
X31309525Y-101838371D01*
X32404764Y-101790752D02*
X32785716Y-101790752D01*
X32547621Y-101457419D02*
X32547621Y-102314561D01*
X32547621Y-102314561D02*
X32595240Y-102409800D01*
X32595240Y-102409800D02*
X32690478Y-102457419D01*
X32690478Y-102457419D02*
X32785716Y-102457419D01*
X33261907Y-102457419D02*
X33166669Y-102409800D01*
X33166669Y-102409800D02*
X33119050Y-102362180D01*
X33119050Y-102362180D02*
X33071431Y-102266942D01*
X33071431Y-102266942D02*
X33071431Y-101981228D01*
X33071431Y-101981228D02*
X33119050Y-101885990D01*
X33119050Y-101885990D02*
X33166669Y-101838371D01*
X33166669Y-101838371D02*
X33261907Y-101790752D01*
X33261907Y-101790752D02*
X33404764Y-101790752D01*
X33404764Y-101790752D02*
X33500002Y-101838371D01*
X33500002Y-101838371D02*
X33547621Y-101885990D01*
X33547621Y-101885990D02*
X33595240Y-101981228D01*
X33595240Y-101981228D02*
X33595240Y-102266942D01*
X33595240Y-102266942D02*
X33547621Y-102362180D01*
X33547621Y-102362180D02*
X33500002Y-102409800D01*
X33500002Y-102409800D02*
X33404764Y-102457419D01*
X33404764Y-102457419D02*
X33261907Y-102457419D01*
X34785717Y-102457419D02*
X34785717Y-101457419D01*
X34880955Y-102076466D02*
X35166669Y-102457419D01*
X35166669Y-101790752D02*
X34785717Y-102171704D01*
X35976193Y-102409800D02*
X35880955Y-102457419D01*
X35880955Y-102457419D02*
X35690479Y-102457419D01*
X35690479Y-102457419D02*
X35595241Y-102409800D01*
X35595241Y-102409800D02*
X35547622Y-102314561D01*
X35547622Y-102314561D02*
X35547622Y-101933609D01*
X35547622Y-101933609D02*
X35595241Y-101838371D01*
X35595241Y-101838371D02*
X35690479Y-101790752D01*
X35690479Y-101790752D02*
X35880955Y-101790752D01*
X35880955Y-101790752D02*
X35976193Y-101838371D01*
X35976193Y-101838371D02*
X36023812Y-101933609D01*
X36023812Y-101933609D02*
X36023812Y-102028847D01*
X36023812Y-102028847D02*
X35547622Y-102124085D01*
X36833336Y-102409800D02*
X36738098Y-102457419D01*
X36738098Y-102457419D02*
X36547622Y-102457419D01*
X36547622Y-102457419D02*
X36452384Y-102409800D01*
X36452384Y-102409800D02*
X36404765Y-102314561D01*
X36404765Y-102314561D02*
X36404765Y-101933609D01*
X36404765Y-101933609D02*
X36452384Y-101838371D01*
X36452384Y-101838371D02*
X36547622Y-101790752D01*
X36547622Y-101790752D02*
X36738098Y-101790752D01*
X36738098Y-101790752D02*
X36833336Y-101838371D01*
X36833336Y-101838371D02*
X36880955Y-101933609D01*
X36880955Y-101933609D02*
X36880955Y-102028847D01*
X36880955Y-102028847D02*
X36404765Y-102124085D01*
X37309527Y-101790752D02*
X37309527Y-102790752D01*
X37309527Y-101838371D02*
X37404765Y-101790752D01*
X37404765Y-101790752D02*
X37595241Y-101790752D01*
X37595241Y-101790752D02*
X37690479Y-101838371D01*
X37690479Y-101838371D02*
X37738098Y-101885990D01*
X37738098Y-101885990D02*
X37785717Y-101981228D01*
X37785717Y-101981228D02*
X37785717Y-102266942D01*
X37785717Y-102266942D02*
X37738098Y-102362180D01*
X37738098Y-102362180D02*
X37690479Y-102409800D01*
X37690479Y-102409800D02*
X37595241Y-102457419D01*
X37595241Y-102457419D02*
X37404765Y-102457419D01*
X37404765Y-102457419D02*
X37309527Y-102409800D01*
X38976194Y-102457419D02*
X38976194Y-101457419D01*
X38976194Y-101457419D02*
X39214289Y-101457419D01*
X39214289Y-101457419D02*
X39357146Y-101505038D01*
X39357146Y-101505038D02*
X39452384Y-101600276D01*
X39452384Y-101600276D02*
X39500003Y-101695514D01*
X39500003Y-101695514D02*
X39547622Y-101885990D01*
X39547622Y-101885990D02*
X39547622Y-102028847D01*
X39547622Y-102028847D02*
X39500003Y-102219323D01*
X39500003Y-102219323D02*
X39452384Y-102314561D01*
X39452384Y-102314561D02*
X39357146Y-102409800D01*
X39357146Y-102409800D02*
X39214289Y-102457419D01*
X39214289Y-102457419D02*
X38976194Y-102457419D01*
X40547622Y-102457419D02*
X40214289Y-101981228D01*
X39976194Y-102457419D02*
X39976194Y-101457419D01*
X39976194Y-101457419D02*
X40357146Y-101457419D01*
X40357146Y-101457419D02*
X40452384Y-101505038D01*
X40452384Y-101505038D02*
X40500003Y-101552657D01*
X40500003Y-101552657D02*
X40547622Y-101647895D01*
X40547622Y-101647895D02*
X40547622Y-101790752D01*
X40547622Y-101790752D02*
X40500003Y-101885990D01*
X40500003Y-101885990D02*
X40452384Y-101933609D01*
X40452384Y-101933609D02*
X40357146Y-101981228D01*
X40357146Y-101981228D02*
X39976194Y-101981228D01*
X41547622Y-102362180D02*
X41500003Y-102409800D01*
X41500003Y-102409800D02*
X41357146Y-102457419D01*
X41357146Y-102457419D02*
X41261908Y-102457419D01*
X41261908Y-102457419D02*
X41119051Y-102409800D01*
X41119051Y-102409800D02*
X41023813Y-102314561D01*
X41023813Y-102314561D02*
X40976194Y-102219323D01*
X40976194Y-102219323D02*
X40928575Y-102028847D01*
X40928575Y-102028847D02*
X40928575Y-101885990D01*
X40928575Y-101885990D02*
X40976194Y-101695514D01*
X40976194Y-101695514D02*
X41023813Y-101600276D01*
X41023813Y-101600276D02*
X41119051Y-101505038D01*
X41119051Y-101505038D02*
X41261908Y-101457419D01*
X41261908Y-101457419D02*
X41357146Y-101457419D01*
X41357146Y-101457419D02*
X41500003Y-101505038D01*
X41500003Y-101505038D02*
X41547622Y-101552657D01*
X43166670Y-102409800D02*
X43071432Y-102457419D01*
X43071432Y-102457419D02*
X42880956Y-102457419D01*
X42880956Y-102457419D02*
X42785718Y-102409800D01*
X42785718Y-102409800D02*
X42738099Y-102362180D01*
X42738099Y-102362180D02*
X42690480Y-102266942D01*
X42690480Y-102266942D02*
X42690480Y-101981228D01*
X42690480Y-101981228D02*
X42738099Y-101885990D01*
X42738099Y-101885990D02*
X42785718Y-101838371D01*
X42785718Y-101838371D02*
X42880956Y-101790752D01*
X42880956Y-101790752D02*
X43071432Y-101790752D01*
X43071432Y-101790752D02*
X43166670Y-101838371D01*
X43738099Y-102457419D02*
X43642861Y-102409800D01*
X43642861Y-102409800D02*
X43595242Y-102314561D01*
X43595242Y-102314561D02*
X43595242Y-101457419D01*
X44500004Y-102409800D02*
X44404766Y-102457419D01*
X44404766Y-102457419D02*
X44214290Y-102457419D01*
X44214290Y-102457419D02*
X44119052Y-102409800D01*
X44119052Y-102409800D02*
X44071433Y-102314561D01*
X44071433Y-102314561D02*
X44071433Y-101933609D01*
X44071433Y-101933609D02*
X44119052Y-101838371D01*
X44119052Y-101838371D02*
X44214290Y-101790752D01*
X44214290Y-101790752D02*
X44404766Y-101790752D01*
X44404766Y-101790752D02*
X44500004Y-101838371D01*
X44500004Y-101838371D02*
X44547623Y-101933609D01*
X44547623Y-101933609D02*
X44547623Y-102028847D01*
X44547623Y-102028847D02*
X44071433Y-102124085D01*
X45404766Y-102457419D02*
X45404766Y-101933609D01*
X45404766Y-101933609D02*
X45357147Y-101838371D01*
X45357147Y-101838371D02*
X45261909Y-101790752D01*
X45261909Y-101790752D02*
X45071433Y-101790752D01*
X45071433Y-101790752D02*
X44976195Y-101838371D01*
X45404766Y-102409800D02*
X45309528Y-102457419D01*
X45309528Y-102457419D02*
X45071433Y-102457419D01*
X45071433Y-102457419D02*
X44976195Y-102409800D01*
X44976195Y-102409800D02*
X44928576Y-102314561D01*
X44928576Y-102314561D02*
X44928576Y-102219323D01*
X44928576Y-102219323D02*
X44976195Y-102124085D01*
X44976195Y-102124085D02*
X45071433Y-102076466D01*
X45071433Y-102076466D02*
X45309528Y-102076466D01*
X45309528Y-102076466D02*
X45404766Y-102028847D01*
X45880957Y-101790752D02*
X45880957Y-102457419D01*
X45880957Y-101885990D02*
X45928576Y-101838371D01*
X45928576Y-101838371D02*
X46023814Y-101790752D01*
X46023814Y-101790752D02*
X46166671Y-101790752D01*
X46166671Y-101790752D02*
X46261909Y-101838371D01*
X46261909Y-101838371D02*
X46309528Y-101933609D01*
X46309528Y-101933609D02*
X46309528Y-102457419D01*
M02*
