%TF.GenerationSoftware,KiCad,Pcbnew,10.0.5*%
%TF.CreationDate,2026-08-09T14:46:46-05:00*%
%TF.ProjectId,handheld_hybrid,68616e64-6865-46c6-945f-687962726964,0.5.0-cont-viii*%
%TF.SameCoordinates,Original*%
%TF.FileFunction,Copper,L1,Top*%
%TF.FilePolarity,Positive*%
%FSLAX46Y46*%
G04 Gerber Fmt 4.6, Leading zero omitted, Abs format (unit mm)*
G04 Created by KiCad (PCBNEW 10.0.5) date 2026-08-09 14:46:46*
%MOMM*%
%LPD*%
G01*
G04 APERTURE LIST*
%TA.AperFunction,SMDPad,CuDef*%
%ADD10C,1.000000*%
%TD*%
%TA.AperFunction,SMDPad,CuDef*%
%ADD11R,1.600000X1.600000*%
%TD*%
%TA.AperFunction,SMDPad,CuDef*%
%ADD12C,1.500000*%
%TD*%
%TA.AperFunction,Conductor*%
%ADD13C,0.500000*%
%TD*%
%TA.AperFunction,Conductor*%
%ADD14C,0.250000*%
%TD*%
G04 APERTURE END LIST*
D10*
%TO.P,FID1,1*%
%TO.N,N/C*%
X110000000Y-10000000D03*
%TD*%
%TO.P,FID2,1*%
%TO.N,N/C*%
X25000000Y-55000000D03*
%TD*%
%TO.P,FID3,1*%
%TO.N,N/C*%
X195000000Y-55000000D03*
%TD*%
D11*
%TO.P,JUSB1,1*%
%TO.N,N/C*%
X38000000Y-38000000D03*
%TD*%
%TO.P,UPD1,1*%
%TO.N,N/C*%
X62000000Y-38000000D03*
%TD*%
%TO.P,UCHG1,1*%
%TO.N,N/C*%
X86000000Y-38000000D03*
%TD*%
%TO.P,U3V3,1*%
%TO.N,N/C*%
X110000000Y-38000000D03*
%TD*%
%TO.P,C1,1*%
%TO.N,N/C*%
X134000000Y-38000000D03*
%TD*%
%TO.P,C2,1*%
%TO.N,N/C*%
X158000000Y-38000000D03*
%TD*%
%TO.P,R1,1*%
%TO.N,N/C*%
X38000000Y-62000000D03*
%TD*%
%TO.P,D1,1*%
%TO.N,N/C*%
X62000000Y-62000000D03*
%TD*%
%TO.P,R2,1*%
%TO.N,N/C*%
X86000000Y-62000000D03*
%TD*%
%TO.P,DESD1,1*%
%TO.N,N/C*%
X110000000Y-62000000D03*
%TD*%
%TO.P,JSOM1,1*%
%TO.N,N/C*%
X134000000Y-62000000D03*
%TD*%
%TO.P,UHID1,1*%
%TO.N,N/C*%
X158000000Y-62000000D03*
%TD*%
D12*
%TO.P,TP1,1*%
%TO.N,N/C*%
X45000000Y-86000000D03*
%TD*%
%TO.P,TP2,1*%
%TO.N,N/C*%
X67000000Y-86000000D03*
%TD*%
%TO.P,TP3,1*%
%TO.N,N/C*%
X89000000Y-86000000D03*
%TD*%
%TO.P,TP4,1*%
%TO.N,N/C*%
X111000000Y-86000000D03*
%TD*%
%TO.N,*%
D13*
X35000000Y-16000000D02*
X72600000Y-16000000D01*
X72600000Y-16000000D02*
X145200000Y-16000000D01*
X145200000Y-16000000D02*
X185000000Y-16000000D01*
D14*
X35000000Y-24000000D02*
X72600000Y-24000000D01*
X72600000Y-24000000D02*
X145200000Y-24000000D01*
X145200000Y-24000000D02*
X185000000Y-24000000D01*
X35000000Y-28000000D02*
X72600000Y-28000000D01*
X72600000Y-28000000D02*
X145200000Y-28000000D01*
X145200000Y-28000000D02*
X185000000Y-28000000D01*
X35000000Y-32000000D02*
X72600000Y-32000000D01*
X72600000Y-32000000D02*
X145200000Y-32000000D01*
X145200000Y-32000000D02*
X185000000Y-32000000D01*
%TD*%
M02*
