%TF.GenerationSoftware,KiCad,Pcbnew,10.0.5*%
%TF.CreationDate,2026-08-09T12:16:28-05:00*%
%TF.ProjectId,edge_io_rings,65646765-5f69-46f5-9f72-696e67732e6b,0.4.0-cont-vii*%
%TF.SameCoordinates,Original*%
%TF.FileFunction,Legend,Top*%
%TF.FilePolarity,Positive*%
%FSLAX46Y46*%
G04 Gerber Fmt 4.6, Leading zero omitted, Abs format (unit mm)*
G04 Created by KiCad (PCBNEW 10.0.5) date 2026-08-09 12:16:28*
%MOMM*%
%LPD*%
G01*
G04 APERTURE LIST*
%ADD10C,0.120000*%
G04 APERTURE END LIST*
%TO.C,U*%
D10*
X13500000Y-13500000D02*
X18500000Y-13500000D01*
X18500000Y-18500000D01*
X13500000Y-18500000D01*
X13500000Y-13500000D01*
%TO.C,U1*%
X25500000Y-13500000D02*
X30500000Y-13500000D01*
X30500000Y-18500000D01*
X25500000Y-18500000D01*
X25500000Y-13500000D01*
%TO.C,U2*%
X37500000Y-13500000D02*
X42500000Y-13500000D01*
X42500000Y-18500000D01*
X37500000Y-18500000D01*
X37500000Y-13500000D01*
%TO.C,U3*%
X49500000Y-13500000D02*
X54500000Y-13500000D01*
X54500000Y-18500000D01*
X49500000Y-18500000D01*
X49500000Y-13500000D01*
%TO.C,U4*%
X61500000Y-13500000D02*
X66500000Y-13500000D01*
X66500000Y-18500000D01*
X61500000Y-18500000D01*
X61500000Y-13500000D01*
%TO.C,U5*%
X13500000Y-25500000D02*
X18500000Y-25500000D01*
X18500000Y-30500000D01*
X13500000Y-30500000D01*
X13500000Y-25500000D01*
%TO.C,U6*%
X25500000Y-25500000D02*
X30500000Y-25500000D01*
X30500000Y-30500000D01*
X25500000Y-30500000D01*
X25500000Y-25500000D01*
%TO.C,U7*%
X37500000Y-25500000D02*
X42500000Y-25500000D01*
X42500000Y-30500000D01*
X37500000Y-30500000D01*
X37500000Y-25500000D01*
%TO.C,U8*%
X49500000Y-25500000D02*
X54500000Y-25500000D01*
X54500000Y-30500000D01*
X49500000Y-30500000D01*
X49500000Y-25500000D01*
%TO.C,U9*%
X61500000Y-25500000D02*
X66500000Y-25500000D01*
X66500000Y-30500000D01*
X61500000Y-30500000D01*
X61500000Y-25500000D01*
%TO.C,U10*%
X13500000Y-37500000D02*
X18500000Y-37500000D01*
X18500000Y-42500000D01*
X13500000Y-42500000D01*
X13500000Y-37500000D01*
%TO.C,BT1*%
X25500000Y-37500000D02*
X30500000Y-37500000D01*
X30500000Y-42500000D01*
X25500000Y-42500000D01*
X25500000Y-37500000D01*
%TO.C,ANT1*%
X37500000Y-37500000D02*
X42500000Y-37500000D01*
X42500000Y-42500000D01*
X37500000Y-42500000D01*
X37500000Y-37500000D01*
%TD*%
M02*
