%TF.GenerationSoftware,KiCad,Pcbnew,10.0.5*%
%TF.CreationDate,2026-08-09T12:16:28-05:00*%
%TF.ProjectId,edge_io_rings,65646765-5f69-46f5-9f72-696e67732e6b,0.4.0-cont-vii*%
%TF.SameCoordinates,Original*%
%TF.FileFunction,Other,User*%
%FSLAX46Y46*%
G04 Gerber Fmt 4.6, Leading zero omitted, Abs format (unit mm)*
G04 Created by KiCad (PCBNEW 10.0.5) date 2026-08-09 12:16:28*
%MOMM*%
%LPD*%
G01*
G04 APERTURE LIST*
%ADD10C,0.050000*%
G04 APERTURE END LIST*
%TO.C,U*%
D10*
X13000000Y-13000000D02*
X19000000Y-13000000D01*
X19000000Y-19000000D01*
X13000000Y-19000000D01*
X13000000Y-13000000D01*
%TO.C,U1*%
X25000000Y-13000000D02*
X31000000Y-13000000D01*
X31000000Y-19000000D01*
X25000000Y-19000000D01*
X25000000Y-13000000D01*
%TO.C,U2*%
X37000000Y-13000000D02*
X43000000Y-13000000D01*
X43000000Y-19000000D01*
X37000000Y-19000000D01*
X37000000Y-13000000D01*
%TO.C,U3*%
X49000000Y-13000000D02*
X55000000Y-13000000D01*
X55000000Y-19000000D01*
X49000000Y-19000000D01*
X49000000Y-13000000D01*
%TO.C,U4*%
X61000000Y-13000000D02*
X67000000Y-13000000D01*
X67000000Y-19000000D01*
X61000000Y-19000000D01*
X61000000Y-13000000D01*
%TO.C,U5*%
X13000000Y-25000000D02*
X19000000Y-25000000D01*
X19000000Y-31000000D01*
X13000000Y-31000000D01*
X13000000Y-25000000D01*
%TO.C,U6*%
X25000000Y-25000000D02*
X31000000Y-25000000D01*
X31000000Y-31000000D01*
X25000000Y-31000000D01*
X25000000Y-25000000D01*
%TO.C,U7*%
X37000000Y-25000000D02*
X43000000Y-25000000D01*
X43000000Y-31000000D01*
X37000000Y-31000000D01*
X37000000Y-25000000D01*
%TO.C,U8*%
X49000000Y-25000000D02*
X55000000Y-25000000D01*
X55000000Y-31000000D01*
X49000000Y-31000000D01*
X49000000Y-25000000D01*
%TO.C,U9*%
X61000000Y-25000000D02*
X67000000Y-25000000D01*
X67000000Y-31000000D01*
X61000000Y-31000000D01*
X61000000Y-25000000D01*
%TO.C,U10*%
X13000000Y-37000000D02*
X19000000Y-37000000D01*
X19000000Y-43000000D01*
X13000000Y-43000000D01*
X13000000Y-37000000D01*
%TO.C,BT1*%
X25000000Y-37000000D02*
X31000000Y-37000000D01*
X31000000Y-43000000D01*
X25000000Y-43000000D01*
X25000000Y-37000000D01*
%TO.C,ANT1*%
X37000000Y-37000000D02*
X43000000Y-37000000D01*
X43000000Y-43000000D01*
X37000000Y-43000000D01*
X37000000Y-37000000D01*
%TD*%
M02*
