%TF.GenerationSoftware,KiCad,Pcbnew,10.0.5*%
%TF.CreationDate,2026-08-09T14:46:53-05:00*%
%TF.ProjectId,dock,646f636b-2e6b-4696-9361-645f70636258,0.5.0-cont-viii*%
%TF.SameCoordinates,Original*%
%TF.FileFunction,Other,User*%
%FSLAX46Y46*%
G04 Gerber Fmt 4.6, Leading zero omitted, Abs format (unit mm)*
G04 Created by KiCad (PCBNEW 10.0.5) date 2026-08-09 14:46:53*
%MOMM*%
%LPD*%
G01*
G04 APERTURE LIST*
%ADD10C,0.050000*%
G04 APERTURE END LIST*
%TO.C,JUSB1*%
D10*
X35000000Y-35000000D02*
X41000000Y-35000000D01*
X41000000Y-41000000D01*
X35000000Y-41000000D01*
X35000000Y-35000000D01*
%TO.C,UPD1*%
X59000000Y-35000000D02*
X65000000Y-35000000D01*
X65000000Y-41000000D01*
X59000000Y-41000000D01*
X59000000Y-35000000D01*
%TO.C,UCHG1*%
X83000000Y-35000000D02*
X89000000Y-35000000D01*
X89000000Y-41000000D01*
X83000000Y-41000000D01*
X83000000Y-35000000D01*
%TO.C,U3V3*%
X107000000Y-35000000D02*
X113000000Y-35000000D01*
X113000000Y-41000000D01*
X107000000Y-41000000D01*
X107000000Y-35000000D01*
%TO.C,C1*%
X131000000Y-35000000D02*
X137000000Y-35000000D01*
X137000000Y-41000000D01*
X131000000Y-41000000D01*
X131000000Y-35000000D01*
%TO.C,C2*%
X35000000Y-59000000D02*
X41000000Y-59000000D01*
X41000000Y-65000000D01*
X35000000Y-65000000D01*
X35000000Y-59000000D01*
%TO.C,R1*%
X59000000Y-59000000D02*
X65000000Y-59000000D01*
X65000000Y-65000000D01*
X59000000Y-65000000D01*
X59000000Y-59000000D01*
%TO.C,D1*%
X83000000Y-59000000D02*
X89000000Y-59000000D01*
X89000000Y-65000000D01*
X83000000Y-65000000D01*
X83000000Y-59000000D01*
%TO.C,R2*%
X107000000Y-59000000D02*
X113000000Y-59000000D01*
X113000000Y-65000000D01*
X107000000Y-65000000D01*
X107000000Y-59000000D01*
%TO.C,DESD1*%
X131000000Y-59000000D02*
X137000000Y-59000000D01*
X137000000Y-65000000D01*
X131000000Y-65000000D01*
X131000000Y-59000000D01*
%TD*%
M02*
